<?xml version="1.0" standalone="no"?>
<!DOCTYPE svg PUBLIC "-//W3C//DTD SVG 1.1//EN" "http://www.w3.org/Graphics/SVG/1.1/DTD/svg11.dtd" >
<svg xmlns="http://www.w3.org/2000/svg" xmlns:xlink="http://www.w3.org/1999/xlink" version="1.1">
<metadata></metadata>
<defs>
<font id="true_crimesregular" horiz-adv-x="825" >
<font-face units-per-em="2048" ascent="1638" descent="-410" />
<missing-glyph horiz-adv-x="817" />
<glyph horiz-adv-x="0" />
<glyph horiz-adv-x="682" />
<glyph unicode=" "  horiz-adv-x="817" />
<glyph unicode="&#x09;" horiz-adv-x="817" />
<glyph unicode="&#xa0;" horiz-adv-x="817" />
<glyph unicode="!" horiz-adv-x="688" d="M416 1434q31 0 45 -23q2 -10 0 -19.5t0 -19.5q0 -4 -1 -9t7 -9q6 -4 16 2q14 14 16.5 32.5t22.5 26.5q8 8 19.5 4t21.5 2v-2q10 0 22.5 -1t22.5 -1l4 -2q4 2 9.5 0t9.5 -2q16 -8 22 -22q4 -18 -1 -28.5t-9 -27.5q-74 -229 -134 -464.5t-108 -462.5q-8 -4 -15 -9.5 t-17 -7.5q-23 -2 -44.5 0t-41.5 0q-29 0 -58.5 -2t-58.5 8q-4 6 -8 14.5t-8 18.5q-6 8 -16.5 11t-21 7.5t-17.5 10.5t-7 20q8 51 15.5 102.5t15.5 102.5q16 82 28.5 158t28.5 155q16 74 29.5 153t36.5 155q4 23 9 44t9 46q2 8 6 17t15 13q8 10 20 7.5t25 -0.5q25 2 46 0 t44 2zM227 338l2 -2q2 4 5.5 1t7.5 1q12 2 30.5 -2t30.5 -19q12 -12 35 -12q25 0 35 -14q-2 -10 0 -22.5t-2 -20.5q2 -4 1 -6t1 -4q-4 -2 -4 -9q0 -4 -4 -8q-6 -35 -13.5 -72.5t-11.5 -70.5h2q-4 0 -3 -6t-1 -9l2 3q-6 -31 -25 -50q-4 -4 -6 -5t-4 -5q-10 -2 -18 -5t-19 1 l-2 -2q-27 2 -54.5 1t-53.5 5q-14 6 -23 19q2 2 0 2t-2 4h-2q4 16 -12 28q-4 2 -10.5 -1t-10.5 -5q-4 -10 -10 -16q0 -6 -5 -11.5t-9 -9.5t-11.5 -3t-13.5 3q-16 10 -12 31t4 37q2 49 10 100.5t12 100.5q4 4 3.5 12t5.5 12q10 20 29.5 24.5t37.5 4.5q23 -2 44 -1t44 1z" />
<glyph unicode="0" horiz-adv-x="1284" d="M831 1432q-70 6 -151 -11q-20 -4 -41 -10t-35 -22q-4 -10 -6 -24.5t2 -25.5q6 -14 -10 -24q-6 -2 -10.5 0t-10.5 2q-10 10 -22 19.5t-29 4.5q-88 -33 -165 -92t-136 -137q-16 -16 -16 -39t-6 -43q-25 -41 -45.5 -82t-38.5 -86q-51 -121 -68.5 -260t18.5 -268 q18 -70 54.5 -135.5t91.5 -108.5q53 -43 116.5 -64.5t129 -24.5t129 10.5t118.5 37.5l2 -2l5 2q2 -2 0 -2t-2 -2l4 4v4l2 -2q23 16 40 22.5t40 22.5q2 2 4 1t2 3l2 -2q10 10 24.5 20.5t28.5 20.5q35 25 64.5 57.5t62.5 63.5q51 66 97 131.5t79 140.5q63 129 86 276.5 t-24 289.5q-27 84 -77 156.5t-124 119.5q-84 53 -182 60zM686 1262q0 -14 -11 -16.5t-20 -8.5q-4 -2 -9 -4t-11 2q-8 8 -2 18q6 8 16 12.5t21 8.5q16 0 16 -12zM854 934q18 -106 -12.5 -208.5t-77.5 -199.5q-29 -53 -68 -105t-98 -73q-39 -18 -88 -15t-80 32 q-25 16 -40 45.5t-19 56.5h-2q-4 16 -6.5 40.5t2.5 41.5l-3 2q2 6 3 14q0 10 4 21q-2 6 0 14l4 16q8 33 15 64t24 59q0 4 2 10.5t6 10.5l4 2q-4 2 -2 2t0 2q4 6 6 12t8 10q10 23 24.5 41.5t28.5 38.5q8 6 14.5 15.5t16.5 15.5q37 35 75 59.5t87 36.5q10 4 18.5 12.5 t8.5 20.5v10q2 4 0 3t-2 1q-2 10 -4.5 18.5t2.5 18.5q16 4 29.5 -3t27.5 -13q35 -20 60.5 -54t31.5 -75z" />
<glyph unicode="1" horiz-adv-x="684" d="M414 1434q6 -6 12 -7q4 -6 10 -12t2 -14q4 -10 2 -20.5t9 -16.5q23 0 29.5 21.5t21.5 31.5q10 4 21 8.5t24 1.5q18 -2 38.5 0.5t37.5 -2.5q12 -4 19 -14t7 -20q-2 -16 -7 -33t-7 -31q-8 -23 -17.5 -49.5t-15.5 -50.5l4 -4l-6 2q-4 -25 -13.5 -50.5t7.5 -50.5 q6 -10 11 -23.5t1 -29.5q-12 -47 -27.5 -97t-29.5 -100q-16 -57 -29.5 -114.5t-30.5 -112.5q-8 -39 -16 -71.5t-16 -71.5q-4 -2 -1 -4t-1 -2q0 -4 -1 -8.5t-1 -8.5v-6l-2 -2v2q-2 -2 -1 -3l1 -1q-4 -4 -3.5 -6t-1.5 -6q-2 -16 -7 -30.5t-7 -29.5h4q-10 -27 -12 -47 q-4 -14 -8 -29.5t-4 -29.5q-2 0 -3 -3t1 -3q-6 -23 -9.5 -41.5t-7.5 -40.5q0 -8 -3 -14.5t-3 -14.5l2 -2h-2q-4 -2 0 -4t-2 -2q-8 -49 -14 -94q-2 -6 -3 -13.5t-4 -11.5q2 -4 0 -6t3 -6q-2 -4 -5.5 -7t-3.5 -10l-2 3q-8 -12 -18 -17q-10 0 -18.5 -4t-16.5 0q-4 -2 -5 0t-5 2 q-6 -2 -17 -2q-2 2 -5 1t-7 1q-8 -4 -15 -1t-16 -1q0 2 -2 2q-2 -4 -2 -2q0 4 -2 2l-39 2q-8 0 -10 8.5t-8 12.5q-4 16 -1 32.5t-9 28.5q-6 2 -11.5 -1t-9.5 -7t-6 -12q-4 -2 -2 -6.5t-2 -8.5l-8 -20t-15 -19q-8 -2 -12 -5t-14 -1q-18 2 -31 25q10 111 20.5 218t20.5 220 q10 68 19.5 137.5t21.5 136.5q4 29 9 57.5t9 61.5v-2q4 20 8.5 46t4.5 48q-4 20 -21 31q-27 12 -51.5 24.5t-46.5 28.5q-8 8 -6 16.5t-2 18.5l16 31q78 70 152.5 141.5t128.5 163.5q4 4 9 8t5 8l4 3v-3q16 8 33 5.5t33 1.5z" />
<glyph unicode="2" d="M471 1425q61 -12 117.5 -43.5t93.5 -81.5q51 -59 74.5 -129.5t34.5 -146.5q6 -98 -16.5 -189.5t-67.5 -174t-106.5 -155.5t-133.5 -134q-6 -6 -12 -13.5t0 -17.5l10 -10q63 4 127 4h131q25 0 35 -17q4 -6 4 -14v-10v2q-4 -14 -7 -29.5t-20 -21.5q-16 -8 -30 -8 q-2 -4 -4.5 -2t-6.5 -3l-8 -4q0 -16 9.5 -21t21.5 -8t23.5 -8.5t15.5 -19.5q0 -20 -4 -36.5t-9 -37.5v-4v2q-4 -10 -9 -24.5t-9 -24.5v-4l-2 2q-4 -12 -15.5 -22.5t-21.5 -14.5q-35 -4 -68.5 -2t-68.5 0q-119 6 -237.5 2t-235.5 -6q-23 2 -35 16q-12 23 -6 43.5t12 42.5 q10 14 27.5 18.5t13.5 26.5q-8 12 -21.5 15.5t-17.5 19.5q2 33 7 65l10 64q2 10 8 19.5t10 19.5q16 16 27.5 28.5t27.5 29.5q156 172 267 391q16 35 26 72.5t4 78.5h-2q2 6 -1 14.5t-5 16.5q-20 45 -53 63h-8h2v3q-4 2 -8.5 5t-8.5 1l-2 2l2 -2v2q-2 4 -3 1t-1 -1l2 2 q-12 4 -21.5 5t-19.5 5q-49 4 -90 -12q-2 2 -6 2q-2 0 -6 2q-25 18 -25 43q0 27 -4 55q4 12 10.5 24.5t18.5 20.5q18 8 36.5 7t28.5 18q4 6 -1 9t-9 7q-10 10 -28.5 6t-32.5 -4h2q-12 4 -17 4q-6 4 -7 10.5t-7 8.5q-6 23 -7 48t-3 48q6 31 33.5 40t54.5 15q8 2 14 2t15 4 q23 4 45 5q23 0 47 4q23 -2 49 -2q28 -1 51 -7z" />
<glyph unicode="3" d="M733 1290q10 -16 20.5 -35.5t18.5 -42.5q2 -10 7 -22t5 -25q6 -16 7 -32q0 -16 4 -35q0 -78 -31 -148.5t-80 -130.5q-16 -23 -38.5 -43t-45.5 -39q-12 -12 -10 -20q-6 0 -1 -5t-3 -7q6 0 1 -7.5t3 -5.5q8 -29 24.5 -52.5t26.5 -51.5q27 -66 22.5 -144.5t-38.5 -144.5 q-51 -111 -152.5 -177.5t-214.5 -98.5q-23 -4 -46.5 -9.5t-47.5 -9.5q-10 2 -19.5 0t-21.5 -2q-20 -2 -37.5 -3t-40.5 3q-2 2 -10 14q-4 10 0 22.5t18 16.5q16 6 37 7t33 22q0 10 -12 14q-14 4 -23 0q-4 2 -10 1t-12 3q-4 4 -8.5 6.5t-8.5 6.5q-4 12 -2 22t6 21 q2 27 8.5 52.5t8.5 51.5l2 2q2 10 4 20.5t12 18.5l10 8q49 -4 92 11.5t78 44.5q27 23 42.5 54.5t8.5 65.5q-6 27 -27.5 46.5t-47.5 23.5q-10 2 -19.5 3t-15.5 1q-8 -2 -14.5 0t-12.5 -2q-8 4 -16 2t-14 4l-2 -2l-5 4q-12 12 -10 27q4 23 7 46.5t16 41.5q6 -4 6 2t4 2h-2v2h2 v-2q10 2 15 10.5t10 18.5q0 8 -6.5 13t-11.5 10t-7 11.5t2 16.5q4 8 8 14t10 11q16 6 33 5t35 7q49 16 94 54t56 91q4 25 -6.5 50.5t-32.5 39.5q-43 33 -99 27q-18 0 -37 14q-6 8 -6 19q0 12 -2 22q4 33 8.5 62.5t12.5 62.5q8 6 12 19q16 6 36.5 9t33.5 17q0 4 2 9.5t0 9.5 q-6 6 -15.5 7t-17.5 1h-16q-6 0 -13 4h2l-7 17.5t1 19.5q16 29 45 40t60 21q16 4 32.5 8.5t32.5 4.5q33 4 63.5 -0.5t59.5 -12.5q53 -16 100 -49t78 -80z" />
<glyph unicode="4" horiz-adv-x="1200" d="M571 1432l-2 2l2 -4q-4 -2 -10 -3q-6 0 -10 -6q-106 -129 -206.5 -267t-199.5 -277q-8 -16 -20 -29.5t-21.5 -27t-14.5 -29t3 -33.5q2 -16 -5 -20.5t-16.5 -6.5t-19.5 -4t-12 -12q-8 -12 -6 -24.5t2 -26.5l1 -2q1 -3 -3 -3h2l6 -38h-2q2 -6 3 -14.5t3 -16.5q2 -4 4 -6 t2 -6l-2 2l2 -2q6 -6 6 0q4 -6 4 -7q2 0 2 -4h-2v2q2 0 4.5 -2t4.5 2q10 -6 23 -5t22 -11q2 -12 -4.5 -18.5t-15.5 -10.5l-18 -8t-11 -16h-3v2q-6 -25 9 -47q10 -8 19 -10.5t22 -4.5q86 2 177 4t175 -2q20 -2 38.5 0t35.5 -4q20 -6 24 -30q-10 -72 -21.5 -143.5 t-19.5 -143.5q0 -27 -8 -53.5t8 -49.5v2q4 -4 4 -6q20 -16 48 -13t51 1q14 6 16 22.5t14 26.5q6 4 13.5 2t11.5 -2q8 -6 10 -14t4 -17q4 -8 12.5 -12t16.5 -8q10 4 21.5 1t21.5 5q16 27 43 33q4 0 8 3t8 1l-2 4q4 2 5 1t3 -1l-2 6q4 2 6.5 8.5t4.5 10.5q10 78 26.5 159.5 t32.5 161.5q4 23 8 42.5t8 41.5q10 49 22.5 103.5t25.5 107.5q4 39 20 74t25 72q0 4 3 10t1 12q35 127 69.5 252t77.5 248v4l2 -2q-2 14 4 31q0 18 -14 28l4 -6q-8 6 -16 10q-29 4 -60.5 6.5t-58.5 -6.5q-6 -10 -16.5 -19t-12.5 -24q-4 -6 -5 -13t-7 -11q-8 -6 -18 -2 q-8 14 -4 30.5t-13 26.5q-4 4 -8 5t-2 7q-33 -2 -72 -1t-69 1q-8 -2 -13.5 -5t-9.5 -5v-2q-4 -10 -13 -18.5t-22 -4.5q-16 8 -28.5 13.5t-28.5 9.5q-4 6 -10 7t-13 1q-18 10 -39.5 12.5t-44.5 2.5zM758 1327q2 -14 -10.5 -27.5t-22.5 -19.5q-4 -10 -12 -10q-14 -4 -15 10 q0 10 4 14h5q2 4 -2.5 2t0.5 2h2v5q2 0 4 4v2q4 10 12 15t18 15q13 0 17 -12zM664 948q-4 -6 -3 -14t-4 -14q-6 -41 -14 -81t-18 -79q-6 -12 -16.5 -16.5t-22.5 -4.5q-10 0 -22.5 2t-20.5 0q-20 2 -35.5 0t-32.5 11q-2 2 -2 10h2q-4 10 5 18t16 17h-2q4 10 11 17t13 15 q29 33 55.5 65t53.5 60q8 8 20.5 7t16.5 -13zM492 797l-3 -2z" />
<glyph unicode="5" horiz-adv-x="1007" d="M684 1434q72 -2 135.5 -1t134.5 -3q14 -6 23 -23q4 -16 -1 -29.5t-7 -27.5q-4 -6 -3 -13.5t-5 -11.5q2 -18 -13 -37q-20 -10 -22 -29.5t-8 -37.5q-10 -14 -24.5 -19.5t-31.5 -7.5q-4 -2 -14 -12q0 -10 6 -16.5t14 -10.5h2q10 -4 21.5 -8t11.5 -21q4 0 2 -5t2 -9l-22 -43 q-16 -14 -37 -8t-39 2h-104q-51 0 -105 -2q-8 4 -12 0q-10 -4 -20.5 -14.5t-10.5 -24.5q-12 -35 -21.5 -72t-19.5 -71q-4 -10 1 -16.5t9 -14.5q31 -18 66 -30.5t61 -41.5q31 -23 51.5 -53.5t40.5 -60.5q47 -86 42 -189.5t-52 -187.5q-35 -61 -86 -112.5t-114 -86.5 q-8 -8 -18.5 -11t-20.5 -12q-6 0 -10.5 -3l-10.5 -7v2q-4 -8 -16 -8q-10 0 -17 -6q-68 -27 -143.5 -37t-146.5 8q-31 8 -60 20.5t-53 39.5q-2 6 -4 11t-2 11q4 8 8 16.5t14 12.5q20 0 37 -9.5t37 -4.5q12 12 6 22q-16 18 -37.5 25.5t-38.5 23.5q-10 12 -10 25q0 14 3 27.5 t8.5 27.5t5.5 29q6 16 10 34.5t26 20.5q23 -2 40.5 -12t35.5 -13q57 -20 117 -10q45 6 86 32t55 73q4 6 5 14t3 14q4 16 1 28.5t-3 27.5q-8 12 -14 25.5t-16 23.5h-2l-4 6l-3 -4q2 2 -2 2q-2 0 2 4q-4 -2 -5 3t-5 5q-8 4 -17 8t-18 2q-10 10 -24 5q-10 0 -23.5 -2.5 t-25.5 -8.5q-12 -4 -23.5 1t-19.5 16q-20 31 -34.5 65.5t-35.5 69.5q2 8 2 16t4 13q0 4 3 5t7 5q14 6 33 11t23 22q-2 10 -21 18q-16 4 -34.5 3t-26.5 19q0 29 6 52.5t10 52.5l12 57q-14 49 0.5 94.5t20.5 92.5q4 6 4 12q0 8 4 14q2 6 2 15q0 8 2 14q4 4 2 9t2 9 q8 33 14.5 66t14.5 61q4 8 11 11.5t12 9.5q23 4 40 3t37 1q23 10 44.5 16t43.5 9q20 -2 37 0t35 0q23 0 43.5 1t42.5 3q4 -4 12 0q16 0 35 -1t35 1z" />
<glyph unicode="6" horiz-adv-x="915" d="M625 1405q8 -18 -3.5 -28.5t-5.5 -26.5q10 -4 19.5 -1t18 10t16.5 15t16 12q18 8 34.5 -3t33.5 -15v2h2v-2q4 -4 12 -8t18 -6q4 -6 10.5 -8.5t10.5 -8.5q4 -14 15.5 -21t25.5 -11q4 -4 10 -6.5t10 -6.5q8 -4 10.5 -11t8.5 -11q-4 -2 -4 -6t-4 -7l-2 -10 q-35 -29 -66 -59.5t-66 -63.5l-7 -7t-7 -9q-37 -37 -68.5 -72t-64.5 -75v-3v3q-25 -27 -44 -54.5t-42 -56.5q0 -2 -1 -1t-1 -1q-4 -8 -7 -12.5l-7 -10.5q2 -4 -4 -10l-3 2v-4v2q-2 -2 -2 -4h2l-6 -6q-37 -55 -67.5 -117.5t-48.5 -132.5l-2 -2q-6 -31 -9.5 -69t4.5 -68 q0 -45 25 -72v-4h2h-2q12 -16 29.5 -29.5t36.5 -13.5q4 4 6 0t6 0q4 -4 12 -4q4 4 5 2t5 -2v6q0 -4 9 -4q35 8 57 30.5t37 55.5q10 33 6 69.5t-27 65.5q-18 25 -47 29h2q-4 6 -8 5t-14 3q-4 4 -6 1t-7 1q-18 0 -30 16l-4 33q4 16 9 27.5t21 15.5q18 4 36 0t32 10 q4 6 -1 11.5t-9 9.5q-8 0 -15.5 3t-15.5 3t-16 4q-6 2 -8.5 4t-6.5 8q-10 14 -4 28.5t6 29.5q6 10 9.5 23.5t9.5 21.5q-2 2 -2 12v-2q20 6 43 10q29 2 57.5 1t56.5 -11q80 -23 140.5 -87t78.5 -144q14 -59 10.5 -116.5t-22 -113t-49.5 -104.5t-68 -90q-59 -61 -133.5 -103.5 t-162.5 -52.5q-29 -2 -56 -2t-53 8q-2 2 -8 2q-4 0 -6 2q-57 12 -107.5 48t-81.5 83l-4 4q-25 37 -47.5 81t-32.5 91q-29 102 -18.5 212t45.5 210q29 88 75 164t93 152q23 35 46 65.5t50 65.5q4 10 13.5 18t15.5 19q8 8 16 24h4q31 39 70 81t78 83q4 -2 3 2t3 4 q10 6 18 11.5t18.5 1t24 -8.5t17.5 -18zM459 297l2 2zM453 295v2h2z" />
<glyph unicode="7" horiz-adv-x="931" d="M616 1427q-106 4 -220.5 3.5t-225.5 3.5q-18 -6 -36.5 -2t-35.5 -11q-4 -8 -8 -14t-4 -14q-2 -4 -3 -3t1 -4q-8 -10 -4 -30q4 -4 3 -7t3 -8q16 -4 33.5 -6t32.5 -12q10 -6 4 -12t-6 -11q-16 -10 -36 -9t-40 -5v2q-8 -4 -11 -6l3 -2l-7 -4q-4 -8 -5 -15.5t-5 -15.5 q-4 -25 -10 -48t-6 -52q2 -8 14 -17q4 -8 4 -14t-2 -14q-4 -10 1 -19.5t11 -15.5v2q20 -8 43 -5t46 1q31 2 59.5 1t56.5 -3q18 -2 40 0t38 -6q18 -6 14 -27l-26 -78q-4 -6 -4 -10q0 -2 -4 -10q-82 -223 -148.5 -438.5t-120.5 -446.5q4 -6 5 -14t6 -13q6 -4 14 -7t12 1l2 -2 l2 2q4 -8 6 -1t7 -3q4 4 9 3t9 1q10 6 17.5 14.5t15.5 16.5q-6 0 -2 3t2 5q2 6 10 19q8 6 18 6q16 -4 12.5 -16.5t-1.5 -22.5q-2 -4 -3 -11.5t3 -9.5h2q2 -4 4 -4t6 -2l-4 -4q8 2 15 -2t16 -4q23 4 45 1t47 3q35 14 45 41h-2q61 246 150 475.5t237 435.5q23 16 16 50 q-4 12 -15 16t-18 16q4 12 11 17q20 4 38.5 0t41.5 0q10 4 13 10t9 14l31 111q4 10 4 24q-2 20 -19.5 23.5t-29.5 13.5l4 2q-2 0 -3 1l-1 1q-6 10 6 23q4 2 6 2t6 4v-2q4 4 11.5 7t9.5 11q6 20 11 42t11 42q-2 6 -3 14.5t-5 12.5q-4 0 -9 4t-9 2q-29 0 -56.5 3t-58.5 3h-8 q-25 2 -47 2q-23 0 -45 2q-4 -2 -6.5 0.5t-8.5 -2.5q-8 2 -15 1t-16 4v-3zM674 1047q4 -20 -10.5 -38t-26.5 -32q-8 -8 -14 -2q0 4 -3.5 9t3.5 7v2h-2q4 18 12 34.5t24 29.5q4 2 10.5 -2t6.5 -8z" />
<glyph unicode="8" horiz-adv-x="1048" d="M952 1288q-47 78 -129 114t-172 32q-41 -4 -80 -9.5t-77 -17.5q-2 -4 -6.5 -5t-8.5 -3q-2 -4 -7 -6t-3 -7h-4q0 -4 4 -4q-6 -8 -4 -19t6 -22q2 -12 8 -25t0 -24q-4 -4 -8 -4h-8q-4 2 -8 6t-6 4q0 4 2 5q-16 14 -26.5 12t-27.5 0h2l-2 -2l-2 2q0 -4 -2 -2t-4 -2 q-66 -47 -111 -100.5t-73 -125.5q-31 -80 -29 -161.5t43 -155.5q10 -18 23.5 -34.5t23.5 -33.5v5q2 -2 2 -13q-6 -4 -6 -12q0 -6 -10 -10q-68 -41 -120 -102.5t-79 -135.5q-29 -88 -9.5 -183t91.5 -159q4 -4 7 -8t8 -6q4 -8 11 -12.5t13 -10.5l2 2q0 -4 6 -4 q25 -18 55.5 -28.5t59.5 -16.5q43 -8 91 -6t91 14v-2l4 4q4 -4 6.5 1.5t6.5 0.5q2 2 6 2v-2q4 4 6 5q23 8 44 18t44 22q57 35 108.5 86.5t81.5 112.5h2q4 14 10.5 26.5t8.5 26.5q20 78 9 162t-66 146q-4 10 3 17t9 15v-2q4 10 10 14.5l14 10.5q6 2 10.5 7t10.5 7 q45 39 84 85t67 100q6 14 13.5 27.5t11.5 27.5q33 86 29.5 182t-60.5 174zM606 1249q4 -2 12 -2q8 -8 5 -14l-7 -4q-23 -4 -40 -10.5t-37 -1.5l-2 2h-2l-5 4l1 -1t1 -3v14q0 8 11 12q16 6 32 6q17 0 31 -2zM571 1083h2q4 -2 5.5 -6t7.5 -2q-4 0 0 -3t6 -1q4 -4 4 -6l2 2 l1 -2q1 -2 3 0q4 4 9 -1t10 -5q8 -4 13 -13.5t9 -17.5q2 -10 3 -23.5t-1 -27.5q-4 -31 -20.5 -59.5t-42.5 -45.5q-16 -6 -29 2q-33 39 -39 90.5t16 92.5q2 2 2 4t5 4v-2q4 2 3 4t3 6t9 8t9 6l4 -2q2 0 6 -2zM506 471q8 -18 12 -33.5t0 -34.5q0 -23 -10 -41q-6 -23 -25 -45 q-6 0 -8 -5t-8 -5q-10 -10 -26.5 -18t-34.5 -2q-12 2 -21.5 11t-15.5 19q4 4 1 3t-3 4q-4 2 0 6q-6 6 -5.5 17t-1.5 22q0 12 5.5 22t7.5 21q2 -2 3 1t1 7l-2 -2l2 2h2q10 23 30.5 41t39.5 31q39 12 57 -21z" />
<glyph unicode="9" horiz-adv-x="1044" d="M885 1298q39 -43 64.5 -95t41 -109.5t19.5 -114.5t0 -111q0 -8 -2 -10q0 -14 -2 -28.5t-5 -28.5h-2q-4 -41 -16 -79t-29 -75q-4 -2 -3 -4t-1 -4q-18 -47 -41.5 -91t-50.5 -85q-45 -80 -97 -147.5t-112 -133.5q-41 -47 -89 -88t-95 -78q-6 0 -14.5 -3t-14.5 -5 q-31 -10 -60.5 -8t-60.5 0q-4 4 -9 8t-7 8q-4 16 9.5 24.5t6.5 27.5q-2 6 -10 6q-6 0 -10 -2q-27 -10 -45.5 -31t-44.5 -25q-14 -4 -29.5 -2t-32.5 2q-6 4 -14 8.5t-6 14.5q-2 10 6 15t14 9q109 92 201 201t162 238q20 41 40.5 77.5t35.5 77.5q6 10 10 23.5t8 26.5h2 q0 10 6 22t10 23q2 4 1 9t4 7q-4 2 -2 5t4 5q10 37 16 75t2 81q-4 8 -3 20.5t-3 22.5q-10 33 -29.5 56.5t-54.5 29.5q-6 0 -8 3t-6 1q-4 4 -6.5 1t-6.5 1q-29 4 -57.5 -8t-48.5 -35q-55 -61 -43 -143q6 -8 5 -16.5t7 -18.5q4 -10 16.5 -23.5t22.5 -17.5q18 -20 53 -21h4h-2 l2 -2q2 0 5.5 1t5.5 1q2 -2 3 -1l1 1q2 2 4 0t6 0h2q2 0 1 2.5t1 -0.5v-2q6 0 11 -2l10 -4q8 -6 9 -13t1 -15q-6 -8 -7 -17.5t-10 -13.5q-8 -10 -19 -8t-15 -8q-8 -8 -5 -23q10 -10 8.5 -22.5t2.5 -24.5q-8 -20 -15.5 -43t-17.5 -41l2 -2q-4 -4 -8 -10.5t-8 -10.5 q-10 -10 -23.5 -15t-23.5 -1q-4 -2 -5 -2q0 2 -4 2q-63 -4 -127.5 19.5t-109.5 64.5q-10 8 -20.5 21.5t-20.5 21.5q-4 10 -9.5 16.5t-9.5 16.5q-16 27 -28.5 58.5t-18.5 64.5q-16 63 -12 124.5t25 127.5q23 74 66.5 134t94.5 113q8 4 15.5 11.5t15.5 13.5q92 72 203 102 q4 2 8 2t8 2q68 12 144.5 6t142.5 -36q66 -38 121 -97zM623 774l2 -2z" />
<glyph unicode="?" horiz-adv-x="780" d="M549 1393q4 -2 7 -6.5t7 -0.5q23 -18 43.5 -32.5t40.5 -36.5q35 -39 57.5 -87t33 -101.5t8 -107.5t-14.5 -103q-4 -25 -13 -47.5t-18 -45.5q-8 -16 -12 -22v-6q-18 -39 -44 -74t-55.5 -67.5t-58 -64.5t-53.5 -65q-12 -18 -22.5 -35.5t-20.5 -36t-31.5 -24.5t-31.5 -27 l-2 -4h2l2 2l-6 -4q-4 0 -6.5 -3t-6.5 -3q-12 -2 -22 -10v2q-16 4 -29.5 3t-30.5 3q-20 -4 -41.5 3t-40.5 20q-6 2 -11 -1t-9 -8q-14 -20 -39 -18q-10 0 -21.5 4t-17.5 17q-8 8 -6 17t2 17q39 111 98.5 212.5t137.5 189.5l-2 4q10 4 13 11t9 15q16 35 15 73t-21 69 q-23 39 -61.5 58.5t-83.5 17.5q-33 -2 -64 -13q-16 -2 -25.5 5.5t-19.5 17.5q-2 20 -11.5 38.5t3.5 37.5q6 12 17 17t22.5 9t18.5 11.5t3 23.5q-10 8 -21.5 7t-21.5 -2t-20.5 1t-16.5 17l-14 63q0 6 4 8t2 10q14 10 28.5 17.5t20.5 23.5l15 11q92 33 193.5 40t195.5 -20z M252 313l2 -12q0 -4 2 -10t8 -10q14 -6 25 8q4 4 6 12t10 6q8 8 19.5 9t23.5 6q6 2 12 2q8 0 17 -7q10 -2 18 -18h2q-4 -20 -9 -43t-9 -43q-8 -33 -13.5 -67.5t-7.5 -69.5q-4 -8 -1 -14.5t-1 -14.5q-6 -25 -26 -37q-10 -6 -21 -6q-10 0 -20 -4q-47 2 -89 1t-89 1 q-29 6 -45 33q-10 8 -22.5 16t-10.5 25q0 23 5 42t7 42q4 4 2 11t2 11q8 33 13.5 61.5t17.5 57.5q4 12 13 18.5t20 12.5q23 2 49 2q29 0 53 2v2q10 -4 21.5 -9.5t15.5 -15.5z" />
<glyph unicode="A" horiz-adv-x="1150" d="M1100 1391q-2 16 -14.5 27.5t-24.5 15.5q-12 -4 -24.5 -1t-24.5 -1l-15 -13q-12 -10 -22 -1t-21 12q-4 -2 -5 1t-3 1q-18 4 -30.5 1t-30.5 1q-16 -8 -26.5 -19.5t-27.5 -7.5q-8 4 -12 9t-12 3v2h-23q-4 -4 -8 -6t-8 -6q-47 -72 -94 -146.5t-90 -150.5 q-68 -113 -133.5 -227.5t-126.5 -231.5q-53 -96 -97.5 -192t-97.5 -195v2v-2q-16 -43 -38.5 -85t-39.5 -83h-2q-4 -12 -9 -24.5t-7 -26.5q-2 -10 4 -17l12 -14q18 -12 39 -5t35 18q16 6 25.5 -5.5t23.5 -13.5q8 0 18.5 -1t16.5 7q8 6 17 2t18 -6q10 0 19 -2t18 2q4 -2 2 -2 t-2 -2h6l-4 4q4 4 4 2t4 -4q6 8 14 12.5t14 14.5q20 35 39 70.5t37 70.5q4 12 13.5 15.5t17.5 11.5q41 4 88 3t88 3q8 4 18.5 6t18.5 10q27 10 54.5 8t56.5 1q8 -6 20 -7.5t14 -15.5q2 -37 2 -80t4 -90q4 -6 8.5 -13t6.5 -16q8 -10 18 -10t21 -4q4 4 7 2t7 2q2 -2 0 -3t0 -1 l2 4q2 0 5 -1t5 1q23 16 49.5 11t51.5 -5h8v0q2 0 2 -2q14 0 23.5 10.5t15.5 20.5q8 8 18 0q0 -14 15 -25q10 -8 26 -4q8 2 11.5 8.5t5.5 10.5q-2 8 4 13t2 13q-6 4 -1 7.5t1 7.5q2 14 2 26q0 14 2 29q6 129 10 246.5t6 246.5q2 4 0 9.5t0 9.5q0 31 1 58.5t-1 56.5l2 6 q-4 47 -2 93t-2 95q0 111 -6 221.5t-12 223.5zM754 743q-2 -8 1 -12t-1 -10q4 -4 0 -6q2 -10 4 -19.5t0 -19.5h2l-2 -4q0 -8 2 -10q4 -12 2 -19.5t2 -21.5l-2 -9q2 2 2 -2v-2l-2 -2l2 -2q0 -2 1 -9t1 -13q-2 -10 1 -25.5t4 -31t-5 -28t-25 -16.5q-31 0 -70.5 1t-70.5 1 q-4 2 -9 3t-7 6q2 20 12 35.5t18 29.5q29 47 57.5 96t57.5 97q8 8 14 12q8 2 9.5 -6.5t1.5 -12.5zM776 403q0 -14 -10 -16q-14 -2 -31 -2q-16 0 -26 10l-2 4h-2q-4 4 -2 5.5t2 3.5q2 0 4 3t4 1q12 2 23.5 6t23.5 0q4 0 10 -4.5t6 -10.5z" />
<glyph unicode="B" horiz-adv-x="1105" d="M848 1397q-92 25 -182.5 32t-192.5 5q-31 4 -63.5 -8.5t-63.5 -8.5q-2 2 -3 -1t-1 1q-23 -4 -45.5 0t-42.5 -10q-16 -6 -16 -23v-26q-12 -25 -25.5 -50.5t-13.5 -54.5h-2h4q-4 -6 -2 -14l4 -16q-4 -8 -4 -15l-6 -6v-2q-6 -8 -10.5 -15t-8.5 -18q-2 -20 -10 -40.5t8 -39.5 q6 -16 21 -16q14 0 24 -6q14 0 21 -4q4 2 9 -1t9 -3q8 -16 1 -32.5t-11 -33.5q-2 -10 -8.5 -13t-14.5 -3q-6 0 -13 -1t-13 -5q-27 -12 -30 -39t-13 -49q-2 -6 -1 -11.5t-3 -9.5q-8 -35 -14.5 -68.5t-10.5 -68.5q-14 -66 -23.5 -132.5t-21.5 -129.5q-12 -94 -24.5 -183.5 t-24.5 -185.5q0 -16 -2 -34.5t8 -31t26 -12.5t27 4q0 4 2 2l2 -2q0 6 4 5q4 8 11.5 15t11.5 17q4 -2 5 1t5 -1h-2q4 0 5 -1t3 -1v2q12 -4 15.5 -14t5.5 -21h2q10 -6 8 -10q8 -4 10 -8v2q8 -4 19 -4q10 0 18 4v-2l6 4v-2l2 2q10 16 28.5 10t35.5 -4q2 2 4 0t2 2l2 -4 q10 4 19.5 11.5t15.5 15.5v-2q4 8 5 15t5 16l-2 -3l2 17q-2 4 2 8t0 6q4 6 3 11.5t1 11.5q4 10 2 17t8 13q10 10 19 -4q10 -25 10 -47q6 -16 8 -32.5t13 -26.5q18 -16 41.5 -19.5t44.5 2.5q4 -4 9 0.5t9 -2.5q14 4 29 5q16 0 30 6q59 10 119 34.5t114 61.5t97 88t68 113 q31 68 28.5 147.5t-37.5 144.5q-4 4 -6 8.5t-6 8.5q-2 6 -9 13t-11 16q4 2 1 3t-1 1h-2l-33 37l-2 4q-10 4 -17.5 11t-15.5 13l6 6l2 -2q43 31 85 67t71 83q45 63 54 147t-13 156q-18 41 -45 81t-62 68q-6 0 -6 7v-3q-4 4 -8 6.5t-4 6.5v-2q-14 6 -25.5 14t-25.5 12 q-10 6 -18.5 9.5t-18.5 7.5zM653 1065q23 -10 42.5 -28.5t21.5 -47.5v-16h-2q0 -10 -3 -24.5t-12 -20.5q2 -10 -5 -19.5t-11 -17.5q-14 -14 -29.5 -28.5t-31.5 -24.5q-4 -2 -7 -2q-2 0 -6 -5v3q-4 -4 -9 -5.5t-11 -5.5q-2 0 -4 -2t-4 -2q-14 -6 -26.5 -4t-29.5 -2q-2 4 -5 1 t-7 1q4 6 -1 5t-5 3q-4 23 4 43.5t12 42.5q6 18 10.5 37t10.5 35q4 2 2 5t0 5q2 8 5 14.5t5 16.5v-2q2 12 10 27q12 14 33 18t41 0h12zM481 1055q2 -6 -3 -13.5t-3 -13.5q-2 -4 -4 -7t0 -9q-4 -2 -6 -7.5t-5 -9.5t-6 -6t-12 2q-2 2 -3 6t3 8.5t2 8.5t0 8q4 12 6.5 24.5 t12.5 18.5q14 0 18 -10zM606 565q23 -35 16.5 -79t-26.5 -78q-16 -18 -27.5 -36t-31.5 -30q-4 -4 -10.5 -7t-8.5 -7q-8 -4 -13 -7.5t-11 -1.5q2 -4 -2 -4h-5q-4 2 -6 -3t-2 1q-2 2 -4 0t0 -2q-10 -2 -15 -4t-16 -2l-2 4q-4 -4 -6 -3t-4 1l-10 2q-4 0 -5 1t-5 1q-14 0 -15 15 q-4 -2 -3 1t-1 5q10 55 21.5 108.5t21.5 110.5q4 8 6 18.5t9 16.5q0 4 5 9t9 5v2l2 -2q6 6 18.5 5t18.5 3q29 0 58.5 -8t43.5 -35z" />
<glyph unicode="C" horiz-adv-x="999" d="M897 1421q18 -2 38.5 -3t31.5 -23l2 -9q-4 -20 -7.5 -38.5t-7.5 -36.5q-4 -10 -11 -20.5t-11 -22.5q0 -8 -6 -14.5t-2 -16.5q-2 -10 -4 -18.5t-5 -16.5q-4 -4 -4 -12q4 -8 4 -21q0 -12 5 -22q-6 -16 -7 -35q0 -16 -14 -27q-14 -16 -33.5 -14t-36.5 -4q-29 -2 -55 -13.5 t-51 -25.5q-57 -35 -104.5 -79t-86.5 -95q-10 -14 -25 -22.5t-26 -24.5l-4 -2q-29 -35 -50 -73t-32 -79q-6 -8 -7 -20t-7 -23q-6 -35 -7 -73.5t11 -73.5q0 -12 5 -20.5t7 -16.5q23 -37 59 -69.5t83 -43.5q20 -4 40.5 -8t41.5 0q25 -2 46 3t46 -3q8 -8 12 -29q0 -6 -3 -9 t-3 -11l4 4q-4 -10 -5 -19.5t5 -17.5q4 -8 2 -12h2q2 0 2 2q-2 -4 -1 -6t-1 -6q2 -2 2 -6q-2 2 -4 2q-2 -4 0 -5.5t0 -5.5q0 2 -2 4q-6 -10 -6 -24q0 -12 -15 -19q-12 -12 -27.5 -11t-19.5 -17v4l-4 -4q4 -4 2 -7t4 -8q4 -2 8.5 -7t10.5 -5q-4 -4 2 -14q6 -8 3 -15.5 t-1 -17.5q-8 -18 -24.5 -28.5t-34.5 -10.5q-14 -4 -28.5 -3t-31.5 -3q-121 -4 -232.5 37t-189.5 137q-12 29 -31.5 50.5t-29.5 49.5q-6 23 -14.5 45.5t-10.5 45.5q-20 80 -20 165q0 16 2 25q0 35 5 62.5l11 60.5t15.5 62.5t19.5 58.5q31 98 88 182q-2 2 0 5t4 5l55 86 q29 39 65 77t64 69q16 12 23 20q16 16 36.5 29.5t39.5 30.5h-2q6 2 16 8t17 12h2q4 4 9 6t9 6h2q66 39 142.5 64.5t154.5 32.5q4 4 8 0q18 4 39 -1.5t39 -9.5zM911 1186l2 -4z" />
<glyph unicode="D" horiz-adv-x="1196" d="M563 1432q-39 0 -74.5 -1t-76.5 3q-16 -2 -36 -1t-36 -1q-35 -2 -62.5 2t-60.5 -13q-20 -12 -28.5 -32.5t-12.5 -42.5q-4 -4 -3 -9.5t-3 -7.5q0 -4 1 -6t-1 -6q4 -14 2 -27.5t-5 -26t-6 -25.5t1 -28q0 -4 3 -5t-1 -5q4 -4 6 -2q6 -4 15.5 -6t9.5 -10q4 -14 -5 -23 q-12 -6 -26 -9t-23 -17q-6 -12 -2 -33q14 -23 41 -19t45 2q10 -4 15 0l2 -2l6 2q6 0 10 -4l2 4q10 -4 14 0q4 -2 9.5 -1t9.5 -3t7 -11t-1 -11q-4 -14 -7 -28.5t-22 -18.5q-10 6 -9 15t-3 19l-3 4q-3 3 1 3l-14 14q-4 2 -8.5 1t-8.5 3q-25 0 -35 -27q-10 -35 -19 -71.5 t-13 -73.5q-10 -29 -13.5 -60.5t-9.5 -60.5q-10 -47 -17 -95t-16 -95q-4 -23 -8 -46.5t-6 -43.5q-10 -45 -15 -97.5t-14 -103.5q0 -27 -5 -54.5t-7 -56.5q-2 -10 -3 -22t-3 -23q-2 -18 -4 -35.5t0 -33.5q-8 -23 2 -39q6 -6 14 -12.5t19 -6.5q16 -4 28.5 6.5t28.5 4.5 q10 -18 29.5 -19.5t36.5 -3.5q29 12 54 7t48 7v-4l4 2h-4l2 4l2 -2l2 4q4 -4 3 -3t3 3q-2 0 -2 5q6 4 9 10t6 10l4 4q6 14 8 32.5t6 35.5q-2 4 2 3t0 3q8 8 14 8q10 -2 14.5 -11t8.5 -20q-6 -6 2 -6q2 -16 6 -32.5t16 -28.5q8 -4 19 -4h22q12 4 24.5 3t25 -4t24.5 -4.5 t25 3.5l4 -2v2q117 31 223.5 103.5t177.5 176.5q10 12 18.5 25.5t18.5 25.5q4 12 11.5 20.5t13.5 20.5q41 66 74.5 138.5t54 152.5t23.5 166t-15 166q-2 4 -1 9t-3 9q2 16 -5.5 27.5t-7.5 26.5q-10 31 -25 60.5t-32 55.5q-31 49 -74 94.5t-96 69.5q-41 20 -85 31.5t-85 15.5 q-6 2 -13 4t-13 -2l-2 2l-5 -2v2q-4 0 -7 2t-7 -2l-2 4v-4h-2v2q-10 2 -16.5 1t-16.5 1v3h-55q-6 2 -14.5 1t-16.5 1zM618 1079q25 -4 47.5 -13t41.5 -28q10 -6 18 -16v-6h2q4 2 6 -2t6 -8.5t7.5 -12.5t9.5 -14q4 -10 11 -26.5t9 -28.5h-2q-2 -4 0 -3t4 -1l-2 -2q2 -4 2 -9 q0 -4 2 -10q-2 -2 1 -6t-1 -8q4 -2 2 -6.5t2 -8.5q2 -23 2 -49q0 -27 -4 -47l-2 -18q-4 -43 -14 -85t-27 -85q-4 0 -3 -3t-1 -5q-51 -119 -149 -191q-41 -35 -91.5 -57.5t-103.5 -22.5q-10 0 -10 12q2 4 2 11q0 6 4 10l-2 2q18 92 38.5 178t43.5 176q6 39 16.5 75t20.5 73 q4 4 3 11t1 11q4 20 1 38t1 36q-4 6 -2 12t2 13l29 96q4 8 12 15t18 5q20 2 47 0z" />
<glyph unicode="E" horiz-adv-x="991" d="M918 1432l2 2q14 -2 26 -9.5t17 -21.5q2 -6 1 -9t1 -10l-2 2l-2 -4q-2 -18 -4.5 -37.5t-4.5 -37.5l2 -2q0 -14 -7 -26.5t-13 -23.5q-20 -33 -62 -43q0 -6 -4 -7t-2 -7q0 -8 11 -14q8 -2 24 -15q2 0 5 -6t7 -10q4 -20 -1 -40.5t-11 -39.5q-4 -2 -7 -6t-9 -4 q-12 -2 -23.5 -3t-23.5 3q-76 2 -144.5 3t-138.5 5q-16 -4 -34.5 -2t-31.5 -14q-2 -8 -6 -11.5t-2 -11.5h2q-6 -6 -5 -14t-1 -17q-6 -4 -3 -6t5 -6t13 -4q8 6 13 17.5t11 20.5t15.5 14t23.5 1l4 -4v4q18 -8 25 -30q-2 -10 -4 -19.5t-7 -17.5q-2 -10 -7 -20.5t-5 -20.5 q-6 -16 -11 -36t-11 -38v-16q0 -23 12 -31h35q16 0 35 2q10 -4 22 -4q14 0 25 2q20 -2 43 -2h43q6 0 11 -3t9 -7q2 -4 5 -11.5t-1 -11.5q2 -2 -1 -6t-3 -8q2 -6 -3 -8t-5 -7q-14 -8 -14 -28q0 -6 6 -8v2v-4q4 4 4 -2q8 -25 2 -52q-4 -41 -29 -65q-12 -8 -31.5 -7t-31.5 -8 q-20 -4 -35.5 -19t-40.5 -11q-29 2 -58.5 1t-58.5 -1q-10 2 -20 -3t-19 -14q-12 -35 -19 -68.5t-18 -68.5q-4 -16 -9 -29.5t3 -29.5q6 -4 15.5 -6t17.5 -2q6 -2 9 0t10 2v-2q25 -4 54 -1t58 -2q8 2 16.5 1t18.5 2q35 -2 67.5 -1t65.5 -4v-4h2v-2h2q6 -4 10.5 -11t8.5 -11 q-6 -29 -12.5 -54.5t-12.5 -54.5q-6 -12 -14 -20t-6 -25q4 -10 8 -21.5t4 -23.5h-4q-8 -18 -9 -34.5t-18 -32.5q-6 -4 -9 -11.5t-13 -5.5q-10 -4 -19.5 -3t-21.5 -3q-35 2 -66 4t-65 0q-18 4 -38 3t-40 -1t-39 4t-33 21q-12 4 -16 0q-10 -14 -28.5 -16.5t-35.5 -4.5l-2 2 q-47 -4 -92 -2t-94 0q-29 4 -43 25h-2q2 4 -2 18q-2 18 3 39t3 37q10 35 12 78t10 80q6 37 10.5 72.5t10.5 72.5q6 33 12 66.5t10 66.5q4 10 4 23q0 14 5 24q12 70 26.5 143.5t30.5 141.5q4 20 21.5 27.5t27.5 23.5q10 18 12 40t9 40q2 8 5 17.5t-8 17.5q-16 8 -35.5 5 t-35.5 3q0 2 -2 2v2q-2 -6 -4 -2t-6 2q2 4 -5 4v-2q-4 2 -2 4t0 6h-2q-4 10 0 20.5t2 20.5q2 8 4.5 16.5t4.5 18.5h2q0 4 4 4q-4 2 -2 2t2 2q4 10 17 12.5t18 12.5q0 4 2 7t0 7q-10 6 -24.5 15.5t-12.5 21.5q0 31 7 62.5t13 62.5q14 14 32.5 20.5t38 7.5t40 0t39.5 3 q23 2 44 16.5t44 7.5q10 0 13 1.5t13 1.5v-3h2v3q0 -4 1 -2t4 -1q4 2 9 1t11 2h55q27 0 58 2q78 0 164 1t172 -1z" />
<glyph unicode="F" horiz-adv-x="1040" d="M723 1432l-2 2q-70 -2 -146 -2q-74 0 -147 -5h-18q-37 -2 -79 -4t-83 -2q-12 -2 -24.5 -4t-22.5 -10q-12 -16 -18.5 -36.5t-2.5 -39.5q4 -4 -1 -7t3 -7v2l6 -12q4 -6 -4 -19q-4 -8 -18 -8q-4 -4 -7 -6t-7 -6q-8 -10 -9.5 -22.5t-5.5 -22.5q6 -20 3 -41t-7 -39.5t-4 -36.5 t12 -37l4 2v-4q18 0 37 1t35 1l2 2q16 -6 38 0t36 -10q2 -6 3 -15.5t-3 -15.5q0 -10 -3 -23.5t-7 -23.5q-2 -4 -7.5 -8t-9.5 0q-4 0 -5 5t-3 7q4 16 4 35q0 18 -16 29q-6 4 -17 4q-8 0 -16 -2q-12 -4 -17.5 -13.5t-11.5 -19.5q-20 -84 -35.5 -169t-31.5 -167 q-10 -80 -26.5 -155.5t-24.5 -155.5q-6 -29 -10.5 -61.5t-8.5 -67.5q-10 -23 -5 -46.5t7 -45.5q-4 -29 -8 -57.5t-8 -57.5q-4 -16 8 -29q8 0 11 -4t11 0q12 0 17 2q12 6 16 17.5t8 25.5q8 8 21 6q12 -4 12 -14t2 -21l2 -2q0 -2 2 -3t-2 -3q6 -6 13 -6q8 0 14 -4 q29 0 59.5 -2t59.5 2q16 4 25.5 18.5t13.5 28.5q0 6 2 6q10 59 24.5 127t28.5 129q6 25 10 50.5t15 48.5q6 31 14 65.5t18 61.5q10 14 24.5 10t31.5 0q4 2 6 0t4 0q41 -2 80 2t80 -2q20 4 36.5 10t20.5 29q-4 4 0 9t4 9q0 14 10 29q20 4 27.5 22.5t13.5 30.5l-2 2h2 q0 12 4 27.5t6 27.5q0 2 5 2v11q0 8 -3 14q-2 14 -11 19.5t-19 7.5t-21.5 3t-19.5 7q-14 20 -47 20q-8 4 -15.5 1t-17.5 -1q-4 2 -6 0t-4 2l-4 -2q0 2 -5.5 1t-7.5 1v-2q-4 0 -10 1t-10 -1q-14 2 -25.5 1t-27.5 1l-2 5q-14 2 -11.5 13t-1.5 19q10 39 20.5 73t22.5 73 q4 4 4 8q0 6 4 4h-2v2q-2 10 4.5 18.5t6.5 18.5q6 10 22 14q47 4 95.5 2t101.5 0q10 -4 19 -1t22 -1q25 4 51.5 1t44.5 20q8 14 9 33.5t-9 35.5q-4 8 -1 14.5t7 10.5q2 2 4 1t4 3q8 -2 15.5 6t11.5 15q10 39 15 74.5t16 70.5q-2 10 -3 21.5t-10 15.5q-10 4 -20 9t-21 1 q-20 4 -36.5 3t-34.5 -1q-25 4 -49.5 11.5t-51.5 11.5q-16 -2 -31.5 0t-29.5 -2zM485 1063q4 -14 -2 -25.5t-10 -23.5q-4 -10 -6 -10q-16 -4 -18 10v16h2q0 8 2 19.5t8 15.5q0 2 10 6t14 -8zM152 8l-2 4l2 -2v-2z" />
<glyph unicode="G" horiz-adv-x="1101" d="M881 1425q16 -4 30 -4q16 0 33 -10q8 -8 11 -16.5t-1 -20.5q-8 -12 -17 -14t-19.5 -3t-20.5 -4t-16 -16q4 -6 5 -12t9 -10q12 -4 23.5 -11.5t13.5 -21.5q-2 -23 -5 -44t-12 -40q-10 -23 -13 -50.5t-32 -39.5q-18 -4 -23 -18.5t-24 -18.5q-37 -6 -72.5 -12t-70.5 -21 q-41 -16 -79 -42.5t-66 -59.5q-68 -70 -112 -159t-69 -181q-4 -16 -8 -35.5t-6 -36.5q-2 -33 -1 -64.5t13 -66.5q12 -39 43 -69.5t74 -32.5q49 2 85 25.5t61.5 60.5t44 79t32.5 81q0 16 -14 22q-23 4 -45.5 3t-48.5 1q-12 4 -22.5 12.5t-12.5 22.5q0 20 7 37.5t9 36.5 q10 16 28.5 25.5t35.5 19.5q6 10 4 14h2l-2 2q-2 10 -11.5 14.5t-15.5 14.5q-8 12 0 33q14 14 31.5 20t36.5 6q20 0 40.5 -1t39.5 3h284q8 -4 16.5 -7t12.5 -11t4 -14v-15q-12 -33 -16 -67.5t-25 -65.5q-4 -16 -3 -42t-21 -38q-10 -10 -21.5 -9l-23 2t-21.5 -1t-18 -16 q-6 -12 -12.5 -22.5t-8.5 -24.5q0 -12 10 -13q20 2 31 29q0 4 4 9t6 9q2 0 5.5 1t-1.5 3q12 6 23 5q8 -2 10 -8.5t6 -12.5q-4 -23 -12 -44l-16 -42q-39 -92 -94.5 -170t-133.5 -141q-29 -23 -62.5 -43.5t-68.5 -34.5q-16 -6 -31.5 -11t-31.5 -12q-20 -2 -40 -6t-36 -8 q-2 4 -4 1t-4 1v-4l-2 2q-109 -8 -201 47t-145 144q-35 66 -56.5 137t-19.5 151q4 14 3 27.5t1 30.5q0 16 5 34.5t3 34.5q2 6 0 14.5t-2 14.5l-14 37q4 57 23.5 107t37.5 104q23 49 48.5 97t56.5 93q12 25 28.5 44.5t32.5 39.5q4 4 12 17q51 59 111.5 107t132.5 81q4 0 5 3 t5 3l43 19l2 6q0 -2 1 -3l1 -1q47 18 100.5 28.5t108.5 14.5q27 -4 50.5 -3.5t48.5 -5.5z" />
<glyph unicode="H" horiz-adv-x="1300" d="M621 1419q0 -23 -7.5 -42t-13.5 -42q-10 -29 -15 -59.5t5 -61.5q4 -23 -3 -43t-12 -43q-10 -33 -20 -69.5t-20 -69.5q-4 -18 -9.5 -35.5t-9.5 -35.5l-22 -91q0 -10 6 -18l16 -10q51 2 104.5 0t100.5 2q10 2 18.5 10t14.5 16q29 137 60.5 276.5t70.5 272.5q8 20 20 27 l-4 2q4 -4 5 -1t5 5q2 -2 2 0t5 0q29 6 56 4t54 0q23 14 51 14q6 -2 13.5 -1t13.5 1q12 -12 16 -24q0 -10 -5 -18.5t-1 -14.5q-4 -14 0 -20q2 -4 7 -7.5t10 0.5q6 4 8 9.5t6 11.5q14 14 18 33.5t25 23.5l2 2q16 -2 33.5 1t31.5 -9q4 -2 5 -8q0 -4 6 -6q4 -4 -1 -5t-1 -5 q0 -8 -3 -15.5t-3 -15.5l-3 -4q-35 -111 -67.5 -226.5t-61.5 -228.5q-6 -18 -18 -33.5t-10 -36.5q-14 -41 -24.5 -89t-20.5 -91l-49 -237l2 -2q-20 -86 -33.5 -170t-30.5 -170q4 -4 0 -8.5t-2 -8.5q0 -4 -3 -9t1 -9q-4 -6 -4 -14t-6 -13q-4 -8 -12 -8t-17 -2l-2 2t-4 0h2 q-4 4 -5 7t-5 9q-8 12 -19 5q-8 -10 -23.5 -14.5t-25.5 -2.5q-8 0 -16 -2t-17 2l-2 -2q-16 0 -32.5 8t-32.5 -8q-18 -4 -43 -2t-39 18q-4 6 -8 14.5t0 18.5q10 92 24.5 183.5t26.5 181.5q4 23 8 49.5t8 48.5q-8 23 -20 25q-4 -2 -6 0t-4 -2q0 2 -7 2q-2 -4 -3 -1t-5 1 q-35 4 -73.5 2t-73.5 2q-20 8 -27 24q4 18 20.5 24.5t28.5 12.5q0 4 2 8t-2 8.5t-14 4.5q-8 0 -16 4q-6 -2 -15.5 -3t-13.5 -7l-2 2q-4 -4 -10 -7.5t-11 -9.5q-16 -47 -24 -98t-21 -98q-16 -88 -32.5 -171t-28.5 -176q-4 -33 -29 -45q-16 -4 -30 -4t-25 11q-10 8 -9 20 t-9 18q0 2 -9 7q-14 0 -20 -15q-8 -16 -20.5 -31.5t-34.5 -15.5q-25 2 -48 2q-20 0 -47 2q-8 0 -12 6.5t-8 12.5q-8 25 -2 50t8 52q10 55 18.5 111.5t16.5 115.5q-4 45 -3 88.5t11 83.5q23 180 54.5 361.5t70.5 361.5q10 41 15 85t40 71q23 10 47 2q4 -4 9.5 -8t3.5 -12 q-2 -16 -5.5 -27.5t-5.5 -28.5q4 -2 4 -6q0 -2 5 -2q2 2 4 0q16 4 22 21q12 20 20.5 45.5t37.5 36.5q16 4 25 -10.5t26 -14.5q16 2 27.5 13.5t27.5 11.5q18 4 38.5 1t39.5 1q19 -1 29 -15z" />
<glyph unicode="I" horiz-adv-x="659" d="M600 1432q25 -4 27 -27q6 -8 3 -18.5t-7 -18.5q-16 -57 -29.5 -112.5t-28.5 -112.5q-4 -16 0 -25.5t8 -25.5l2 -21q0 -6 -2 -13t0 -11l-2 6q-8 -35 -19 -71t-17 -71l-3 -2q-57 -211 -100 -426t-78 -436q-4 -10 -14 -19.5t-23 -11.5q-16 -6 -31.5 -3t-31.5 1 q-35 -18 -78 -12q-18 8 -26 21q-6 16 -3 35.5t-14 25.5q-10 -4 -15 -12.5t-9.5 -17.5t-9.5 -18t-15 -16q-6 -4 -16.5 -8t-18.5 0q-6 0 -10 6.5t-8 10.5q-4 23 2 46t6 46q6 66 16.5 133.5t14.5 132.5q-2 6 -4.5 11t2.5 12q-2 35 4 72.5t10 74.5q6 57 15 119.5t18 116.5 q10 49 17 97t18 99q6 47 15 95.5t19 95.5l-2 4h2t2 4q4 14 6.5 29.5t8.5 27.5q4 37 12 72t16 72q4 16 18.5 25t28.5 13q2 -4 7 0q18 -6 34.5 -1.5t32.5 -10.5q8 -12 15 -16l2 2q0 -4 2 -4t6 -4q4 4 7 3t5 5v-2q8 -2 12 5t15 9q16 0 22 -6q4 -4 5 -9t5 -9q-8 -14 -2 -29 q6 -10 17 -4q12 12 12 22q10 16 14.5 32.5t26.5 21.5q18 4 37.5 2t38.5 -2h10z" />
<glyph unicode="J" horiz-adv-x="886" d="M717 1423q10 -10 11 -21t5 -24l-2 -12q0 -10 8 -12q10 -4 15.5 5t11.5 15q8 18 22.5 31.5t34.5 13.5q23 4 29 -16q0 -4 2 -6q-2 -10 -1 -18.5t-3 -16.5q-23 -88 -41 -172t-37 -170l-16 -55q-10 -20 -14.5 -46t-12.5 -49q-25 -111 -46 -220t-40 -226q-4 -10 -4 -25 q0 -12 -4 -24q4 -6 2 -14.5t0 -16.5q0 -39 -8 -72q-4 -10 -6 -20t-7 -23l-2 4q-35 -66 -93 -113.5t-124 -74.5q-23 -10 -44 -16t-44 -17q-6 4 -11 1t-9 -3q-41 -8 -86 -9t-86 3q-10 0 -23.5 2t-25.5 2v-2q0 4 -3.5 2t-5.5 0q-14 8 -24 27q-4 29 1 56.5t7 55.5q4 4 6 9.5 t6 7.5q6 0 9.5 7t11.5 3q8 2 19 1t18 7q8 16 0 23q-8 12 -21 6q-4 -4 -3 0t-3 2q-12 0 -20.5 9t-14.5 16q-2 14 4 28q16 23 41 17q16 -8 32.5 -7.5t33.5 3.5q10 6 21.5 7t19.5 11q4 -4 4 0t2 2h2l-4 2q12 2 18 9t17 18v2h2q16 23 27.5 44t9.5 50q4 23 5 45.5t5 42.5 q23 217 54.5 433t78.5 433q4 4 6 10.5t6 10.5v-2q23 23 46.5 18.5t47.5 -0.5h68q25 10 51.5 15.5t55.5 -0.5z" />
<glyph unicode="K" horiz-adv-x="1187" d="M961 1409l4 -29q-4 -10 -6.5 -20t-4.5 -17q4 -4 9.5 -7t11.5 -1q6 8 12 16.5t17 14.5q10 4 25 5t26 -9q6 -6 13 -9t13 -12q10 -10 16.5 -21t18.5 -22q8 -8 19.5 -15t13.5 -21q4 -4 4 -17q-6 -4 -10 -11t-8 -11q-92 -106 -175 -211t-169 -217q-6 -10 -11.5 -18.5 t-5.5 -18.5q4 -20 12.5 -38t16.5 -36q12 -25 24.5 -53.5t24.5 -57.5q12 -23 30.5 -45t26.5 -49q20 -45 38 -90t38 -92q4 -4 4 -10q0 -4 2 -8q12 -33 25.5 -62t23.5 -63q0 -10 1 -19.5t-7 -17.5q-16 -20 -44.5 -29.5t-51.5 -24.5q-10 -4 -23 -4q-10 0 -20 7q-8 2 -12 11 t-9.5 17t-11.5 13.5t-16 3.5q-6 -10 -6 -17l2 -2q-2 -14 -3 -29.5t-16 -23.5q-4 -4 -12 -6t-14 -6q-10 -6 -20.5 -10.5t-20.5 -10.5q-10 -4 -21.5 -6t-21.5 8q-12 4 -15.5 13.5t-9.5 19.5q-96 289 -213 565q-12 16 -24 17q-16 -4 -23 -17q0 -12 -4 -16q-4 -23 -8 -45.5 t-8 -42.5q-16 -80 -31 -162t-25 -160q2 -8 -1 -12t-1 -14h-2l2 -2q-10 -31 -9 -61t-17 -56v-2q-8 -12 -24.5 -14.5t-29.5 -0.5q-16 6 -21 23.5t-5 32.5q-4 10 -13 6q-16 -14 -21 -33.5t-26 -26.5q-29 -6 -61 -2h-41q-18 0 -33 15q-8 0 -10 7t-6 13q-2 14 1 29.5t1 34.5 q4 12 4 24q2 20 5 42t3 42q4 25 4 47q0 23 6 45q-4 23 4 45q-2 16 1.5 28.5t3.5 29.5q2 10 3 16t1 17q8 53 12 97t12 93q-2 10 2 16.5t2 16.5q4 29 10.5 61.5t8.5 63.5q4 2 2 3t0 5q4 31 10 63.5t10 61.5q-4 57 9.5 108.5t19.5 106.5q8 39 15 78t18 78q4 35 14 68.5t45 47.5 q12 2 26.5 -1t24.5 -19q4 -14 -1 -33.5t1 -38.5q2 -6 6 -6h9q12 12 13 30.5t11 30.5q18 23 42 22t50 3q6 0 14.5 -1t16.5 1q6 4 12.5 6t10.5 6q20 4 41.5 6.5t42.5 -6.5q6 -4 8 -10t8 -12q2 -12 -1 -22.5t-7 -22.5q-14 -33 2 -60q-2 -4 1 -8t-1 -8q2 -8 1 -14.5t-1 -14.5h-2 q-18 -59 -32.5 -118.5t-31.5 -114.5q-2 -10 -6 -20.5t0 -20.5q6 -6 21 -10q23 12 34 35.5t27 39.5q57 74 114.5 153t119.5 155q12 20 25 36.5t30 34.5q6 4 12 11.5t17 1.5q10 -2 24.5 -6.5t18.5 -16.5z" />
<glyph unicode="L" horiz-adv-x="841" d="M432 1425q4 4 6 -3t8 -7q8 -8 5.5 -21.5t-0.5 -21.5l-2 4q-2 -8 -4.5 -17t1.5 -16q-4 -6 0.5 -9t8.5 -7q14 4 21 16.5t11 22.5q8 18 18.5 34.5t33.5 16.5q14 -4 27.5 -1t29.5 -5l-2 2q14 -4 14 -18l-2 2q4 -16 0 -33.5t-8 -34.5q2 -4 3 -8t1 -10q2 0 2 6q-2 -23 2 -43.5 t0 -38.5q-10 -25 -16 -51.5t-15 -55.5q-47 -186 -88 -377.5t-69 -375.5q-2 -10 -5 -25.5t7 -25.5q4 -2 6 -6.5t6 -0.5q10 -6 20.5 -3t22.5 -1q4 4 6 2t6 -2q8 4 14.5 2t12.5 -2q16 0 33.5 1t36.5 -1q4 4 8 1t10 -1q51 -4 95 -2t96 -4q23 -12 14.5 -35.5t-8.5 -40.5 q0 -23 -15.5 -37t-13.5 -36q4 -2 3 -5t1 -8q16 -12 14 -27.5t-6 -31.5q-4 -10 -6 -24.5t-5 -28t-11 -22.5t-25 -11q-12 4 -20 1t-21 1q-66 4 -131 5t-127 -1q-18 -2 -36.5 5t-34.5 16q-16 -4 -28.5 -14.5t-33.5 -6.5q-27 0 -59.5 1t-61.5 -3q-16 4 -31.5 11.5t-17.5 23.5 q-2 6 -2 12t-8 8t-14.5 -6t-10.5 -14q-4 -8 -9 -14.5t-9 -14.5q-6 0 -8 -4t-6 -4q-10 0 -15.5 4t-13.5 10q-8 23 -4 48.5t8 48.5q12 92 26.5 188t30.5 188q-2 10 -2 19q0 10 -4 20l2 4q-6 27 -3 55.5t7 55.5q10 66 20.5 129.5t20.5 128.5q25 147 56 295q0 14 3 28.5t7 28.5 q6 35 12 68t19 65q18 18 45 25q23 -2 45 1t41 18q12 4 23 3t24 1q4 -4 10 -4q6 -1 8 -5zM600 1407l6 -8z" />
<glyph unicode="M" horiz-adv-x="1687" d="M813 1415q6 -2 7 -10t7 -10q0 -4 2 -6.5t-2 -4.5q2 -4 1 -7t3 -5q10 -53 22.5 -107.5t23.5 -111.5l2 -2l-2 -2q2 -2 3 -6t3 -8q8 -31 11 -59.5t5 -63.5q-4 -23 -5 -47.5t9 -46.5q0 -4 -1 -7.5t3 -5.5q-4 -14 2 -28.5t4 -28.5q4 -10 6.5 -23.5t12.5 -21.5q20 -6 31 14 q27 51 47 101.5t49 101.5q16 41 36.5 78t39.5 78v4q4 -2 4 0q0 4 2 6q10 16 15 31.5t15 31.5q8 14 14.5 28.5t14.5 29.5q10 12 22.5 20t22.5 16q12 18 21.5 37t23.5 35q12 10 28.5 13.5t29.5 -1.5q4 4 11 1t9 2q8 -4 27 0q18 -4 34.5 -13.5t24.5 -30.5q10 -18 8 -38.5 t8 -38.5q0 -10 11 -15q14 4 13 17.5t1 23.5q2 18 0 39t14 31q4 0 8.5 -1t8.5 1q-4 4 -4 2q4 2 4 -2q0 -2 4 -2q16 -18 18 -40t6 -46q23 -129 36.5 -242.5t29.5 -236.5v-2q-2 -4 0 -11.5t2 -13.5q2 -68 11 -134.5t1 -131.5q0 -16 -1 -32.5t3 -33.5q12 -197 19 -401 q2 -8 0 -15.5t-4 -13.5q-4 -23 -23 -35q-10 -4 -29 0q-14 6 -17 20.5t-15 24.5q-4 -2 -7.5 0t-7.5 0q-2 2 -4 0t-2 -4q-4 -8 -8 -17t-6 -20q-4 -2 -6 -6t-6 -4q-4 -4 -9 -2q-2 -4 -7 -3t-7 -3v2q-23 -4 -47.5 1t-46.5 7q-14 0 -28.5 1t-26.5 5q-27 18 -27 52q0 33 -6 59 q-4 35 -8.5 70.5t-8.5 70.5q-4 33 -8 60.5t-8 58.5q-4 4 -2 7t0 7q-10 49 -18.5 103.5t-20.5 107.5q-4 0 -4 2q0 4 -2 7q-8 8 -25 8q-18 -23 -26 -45.5t-23 -46.5q-29 -72 -59.5 -143.5t-57.5 -143.5q-4 -12 -10 -22.5t-8 -22.5h-2q0 -6 -6 -12.5t-10 -10.5l-2 -6 q-10 -10 -21.5 -22.5t-13.5 -28.5q-6 -4 -6 -12t-5 -15q-6 -16 -15 -32.5t-32 -18.5q-39 -4 -75.5 -2t-73.5 2q-12 4 -25.5 11.5t-17.5 23.5q-18 92 -36.5 182t-41.5 180l-10 19q-2 6 -6 13t-9 16q-6 23 -11 44t-9 39q-4 14 -7 30t-9 28q-4 4 -7.5 8t-11.5 0 q-10 -6 -15 -22.5t-14 -26.5l3 -2h-3q-16 -43 -35.5 -87t-35.5 -89q-4 -8 -9.5 -21.5t-7.5 -23.5q-2 2 -2 -7q-14 -39 -29.5 -77.5t-27.5 -75.5q-4 -10 -7 -19.5t-7 -19.5q-10 -29 -19.5 -58.5t-19.5 -58.5h-2q-12 -18 -41 -24h-21q-10 0 -20 2l-2 -2q-16 0 -39 4t-31 22 q-2 10 -1 23.5t-13 21.5q-6 2 -15 -6v2q-10 -4 -13 -13t-9 -20q4 -2 1 -4t-5 -6q-2 -6 -8.5 -9t-6.5 -9q-4 -4 -9 -2t-9 -2q-14 0 -28.5 -1t-22.5 9l-6 6q-4 10 -2 20.5t4 20.5q6 18 12 35.5t10 36.5q4 4 2 8t2 8q18 63 39 124.5t41 127.5q12 35 23.5 69.5t25.5 71.5 q0 6 2 8q16 41 34 89.5t34 93.5q47 123 97.5 242.5t103.5 236.5q23 57 55 119q4 10 9 18t9 17q18 23 45 27.5t52 0.5q8 -2 13 -6t9 -8h2q2 -8 7.5 -13.5t9.5 -15.5q4 -6 14 -2q10 8 11 19.5t3 21.5q2 4 7.5 5t1.5 5q4 -4 4 -2q14 10 35.5 9.5t37.5 -2.5q10 0 16.5 -5.5 t12.5 -9.5zM1014 195v-2v2zM102 37l4 2l-2 -2h-2z" />
<glyph unicode="N" horiz-adv-x="1402" d="M1292 1413q4 -8 1 -17.5t7 -13.5q10 2 16.5 11.5t13.5 18.5t15.5 13.5t20.5 -4.5q10 -8 6 -18t-4 -21q-12 -23 -17 -50t-14 -54q-18 -78 -37.5 -153.5t-35.5 -153.5l-52 -232q-31 -150 -56.5 -298t-45.5 -298q4 0 4 2v2q-6 -14 -2 -28q-4 -2 -4 -8v-9l2 -2q-6 0 0 -6 q-2 0 -2 -2q-4 -14 -6 -30.5t-6 -32.5q-4 -4 -6.5 -8.5t-4.5 -8.5q-10 -12 -31.5 -11t-37.5 3l-15 8v-4q-6 4 -8 10.5t-12 10.5q-12 4 -17.5 -6.5t-15.5 -14.5q-14 -10 -30.5 -7t-32.5 1q-14 4 -23 10q0 -2 -4 2q-4 10 -12 21.5t-12 25.5q-31 61 -63 123t-62 123 q-27 16 -40.5 46t-27.5 53h-2q-25 53 -55.5 108t-59.5 111q-10 12 -15 23t-17 24q-16 4 -25 -4q-12 -14 -16 -41q-31 -141 -60 -283.5t-49 -284.5l2 -4q-10 -23 -25 -35l3 -2q-10 -8 -22.5 -6t-27.5 0q-10 2 -22 15h-2q-2 2 -4 7t-6 9l2 43q-2 4 -4.5 7t-8.5 5 q-14 0 -14 -12q4 -6 -2 -10t-2 -10q-6 -8 -9 -20.5t-3 -16.5q-6 -10 -17.5 -19.5t-25.5 -7.5q-16 -2 -36 1t-36 1q-23 2 -39 19q-14 23 -10 50t4 50q4 51 10 98t10 94q6 25 6 54l3 4q4 31 8 64.5t10 66.5q0 8 2 16t2 19q23 152 50.5 305t62.5 305q2 6 4 13t2 14q6 4 10 14 q23 20 26 53t13 62q6 20 10 40.5t10 40.5q0 14 10.5 22.5t20.5 14.5q27 4 56.5 1t58.5 1q33 -16 33 -49q4 -10 6 -10q16 -4 19 8t12 21q2 12 18 24q25 10 43 -5t31 -32q33 -63 66.5 -123.5t62.5 -123.5q-2 -6 2 -8.5t6 -6.5q37 -80 76 -160.5t73 -158.5l8.5 -8.5t12.5 -1.5 q18 4 16 20t2 29q18 127 39 266t47 272q2 8 4 16.5t9 14.5q8 20 32.5 19t42.5 4q8 0 13.5 -2.5t11.5 -6.5q8 -8 8 -18q0 -8 -2 -19q-8 -12 -7 -30.5t-5 -34.5q-4 -16 8 -21q6 -6 14 3q16 23 22.5 50t16.5 52l2 -2l2 8q4 -4 4 0q0 6 5 8q10 10 22 12.5t27 2.5 q16 -2 37.5 -1.5t29.5 -19.5z" />
<glyph unicode="O" horiz-adv-x="1288" d="M836 1432q-70 6 -152 -11q-20 -4 -40.5 -10t-35.5 -22q-4 -10 -6 -24.5t2 -25.5q6 -14 -10 -24q-6 -2 -10 0t-11 2q-10 10 -22 19.5t-29 4.5q-88 -33 -164.5 -92t-136.5 -137q-16 -16 -16 -39t-6 -43q-25 -41 -45.5 -82t-38.5 -86q-51 -121 -68.5 -260t19.5 -268 q18 -70 54 -135.5t91 -108.5q53 -43 116.5 -64.5t129 -24.5t129 10.5t119.5 37.5l2 -2l4 2q2 -2 0 -2t-2 -2l4 4v4l2 -2q23 16 40 22.5t40 22.5q2 2 4 1t2 3l2 -2q10 10 24.5 20.5t28.5 20.5q35 25 64.5 57.5t62.5 63.5q51 66 97 131.5t79 140.5q63 129 86 276.5t-24 289.5 q-27 84 -77 156.5t-124 119.5q-84 53 -182 60zM690 1262q0 -14 -11 -16.5t-20 -8.5q-4 -2 -9 -4t-11 2q-8 8 -2 18q6 8 16.5 12.5t20.5 8.5q16 0 16 -12zM858 934q18 -106 -12.5 -208.5t-77.5 -199.5q-29 -53 -67.5 -105t-98.5 -73q-39 -18 -88 -15t-80 32q-25 16 -40 45.5 t-19 56.5h-2q-4 16 -6 40.5t2 41.5l-2 2q2 6 2 14q0 10 4 21q-2 6 0 14l4 16q8 33 15 64t24 59q0 4 2 10.5t6 10.5l4 2q-4 2 -2 2t0 2q4 6 6 12t8 10q10 23 24.5 41.5t29.5 38.5q8 6 14 15.5t16 15.5q37 35 75 59.5t87 36.5q10 4 18.5 12.5t8.5 20.5v10q2 4 0 3t-2 1 q-2 10 -4 18.5t2 18.5q16 4 29.5 -3t27.5 -13q35 -20 60.5 -54t31.5 -75z" />
<glyph unicode="P" horiz-adv-x="1114" d="M387 1434q-25 -4 -45 -3t-45 3q-35 -4 -74 -3t-73 -6q-4 -4 -7.5 -6t-7.5 -8q-4 -20 -9 -39.5t-1 -42.5q4 -8 10 -13t10.5 -15.5t1 -17.5t-9.5 -13t-13 -10.5t-9 -10.5h2q-4 -6 -5 -14t-6 -14q-2 -27 -8 -54.5t0 -56.5q8 -20 26.5 -21.5t35.5 -3.5q23 -2 42 0t40 -8 q2 -4 4 -9t0 -9h-2q-10 -6 -20.5 -11.5t-20.5 -5.5q-4 -8 -6 -3t-4 -1q-4 4 -5.5 0t-5.5 0q0 -4 -8 -8q-4 6 4 6q-4 0 -4 2v-6l-2 2l-2 -6l-4 2l-4 -4l2 -2l-2 -2q-2 0 -3 -2t-1 2q-2 2 -1 -1t-3 1v-4q0 -4 -2 -3t-2 -1l2 -2q-2 0 -2 -2t-3 0q0 -2 -6 -9q-6 -29 -10 -60.5 t-10 -59.5q0 -16 -5 -33t-1 -33q4 -8 4 -16t4 -15q-2 -33 -6 -62.5t-8 -57.5q-6 -33 -7.5 -63t-17.5 -58q-12 -35 -13 -74t-8 -74q-2 -20 -4 -39.5t-4 -40.5q-4 -53 -7 -100t-11 -100q4 -27 -3 -55.5t13 -51.5v-2l-2 2l18 -4q12 0 23.5 10.5t24.5 -4.5v-2q8 -2 15 -6t17 0 v-2l7 4q18 6 18 29q4 16 7 34.5t22 24.5q14 -8 14 -26t2 -33q0 -10 6 -17.5t10 -11.5q16 -2 36 -3t40 3q8 4 15.5 11.5t7.5 17.5q0 39 10 76q4 27 9 49t9 47q4 29 10.5 59.5t10.5 61.5q6 10 5 25.5t7 23.5q4 41 14.5 83t18.5 87q2 10 5 14t11 10q4 2 8.5 -1t8.5 -5 q4 -4 7 -10t7 -10q2 -12 11 -11.5t20 -1.5q8 0 17 2.5t13 2.5t8.5 1t8.5 1q8 -4 12 -11q0 -10 -8 -12q-16 -8 -28.5 -13t-26.5 -16l4 2q-2 -6 -5 -11t-1 -11q2 -8 7 -12t11 -9q16 0 33.5 5.5t32.5 9.5v-4q2 8 5 6t7 4q2 -2 12 4q4 -4 5 1t5 1q8 6 16.5 8t16.5 6 q14 4 28.5 11.5t26.5 11.5q4 4 6.5 3t2.5 3q18 6 36 21q2 2 5.5 1t5.5 3q74 41 129 94t104 123q12 18 22.5 39.5t20.5 35.5q10 23 19.5 49.5t15.5 55.5q2 8 2 14q0 8 4 13q4 49 3 100t-17 98q-2 4 -3 8.5t-5 8.5q-8 29 -25.5 53t-34.5 53q-4 4 -9 8t-7 8q-12 10 -23.5 19.5 t-21.5 19.5q-25 14 -60 33q-8 2 -12 7t-8 3l-2 2h-2q2 2 0 3.5t-4 -1.5q-31 29 -72 31t-78 6l-4 2h-35q-70 4 -135 5q-63 0 -131 4zM584 1085h22q14 0 25 -4l2 -4q4 4 8 2l8 -4q4 -4 10 -4q8 0 13 -8q4 -4 11 -8t11 -13q4 4 3 -2t5 -2q2 -6 5.5 -10t7.5 -10q23 -51 3 -103.5 t-61 -93.5q-43 -43 -102 -65q-10 -4 -19.5 -7.5t-19.5 -5.5l-4 2v-2l-2 2l-2 -2q-4 4 -12.5 3t-12.5 10q-10 12 -5 22t7 23q0 4 1 10t6 10q-4 6 0 13q14 47 25 96t26 92v4q4 10 6 21.5t6 23.5q6 6 12.5 11t16.5 3zM483 1069q2 -6 1 -10t-1 -8q-4 -2 -2 -5.5t-2 -3.5 q0 -8 -6 -14h2h-2q-2 -4 -3 -8t-5 -8v-4v2q-4 -4 -4 -15q0 -8 -10 -10q-12 -4 -17 12q2 6 2 13q0 8 4 12q-4 0 -3 3t3 5q4 10 7.5 24.5t13.5 20.5q8 0 13 -2t9 -4zM168 1028v-2v2z" />
<glyph unicode="Q" horiz-adv-x="1245" d="M885 1413h-6q-59 18 -128 14t-126 -32q-4 -4 -10.5 -7.5t-12.5 -5.5q-2 -6 -7 -8t-9 -6t-7.5 -8t1.5 -8q-8 -12 -4 -23.5t6 -25.5q8 -16 20 -20.5t26.5 -2.5t29 6t28.5 2q2 0 8 -10q2 -10 -7 -14t-13 -9q-10 -8 -23 -10q-2 -2 -6 -2q-2 0 -2 -4q-14 -6 -37 -2 q-8 4 -13 12t-9 19h4q-4 4 -5 9t-3 9q-10 10 -23.5 20.5t-28.5 10.5v2q-16 2 -36.5 -5t-38.5 -18q-25 -12 -46.5 -24t-44.5 -29q-51 -33 -91 -75t-70 -89q-18 -27 -22.5 -64.5t-18.5 -60.5q-55 -94 -91 -205.5t-36 -224.5q2 -14 1 -30.5t3 -28.5q4 -61 19.5 -111.5 t37.5 -107.5q37 -72 95.5 -132.5t142.5 -93.5q47 -20 90 -22t94 2q4 2 5 -1t3 1q63 8 119.5 28.5t108.5 49.5q4 0 10 3t10 7q6 0 15.5 -1t13.5 -5q12 -18 21 -36.5t24 -37.5q2 -4 4 -10t6 -8h-2l12 -13q8 -2 15.5 -6t15.5 -4q10 2 22.5 4t23.5 4t19.5 7.5t10.5 15.5 q6 18 -8.5 27.5t-10.5 25.5q4 10 19 6l49 -47q4 -8 11 -10t16 -6q27 2 56.5 8t57.5 10q10 4 12.5 12.5t6.5 14.5q-4 8 -2 10q-2 12 -9.5 19.5t-11.5 17.5q-10 12 -18 22.5t-8 26.5q4 14 0.5 26.5t-9.5 24.5q-16 20 -31.5 42t-31.5 44q-8 16 -19.5 26.5t-13.5 31.5 q-2 10 3 19t9 20q53 86 93.5 179t60.5 197q4 35 10 70t4 70q4 78 -18.5 159.5t-56.5 147.5q-2 6 -5.5 11t-5.5 9v2q-45 66 -103 118t-134 81zM676 1145q4 -4 3 -8t-3 -9q-6 -6 -14 -6t-19 2q-8 4 -10 9q-4 8 4 14q8 4 19.5 6t19.5 -8zM848 903q4 -16 6 -27.5t4 -27.5 q-4 -4 0 -5t2 -5q4 -25 4 -58t-4 -59q-4 -4 -2 -7t0 -7q-4 -29 -12 -55.5t-19 -53.5q-4 -10 -14 -10q0 4 -2 2l-2 -2q-20 8 -38.5 1t-35.5 -16q-16 -14 -31.5 -25t-25.5 -32q-4 -12 1 -23.5t-9 -15.5q-8 -4 -14.5 2t-12.5 8h-2h-2l2 -2h-2q-4 2 -1 1t1 1q-16 -4 -35.5 -11 t-25.5 -30q-4 -8 -1 -16t9 -16t13 -16.5t11 -16.5q6 -12 14.5 -21.5t8.5 -21.5h-2q2 -10 -4 -16q-37 -23 -90 -23q-51 0 -95 29q-10 6 -21 15t-22 19q-23 29 -39 68q-6 12 -7 26.5t-3 28.5h2q-2 2 -1 8.5t-3 6.5q4 66 24.5 131t53.5 121l8 14q41 59 81 108.5t99 94.5v-2 q4 8 13.5 13t13.5 9q27 20 27 55q6 4 9 9.5t13 5.5q59 -10 100.5 -56.5t57.5 -99.5z" />
<glyph unicode="R" horiz-adv-x="1093" d="M483 1436q-4 2 -12 -1t-12 1q-31 -2 -64 -3t-61 -1q-41 -2 -82 -3.5t-82 -5.5q-4 -6 -12 -4t-13 -8q-4 2 -5 -4t-5 -8q-4 -23 -8 -44.5t-4 -45.5q6 -14 6 -35q0 -18 -2 -35q0 -16 12.5 -25.5t24.5 -13.5q2 -2 2 -10q-6 -4 -9 -8t-12 -4q-10 -8 -19 -11.5t-17 -17.5 q0 -10 -5.5 -23.5t2.5 -23.5q6 -12 18.5 -16.5t25.5 -2.5q6 -4 8 -3t8 3q2 -4 4 -2t4 -2q8 2 19 0l2 2q6 -2 10 0t4 -2v2q6 2 10 1t12 -1q10 0 15 -16q0 -12 -10 -18q-16 -4 -28.5 -5.5t-27.5 -7.5q-23 -14 -37 -47q-6 -43 -13 -86t-13 -84q2 -2 -1 -3t1 -3q-4 -16 -5 -34.5 t-6 -35.5q-12 -29 -1.5 -55.5t4.5 -54.5q-12 -78 -23.5 -159t-22.5 -167q0 -18 -4 -39.5t-4 -42.5q-10 -53 -14 -114q-2 -20 -5 -44t13 -40q18 -14 37 -13q18 -6 37.5 -11t40.5 1v4q14 4 18 16.5t8.5 24.5t6.5 20.5t8 18.5q10 8 18 -4q4 -12 4 -31q0 -18 4.5 -28.5 t12.5 -10.5t14 -2q10 2 18.5 0t16.5 6q2 4 7 2t1 5l2 2l-2 2h4q4 12 5 25.5t5 25.5q2 14 5.5 28.5t3.5 26.5q8 12 15 25.5t11 27.5q14 76 28.5 151t33.5 150q4 10 4 23q0 14 10 22q12 4 18 -2q47 -84 89 -166.5t81 -168.5q10 -16 16.5 -33t20.5 -29q37 -78 68 -153l12 -15 q8 -8 20.5 -6t22.5 2q12 4 13 15.5t12 15.5q16 4 27.5 -5.5t25.5 -13.5q29 4 57.5 9.5t57.5 9.5q27 6 30 28q-6 41 -19 81t-24 79q-16 59 -37.5 122t-44.5 124q-10 29 -19 56.5t-19 56.5q-4 16 -11.5 31.5t-7.5 33.5q4 6 6 14.5t8 12.5q92 66 158 169t76 220q4 68 -9.5 127 t-47.5 115q-6 2 -7.5 7t-7.5 7q-49 76 -129 106.5t-166 40.5v4q-6 -4 -13 1.5t-15 1.5q-18 2 -41 2q-20 0 -41 2q-16 -2 -35 0t-35 -2q-10 4 -33 4zM608 1081q10 -4 21.5 -7t21.5 -11q6 -6 15.5 -10t13.5 -13q29 -35 28 -75.5t-19.5 -77.5t-50.5 -63.5t-67 -49.5 q-16 -8 -32.5 -12t-34.5 -8q-6 2 -16.5 8t-6.5 18q10 37 17.5 69t17.5 69q6 29 15.5 57.5t17.5 54.5q0 10 4 19.5t4 19.5q10 14 29 14q8 -2 22 -2zM477 1065q0 -4 1 -7t-5 -7q4 -6 0 -14.5t-8 -16.5q2 -6 -3 -8t-1 -6l-10 -15q-2 4 -3.5 1t-3.5 -1q-8 4 -8 10q4 18 3 38 t18 30v-2h2q0 4 2 2t6 2q0 -4 3 -1t7 -5z" />
<glyph unicode="S" horiz-adv-x="923" d="M766 1427q18 0 25 -4h4h-2v-2q4 2 5 1t5 -1q23 -2 47 -3t35 -29q4 -23 0 -44.5t-6 -44.5q-4 -18 -6.5 -36.5t-4.5 -36.5q-4 -23 -28 -33q-14 -6 -30.5 -2t-25.5 -12l-2 2q-4 -2 -4 -6v-7q6 -8 17.5 -11t22.5 -6t19.5 -9t8.5 -21q2 -4 -2 -11t2 -9h-2v2h2q0 -6 -5 -12.5 t-10 -10.5q-12 -12 -34.5 -10t-36.5 -6l4 -2l-4 -2q0 2 -6 2l-2 -2l2 -2q-10 -4 -22.5 -1t-22.5 -1q-4 4 -12.5 2t-12.5 0q-27 0 -46.5 -5t-41.5 -14q-4 -6 -11 -10t-14 -10q-20 -16 -24 -44t6 -50q2 -14 10 -25.5t17 -23.5q8 -6 14 -15.5t14 -15.5q2 0 2 2q0 -6 3 -8t5 -6 h3q35 -35 65.5 -76t46.5 -88q4 -12 9.5 -25.5t9.5 -26.5q10 -23 13 -47t7 -47q-2 -4 0 -12t0 -14q6 -80 -24 -154q-4 -16 -12.5 -32.5t-14.5 -32.5q-37 -68 -92 -129q-10 -4 -16.5 -11.5t-14.5 -13.5q-18 -10 -35.5 -23.5t-34.5 -23.5l-2 2q-41 -27 -96 -44.5t-108 -27.5 q-10 0 -19.5 -2t-19.5 -4q-6 4 -17 -2q0 2 -4 2q-2 -4 -4 -1t-6 1q-45 0 -90 1t-88 13q-25 10 -31 35q-4 14 3 31.5t1 34.5q-6 10 -11 21.5t1 23.5q2 20 10 35q2 10 3 21t7 22q16 18 36 17t42 -1q12 4 12 10q-4 14 -16 18.5t-22 10.5q-8 4 -15.5 9t-11.5 15.5t3 13.5t11 9 q14 4 25.5 2t25.5 -6q4 2 9.5 -2t11.5 -4q25 -6 54.5 -9.5t58.5 1.5q12 4 26 4t25 10q4 0 7 3t7 1v2q4 0 6 3t6 3q4 2 6.5 5t6.5 5q0 4 4 5v-3q12 6 20 18.5t15 22.5q10 23 10 43q0 23 -8 46l-2 4q-10 29 -32 50t-46.5 40.5t-49 38t-42.5 43.5q-16 25 -38 52.5t-36 55.5 q-2 0 -1 3t-1 5q-25 45 -37 100.5t-8 106.5q0 29 7 55.5t17 51.5q2 20 12.5 36.5t18.5 32.5q12 23 25.5 40.5t27.5 35.5q10 4 15.5 13.5t15.5 15.5q29 29 62.5 53.5t68.5 40.5l2 4h2q53 25 117.5 41t124.5 21q16 -2 33.5 1t33.5 -1h31q17 -1 33 -5zM842 1098l2 4v-2z" />
<glyph unicode="T" horiz-adv-x="952" d="M469 1432q-12 2 -26.5 0t-28.5 2q-33 -4 -68 -4h-67q-49 -4 -94.5 -2t-92.5 -7q-2 -4 -6 -4q-2 0 -4 -2q-23 -25 -24 -56.5t-7 -60.5q-2 -33 29 -51q2 -2 3 0t1 -2q4 4 5 0t3 -4v2q4 4 8 -4l2 2q10 -4 23 -4q12 0 22 -10q4 -10 -2 -17q-23 -12 -48 -10t-50 -6 q-14 -6 -14 -20t-4 -25q2 -16 14 -29.5t14 -29.5q2 -4 6.5 -7.5t6.5 -7.5q2 -2 3 0t5 -2q35 -6 71.5 -2t75.5 2q8 -2 10.5 -6t8.5 -8q8 -18 2 -42t-8 -44q-4 -4 -2 -8t-3 -9q-8 -68 -18 -135t-20 -135v-8t-5 -8q4 -2 2 -6.5t3 -8.5q-6 -12 -7.5 -26.5t-3.5 -26.5 q-2 -10 -2 -20t-2 -19q-14 -123 -25.5 -239.5t-21.5 -237.5q-2 -14 -2 -31q0 -14 4 -28q10 -25 35 -25q23 2 48.5 -1t47.5 3q18 8 21 29q0 4 4 8t2 8l2 2l-4 -2q2 16 6 30.5t14 26.5q4 6 15 0q12 -18 7 -40.5t-3 -45.5q4 -6 6 -10t10 -8q23 0 46.5 -1t35.5 17h-2q0 4 4 8.5 t2 8.5q14 53 23.5 108.5t21.5 110.5l60 274q6 27 12 51.5t14 51.5q6 18 4 35.5t0 33.5q16 61 31.5 122t34.5 124q4 16 6 33.5t-10 32.5h4q-2 6 -6 8t-6 6h-3q-8 10 -22 14t-12 23q2 8 8 8q8 0 12 2q35 0 66.5 -1t66.5 -1q27 2 55.5 -2t53.5 8q14 14 12 29q0 10 -4 16t-8 17 l-2 -2q-10 10 -6 18q10 10 21 13t26 6q4 0 4 2q0 4 4 2v-2q0 4 5 5t7 5h-4q6 14 9 36.5t8 39.5q8 23 0.5 41t-9.5 38l9 48q-4 25 -27 34q-45 4 -90 4t-86 3q-2 -2 -4 1t-4 -1q-59 2 -119 2h-119zM90 1243v2l4 -2h-4zM510 1063q6 -37 -23 -72l-7 -7t-9 1q-10 10 -6 23.5 t6 27.5q8 8 12 23.5t21 11.5z" />
<glyph unicode="U" horiz-adv-x="1275" d="M555 1430q-31 -2 -60.5 -1t-62.5 3q-20 -2 -39.5 1t-42.5 -3q-18 -16 -44.5 -11.5t-49.5 0.5q-16 -4 -25.5 -17t-19.5 -28q-45 -180 -82 -362.5t-63 -368.5q-12 -98 -26.5 -196.5t-0.5 -194.5q10 -53 30.5 -110.5t71.5 -90.5q35 -27 76 -38t88 -13q10 4 22.5 3t22.5 3 q20 4 39 5t37 12q8 -2 16 6q29 8 58.5 22.5t54.5 30.5l12 8t15 0q10 -8 8 -20q-4 -4 -3 -9.5t-3 -9.5l4 -2q-2 -14 12 -26q-2 -2 6 -7v2q10 -4 24.5 -3t26.5 1q4 0 5.5 2t5.5 0q0 2 2 2l-2 3q6 -4 5 2t3 2v4h2l-2 2q4 4 7 13t7 17l-2 5q4 10 11.5 22t19.5 16 q16 -10 10 -28.5t-2 -34.5q-6 -8 0 -13t10 -12l-2 -2q2 -2 4 -1t4 -1q8 -4 16.5 -3t16.5 -1q27 2 52.5 -1t48.5 11q6 -4 5 2.5t5 8.5q10 53 19 104t22 103q8 23 23.5 45t19.5 47l-2 2q8 37 14 75.5t16 79.5q23 98 46.5 194.5t48.5 195.5l75 278q16 53 33 105.5t33 105.5 q6 4 6 10q0 8 2 17l-7 14t-13 12q-10 4 -21.5 3t-23.5 -1q-39 4 -80 4q-39 0 -80 2l-2 -2q-51 6 -88 -4q-10 -4 -17.5 -12t-15.5 0q-4 -6 -11 -5t-14 -1q-23 -6 -33 -24.5t-16 -39.5q-23 -74 -40 -154.5t-36 -158.5q-29 -135 -53 -270t-47 -271q2 -16 -5 -30.5t-7 -30.5 q-4 -8 -11.5 -10t-13.5 -4q-18 -2 -28.5 -11.5t-19.5 -21.5t-17 -25.5t-21 -19.5q-10 -6 -19 -12.5t-20 -10.5q-4 0 -6 -3t-6 1h-2q-14 -4 -27.5 1t-27.5 14q-16 6 -22.5 23t-8.5 36q2 4 -2 8h2q-2 4 -2 10t-2 11q4 2 2 5t0 7q23 109 48.5 219.5t55.5 218.5q14 61 33 125 t37 125q2 16 9 31.5t11.5 31t4.5 29.5q0 16 -11 33q-2 0 -4 5t-4 9q-4 33 8.5 63.5t20.5 61.5l4 27q-6 4 -9 9t-10 9q-12 9 -20 11zM383 381l-2 6l2 -2v-4zM621 315q-4 -10 -14.5 -16t-20.5 -10q-2 0 -6.5 2t-4.5 6q6 10 14.5 19.5t20.5 11.5q7 -3 11 -13z" />
<glyph unicode="V" horiz-adv-x="1060" d="M395 1432l27 -2l27 -19q0 -10 2 -21.5t-2 -23.5q2 -23 1 -41t1 -41q0 -10 -2.5 -17t2.5 -14q2 -47 2 -98t4 -98q4 -78 7 -159t11 -153q2 -4 5 -8t7 -4l2 2v-2q4 0 9.5 2t9.5 4q8 12 10 27.5t6 28.5q27 90 52.5 180t54.5 180q12 47 27.5 94t29.5 90q4 14 11.5 32t23.5 24 q37 4 59 28q16 12 40 8t40 -1q35 -4 71 -3.5t71 -1.5q14 0 18 -10t10 -16q0 -10 -3 -15.5t-5 -15.5q-4 -14 -13.5 -27.5t1.5 -29.5q8 -4 15 -11.5t7 -17.5q2 -10 -2 -17.5t-8 -15.5q-33 -76 -62.5 -151.5t-60.5 -147.5l-90 -229q-37 -104 -71.5 -205.5t-67.5 -210.5 q-2 -6 -5 -13t-1 -13q-6 -29 -27 -51.5t-25 -53.5l-2 2q-10 -35 -17 -64.5t-17 -64.5q2 -10 -7.5 -21.5t-17.5 -17.5q-8 -4 -16 -4t-19 -4q-23 2 -41 1t-37 -1q-16 2 -27.5 6t-21.5 19q-4 4 -5 12t-7 12q2 2 0 6t-4 6q-8 12 -17 5q-6 -4 -5 -12.5t-1 -14.5q4 -4 1 -10 t-1 -11q-4 -8 -13 -11t-17 -7q-4 4 -7.5 1t-7.5 1q-8 0 -12 -2q-6 2 -15.5 6t-13.5 12q-18 41 -24 89.5t-23 91.5q-16 88 -36.5 175t-39.5 179q-2 6 0 12q-10 59 -20 115.5t-21 116.5l-2 4q-8 43 0 82q-16 96 -27.5 188t-25.5 189q-4 33 -6 62.5t-6 59.5q-4 6 0 15.5t8 15.5 q14 10 33.5 8t36.5 2q4 0 11 -1t11 3l4 -2q23 2 45.5 0t44.5 -2q12 -4 24.5 -12t16.5 -23q2 -6 2 -10t2 -12q4 -10 6.5 -22.5t12.5 -18.5q10 -4 13 4t5 14q2 10 2 23v22q0 12 4.5 22.5t14.5 16.5q10 8 21.5 6.5t21.5 2.5q4 -4 9 -2t11 0z" />
<glyph unicode="W" horiz-adv-x="1814" d="M393 1432q12 0 23 -7q6 2 14 -6q12 -10 13 -23.5t3 -25.5q-2 -29 -3 -54.5t-3 -51.5q2 -6 0 -12.5t0 -12.5q-4 -129 -4 -256t6 -256q6 -10 15 -6l6 4q6 14 11 28.5t13 28.5q0 10 4.5 17.5t6.5 17.5q59 147 118.5 292.5t122.5 287.5q6 10 13.5 19t17.5 7q29 4 60.5 3 t56.5 -5q8 -4 20 -22l9.5 -9.5t13.5 -5.5q8 2 13 9.5t9 11.5t11.5 3t15.5 1l-6 2q8 -2 12 1t10 -3q29 6 64 -8q4 0 5 -6t5 0q2 -10 3 -18.5t3 -18.5q4 -4 1 -5t-1 -5q2 -41 5 -75t7 -73q4 -76 12.5 -150.5t16.5 -150.5h4q-2 -23 1 -47.5t5 -44.5q4 -8 4 -19q0 -8 9 -12 q-2 -2 0 -8q8 -12 20 -8q8 4 12.5 12t8.5 19q29 90 59.5 179t65.5 179q12 41 26.5 78t28.5 71q0 4 4 17q4 4 4 6q0 4 4 8q2 12 8 24.5t11 26.5q8 16 23.5 29.5t33.5 13.5l2 -2l2 2q4 -4 8 -1t8 -1q20 4 31 -6q16 -16 6 -33.5t-10 -35.5q8 -8 18 -9q20 10 26.5 31t23.5 35 q2 10 10 9t12 5q10 6 22.5 3t22.5 1q10 0 21.5 3t23.5 3q23 -4 49 -4q27 0 50 -10q14 -10 10 -37q-6 -10 -7 -15t-8 -13q-66 -123 -124 -249t-111 -253q-37 -90 -73 -176t-68 -172q-25 -66 -49.5 -129.5t-43.5 -128.5q-4 -8 -7 -15.5t-7 -13.5q-10 -23 -27.5 -39t-19.5 -39 v4q-2 -4 -1 -5t-3 -5q-4 -12 -9 -25.5t-9 -25.5q-6 -16 -9.5 -31.5t-19.5 -26.5q-16 -8 -28.5 -5t-29.5 1q0 2 -2 2v0q-2 0 -2 -2v0h-2q0 2 -4 2v-2q-14 4 -33.5 -6t-35.5 -6q-18 -4 -43 0q-12 -2 -24.5 -1t-27.5 3q-8 4 -16 9t-8 16q-10 16 -13.5 30.5t-7.5 30.5 q-33 135 -68.5 276.5t-62.5 278.5q0 8 -8 10q-16 2 -20 -11t-11 -21q-78 -141 -149.5 -291t-140.5 -297q0 -2 -3.5 -5t-1.5 -7l-4 -7q-6 0 -12 -5t-12 -9q-18 -4 -41 -3t-41 1q-18 8 -27 18q-4 23 -4 52t-14 51q-4 -2 -6 0t-4 0q-4 -4 -5.5 -10.5t-1.5 -10.5q-4 -27 -1 -48 t-11 -44l2 -2q-4 -2 -6 -4t-8 0q-12 -2 -25.5 1t-23.5 13l2 2q-4 4 -5 14.5t-5 16.5q-8 41 -14.5 82t-12.5 84q-2 14 -5 30.5t-5 33.5q-10 57 -15.5 113.5t-25.5 113.5q-4 29 -5 53.5t-10 52.5q4 4 0 9q-2 4 -1 13t-5 13l2 2q-4 4 -3 6t-1 7h2q0 2 2 2l-4 4q0 23 -3 47 t-3 47q-4 20 -4 39q0 18 -4 41q-4 20 -5 40.5t-3 39.5q-4 18 -4 34q0 18 -5 37l2 2q-6 41 -8 88t-8 95q-4 45 -5 90t-5 86q4 4 1 6t-1 6q2 10 1 17.5t1 15.5l10 10t14 6q-16 -6 -20 -18q8 12 21.5 17t27.5 5q16 0 31.5 -1t28.5 3q0 2 2 0t4 0q4 0 9 2t11 2q4 6 25 7 q35 0 70.5 1t74.5 -1q2 4 4 2t6 -2h35z" />
<glyph unicode="X" horiz-adv-x="1280" d="M1108 1417q4 -8 6 -13t10 -9q16 -4 24.5 6t20.5 16q-2 4 2.5 3t6.5 3q14 4 27.5 2t29.5 -6v2q4 -4 8 -9t8 -13q-2 -25 -21.5 -40.5t-29.5 -35.5q-66 -80 -133.5 -167t-130.5 -173q-47 -68 -94 -131.5t-92 -132.5q-4 -25 1 -44.5t11 -41.5q18 -70 37.5 -143.5t42.5 -145.5 q23 -70 45 -138.5t47 -139.5q-2 -6 4 -14.5t0 -18.5q-2 -4 -4 -10.5t-6 -4.5l-2 -4q-4 0 -8.5 -2t-10.5 -2q-33 -2 -61.5 -1t-59.5 1q-16 -2 -30.5 9.5t-24.5 27.5q-6 10 -12 27.5t-19 27.5q-2 0 -12 -4q-4 -4 -2 -12t-2 -12q2 -14 5 -26.5t5 -24.5q-2 -6 -2 -11q0 -4 -4 -8 q-6 -2 -14 -1t-15 3q-8 8 -16 10q-29 47 -46 99.5t-40 99.5q-8 23 -15 42t-18 42q-6 4 -7 11t-9 5q-2 6 -7 5t-9 -3q-39 -57 -75 -118.5t-71 -118.5q0 -4 -3 -5t-3 -5q-6 -10 -13.5 -19.5t-15.5 -23.5q-4 0 -12 -5.5t-14 -7.5q-14 -8 -34 -6t-36 -6q-37 -6 -73 3t-72 5 q-6 4 -14.5 2t-14.5 4l-2 -2q2 2 0 2v0h-2q4 0 -1 3.5t-5 7.5q-4 25 10 46t25 44q0 4 3 7t1 7q23 37 44 73t44 77q41 70 79.5 136t81.5 136q2 4 5.5 9t5.5 11q12 20 23.5 38t21.5 38q10 27 5 52.5t-15 48.5q-10 29 -21.5 64.5t-24.5 64.5q-2 6 -3 10t-5 8q-4 14 -2 27.5 t0 25.5q-31 98 -61.5 197.5t-59.5 200.5v18q0 12 5 23q10 8 24 11t27 -3q8 2 8 -4q0 -4 2 -9l4 -10v2q0 -4 4 -8t6 -4q-4 -4 0 -7t8 -7q2 -4 13 -4q10 10 8 22t0 25q-4 4 -1 9t5 9q4 -2 8 3t8 7h5v-2q12 6 25 5t28 1q12 -4 27.5 -1t29.5 -1l4 2q16 -2 28.5 -9t24.5 -9v-2 q2 -4 7.5 -2t9.5 0q20 -4 42.5 -1t39.5 -20q4 -4 5 -11t5 -13l-2 -2q12 -66 22.5 -127.5t26.5 -120.5q4 2 3 -2t3 -6q4 -6 12.5 -4t12.5 6q49 66 96 131t96 131q10 18 30 36.5t42 26.5q25 4 52.5 3.5t49.5 1.5q8 -2 17.5 0t17.5 0v2q19 -1 31 -17zM303 1407l-4 -6z" />
<glyph unicode="Y" horiz-adv-x="1236" d="M1024 1430h2q4 -4 12 -5q8 0 13 -4q16 -4 32.5 -1t34.5 -1q20 -4 41 -1t37 -11l2 2v-4l2 2v2h2q8 -33 -10 -53q-29 -29 -55 -66q-29 -39 -59.5 -75.5t-59.5 -77.5l-144 -197l-145 -217q-35 -53 -68.5 -105.5t-68.5 -107.5q-6 -29 -19 -55v0q0 2 -2 2q-68 -98 -130 -206 t-124 -212l-12 -19q-2 0 -4 -3t-6 -5q-10 -10 -27.5 -11t-29.5 1l-19 10q-2 4 -4 10.5t-2 12.5h-4q2 2 -4 8q-16 4 -25.5 -4t-19.5 -16v-3h2l-6 -4v2q-4 0 -4 -2v0q-6 0 -12.5 -3t-14.5 -3h-4q-10 2 -24.5 0t-28.5 -2t-24.5 6t-14.5 25q0 29 14 51q154 315 332 615q4 6 5 14 t1 16q-29 16 -39 49t-23 62q-47 129 -86.5 259t-76.5 265q-4 8 -1 14.5t5 10.5q2 8 9 9t15 5q29 4 49 -4q8 -4 14.5 -14.5t10.5 -16.5q0 -20 16 -33q8 0 13 2q10 12 5 26.5t-5 29.5q6 -2 8 5t6 11q16 16 37.5 12t42.5 0q16 0 29.5 1.5t29.5 -1.5v-2q4 -4 10.5 -3t10.5 -5 q2 4 2 2t2 -2q14 -6 30.5 -3t28.5 -7q4 0 4 2t4 0q-4 -10 7.5 -17.5t9.5 -17.5q2 -6 1 -12t3 -12q10 -66 21.5 -124.5t25.5 -117.5q6 -6 14 -6q2 -4 9 2q47 66 93 133.5t93 134.5q16 20 34.5 39t47.5 23q35 -4 67.5 -2t65.5 -2zM526 1407l4 -2z" />
<glyph unicode="Z" horiz-adv-x="1040" d="M827 1430q2 4 4.5 0.5t6.5 1.5q12 -4 25.5 -10.5t27.5 -10.5q23 -2 45 -2h43h2q8 -2 15.5 -5t11.5 -13q2 -6 5 -10.5t1 -12.5q-2 -18 -10.5 -37.5t6.5 -36.5q2 -16 -1 -27.5t-8 -23.5q-10 -10 -19 -14t-19 -8q-6 -4 -9.5 -10.5t-7.5 -10.5q4 -4 2 -7t2 -5q0 -4 3 -5t3 -7 q10 -2 13.5 -12.5t7.5 -18.5q-4 -16 -7 -31.5t-20 -26.5q-31 -10 -63.5 -8t-61.5 -2q-6 2 -7 -4t-1 -10q2 -12 15.5 -15.5t21.5 -9.5q12 -4 20 -18q4 -23 -4 -33q-117 -154 -217 -307.5t-198 -312.5q-4 -23 8 -33q18 -8 36.5 -6t35.5 0q68 -2 137 1t135 -1q8 -2 11 -6.5 l7 -10.5q4 -12 -4 -28q-4 -8 -12 -10.5t-15.5 -5.5t-11.5 -8t0 -17q6 -8 15.5 -10.5t18.5 -4.5t17.5 -6t12.5 -16v-19h-2q-8 -33 -14.5 -67.5t-14.5 -69.5q-8 -23 -22 -29q-4 2 -9.5 0t-11.5 -2q-18 0 -34.5 1t-37.5 -3l-4 -4q-18 -4 -35.5 -3t-39.5 3q-78 -4 -161 -1 t-157 -3q-47 0 -99 -2t-102 -4q-16 0 -31.5 -2t-25.5 6q-6 -6 -6 -2t-4 6q0 8 -3 14.5t-3 14.5q8 47 10 95t8 99q10 35 26.5 69t32.5 69q10 18 20.5 38.5t20.5 39.5q23 45 43.5 83.5t42.5 85.5q0 33 13 62q14 39 34.5 75t36.5 72q4 4 6.5 10.5t6.5 12.5q23 47 50.5 96 t51.5 96q4 10 -1 19.5t-11 17.5q-4 4 -12.5 3t-14.5 -1q-43 0 -88 -2t-88 -2h-20q-10 0 -19 6q-10 10 -17 22.5t-1 29.5q-4 4 -1 5t-1 5q2 4 2 12h4l6 27q4 -2 5 1t3 5q6 6 16.5 8t18.5 4t14 7t4 18q-4 12 -16 13t-20 7l1 -1t-3 -1q-2 2 -3 2q0 2 -2 4l1 -1q1 -1 1 1 q-4 2 -3 4t-1 7q0 6 -2 14t2 12q4 27 9.5 56.5t15.5 56.5q12 16 33 16q57 4 110.5 6t106.5 4h10q23 0 44.5 1.5t43.5 1.5q4 -2 8 0t8 0q12 0 27.5 -1.5t32.5 3.5l2 -2q35 4 66.5 0.5t66.5 1.5q16 -2 35 0q4 4 7 -0.5t5 2.5q4 -4 6 -2t4 -2zM162 1151l-2 -4z" />
<glyph unicode="a" horiz-adv-x="935" d="M883 1112q-2 12 -11.5 21.5t-19.5 13.5q-10 -4 -19.5 -1t-19.5 -1l-12 -10q-10 -6 -17.5 1t-17.5 7q-2 0 -3 2t-3 0q-14 4 -23.5 1t-25.5 1q-12 -6 -20.5 -15.5t-22.5 -5.5q-6 2 -9.5 6.5t-9.5 2.5v2h-18q-4 -4 -6 -5.5t-7 -5.5q-39 -57 -75.5 -116.5t-71.5 -120.5 q-55 -90 -107.5 -182.5t-101.5 -184.5q-43 -76 -79 -153.5t-77 -155.5v2v-2q-14 -35 -31.5 -68.5t-29.5 -66.5h-2q-4 -10 -8 -19.5t-6 -21.5q0 -8 5 -13.5t9 -11.5q14 -10 30.5 -4t28.5 15q12 4 20.5 -4.5t18.5 -10.5q6 0 14.5 -1t12.5 5q6 6 14 3t15 -5q10 0 16 -2t12 2 q4 -2 2 -2t-2 -2h6l-4 4q4 2 4 0l2 -2q6 6 12.5 10.5t12.5 10.5q16 29 30.5 57.5t28.5 56.5q4 10 11.5 12.5t13.5 8.5q35 4 71 3t70 1q6 4 14.5 6t14.5 8q23 8 44.5 6t45.5 0q6 -4 15.5 -6t11.5 -12q2 -29 2 -64t4 -71q2 -4 5 -10.5t5 -12.5q6 -8 14 -8q10 0 17 -4q4 4 6 2 t6 2q2 -2 0 -3t0 -1l2 4h8q18 12 39 8t41 -4h6v0q2 0 2 -2q10 0 18.5 8.5t12.5 16.5q8 8 14 0q0 -10 13 -19q8 -8 20 -4q6 2 9.5 6t5.5 9q-2 6 3 11t1 11q-4 2 0 5t0 5q2 10 2 23q0 12 2 22q4 102 7 196.5t5 199.5q2 4 0 7t0 7q0 25 1 46.5t-1 45.5l2 4q-4 37 -2 74t-2 78 q0 88 -5 176t-9 178zM606 594q-2 -6 1 -9t-1 -7q4 -4 0 -7q2 -8 3 -14t1 -16v-4v-9q4 -10 2 -15t2 -17l-2 -7q2 2 2 0v-2l-2 -2l2 -2q0 -2 1 -8t1 -10q-2 -8 0 -20.5t3.5 -24.5t-4 -22.5t-19.5 -12.5q-25 0 -56.5 1t-56.5 1q-4 2 -8 2t-4 4q0 16 9 28.5t16 24.5q23 37 45 76 t45 78q4 2 12 10q6 0 7 -6t1 -10zM625 324q0 -12 -9 -15q-10 -2 -23 -1t-24 7v4h-2q-4 4 -2 5q2 0 2 2q2 0 3 3t3 1q10 2 18.5 5t18.5 -1q4 0 9.5 -3t5.5 -7z" />
<glyph unicode="b" horiz-adv-x="894" d="M680 1118q-74 18 -146.5 24.5t-152.5 4.5q-25 4 -51.5 -6.5t-50.5 -5.5q-2 0 -3.5 -2.5t-1.5 2.5q-18 -4 -35.5 -1t-33.5 -8q-12 -6 -12 -18v-23q-10 -18 -21.5 -38.5t-11.5 -42.5h2q-2 -8 2 -25q-4 -8 -4 -12q0 -8 -4 -4v-2q-8 -10 -15 -27q-2 -16 -8 -32.5t6 -31.5 q4 -12 15.5 -13t21.5 -5q10 0 17 -4q2 2 6 0t8 -2q6 -12 0 -26.5t-8 -26.5q-4 -16 -16.5 -13.5t-22.5 -5.5q-23 -10 -25 -30.5t-10 -38.5q-2 -4 -1 -8.5t-3 -8.5q-12 -57 -19 -110q-12 -53 -19 -105.5t-17 -103.5q-10 -76 -19.5 -146.5t-19.5 -148.5q0 -14 -2 -28.5t6 -25 t21.5 -9.5t21.5 3q0 4 2 2l2 -2q0 6 2 4q4 6 9 12.5t9 14.5q4 -2 4 0t4 0h-2q4 0 6 -1l1 -1v2q10 -4 13 -12t3 -17h2q8 -4 6 -8q8 -4 8 -6v2q6 -4 15 -4q10 0 16 4v-2l4 2h2q8 12 22.5 8t28.5 -2q2 2 3.5 0t1.5 2l2 -4q10 4 16 9.5t12 11.5q2 6 3 12t5 12l-2 -2l2 12 q-2 4 1.5 7.5t-1.5 5.5q4 4 3 8t2 10q4 6 2 12.5t6 12.5q4 4 8 2t6 -6q8 -16 8 -37q4 -12 6 -25.5t11 -23.5q16 -12 34.5 -14.5t34.5 1.5q4 -4 7.5 -1t7.5 -1q10 4 22 4q14 0 25 5q96 16 186 76.5t131 160.5q25 53 24 117.5t-30 118.5q-4 2 -5 5t-5 7q0 4 -6.5 10t-10.5 12 q4 2 2 4l-2 1l-26 28l-2 4q-8 4 -14.5 9.5t-12.5 9.5l6 6v-2q35 25 69 53.5t56 65.5q35 51 42 117.5t-9 125.5q-14 33 -35.5 65t-48.5 54q-6 0 -6 6v-2q-2 2 -6 4t-4 6v-2q-10 4 -19.5 11.5t-21.5 9.5q-6 4 -13.5 7t-15.5 7zM524 852q18 -8 33.5 -22.5t17.5 -38.5v-13h-2 q0 -8 -3 -19t-9 -18q2 -8 -3 -15t-9 -13q-10 -10 -22.5 -21.5t-26.5 -21.5q-4 -2 -5 -1t-6 -3v2q-2 -4 -16 -9q-2 0 -3 -2t-3 -2q-10 -4 -21.5 -3t-23.5 -1q0 2 -2 0t-6 0q2 6 -2 5t-4 3q-4 18 3 35t11 33t7 29.5t9 27.5v9q2 6 5 11t3 13v-2q2 6 4.5 12.5t4.5 10.5 q10 10 26.5 14t32.5 0h10zM387 844q2 -4 -2 -10.5t-4 -10.5t-2 -7t0 -7q-8 -2 -9 -13.5t-14 -2.5q-6 6 0 12q2 4 1 7t-1 5q4 10 5 20.5t12 14.5q10 0 14 -8zM487 453q16 -29 12.5 -64t-20.5 -63q-12 -14 -22.5 -27.5t-26.5 -24.5q-4 -4 -8 -6t-6 -6q-14 -8 -19 -6 q0 -4 -4 -4h-2q-2 2 -4 -2t-2 0q-2 2 -3 1l-1 -1q-6 -2 -11 -4t-14 -2v4q-4 -4 -6 -3l-2 1l-8 2h-4q0 2 -4 2q-12 0 -13 10q-4 -2 -3 1t-1 5q8 43 17.5 86t17.5 88q4 6 6 15.5t6 13.5q0 2 3.5 6t7.5 4v2l2 -2q4 6 14 5t17 3q23 0 46 -7t35 -27z" />
<glyph unicode="c" horiz-adv-x="808" d="M725 1137q14 -2 30.5 -3t24.5 -18l2 -6q-4 -16 -6 -30.5t-6 -30.5q-4 -8 -9 -16.5t-9 -18.5q0 -6 -5.5 -11.5t-1.5 -13.5q-2 -10 -6 -26q-4 -4 -4 -11q4 -6 4 -16q0 -8 2 -18q-4 -12 -4 -27q0 -12 -12 -23q-10 -12 -25.5 -11t-29.5 -3q-23 -2 -44.5 -11t-39.5 -20 q-47 -29 -85 -63.5t-69 -75.5q-8 -12 -19.5 -19.5t-21.5 -19.5l-2 -2q-23 -27 -40 -57.5t-25 -63.5q-6 -6 -7.5 -15t-5.5 -20q-4 -29 -5 -59.5t9 -56.5q0 -10 4.5 -17.5t4.5 -13.5q18 -29 47.5 -54.5t66.5 -35.5q16 -4 32.5 -6t33.5 0q18 -2 35.5 2t38.5 -2q8 -8 8 -23 q0 -4 -2 -7t-2 -9l4 4q-4 -8 -5 -16.5t5 -14.5q0 -2 1 -4t-1 -6h2q2 0 2 2q-2 -4 -1 -5t-1 -5q2 0 2 -4q-2 2 -4 2v-8v2q-6 -8 -6 -19q0 -10 -11 -14q-10 -10 -22 -9t-17 -16v4l-2 -4q2 -2 1 -4t3 -6q4 -2 7.5 -6t7.5 -4q-2 -2 2 -13q4 -6 2 -12t0 -12q-6 -16 -19.5 -24.5 t-27.5 -8.5q-12 -2 -24.5 -1t-24.5 -3q-96 -4 -185.5 28.5t-150.5 110.5q-10 23 -25.5 40.5t-23.5 39.5q-6 18 -12.5 36.5t-8.5 35.5q-10 35 -13 67.5t-3 65.5q0 14 2 20q0 27 4 49.5t8 49t11.5 50t17.5 46.5q25 80 69 145q-2 2 5 9l43 69q25 31 53 61.5t51 55.5q12 8 18 16 q12 12 28.5 23.5t31.5 23.5h-2q14 4 26 17h2q4 2 8.5 4t6.5 6h2q53 31 113.5 51.5t123.5 24.5q2 2 7 0q16 4 31.5 0t31.5 -8zM735 948l2 -2z" />
<glyph unicode="d" horiz-adv-x="972" d="M457 1145q6 -2 13 -1t11 -1h45q8 -2 13.5 -1t13.5 -1v-2v4l2 -4q4 4 6 2t6 -2v-2l2 2l2 -2q4 4 10.5 2t12.5 -4q33 -4 67.5 -12.5t67.5 -24.5q43 -20 77 -55t58 -76q12 -23 24.5 -46.5t22.5 -48.5q0 -10 5.5 -19t5.5 -22q2 -4 1 -8t1 -8q16 -63 13 -132t-19 -132 q-16 -66 -44 -123t-59 -111q-6 -10 -11 -16t-9 -16q-16 -20 -29 -41q-57 -82 -142 -140.5t-180 -83.5v-2l-4 2q-18 -8 -38.5 0.5t-39.5 -0.5h-18t-14 5q-10 10 -13.5 22t-5.5 27q-4 0 -4 2t2 2q-2 8 -5 16t-13 8q-8 0 -10 -6q4 -2 0 -2t-2 -2q-4 -12 -5.5 -27.5t-7.5 -27.5 l-2 -2q-4 -14 -12 -17q0 -4 2 -4q-2 -2 -4 0l-2 -2h-2l-2 -2h4l-4 -2v4q-18 -10 -39 -6t-43 -6q-14 2 -29 2q-14 0 -22 16q-14 4 -23.5 -4t-24.5 -4q-8 0 -14 5l-12 10q-6 14 0 30q-2 14 -1 27.5t3 28.5q2 10 3 19t3 17q0 23 4 45.5t4 43.5q6 41 11.5 82.5t13.5 78.5 q0 16 4 35t6 37q6 39 11 77t16 75q4 23 7 48t11 48q4 31 10.5 59.5t16.5 57.5q6 23 26 22q4 -4 7.5 -3t7.5 -1l10 -12q-2 0 0 -2l2 -2q4 -8 3 -15.5t7 -13.5q14 4 16.5 16.5t6.5 22.5q4 4 1 9t-5 9q-4 2 -8.5 1t-8.5 1q0 -6 -10 0l-2 -2q-2 0 -3 1t-5 1l-4 -2l-2 2 q-4 -4 -13 0q-14 4 -35.5 0t-31.5 15q-4 12 0 24q6 12 18.5 15.5t22.5 7.5q6 6 2 18q0 6 -7.5 7t-11.5 5q-2 -2 -6 3q4 2 1 3t-3 5q-6 23 4.5 42t3.5 42v10q2 2 1 6t3 8q4 18 10.5 33.5t22.5 26.5q27 12 48.5 9t50.5 -1q14 2 28.5 1t28.5 1q33 -4 61.5 -3t59.5 1zM502 864 h-2q-23 2 -37 0q-8 2 -14.5 -4t-10.5 -12l-24 -76q0 -4 -1 -10t1 -10q-4 -14 0 -28.5t0 -31.5q-2 -4 -1 -8t-3 -8q-10 -31 -17.5 -59.5t-11.5 -59.5q-18 -72 -34.5 -141.5t-31.5 -141.5v-2q-4 -4 -3 -8t-1 -8q0 -10 8 -10q41 0 82 18.5t74 44.5q82 59 119 154q2 0 1 3t3 3 q12 35 20.5 67.5t12.5 67.5l2 14q2 16 2 39v39q-4 4 -2 7.5t-2 5.5q4 4 1 6t-1 4q-2 4 -2 6q0 4 -2 8l2 2q-2 2 -2 4q0 10 -6.5 22.5t-10.5 20.5q-4 6 -6 12.5t-6 10.5q-4 2 -5 6t-5 2h-2v4q-2 6 -15 14q-14 14 -31.5 21.5t-37.5 11.5z" />
<glyph unicode="e" horiz-adv-x="813" d="M743 1145l2 2q27 -4 35 -25q2 -4 1 -7t1 -7l-2 2l-2 -4l-6 -62h2q0 -12 -6 -21t-10 -19q-20 -27 -49 -33q0 -6 -4.5 -7t-2.5 -6q0 -4 9 -12q4 0 10 -3t10 -7q2 0 4 -5t6 -9q2 -16 -2 -32l-8 -32q-4 -2 -6 -5t-8 -3q-10 -2 -18.5 -3t-18.5 3q-59 2 -114.5 3t-110.5 3 q-14 -2 -28.5 -1t-25.5 -11q-2 -6 -5 -9.5t-1 -9.5h2q-6 -4 -5 -11t-1 -13q-4 -2 -2 -4t4 -6q2 -2 10 -3q6 6 11.5 14.5t9.5 15.5t11 11.5t20 1.5l2 -4v4q10 -4 13 -10l7 -14q-4 -23 -8 -31q-2 -8 -6 -15t-4 -18q-4 -14 -9.5 -28.5t-9.5 -30.5v-12q0 -20 11 -25h28t27 2 q8 -4 18 -4q12 0 21 2q16 -2 33 -2h34q8 0 17 -8q2 -4 4 -9t0 -10q2 0 -1 -4t-3 -6q2 -4 -2 -6t-4 -6q-12 -4 -13 -23q0 -4 6 -6v2v-4q2 2 2 -2q8 -18 3 -41q-4 -33 -23 -51q-10 -6 -27 -6q-14 0 -24 -6q-16 -4 -28.5 -16.5t-31.5 -8.5q-25 2 -48 1t-46 -1q-16 2 -31 -12 q-10 -29 -16 -55.5t-14 -55.5q-2 -12 -6 -23.5t2 -23.5q4 -4 12 -5t14 -1q4 -2 7.5 -1t7.5 1q20 -4 43.5 -2t46.5 0q6 2 13 1t15 1q27 -2 53.5 -1t53.5 -3v-4h2q4 -4 7 -9t7 -10q-4 -23 -9 -44t-9 -44q-4 -10 -11.5 -15t-5.5 -19q2 -10 6.5 -18.5t4.5 -18.5h-4 q-6 -14 -7.5 -27.5t-13.5 -26.5q-6 -4 -8 -9t-10 -5q-8 -2 -15.5 -1t-17.5 -3q-29 2 -52.5 3t-51.5 1q-31 6 -64 1t-57 20q-10 4 -13 0q-10 -10 -23 -12.5t-28 -4.5l-2 2q-39 -4 -73.5 -2t-75.5 0q-23 4 -33 21h-2q2 4 -2 14q-2 14 2 30.5t2 28.5q8 29 10 64t8 63 q4 29 8.5 58.5t8.5 58.5q4 27 9 53.5t9 53.5q4 8 3 18t3 18q10 55 22.5 115t24.5 113q2 16 15.5 22t23.5 19q8 16 10.5 32.5t6.5 32.5q2 6 4 13.5t-6 13.5q-12 6 -27.5 4t-30.5 2q0 2 -2 2v2q-2 -4 -3 -1t-5 1q2 4 0 4h-2v-2q-4 2 -2 3t0 5h-2q-4 8 0 15.5t2 17.5 q2 6 3 13.5t3 13.5h2q0 2 1 3l1 1v4q4 6 14.5 8t14.5 10q0 4 2 6.5t0 6.5q-8 4 -19.5 11t-11.5 17q0 25 6 50.5t11 50.5q25 25 58.5 21.5t61.5 2.5q18 2 35 13.5t35 7.5h23h4h16h45t45 2q63 0 131.5 1t136.5 -1z" />
<glyph unicode="f" horiz-adv-x="837" d="M582 1145l-2 2q-55 -2 -117 -2q-59 0 -119 -2h-14q-29 -2 -61.5 -4t-67.5 -2q-10 -2 -20.5 -3t-16.5 -8q-10 -14 -15.5 -29.5t-1.5 -31.5q4 -4 -1 -6t1 -6v2l7 -11q2 -4 -4 -14q-6 -6 -15 -6q-6 -6 -12 -10q-6 -8 -7 -17.5t-3 -17.5q4 -16 1 -32.5t-6.5 -32t-3.5 -29.5 t11 -29h4v-2q16 0 29.5 1t27.5 1h2q14 -4 30.5 1t29.5 -9q0 -4 2 -11.5t-2 -13.5q0 -8 -3.5 -17t-5.5 -20q-2 -4 -6 -7t-8 1q-4 0 -4 4t-2 7q4 12 3 26t-13 23q-4 4 -13 4q-8 0 -14 -2q-10 -2 -14 -10.5t-8 -16.5q-16 -66 -27.5 -134.5t-26.5 -133.5q-10 -63 -22.5 -124 t-18.5 -124q-4 -23 -8 -49.5t-6 -54.5q-8 -16 -4 -37t4 -37q-4 -23 -6 -45.5t-6 -46.5q-2 -10 6 -23q6 0 9 -3t9 1h13q10 6 13 15.5t7 19.5q4 6 16 6q10 -4 11 -12q0 -8 2 -17v-2q0 -2 2 -2t-2 -2q6 -4 12 -4t10 -4q23 0 47.5 -2t46.5 2q14 2 21.5 14.5t9.5 22.5q0 6 2 6 q10 47 21.5 101.5t21.5 103.5q4 18 8 38.5t13 39.5q4 25 10 52.5t14 49.5q10 10 21.5 7t23.5 1h9q33 -2 64.5 1t61.5 -1q16 2 29.5 7.5t18.5 23.5q-4 2 -1 6t3 8q0 10 8 23q16 4 22 18.5t11 24.5v2q0 10 4 21.5t4 21.5q0 2 4 2q0 14 -2 20q-2 10 -8.5 14.5t-15.5 6.5t-18 3 t-16 5q-10 16 -36 17q-6 4 -12.5 0.5t-14.5 -0.5q-4 2 -5 -0.5t-3 2.5l-4 -2q0 2 -4 1t-4 1v-2q-4 0 -8.5 1t-8.5 -1q-12 2 -21.5 1t-21.5 1l-2 4q-10 0 -8 9t-2 15q10 31 17 58.5t18 58.5q4 4 3 8t3 2h-2v2q0 8 4 14.5t4 14.5q6 8 18 12q39 2 78 1t80 1q8 -4 15.5 -1 t17.5 -1q20 4 40.5 1t37.5 16q14 27 0 55q-4 6 -2 11t6 9q4 0 6 2q6 -2 12 5.5t10 11.5q8 31 12.5 59.5t12.5 57.5q-2 10 -3 17t-7 11q-8 4 -16.5 8t-16.5 0q-16 4 -29.5 3t-27.5 -1q-20 4 -40 9.5t-40 9.5q-14 -2 -26.5 0t-22.5 -2zM391 850q4 -10 -1 -19.5t-9 -19.5l-4 -8 q-14 -4 -17 8v12h2q0 6 2.5 15.5t6.5 13.5q2 4 8 4q8 2 12 -6zM123 6v4v-2v-2z" />
<glyph unicode="g" horiz-adv-x="899" d="M711 1141q14 -4 26 -4t25 -9q12 -14 8 -28q-6 -10 -14 -11.5t-16.5 -2.5t-15.5 -4t-13 -13q4 -4 5 -9t7 -7q10 -4 18.5 -10.5t10.5 -16.5q-2 -16 -4.5 -33.5t-8.5 -34.5q-8 -18 -11 -39.5t-26 -31.5q-14 -4 -18 -15.5t-18 -15.5q-29 -4 -58.5 -9t-56.5 -16 q-35 -12 -64.5 -34.5t-52.5 -46.5q-53 -55 -89 -127t-54 -146q-4 -12 -7 -28.5t-5 -28.5q-2 -27 -1 -52.5t11 -52.5q10 -31 33.5 -56.5t58.5 -25.5q39 0 68.5 19.5t50 49.5t35 63.5t26.5 64.5q0 12 -12 16q-18 4 -35.5 3.5t-40.5 1.5q-10 4 -18.5 10t-8.5 18q0 16 5.5 29.5 t7.5 28.5q10 14 23.5 21t27.5 15q4 8 2 13h2h-2q0 8 -8 12t-12 12q-6 10 0 25q23 25 55.5 21.5t62.5 2.5h228q6 -4 12 -7t10 -9q4 -8 4 -22q-10 -27 -13 -54.5t-20 -52.5q-4 -14 -4 -35q0 -18 -16 -28q-8 -8 -18 -9q-8 0 -17.5 1t-17.5 0t-15 -13q-4 -10 -9 -18.5t-7 -18.5 q0 -10 8 -10q16 2 25 23q0 4 3 8t5 8q6 0 4 2q10 6 19 4q6 -2 7 -7t5 -9q-4 -18 -10.5 -36t-12.5 -34q-31 -74 -76 -136.5t-106 -111.5q-23 -18 -49.5 -35.5t-54.5 -27.5l-25.5 -8.5t-26.5 -10.5q-16 0 -31.5 -4t-29.5 -6q0 2 -2 0t-4 2v-4l-2 2q-86 -6 -160 38t-117 114 q-27 53 -44 109t-15 122q2 10 1 21.5t1 23.5q0 14 4 28.5t2 28.5q2 4 1 11.5t-1 11.5l-12 29q4 47 18.5 87t30.5 83q16 39 37.5 77.5t46.5 73.5q10 20 23.5 35.5t25.5 32.5q2 2 4 5t6 7q41 47 89 86t106 66q2 0 3 2t5 2l35 14v6q0 -2 1 -3l1 -1q39 16 81 23.5t87 11.5 q20 -4 39 -3t39 -3z" />
<glyph unicode="h" horiz-adv-x="1044" d="M500 1135q0 -16 -6.5 -33t-10.5 -33q-8 -25 -13 -49.5t5 -48.5q4 -18 -2 -34.5t-10 -33.5q-10 -27 -16.5 -56.5t-16.5 -55.5q-4 -14 -7 -27.5t-7 -30.5l-19 -71q0 -6 4 -15l15 -8q41 2 84 0t80 2q8 2 14 8t12 13q23 111 48.5 222t56.5 218q2 12 16 20l-4 2q4 -4 5 -1t3 3 h2q0 2 4 0q23 6 44.5 4t43.5 0q18 12 41 13q4 -2 10.5 -1t10.5 1q12 -16 14 -21q0 -8 -4 -15t-2 -11q-4 -10 0 -17q2 -2 6 -5t8 1q4 2 5 7t6 10q10 10 14 25.5t20 19.5l2 2q14 -2 27.5 1t24.5 -7q4 -2 4 -7q0 -4 4 -6t0 -3t0 -5q0 -6 -3 -12t-3 -13l-2 -2 q-27 -90 -53.5 -182t-49.5 -182q-4 -16 -14 -27.5t-8 -27.5q-10 -35 -18.5 -73t-18.5 -73l-39 -188l2 -2q-16 -68 -26.5 -136.5t-24.5 -136.5q4 -4 0 -6t-2 -6q0 -4 -2 -8t0 -8q-2 -4 -2 -11q0 -6 -7 -10q-2 -6 -10 -6q-6 0 -12 -2l-1 2t-3 0h2q-4 2 -8 12q-6 8 -17 4 q-6 -10 -18 -12t-21 -2q-6 0 -13 -1t-13 1q-14 0 -27.5 6t-25.5 -6q-16 -4 -36 -3t-30 15q-4 4 -7 11.5t1 15.5q8 72 19.5 145.5t21.5 145.5q4 16 6 38.5t6 41.5q-4 14 -16 18q-2 -2 -4 0t-4 -2q0 2 -5 2q-2 -2 -3 0t-3 0q-29 4 -59.5 2t-58.5 2q-16 4 -21 19q2 16 15.5 21 t23.5 9q0 4 2 6.5t-2 6.5t-11 3t-14 3q-4 0 -11 -1t-11 -7l-2 2q-10 -4 -17 -13q-14 -39 -20 -78.5t-16 -78.5q-12 -72 -25.5 -138.5t-24.5 -138.5q-4 -27 -22 -37q-12 -4 -25 -4q-10 0 -20 10q-8 6 -7 16.5t-8 14.5l-6 4q-10 0 -16 -10q-6 -12 -16.5 -25.5t-28.5 -13.5 q-18 2 -37 2q-16 0 -37 2q-12 0 -16 15q-6 20 -2 39.5t6 41.5q8 45 15 90.5t14 92.5q-4 35 -5 67q0 35 11 70q18 145 43.5 289.5t56.5 288.5q8 33 11 68.5t32 55.5q18 8 39 2l7 -7t1 -9q0 -14 -3 -23.5t-5 -21.5q4 0 4 -4q0 -2 4 -2q0 2 2 0q12 2 19 16q10 16 16 37t29 29 q14 4 21 -7.5t20 -11.5q12 0 22 9.5t23 9.5q16 4 31.5 1t29.5 1q15 0 25 -12z" />
<glyph unicode="i" horiz-adv-x="532" d="M483 1145q18 -4 21 -21q4 -6 2 -15t-6 -15q-12 -45 -23.5 -89t-21.5 -92q-4 -12 -1 -20t7 -21l2 -16q0 -4 -2 -9t0 -9l-2 4q-6 -27 -15.5 -55.5t-13.5 -57.5l-2 -2q-45 -168 -79 -340t-62 -350q-4 -6 -12.5 -14.5t-18.5 -10.5q-12 -4 -25.5 -2t-25.5 2q-27 -16 -62 -10 q-14 4 -20 16.5t-3 28.5t-11 21q-16 -6 -19.5 -23.5t-19.5 -28.5q-4 -4 -13.5 -7t-15.5 1q-4 0 -7 4t-7 9q-4 18 1 37.5t5 35.5q6 53 13 106.5t11 106.5q0 4 -2 9.5t2 9.5q-2 29 3.5 58.5t7.5 59.5q4 45 12 95.5t14 93.5q10 39 14.5 77t14.5 79q4 37 11 75.5t16 77.5l-3 2h3 q2 0 2 4q4 10 5 22.5t7 22.5q4 31 10 58.5t12 56.5q2 12 14.5 20.5t22.5 12.5q2 -4 6 0q14 -6 27.5 -3t26.5 -7l12 -15v2q0 -4 2 -3t6 -3q2 4 5 3t3 3v-2q6 0 10.5 5t12.5 7q12 0 18 -4q4 -4 4 -8t4 -8q-8 -12 -2 -23q4 -10 13 -2q4 4 7 7.5t3 9.5q10 12 13 26.5t20 16.5 q16 4 30.5 2t30.5 -2h8z" />
<glyph unicode="j" horiz-adv-x="714" d="M575 1139q8 -8 9.5 -17.5t5.5 -19.5l-2 -8q0 -8 6 -11q10 -4 13 4.5t7 12.5q6 14 18.5 24.5t29.5 10.5q16 4 22 -13q0 -4 2 -4q-2 -8 -1 -15t-3 -13q-18 -72 -32.5 -139.5t-28.5 -135.5l-15 -43q-8 -16 -11 -36.5t-9 -39.5q-20 -88 -37 -176t-33 -180q-4 -10 -3 -20.5 t-3 -20.5q4 -4 2 -11t0 -14q0 -27 -6 -57q-4 -8 -5 -15t-5 -18l-2 2q-29 -51 -75 -90t-100 -59q-16 -10 -34.5 -14.5t-34.5 -12.5q-4 2 -8 0t-9 -2q-33 -6 -68.5 -7t-68.5 3q-10 0 -19 1t-20 1v-2q0 4 -3 2t-5 0q-12 8 -18 23q-4 23 0 45t6 45q4 2 5 6t5 6q4 0 7 6t9 2 q6 2 15.5 1t13.5 5q8 12 0 19q-6 10 -16 4q-2 -2 -2 0q0 4 -2 2q-10 0 -17.5 8t-11.5 12q-2 12 4 23q12 18 33 12q12 -6 25.5 -5t25.5 3q8 4 17.5 5t15.5 10q4 -4 4 0t2 2h2l-4 2q10 0 15 6t14 14v2q14 16 23 34.5t7 41.5q4 16 4 35q0 18 5 35q18 174 43.5 346t62.5 346 q2 8 10 16q16 16 36 13t38 2h55q20 8 41 12t43 -2z" />
<glyph unicode="k" horiz-adv-x="956" d="M772 1126l2 -22q-4 -8 -5 -16.5t-3 -12.5q8 -8 16 -6q6 6 11.5 12t13.5 13q8 4 18 4q12 0 23 -8q4 -4 10 -7.5t10 -9.5q10 -10 14.5 -18t14.5 -17q6 -6 15.5 -12t9.5 -16q4 -4 4 -15q-4 -4 -7.5 -8t-7.5 -8q-74 -86 -141.5 -169t-134.5 -175q-4 -6 -8 -12.5t-4 -16.5 q4 -16 10 -29.5t12 -29.5q10 -20 19.5 -43t19.5 -45q10 -18 25.5 -35.5t21.5 -40.5q16 -35 29.5 -72t30.5 -73q4 -4 4 -9q0 -2 2 -6q10 -27 19 -49t20 -51q0 -8 1 -15.5t-6 -13.5q-14 -16 -37.5 -24.5t-39.5 -18.5q-23 -8 -35 2q-6 2 -10 9.5t-7.5 13.5t-8.5 10t-13 2 q-4 -4 -4 -12v-2q0 -10 -2 -23.5t-12 -19.5q-2 -4 -9.5 -5t-11.5 -6l-17.5 -7t-15.5 -9q-10 -2 -18 -4t-17 6q-10 4 -12 11.5t-8 15.5q-37 115 -80 228.5t-90 223.5q-8 12 -18 13q-16 -4 -19 -13q0 -10 -4 -14q-4 -16 -6 -34.5t-6 -35.5q-12 -66 -23.5 -130t-21.5 -128 q2 -6 0 -8t-2 -12v-2q-8 -25 -6 -48.5t-15 -43.5v-2q-6 -10 -19.5 -12.5t-23.5 -0.5q-14 4 -17 19.5t-3 25.5q-6 6 -11 4q-14 -10 -17 -26.5t-19 -20.5q-23 -6 -50 -2q-16 0 -32.5 1t-26.5 12q-6 0 -8 6t-6 10q0 10 2 22.5t0 28.5q4 8 4 19q2 16 4 33.5t2 33.5q4 20 4 37 q0 18 4 37q-4 18 4 37q-2 12 0 21.5t2 23.5q2 8 3 13t1 13q6 41 9.5 77t9.5 75q0 8 3 13t1 14q4 23 8 49t6 51q4 2 2 2t0 4q4 25 8.5 51.5t8.5 49.5q-4 45 7 85.5t15 86.5q6 31 12.5 62.5t14.5 61.5q4 27 11 54.5t36 38.5q10 2 21.5 -1t19.5 -16q4 -10 0 -25.5t0 -31.5 q2 -4 12 -4q10 10 11 24.5t8 24.5q16 18 34.5 17t38.5 1h25q6 4 11 5.5t7 5.5q16 4 34 5t34 -5q4 -2 6 -7.5t6 -11.5q2 -10 0 -17t-6 -17.5t-4 -24.5q0 -12 6 -23q-2 -4 1 -7t-1 -7q2 -6 1 -11t-1 -12h-2q-14 -47 -26.5 -94t-24.5 -92q0 -10 -4 -17.5t0 -15.5q4 -4 8 -5 t8 -3q16 10 25.5 28.5t23.5 30.5q47 59 92.5 123t94.5 123q10 16 21 29.5t24 28.5l9 9t13 1q10 -2 20.5 -5.5t14.5 -13.5z" />
<glyph unicode="l" horiz-adv-x="679" d="M348 1141q4 2 5 -3t7 -5q6 -6 3 -17.5t-1 -17.5l-2 4q0 -6 -2 -14.5t2 -12.5q-4 -4 7 -14q10 4 16 13t10 20q6 14 14.5 27.5t26.5 13.5q10 -4 21.5 -2t23.5 -5l-2 2q12 -4 12 -14l-2 2q4 -12 0 -26.5t-6 -28.5q2 -4 2 -14q2 0 2 2v2q-2 -16 2.5 -32.5t-0.5 -33.5 q-10 -18 -14 -39.5t-10 -44.5q-37 -150 -71 -303.5t-56 -300.5q0 -8 -3 -19.5t5 -21.5q4 0 5 -4t5 0q8 -4 16.5 -2t18.5 -2q2 4 4 2t6 -2q6 4 11.5 2t9.5 -2q12 0 26.5 1t28.5 -1q4 4 7 2t7 -2q41 -2 77 -1t77 -3q18 -10 11 -29.5t-7 -32.5q0 -16 -12.5 -28.5t-10.5 -28.5 q4 -2 3.5 -5t1.5 -5q12 -10 10 -22.5t-4 -24.5q-8 -18 -9.5 -42t-29.5 -28q-10 4 -16.5 1t-16.5 1q-51 2 -103.5 3t-101.5 -1q-16 0 -30.5 5t-26.5 11q-12 -2 -22.5 -10t-26.5 -6q-23 0 -49.5 1t-49.5 -1l-24 8t-14 19q-2 4 -3 8q0 6 -6 8t-10 -5t-8 -11q-4 -6 -8 -11.5 t-8 -11.5q-4 0 -5.5 -3t-5.5 -3q-8 0 -12 3t-10 7q-6 18 -3 39t5 39q10 74 22.5 151.5t24.5 149.5q-2 8 -2 17q0 8 -4 14l2 4q-4 23 -2 45.5t6 42.5q8 53 15 103.5t18 103.5q10 59 20 117.5t23 117.5q0 10 3 22.5t5 25.5q4 29 9 54t15 52q8 6 17.5 11t19.5 7q16 -2 35 1.5 t33 13.5q10 4 19.5 3t19.5 1q4 -4 8 -3t6 -3zM483 1126l4 -8z" />
<glyph unicode="m" horiz-adv-x="1361" d="M659 1133q6 -2 7.5 -8.5t5.5 -8.5q0 -4 2 -5t-2 -3q2 -4 1 -6t3 -4q6 -41 16 -85t19 -91h2l-2 -2q2 -2 3 -5.5t3 -7.5q6 -25 8 -47t4 -51q-4 -18 -4 -39q0 -18 8 -37q0 -2 -2 -5t2 -3q-2 -12 3 -24.5t3 -22.5q4 -8 4 -19q0 -10 11 -16q18 -6 24 10q23 41 39.5 81t38.5 81 q12 33 28.5 62.5t30.5 62.5v4q2 0 7 4q8 14 12 25.5t12 25.5q6 10 11.5 22.5t11.5 22.5q8 10 17 17.5t18 13.5q10 14 18 29.5t18 28.5q10 8 22.5 10t22.5 0q4 2 10.5 0t6.5 0q6 -2 11 -1t11 1q14 -2 27.5 -9.5t19.5 -23.5q8 -16 7.5 -31.5t5.5 -31.5q0 -10 8 -11 q12 4 11 14.5t1 18.5q2 14 0 29.5t13 25.5q4 0 6 -1t6 1q-4 4 -4 2q4 0 4 -2t4 -2q12 -16 13 -32.5t5 -36.5q18 -102 29.5 -193.5t24.5 -189.5v-2q-2 -4 0 -9.5t2 -9.5q0 -53 7 -106.5t1 -106.5v-26t2 -27q4 -78 8 -158t6 -164q2 -10 -2 -22q-4 -18 -18 -27q-8 -4 -23 0 q-10 4 -13 15.5t-13 19.5q-4 -2 -6.5 0t-6.5 0q0 2 -2 0l-2 -2q-4 -6 -7 -13t-5 -18q-4 -2 -4 -6q0 -2 -4 -2q-2 -2 -8 -2q0 -4 -4.5 -2t-6.5 -2v2q-16 -4 -37.5 0t-38.5 6h-22t-23 4q-20 16 -20 41q0 27 -4 49q-4 27 -7 55.5t-7 57.5q-4 27 -6.5 48.5t-6.5 45.5q-4 4 -2 6 t0 7q-8 39 -14 83t-17 84q-4 0 -4 3q0 4 -2 4q-6 8 -18 8q-16 -18 -22.5 -36.5t-16.5 -37.5q-25 -59 -48.5 -115.5t-45.5 -113.5q-4 -10 -8.5 -18.5t-6.5 -18.5h-2q0 -4 -4 -9l-8 -10l-2 -4q-10 -10 -18.5 -19t-10.5 -22q-4 -4 -4 -10t-4 -12q-4 -12 -12 -25.5t-25 -15.5 q-31 -4 -60.5 -2t-60.5 2q-10 4 -20 10t-12 19q-16 72 -31.5 145.5t-32.5 144.5l-8 15l-5 10t-5 12q-6 16 -9 33.5t-8 34.5q-4 10 -7 22.5t-7 22.5q-4 4 -6 7t-8 -1q-10 -4 -13.5 -16.5t-9.5 -22.5l2 -2h-2q-14 -35 -28.5 -69.5t-28.5 -69.5q-4 -6 -8 -17.5t-6 -19.5v-4 q-12 -31 -24.5 -62.5t-23.5 -60.5q-2 -14 -10 -33q-10 -23 -17 -46t-16 -46q-8 -14 -32 -20q-23 0 -33 2l-2 -2q-14 0 -31.5 3t-23.5 19q-2 6 -2 16q0 12 -11 19q-2 0 -12 -4v2q-6 -4 -9 -11.5t-7 -15.5q2 -2 -5 -8q-2 -4 -7 -7t-5 -7q-4 -4 -7 -2t-7 -2q-10 0 -22.5 -1 t-18.5 7q-6 6 -4 6q-4 8 -2 15t4 18q4 14 9 27.5t7 29.5q4 2 2 5t2 7q16 51 31.5 100.5t32.5 100.5q10 29 19.5 56.5t19.5 58.5v2t2 4q12 33 27.5 71.5t27.5 73.5q37 98 78 193.5t82 189.5q10 25 21.5 48.5t23.5 47.5q2 10 14 27q14 16 36 21.5t40 1.5q6 0 11 -4.5t7 -6.5h2 q2 -6 6.5 -11t6.5 -11q6 -6 12 -2q8 6 9 14t3 19q0 2 4.5 3t1.5 5q2 -2 3 -4q0 -2 0 2q12 10 28.5 8t30.5 -4q10 0 14 -3t8 -7zM821 156v-2v2zM92 29l2 2v-2h-2z" />
<glyph unicode="n" horiz-adv-x="1134" d="M1040 1130q4 -6 1 -13t6 -11q8 2 13 9t10 14.5t12.5 10.5t17.5 -3q8 -6 5 -13.5t-3 -17.5q-10 -18 -14.5 -40t-10.5 -44q-16 -61 -31.5 -121.5t-27.5 -124.5l-41 -184q-25 -121 -45.5 -238.5t-36.5 -238.5q2 0 2 2v2q-4 -12 0 -25q-4 0 -4 -4v-8l2 -2q-4 0 0 -4 q-2 0 -2 -2q-4 -10 -5 -23.5t-5 -27.5q-2 -4 -4 -6.5t-5 -6.5q-8 -10 -25.5 -9t-29.5 3l-12 6v-4q-4 4 -6 9t-10 8q-10 4 -14.5 -4.5t-10.5 -12.5q-12 -8 -25.5 -5t-25.5 1q-4 2 -9.5 3t-9.5 5q0 -2 -4 2q-2 8 -8 17.5t-10 19.5q-25 49 -50.5 98.5t-50.5 98.5 q-23 14 -33 36.5t-20 41.5h-2q-20 43 -44.5 87t-47.5 89q-8 10 -12 18t-15 19q-12 4 -18 -2q-10 -12 -14 -33q-25 -113 -47.5 -227.5t-38.5 -227.5l2 -2q-4 -10 -8.5 -16t-12.5 -13l2 -2q-10 -6 -19 -4t-20 0q-10 2 -18 10h-2q-2 2 -3 6.5t-5 8.5l2 35q-2 2 -4 5t-7 3 q-4 0 -8 -2t-4 -6q4 -6 -1 -9.5t-1 -7.5q-4 -6 -7 -16t-3 -14q-4 -8 -14.5 -15.5t-20.5 -5.5q-12 -2 -27.5 0t-29.5 2q-16 0 -31 14q-10 16 -7 39t3 41q4 41 8 79t8 75q2 10 3 21.5t1 21.5l2 4q2 25 6.5 51.5t8.5 52.5q0 6 2 12.5t2 14.5q18 123 39.5 245t50.5 245q0 4 2 10 t2 10q4 2 8 12q18 16 20.5 42t10.5 50q4 16 8 33t8 33q0 10 8.5 17.5t16.5 11.5q23 4 46.5 1t45.5 1q27 -14 27 -39l4 -8q12 -4 15 6t9 16q2 10 15 19q20 8 34.5 -3.5t24.5 -25.5q27 -51 53.5 -99.5t51.5 -99.5q-2 -4 1 -5t5 -5q29 -66 59.5 -129t58.5 -127q4 -4 7.5 -7 t9.5 -1q16 2 13 15.5t1 23.5q16 102 31.5 213.5t38.5 216.5q2 6 4 13t6 11q6 18 25.5 16.5t33.5 2.5q10 0 21 -6q6 -6 6 -15q0 -8 -2 -14q-6 -10 -5 -25.5t-3 -28t6 -16.5q2 -4 5 -3t5 5q12 18 18.5 40t14.5 42v-2l2 6q4 -2 4 2t2 5q14 12 41 12q12 -2 29.5 -1.5t23.5 -15.5 z" />
<glyph unicode="o" horiz-adv-x="1032" d="M668 1145q-27 4 -58.5 1t-62.5 -9q-16 -4 -32.5 -9.5t-27.5 -17.5q-12 -16 -4 -39q6 -12 -8 -18q-4 -2 -8 -1t-8 1q-10 10 -19.5 17t-21.5 3q-72 -27 -133.5 -75t-108.5 -109q-12 -12 -12 -31q0 -18 -4 -35q-39 -59 -68 -133q-41 -98 -55 -208.5t16 -215.5 q14 -55 43 -107.5t72 -87t94 -51t103.5 -19.5t103.5 7t94 31l2 -2l4 2q0 -2 -2 -2v0l2 2v4l2 -2q18 12 32.5 18.5t31.5 18.5q6 0 6 2l2 -2q8 10 19.5 17t21.5 16q29 20 52.5 46.5t49.5 51.5q41 53 78 105.5t64 111.5q51 102 69.5 221t-20.5 232q-23 66 -63 124t-99 97 q-66 41 -145 47zM553 1010q0 -10 -9 -13.5t-16 -7.5q-12 -4 -16 -2q-8 8 -2 17q4 6 12 9t17 7q14 0 14 -10zM686 748q16 -86 -8.5 -168t-63.5 -158q-23 -43 -54.5 -85t-78.5 -58q-31 -16 -69.5 -13.5t-63.5 25.5q-20 14 -32.5 37.5t-16.5 44.5q-4 14 -6 33.5t2 31.5l-2 2 q2 4 2 13q0 8 4 16q-2 4 -1 11t3 14q6 27 12 51t19 47q0 8 8 16l2 2l-2 2q4 4 6 9.5t6 9.5q8 16 20.5 31.5t22.5 31.5q6 4 11.5 12.5t13.5 12.5q29 29 58.5 48t70.5 30q20 8 20 26v8q2 4 1 2t-1 1q-2 8 -4 15t2 15q12 2 23.5 -4t21.5 -10q29 -16 49.5 -42.5t24.5 -59.5z" />
<glyph unicode="p" horiz-adv-x="899" d="M311 1147q-18 -4 -34.5 -3t-36.5 3q-27 -4 -58.5 -3t-58.5 -3l-6 -6t-6 -7q-4 -16 -8.5 -31.5t-0.5 -33.5q4 -6 8.5 -10t8.5 -13q6 -16 -7.5 -23t-17.5 -18h2q-4 -4 -4 -12q0 -6 -4 -10q-2 -23 -7 -44.5t1 -43.5q6 -16 21.5 -17.5t27.5 -3.5q16 -2 32.5 0t33.5 -6 q0 -4 2 -7t0 -7h-2q-14 -14 -33 -14q-2 -6 -4 -2t-4 -1q-2 2 -3 -1t-6 1q0 -6 -6 -8q-4 6 4 6q-4 0 -4 2v-6l-2 2v-4h-4l-4 -2l2 -2l-2 -2l-1 -1t-1 1q-2 2 -1 0t-3 0v-2q0 -4 -1 -3t-1 -1v-2v-2h-2l-6 -6q-4 -23 -7.5 -48.5t-9.5 -47.5q0 -14 -4 -27.5t0 -26.5q4 -6 4 -12 t2 -12q-2 -25 -5 -49.5t-5 -47.5q-6 -27 -7 -50t-13 -46q-10 -29 -11.5 -59.5t-5.5 -59.5q-2 -16 -3 -31.5t-3 -31.5q-4 -41 -6 -79t-8 -81q2 -23 -3 -45t11 -41v-2l-2 2l14 -2q10 0 18.5 8t18.5 -4v-2q6 -2 12.5 -5t14.5 1v-2l6 4q14 4 14 23q4 12 5 27.5t18 19.5 q10 -6 11 -21.5t1 -25.5q0 -8 5 -13.5t9 -9.5q14 -2 28.5 -3t31.5 3q6 4 12 9t6 14q0 16 2 31.5t6 27.5q4 23 7.5 40t7.5 38q4 23 8 47.5t8 48.5q6 8 5 20.5t5 18.5q4 35 12.5 68.5t14.5 68.5q2 10 12 19q4 2 15 -4q4 -4 5 -8.5t5 -8.5q2 -10 9 -9t15 -1q6 0 13.5 2t11.5 2 t7 1t7 1q2 -2 4 -3t7 -5q0 -8 -9 -10q-12 -6 -22 -11.5t-21 -11.5h2q0 -4 -3 -8t-1 -8q2 -8 15 -17q14 0 28.5 4.5t24.5 6.5v-2q2 6 4 4t6 4q2 -4 8 2q4 -4 5 1t4 1q6 4 13 6t13 6q10 2 22.5 8t22.5 9q2 4 4 3t2 3q8 2 15.5 7l13.5 9q2 2 5 1t3 1q59 35 103.5 77t85.5 97 q10 16 18 33.5t14 28.5q8 18 16.5 39.5t12.5 44.5q2 6 1 11t3 9q4 41 3 82t-13 78q-2 2 -2 4q0 4 -4 8q-6 23 -20.5 43.5t-28.5 42.5q-8 4 -13 12l-37 31q-18 12 -47 27q-6 2 -9 6t-7 2l-2 2q0 2 -4 2q-25 23 -57.5 24t-61.5 5l-4 2h-29q-55 4 -106.5 3t-106.5 3zM469 868 h18q10 0 21 -4v-2q4 4 7 2t7 -4q2 -4 8 -4t11 -6q4 -2 9 -6t7 -10q4 4 3 -1.5t5 -1.5q0 -6 3 -9t5 -7q18 -41 3 -83t-48 -75q-16 -16 -37.5 -29.5t-44.5 -23.5q-8 -2 -15 -5t-15 -5l-4 2v-2l-2 2v-2q-4 4 -10.5 3t-10.5 7q-8 10 -4 18.5t6 18.5v8t4 8q-4 4 0 11 q10 37 20.5 75.5t20.5 73.5v4q4 8 5 16.5t5 18.5q11 14 23 12zM389 856q2 -6 1 -9t-1 -7q-4 0 -2 -3t-2 -3q0 -8 -4 -11h2h-2q-2 -4 -2 -8q0 -2 -4 -6v-2q-4 -4 -4 -10t-8.5 -8.5t-12.5 10.5q2 4 2 8q0 6 2 10q-2 0 -2 2q0 4 2 4q4 10 6 21.5t11 15.5q6 0 10 -2t8 -2z M137 823v-2v2z" />
<glyph unicode="q" horiz-adv-x="995" d="M705 1116h-5q-47 14 -101 11t-99 -25q-4 -2 -8.5 -5t-8.5 -5q-2 -4 -6 -5.5t-8 -5.5q-2 -4 -5 -7t1 -7q-4 -10 -2 -18.5t4 -18.5q6 -14 15.5 -17t20.5 -1t23.5 5t22.5 1q2 0 6 -8q2 -6 -5 -10.5t-9 -6.5q-12 -8 -19 -8q-2 -2 -4 -2t-2 -4q-6 -2 -14 -2h-17q-6 4 -10 11 t-8 13h4q-4 4 -4 9q0 4 -2 8q-8 8 -18.5 15t-20.5 7v2q-14 0 -29.5 -5t-29.5 -11q-37 -20 -72 -43q-41 -25 -71.5 -58.5t-55.5 -70.5q-16 -20 -18.5 -50t-14.5 -48q-43 -74 -70.5 -161t-27.5 -175q2 -12 1 -24.5t3 -22.5q2 -49 13.5 -88t29.5 -84q29 -57 75 -104.5 t111 -71.5q37 -16 71 -18.5t75 1.5q2 2 3 -1t3 1q49 6 93 21.5t85 38.5q4 0 8 3t8 5h11q8 0 12 -4q10 -16 17.5 -28.5t17.5 -29.5l4 -8t4 -6h-2q4 -4 6 -5t4 -5q6 -2 12.5 -5t10.5 -3q16 4 36.5 6t24.5 18.5t-7 22.5t-7 20q2 4 6 4t8 -2l37 -35q4 -6 10 -8t13 -6 q20 2 43.5 7t46.5 9q8 4 9 10.5t5 10.5q-4 6 -2 8q-2 10 -7 15.5t-9 13.5q-8 10 -14.5 18t-6.5 21q4 16 -6 39q-12 16 -24.5 33.5t-24.5 33.5q-6 14 -15.5 21.5t-11.5 23.5q-2 14 10 31q41 66 73 140.5t48 154.5q4 29 7 55.5t3 54.5q2 61 -14 125t-45 117q-2 4 -4 7t-4 7v3 q-35 51 -81 91.5t-105 63.5zM541 905q4 -2 3 -6t-3 -6q-8 -8 -25 -4q-8 4 -8 6q-4 6 2 12q6 4 15.5 5t15.5 -7zM676 715q6 -18 8 -41q-4 -4 0 -4t2 -4q4 -20 4 -48q0 -25 -4 -45q-4 -4 -2 -6t0 -6q-4 -23 -10 -43t-15 -41q-2 -8 -12 -8q0 2 -1 1l-1 -1q-16 6 -30.5 0 t-26.5 -10q-12 -10 -24.5 -20.5t-20.5 -26.5q-4 -10 0 -18.5t-6 -12.5q-6 -2 -11.5 2t-9.5 6h-2h-2l2 -2h-2q-4 2 -1 1t1 1q-14 -2 -29.5 -8t-19.5 -23q-6 -14 8 -26.5t18 -26.5q4 -8 11.5 -15t7.5 -18h-2q2 -6 -4 -12q-29 -18 -70 -18t-74 22q-18 12 -34 29q-20 23 -29 53 q-6 10 -7 20.5t-1 20.5q0 2 1 7t-3 5q2 51 18 103.5t41 95.5l8 10q31 47 62.5 86t77.5 74v-2q4 6 11 10t11 8q20 14 21 43q4 4 7 7.5t9 3.5q47 -6 80 -43t45 -80z" />
<glyph unicode="r" horiz-adv-x="862" d="M379 1118q-4 0 -9 -2t-10 2q-25 -2 -50 -3t-48 -1q-33 -2 -65 -2q-31 0 -62 -2q-4 -6 -10 -4t-8 -6q-4 2 -5 -3t-3 -7q-4 -16 -7.5 -34t-3.5 -36q4 -10 4 -27v-28q0 -12 9.5 -18.5t17.5 -10.5q2 -2 2 -8q-6 -10 -14 -10q-8 -6 -16.5 -9.5t-14.5 -13.5q0 -8 -3 -17.5 t3 -17.5q4 -10 13.5 -13t19.5 -1q6 -4 7 -3t5 3q2 -4 3 -2t3 -2q8 2 15 0l2 2q4 -2 8 0t4 -2v2q4 2 8 1t10 -1t11 -13q0 -10 -9 -16q-12 -2 -22 -3t-21 -5q-18 -12 -28 -37q-4 -35 -10.5 -67.5t-10.5 -65.5q0 -2 -2 -2t2 -2q-4 -12 -5 -27.5t-3 -27.5q-10 -20 -2 -41t2 -43 q-8 -61 -17.5 -124t-15.5 -128q0 -16 -4 -32.5t-4 -33.5q-4 -23 -6 -44t-2 -46q-2 -14 -4 -32.5t10 -30.5q10 -10 27 -11q14 -4 29.5 -8t29.5 0v4q10 4 14 13.5t8.5 19.5t5.5 15t5 14q10 6 14 -2q4 -10 4 -25q0 -12 4 -23q2 -6 9.5 -7t11.5 -1q8 0 14 -1t12 5q2 4 6.5 2 t0.5 2l2 3l-2 2h4q2 10 2 18q0 10 4 20q2 10 4 21.5t2 21.5q14 23 20 41q12 59 22.5 117t27.5 117q2 10 2 18q0 10 8 17q12 4 14 -2q37 -63 70 -129t61 -131q8 -12 14.5 -24.5t16.5 -23.5q14 -29 26.5 -58.5t24.5 -59.5l8 -13q6 -6 16.5 -5t18.5 1q10 4 10 15q0 8 9 10 q12 4 22 -3t21 -11q23 4 44 7t44 7q20 6 24 24q-4 31 -14 62t-21 61q-12 47 -28.5 95.5t-32.5 95.5q-8 23 -15.5 44t-15.5 44q-4 12 -10 24.5t-6 24.5q4 6 6 12t6 11q72 51 122 131t60 170q2 53 -8 99t-39 89q-4 2 -4 6t-4 6q-39 59 -101.5 82t-127.5 33q-6 -2 -11.5 2 t-11.5 0q-14 2 -33 2q-16 0 -32 2q-12 -2 -25.5 0t-25.5 -2q-9 4 -27 4zM475 844q10 -4 17.5 -6t17.5 -9q4 -4 11 -8t11 -10q23 -29 22 -59.5t-17 -59.5q-12 -29 -38 -50t-53 -38q-12 -6 -24 -9t-27 -7q-4 2 -13 7t-5 15q10 29 14 53.5t15 53.5q4 20 11 42.5t13 43.5 q0 8 3 15t3 16q8 12 21 12q6 -2 18 -2zM373 831q0 -4 2 -6t-2 -6q4 -10 -8 -24q2 -4 -2.5 -6.5t-0.5 -6.5l-8 -8q-2 2 -3 0t-3 0q-6 0 -6 8q4 12 3 27.5t13 24.5v-3h2q0 4 2.5 2t4.5 3q0 -4 3 -1.5t3 -3.5z" />
<glyph unicode="s" horiz-adv-x="739" d="M610 1143q14 0 19 -4h4h-2v-2q4 2 4 0h4q16 -2 35.5 -3t30.5 -24q4 -18 -0.5 -34.5t-4.5 -35.5q-8 -27 -8 -59q-4 -18 -24 -27q-10 -4 -23.5 -1t-19.5 -9l-2 2q-4 -2 -5 -10q6 -6 15.5 -9t17.5 -6t15.5 -7.5t7.5 -16.5q2 -4 -1 -9t1 -7h-2v2h2q0 -4 -4 -9.5t-8 -9.5 q-10 -10 -29 -8t-29 -4l4 -2l-4 -2q0 2 -4 2l-2 -2h2q-10 -4 -19.5 -1t-17.5 -1q-2 4 -8 2t-10 0q-23 0 -38 -5t-34 -12q-4 -4 -9 -7t-9 -9q-16 -12 -19.5 -33.5t2.5 -40.5q2 -12 9.5 -21t13.5 -20q6 -4 11 -11t11 -13q2 0 2 2q0 -4 7 -10h2q27 -29 51 -62t39 -69 q4 -10 7 -20.5t7 -20.5q8 -18 10 -38t6 -38q-2 -4 0 -10.5t0 -12.5q6 -57 -20 -123q-2 -12 -9 -25t-12 -26q-31 -55 -73 -104q-8 -2 -13.5 -8.5t-11.5 -10.5q-16 -10 -28.5 -20t-26.5 -19l-2 2q-35 -20 -78 -34.5t-86 -22.5q-10 0 -31 -4q-8 2 -14 -2q0 2 -2 2q-2 -4 -4 -1 t-4 1h-72t-72 10q-18 10 -24 29q-2 10 3 24.5t1 28.5q-4 8 -8 16.5t0 18.5q2 10 3 15.5t5 13.5q2 8 3 16t5 19q12 14 28.5 13t32.5 -1q10 4 11 8q-4 10 -13.5 14t-17.5 9l-12 8t-11 12q-2 8 3.5 10t9.5 8q10 4 20 2t21 -6q4 2 8 -1t8 -3q20 -6 44 -9t46 1q10 4 21 4 q12 0 20 8q4 0 6 2t6 2q2 0 4.5 3.5t4.5 3.5q4 2 6 4l4 4q0 2 4 2q10 4 16 13t11 20q16 31 2 69l-2 4q-8 23 -24.5 40.5t-37 32.5t-40 30.5t-34.5 34.5q-14 20 -31.5 41.5t-27.5 44.5q-2 0 -1 3t-1 3q-18 37 -28.5 81t-6.5 85q0 23 5 44t14 42q2 16 10 28.5t14 26.5 q10 16 21.5 30.5t21.5 30.5q8 4 12.5 11.5t12.5 11.5q23 23 49.5 43t54.5 33l2 2h2q43 20 94.5 33.5t98.5 15.5q12 -2 27.5 1t27.5 -1h25q14 0 26 -2zM670 879l2 2z" />
<glyph unicode="t" horiz-adv-x="768" d="M379 1145h94q49 0 96 -2q2 4 3 2t3 -2h70q37 0 72 -4q20 -6 20 -29l-6 -37q2 -16 7 -31.5t-1 -31.5q-2 -14 -5 -33t-7 -29h4q-2 -2 -6 -3t-4 -5v2q-4 2 -4 -2q0 -2 -2 -2q-25 0 -39 -14q-4 -8 6 -15v2q4 -10 7 -13t3 -13q4 -12 -10 -23q-18 -10 -41 -7t-45 1 q-29 0 -53.5 1t-53.5 1q-4 -2 -10 -2q-4 0 -6 -6q-2 -14 10.5 -17.5t18.5 -11.5q2 -4 5 -6t5 -6h-2q10 -10 8 -24.5t-6 -26.5q-14 -51 -26.5 -99.5t-24.5 -97.5q-2 -14 -1 -27.5t-3 -29.5q-6 -20 -11.5 -40t-9.5 -42l-49 -219q-10 -45 -17.5 -88t-17.5 -86q2 -4 -2 -7.5 t-4 -7.5h2q-10 -14 -29.5 -13t-35.5 1q-6 2 -7.5 6t-5.5 8q-2 16 2 35t-6 35q-2 0 -5 2t-5 -2q-16 -18 -16 -47l2 2l-2 -2q2 -4 -1.5 -6t-3.5 -6q-2 -16 -16 -23q-18 -6 -38.5 -3t-39.5 1q-18 0 -26 18q-4 12 -4 25q0 12 2 25q8 96 17 189t19 192q2 6 3 14q0 8 2 16 q2 10 3 21.5t5 21.5q-4 4 -2 7.5t-2 5.5q4 2 4 12q8 53 16 107.5t14 109.5q4 2 2 5t3 7q2 16 6 34.5t-2 35.5q-4 2 -6.5 5t-8.5 5q-31 2 -60.5 -1t-57.5 1q-2 4 -3.5 2t-3.5 0q-2 4 -5 6t-5 6q0 12 -10 22.5t-12 25.5q4 8 4 18q0 12 10 16q20 6 41.5 5t38.5 10q2 2 2 6v6 q-8 8 -19 8q-10 0 -18 4l-2 -2q-2 4 -6 4v-2q-2 0 -3 3t-3 -1q0 4 -1 2t-3 0q-25 14 -23 41q4 23 6 48.5t19 46.5q2 2 4 2t4 2q39 6 73.5 5t75.5 1h54q29 0 55 4q10 -4 21.5 -2t21.5 0zM76 995h4h-4zM412 850l-4 6q-14 4 -17.5 -8t-9.5 -19q-2 -10 -5 -21t5 -20q4 -4 7 -0.5 t5 5.5q25 28 19 57z" />
<glyph unicode="u" horiz-adv-x="1028" d="M451 1143h-50q-23 0 -49 2q-16 -2 -32.5 1t-32.5 -3q-16 -12 -37 -8t-39 0q-14 -2 -21.5 -13.5t-13.5 -21.5q-37 -145 -66.5 -290.5t-50.5 -295.5q-10 -78 -21 -156.5t-1 -156.5q10 -43 25.5 -88t56.5 -72q29 -23 61.5 -31t69.5 -10q8 4 17 2t20 2q16 4 30.5 5t30.5 9 q2 -2 12 5q23 6 46.5 17t44.5 26q4 4 9 7t11 -1q8 -2 8 -17q-4 -4 -3 -7t-3 -7l4 -2q-4 -14 10 -21q-2 -4 5 -6v2q10 -4 20 -3t20 1q4 0 5 2q0 2 4 0q0 2 2 2l-2 2q4 -4 3 1.5t3 0.5v5h2l-2 2q4 4 6 11t6 13l-2 2q4 8 9 18.5t16 14.5q14 -10 9 -24.5t-3 -26.5q-4 -6 1 -11.5 t7 -9.5l-2 -2h8q6 -4 12.5 -3t12.5 -1q23 2 43 0t39 8q4 -4 3 1.5t5 7.5q8 41 15 83t18 82q6 18 17 36t15 38v2q6 29 11.5 59.5t13.5 63.5q16 78 35.5 156t38.5 155l61 224q12 43 25.5 85t27.5 85q4 4 4 8q0 6 2 12q-4 6 -6 11t-10 9.5t-17.5 3.5t-19.5 -1q-31 4 -63 4 q-31 0 -64 2l-2 -2q-18 2 -35.5 1t-33.5 -5q-8 -2 -14.5 -9.5t-12.5 -1.5q-4 -4 -10 -3t-11 -1q-16 -4 -25 -19.5t-13 -31.5q-16 -59 -31 -122.5t-31 -127.5q-23 -109 -42 -217t-38 -215q2 -12 -4 -24.5t-6 -24.5q-2 -6 -8 -8t-10 -4q-14 -2 -23.5 -9.5t-17 -17.5 t-13.5 -19.5t-16 -15.5q-8 -6 -14.5 -11t-16.5 -7q-4 0 -5 -3t-5 1h-2q-10 -4 -21.5 1t-21.5 11q-14 4 -18.5 17.5t-6.5 29.5q2 2 -2 6h2q-2 4 -2 8t-2 9q4 2 2 4t0 6q18 86 39 175t45 175q10 49 24.5 100.5t31.5 100.5q4 25 16 49.5t-4 48.5q-2 0 -4 4l-4 8q-4 27 7 51.5 t17 49.5l2 20q-4 4 -7 8.5t-7 6.5q-8 8 -16 8zM313 305l-2 4l2 -2v-2zM504 252q-4 -8 -12.5 -13.5t-16.5 -7.5q-8 0 -8 7q4 8 11 15t18 9q6 -2 8 -10z" />
<glyph unicode="v" horiz-adv-x="858" d="M319 1145l21 -2l20 -15q0 -8 2.5 -16t-2.5 -18q2 -18 1 -34t1 -32q0 -8 -1 -14t1 -10q2 -39 3 -80q0 -39 4 -78q2 -63 5 -128t9 -122q2 -2 4 -6t6 -4v2v-2q4 0 8.5 2t8.5 4q6 10 7 21.5t5 21.5q23 72 43 144.5t43 144.5q10 37 22.5 74.5t22.5 72.5q4 10 10 25.5t19 19.5 q29 4 47 23q14 10 31.5 7t31.5 -3q29 -2 56.5 -1t56.5 -1q10 0 14 -8.5t8 -14.5q0 -6 -2 -11t-4 -13q-2 -10 -10 -21.5t0 -23.5q6 -4 12 -9.5t6 -13.5q2 -12 -8 -27q-27 -59 -50 -119.5t-48 -119.5l-72 -182q-29 -86 -57.5 -167t-52.5 -167q-2 -4 -5.5 -10.5t-0.5 -10.5 q-4 -23 -20.5 -41t-20.5 -43l-2 2q-8 -29 -13.5 -52t-13.5 -52q2 -8 -6 -17.5t-15 -13.5q-6 -2 -14 -2q-6 0 -12 -4q-18 2 -32.5 1t-31.5 -1q-14 2 -21 5t-18 15q-4 4 -5 9.5t-5 9.5q2 2 0 5t-2 5q-8 8 -14 4q-4 -4 -3 -11t-1 -11q2 -4 0 -8.5t0 -8.5q-4 -6 -11.5 -8 t-13.5 -6q-4 4 -6 1t-6 1q-6 0 -10 -2q-4 2 -11.5 5t-11.5 9q-14 35 -19.5 73t-17.5 73q-14 70 -29.5 139.5t-31.5 142.5q-2 4 0 11q-8 47 -16.5 92t-16.5 92l-2 4q-6 33 0 66q-12 76 -21.5 149.5t-19.5 151.5q-4 27 -6 50t-4 48q-4 4 -1 12t7 12q10 10 25.5 7.5t29.5 1.5 q4 0 9 -1t10 3l4 -2q18 2 35.5 0t35.5 -2q10 -4 19.5 -10.5t13.5 -16.5q2 -8 2 -18q4 -10 5 -19.5t12 -13.5q8 -4 10 3t4 11q4 16 2 36.5t14 31.5q8 6 17.5 4t17.5 2q4 -4 7 -2t9 0z" />
<glyph unicode="w" horiz-adv-x="1460" d="M319 1145q8 0 17 -4q4 2 12 -6q10 -6 11 -17.5t1 -21.5q0 -23 -1 -43.5t-3 -40.5q2 -6 0 -11.5t0 -9.5q-4 -104 -3 -204.5t5 -204.5q4 -10 11 -4l6 2q4 10 8 22t10 25q0 6 4 12t4 14q47 119 95.5 236t99.5 229q4 6 10 14.5t15 6.5q23 4 48 3t44 -5q6 -2 9 -6.5t7 -12.5 q4 -4 8 -7t11 -3q6 2 10 7t8 9t9 3t11 -1l-4 2q6 -2 10.5 1.5t8.5 -3.5q12 4 25.5 1t25.5 -7q4 0 4 -4t4 0q0 -10 1 -16t3 -15q4 -2 1 -3t-1 -5q2 -31 4 -58.5t6 -57.5q4 -59 10.5 -121t12.5 -121h4q-2 -16 0 -36.5t4 -37.5q4 -6 4 -14q0 -6 6 -10q-2 -2 0.5 -6.5t6.5 -7.5 t10 1t9 10.5t7 14.5q23 72 47.5 143.5t53.5 143.5q10 33 21 62.5t22 55.5q0 4 1 7.5t3 7.5q2 2 2 4t4 6q2 10 7 20.5t7 20.5q6 14 18.5 24.5t28.5 10.5v-2l2 2q4 -4 7.5 -1t7.5 -1q14 4 24 -4q12 -14 4 -27.5t-8 -28.5q6 -8 14 -8q16 8 21.5 25.5t17.5 27.5q2 8 8.5 7 t10.5 6q10 4 18 1t19 1q8 0 16 3t18 3q18 -4 39 -4q23 0 41 -9q12 -8 9 -28q-4 -8 -6.5 -13.5t-6.5 -11.5q-102 -199 -188 -401q-29 -72 -57.5 -140.5t-55.5 -138.5q-20 -51 -38.5 -101t-35.5 -103q-4 -6 -6 -12.5t-6 -12.5q-6 -16 -20.5 -29.5t-16.5 -32.5v5q-2 -4 -2 -5 q2 0 -2 -4q-4 -10 -7 -20t-7 -21q-4 -14 -6 -26t-17 -21q-12 -6 -22 -4t-23 2h-2h-2h-2h-2q-12 2 -27.5 -6t-29.5 -4q-14 -4 -33 0q-10 -2 -20.5 -1t-20.5 3q-6 4 -13 7t-7 12q-8 12 -10.5 24t-6.5 25q-27 111 -55.5 222.5t-48.5 221.5q0 4 -6 8q-12 2 -16.5 -9t-8.5 -17 q-61 -113 -119.5 -233t-113.5 -236q0 -2 -2.5 -4t-2.5 -7l-2 -6q-4 0 -10 -4t-10 -6q-14 -4 -31.5 -3t-34.5 1q-16 8 -20 14q-4 18 -4 41q0 25 -10 41q-4 -2 -6.5 0t-2.5 0q-4 -4 -5 -8t-1 -8q-2 -20 0 -38.5t-10 -35.5l2 -2q-2 0 -4 -2t-6 0q-25 -4 -41 10l2 2q-4 4 -4 13 q0 8 -4 12q-6 35 -11.5 66.5t-9.5 66.5q-2 10 -4 24.5t-4 26.5q-10 45 -13 90t-20 93q-4 23 -5 42t-7 41q6 6 0 7q-2 4 -1 11t-3 11l2 2q-4 2 -3 4t-1 4h2q0 2 2 2q-4 4 -4 5q0 18 -2 37.5t-2 37.5q-4 16 -4 31q0 16 -4 33q-2 16 -3.5 31.5t-3.5 31.5q-4 16 -3 28.5t-3 29.5 l2 2q-4 33 -6 70.5t-8 74.5q-2 35 -3 71t-5 70q4 2 2 4.5t-2 6.5q2 8 1 13t1 11q4 4 9 9.5t11 5.5q-6 -4 -10 -6.5t-6 -8.5q14 20 39.5 17.5t46.5 1.5q0 2 2 0t4 0q4 0 7 2t9 2q2 4 19 4q29 0 57.5 1t59.5 -1q2 4 3 2t5 -2h28z" />
<glyph unicode="x" horiz-adv-x="1036" d="M893 1135q4 -16 12 -19q12 -4 19.5 4t17.5 15q-2 2 1 1t5 3q10 4 21.5 2t23.5 -6v2q4 -4 7.5 -8.5t7.5 -10.5q-2 -18 -17.5 -30.5t-23.5 -28.5q-111 -133 -213 -273q-37 -53 -75 -104t-73 -107q-4 -20 0 -35.5t8 -33.5q16 -55 32 -113.5t34 -118.5q33 -111 74 -221 q-2 -6 2 -12t0 -14q-4 -14 -8 -13l-3 -2q-4 0 -7 -2t-7 -2q-27 -2 -49.5 -1t-46.5 1q-14 -2 -25.5 7.5t-19.5 21.5q-4 10 -9.5 22.5t-15.5 22.5q-2 2 -8 -4q-4 -4 -2 -9.5t-2 -9.5l4 -20t4 -21q-2 -4 -1 -8t-3 -6q-6 -2 -12 -1t-13 1q-6 8 -12 8q-23 39 -37 80t-32 80 q-6 18 -12.5 34.5t-12.5 33.5q-6 2 -7 8t-7 4q-2 6 -13 2q-31 -47 -59.5 -95t-56.5 -96q0 -2 -2 -3t-2 -5q-6 -8 -12.5 -15t-12.5 -20q-4 0 -10 -4t-11 -4q-10 -6 -26.5 -5t-28.5 -5q-29 -4 -58.5 3t-58.5 3q-4 4 -11 2t-11 2h-2h-2q4 0 0 3t-4 5q-4 20 7 38t19 36q0 4 3 5 t1 5q37 59 70 121q33 55 64.5 108.5t66.5 108.5q0 4 3 8.5t5 8.5q10 16 18.5 30.5t16.5 30.5q8 20 5 41t-13 39q-8 23 -16.5 51.5t-18.5 50.5q-4 12 -8 15q-2 12 -1 22.5t1 20.5q-25 78 -50.5 157.5t-47.5 159.5v17q0 10 4 16q10 6 20 9t21 -1q6 0 6 -4q0 -2 2 -6l4 -8v2 q0 -10 8 -10q-4 -4 6 -13q0 -2 11 -2q6 6 5 16.5t1 20.5q-4 4 -1 7t3 7q4 -2 7 2.5t7 6.5h2v-2q10 6 21.5 5t21.5 1q10 -4 22.5 -1t24.5 -1l2 2q12 -2 22.5 -8.5t20.5 -6.5v-2q2 -4 5.5 -2t7.5 0q16 -4 34.5 -2t30.5 -14q4 -4 5 -9t3 -12q10 -53 18.5 -102t20.5 -96 q2 2 2 -2t2 -4q4 -6 10.5 -4t10.5 4q39 53 75.5 105t77.5 106q10 14 24.5 29.5t33.5 21.5q20 2 41.5 1t40.5 1q6 -2 14 0t14 0v2q13 0 25 -12zM248 1126l-2 -6z" />
<glyph unicode="y" horiz-adv-x="1003" d="M825 1143h2q2 -4 8.5 -3t10.5 -3q14 -2 26.5 0t29 -2.5t32.5 -1t29 -7.5h2v-2l2 2q8 -25 -9 -41q-10 -12 -21 -25t-22 -28q-23 -31 -47 -60.5t-49 -62.5l-114 -157l-115 -174q-29 -43 -55.5 -84t-55.5 -86q-4 -10 -7 -21.5t-7 -21.5h-2q-53 -78 -103.5 -163t-99.5 -171 l-10 -15q-2 0 -3 -2t-5 -4q-10 -10 -23 -10q-12 0 -22 2l-17 8q0 4 -2 8.5t-2 10.5h-4q2 2 -2 6q-12 2 -19.5 -4t-17.5 -13v-2h2l-4 -4v2q-4 0 -4 -2v0q-4 0 -9 -2t-12 -2h-4q-8 2 -19 0t-24 -2q-10 0 -19 5t-11 20q0 23 12 41q123 254 264 491q4 4 5 11.5t1 13.5 q-23 14 -31 39.5t-18 48.5q-37 104 -69.5 208.5t-61.5 211.5q-4 6 -2 11t4 9q2 6 8 7t13 3q23 4 39 -2q6 -4 11 -12t9 -12q0 -18 12 -27q6 0 11 2q8 10 4 21.5t-4 21.5q4 0 5 5t5 10q14 12 31.5 9t33.5 1h47v-2q2 -4 7.5 -3t9.5 -3q2 2 2 0v0q12 -6 25.5 -4t23.5 -5h2 q0 2 4 0q-4 -6 5 -12t7 -14q2 -4 1 -10.5t4 -10.5q8 -51 17 -98t19 -94q6 -6 13 -6q4 0 6 2q39 53 74.5 107t74.5 108q12 16 27.5 30.5t38.5 18.5q27 -4 53 -2t53 -2zM426 1126l4 -2z" />
<glyph unicode="z" horiz-adv-x="849" d="M668 1143q2 4 3 2t5 0q10 -4 21.5 -8t21.5 -9q18 -2 35 -2h34h3q6 0 12 -3t8 -11q2 -4 5 -8t1 -10q-2 -14 -8 -29.5t4 -28.5q2 -12 0 -21t-6 -20q-8 -8 -15.5 -11t-15.5 -7q-4 -4 -7 -8t-7 -8q4 -4 2 -6.5t2 -4.5q0 -4 2 -5t2 -5q10 -2 12 -10t4 -15q-2 -14 -5 -25 t-15 -20q-25 -10 -51.5 -7t-48.5 -1q-6 2 -7 -12q2 -10 12.5 -12t16.5 -7q12 -4 17 -16q4 -16 -3 -24q-92 -123 -174 -246t-159 -252q0 -18 8 -27q14 -6 28.5 -4t28.5 0q53 -2 108.5 1t108.5 -1q8 -2 15 -12q4 -6 2 -12.5t-4 -12.5q-4 -6 -10.5 -8t-12.5 -4t-10 -6t0 -14 q12 -12 28.5 -10.5t22.5 -18.5v-14h-2q-6 -27 -11 -54.5t-12 -56.5q-2 -14 -18 -23q-4 2 -7 0t-9 -2q-14 0 -27.5 1t-30.5 -3l-2 -2q-16 -4 -30.5 -3t-30.5 3q-63 -4 -129 -2t-125 -2q-39 0 -80 -1t-80 -3q-12 0 -24.5 -2t-22.5 4q-4 -4 -4 -2q0 4 -4 6q0 6 -2 11.5t-2 11.5 q6 39 8 76.5t6 78.5q8 29 21.5 55.5t25.5 55.5q10 14 17.5 30.5t15.5 30.5q18 35 34.5 68t35.5 70q0 23 10 49q10 31 26.5 59.5t30.5 57.5q4 4 5 9t5 9q18 39 40 77t42 77q2 14 -10 30q-4 2 -10 1t-13 -1q-35 0 -69.5 -1t-69.5 -1h-16t-17 4q-8 8 -13 18.5t-1 22.5q-2 4 0 5 t-2 3q2 4 2 11h4l4 20q6 0 6 6q12 10 29 9.5t14 19.5q-4 10 -13 11t-15 5l1 -1t-3 -1l-2 2q0 2 -2 4l1 -1t1 1q-2 2 -2 9q0 4 -2 10t2 10q4 23 7 46.5t11 43.5q10 14 27 15q47 2 90 4t84 4h8h70q4 0 7 1t7 -1h22t25 2l2 -2q29 4 53.5 2t53.5 0q12 -2 26 0q4 4 6 1t4 1 q4 -4 5.5 -2t3.5 -2zM135 922l-2 -4z" />
<glyph unicode="&#x2000;" horiz-adv-x="718" />
<glyph unicode="&#x2001;" horiz-adv-x="1436" />
<glyph unicode="&#x2002;" horiz-adv-x="718" />
<glyph unicode="&#x2003;" horiz-adv-x="1436" />
<glyph unicode="&#x2004;" horiz-adv-x="478" />
<glyph unicode="&#x2005;" horiz-adv-x="359" />
<glyph unicode="&#x2006;" horiz-adv-x="239" />
<glyph unicode="&#x2007;" horiz-adv-x="239" />
<glyph unicode="&#x2008;" horiz-adv-x="179" />
<glyph unicode="&#x2009;" horiz-adv-x="287" />
<glyph unicode="&#x200a;" horiz-adv-x="79" />
<glyph unicode="&#x202f;" horiz-adv-x="287" />
<glyph unicode="&#x205f;" horiz-adv-x="359" />
<glyph unicode="&#x25fc;" horiz-adv-x="1146" d="M0 1147h1147v-1147h-1147v1147z" />
</font>
</defs>
</svg>
