<?xml version="1.0" standalone="no"?>
<!DOCTYPE svg PUBLIC "-//W3C//DTD SVG 1.1//EN" "http://www.w3.org/Graphics/SVG/1.1/DTD/svg11.dtd" >
<svg xmlns="http://www.w3.org/2000/svg" xmlns:xlink="http://www.w3.org/1999/xlink" version="1.1">
<metadata></metadata>
<defs>
<font id="paete_roundregular" horiz-adv-x="1138" >
<font-face units-per-em="2048" ascent="1638" descent="-410" />
<missing-glyph horiz-adv-x="1277" />
<glyph horiz-adv-x="0" />
<glyph unicode="&#xd;" horiz-adv-x="1277" />
<glyph unicode=" "  horiz-adv-x="1277" />
<glyph unicode="&#x09;" horiz-adv-x="1277" />
<glyph unicode="&#xa0;" horiz-adv-x="1277" />
<glyph unicode="!" horiz-adv-x="696" d="M504 1516q0 16 -70 -353q-31 -158 -39 -329q-2 -49 4 -140q8 -119 11 -164q-4 -8 -11 -18q-145 0 -145 367q0 244 84 659q8 41 27 125q12 16 22 16q41 0 82 -69q35 -61 35 -94zM442 209q0 -45 -2 -53q-14 -39 -37 -119q4 -18 7 -60q-4 -29 -35 -28q-49 0 -88 74 q-33 61 -33 106q0 25 41 158q8 35 24 100q63 -2 99 -72q24 -51 24 -106z" />
<glyph unicode="&#x22;" horiz-adv-x="860" d="M692 1092q0 -39 -30 -39q-55 0 -111 125q-27 61 -27 243q0 168 31 209q41 6 79 -45t38 -100q0 -6 -10.5 -79t-10.5 -79q0 -96 13 -143q2 -14 15 -50t13 -42zM365 1163q0 -39 -25 -39q-47 0 -90 80q-33 63 -33 84t-3 66t-3 49q0 225 37 258q47 8 84 -53q33 -51 33 -95 q0 -6 -10.5 -106t-10.5 -107q0 -4 10.5 -67.5t10.5 -69.5z" />
<glyph unicode="#" horiz-adv-x="1482" d="M1335 1030q0 -43 -30 -43q-6 0 -19.5 6t-19.5 8q-12 2 -70 3q-92 0 -180 -27q8 -92 22 -191q4 -4 23 -4q6 0 33.5 3t33.5 3q72 0 115 -59q37 -47 37 -100q0 -33 -12 -37q-27 -10 -100.5 -12t-112.5 -17q12 -180 -41 -237q-47 2 -85 52t-38 105q0 31 14 54q-2 4 -12 4 q-12 0 -111 -25q-106 -27 -159 -43q-8 -4 -9 -24q0 -18 7 -25q33 -31 45 -55q31 -55 30 -88q0 -49 -51 -50q-47 0 -96 64q-41 55 -60 125q-16 -6 -67 -37q-43 -25 -51 -25q-43 0 -80 68q-29 55 -29 84q0 47 94 96q53 23 109 47q-10 80 -10 131l-11 11q-147 -84 -149 -84 q-45 0 -82 67q-29 55 -29 84q0 33 33 58q16 14 84 51q41 18 115 57q-10 96 -25 141q-29 104 -24 152q14 12 26 12q61 0 105 -106q0 -2 28 -111q8 -25 15 -37q106 31 315 92q0 31 -21.5 117t-21.5 92q0 41 27 41q63 0 110 -108q37 -88 33 -119q94 12 137 12q72 0 109 -13 t71.5 -70.5t34.5 -92.5zM899 762v74q2 6 -16 112q-150 -35 -308 -94q12 -113 23 -160q102 23 301 68z" />
<glyph unicode="$" horiz-adv-x="1187" d="M1081 571q0 -135 -120 -239q-88 -76 -275 -154q25 -111 25 -168q-8 -18 -29 -18q-43 0 -84 67q-29 47 -39 84q-4 8 -20 9q-6 0 -22.5 -2.5t-22.5 -2.5q-106 0 -193.5 85t-87.5 178q0 45 29 45q31 0 64.5 -48.5t101.5 -48.5q51 0 120 21q0 -4 -6 403q-6 6 -14 2 q-82 -33 -127 -32q-59 0 -102 65q-37 55 -37 107q0 35 18 61q33 41 66 80q4 6 102 115q82 88 82 98q0 23 -16 117q-4 35 -29 116q-23 74 -23 78q0 43 29 43q57 0 115 -125q25 -66 47 -131q45 37 119 78q84 47 125 47q49 0 88 -74q31 -57 30 -92q0 -29 -9 -40t-32 -15 q-31 -2 -34 -4q-86 -33 -183 -115q-27 -20 -71 -65q-2 0 -2 -37q0 -20 2 -39q18 -12 53 -21q147 -29 258 -170q104 -131 104 -258zM928 686q0 55 -117 96q-68 23 -139 33v-389q256 121 256 260z" />
<glyph unicode="%" horiz-adv-x="1499" d="M756 1184q0 -258 -219 -258q-45 0 -111 20q-227 70 -227 359q0 92 22 168q37 129 121 129q113 0 193 -25q70 -23 141 -121q63 -92 72 -162q8 -61 8 -110zM1251 1454q0 -31 -22 -57q-33 -37 -43 -60q-61 -133 -191 -399q-147 -301 -413 -727q-16 -51 -64 -150 q-4 -8 -26 -8q-45 0 -82 66q-31 55 -31 92q0 76 70 184q256 397 469 838q49 106 98 215q82 164 123 164q47 0 84 -70q28 -55 28 -88zM1399 334q0 -84 -27 -156q-20 -59 -115 -106q-82 -41 -143 -41q-133 0 -217 143q-68 117 -68 234q0 74 52 217q10 25 41 45q23 14 47 28 q4 86 104 86q162 0 254 -172q72 -131 72 -278zM610 1303q0 47 -11 62t-64 15q-35 0 -42.5 -2t-23.5 -16t-23 -14q-12 0 -53 28q-47 -86 -47 -219q76 -25 109 -24q155 0 155 170zM1251 453q0 66 -16 94t-74 28q-20 0 -43 -12q2 -25 -8 -61q-10 -10 -27.5 -13.5t-31.5 -5.5 q-23 -6 -49.5 -79.5t-26.5 -112.5q0 -53 53 -53q47 0 113 32q76 35 92 78q18 52 18 105z" />
<glyph unicode="&#x26;" horiz-adv-x="1810" d="M1649 1163q0 -84 -45 -188q-47 -113 -122 -179.5t-108 -84.5q-39 -23 -88 -23q-86 0 -139 131q-16 -35 -55 -117q-125 18 -140 193h-4q-27 -53 -53 -107q-47 -86 -68 -86q-25 0 -73 89q-25 -37 -52 -74q-45 -59 -67 -60q-23 0 -50.5 33t-35.5 55q-10 39 -19 91 q-47 -61 -92 -123q-94 -117 -135 -117q-57 0 -92 82q-25 61 -25 104t60 162q49 98 76 135q49 68 124 97q-41 82 -40 151q0 168 221 234q127 39 311 38q35 0 281 -45q197 -35 309 -133q121 -102 121 -258zM1475 567q0 -23 -45 -78q-16 -25 -58 -65q-233 -180 -495 -180 q-70 0 -106 15t-99 44q-70 25 -137 98q-57 63 -86 136q-12 29 -13 55q0 55 31 55q27 0 53 -45q16 -31 18.5 -46t6.5 -38q25 -53 180 -119q27 -12 96 -12q131 0 213 31q74 31 113 47q68 33 104 65q25 20 86 91q53 57 60 57q31 0 57 -47q21 -41 21 -64zM1419 956 q-10 4 -34.5 31t-30.5 27q-23 0 -66 -78q-37 -70 -37 -84v-16h19q49 16 149 120zM1546 1243q0 37 -18 60q-47 61 -256 112q-176 41 -285 41q-311 0 -418 -98q-20 -18 -40.5 -55t-20.5 -58q0 -16 39 -100q20 -45 41 -88q39 -117 39 -191q33 51 82 133q12 27 30 72 q4 18 21.5 38.5t30.5 20.5q23 0 75 -75q6 23 34 59.5t48 36.5q47 0 78 -66q27 -57 27 -118q0 -16 -4 -29q152 289 258 289q55 0 96 -75t41 -146q0 -14 -2 -27q35 41 67 115q37 86 37 149zM471 1018q-39 -37 -82 -76q-18 -37 -27 -76q14 8 58 54q24 37 51 98z" />
<glyph unicode="'" horiz-adv-x="761" d="M487 1473q0 -53 -23.5 -151.5t-41.5 -129.5q-6 -25 -14 -49q-12 -41 -31 -41q-45 0 -78 69q-25 55 -25 91q0 33 21 84q27 72 35 104q10 63 39 188q10 2 28 -2q90 -44 90 -163z" />
<glyph unicode="(" horiz-adv-x="860" d="M776 1475q-12 -23 -28 -23q-8 0 -18.5 5t-16.5 5q-31 0 -86.5 -45t-75.5 -82q-84 -160 -139 -381q-55 -213 -56 -379q0 -186 45 -299q20 -49 80 -124q47 -55 47 -107q0 -45 -30 -45q-51 0 -133 129q-63 100 -76 135q-16 43 -39 119q-33 205 -33 305q0 156 45 375 q8 39 72 242q94 297 252 342q51 14 41 14q61 0 108 -60t41 -126z" />
<glyph unicode=")" horiz-adv-x="933" d="M784 760q0 -166 -22 -299q-18 -100 -60 -195q-8 -25 -147 -260q-8 -12 -20 -12q-43 0 -82 69q-33 55 -33 84q0 25 49 99q27 43 55 86q31 53 54 104q70 174 69 436q0 238 -65 367q-82 156 -287 211q-41 10 -74 90q-14 33 -12 76q12 23 29 22l102 -30q94 -29 201 -140 q90 -96 141 -196q74 -147 90 -281q12 -106 12 -231z" />
<glyph unicode="*" horiz-adv-x="999" d="M860 1083q0 -45 -29 -45q-2 0 -204 95h-15v-224q-8 -18 -28 -18q-27 0 -64 51t-37 72q0 109 -10 108q-6 0 -80 -65.5t-80 -65.5q-47 0 -86 64q-35 55 -34 92q0 23 77 88l90 74q-74 66 -73 137q0 45 28 45q14 0 74 -47q39 -29 76 -58q4 0 10 9q-2 -23 -14 221q8 16 26 16 q37 0 72 -53q25 -37 37 -78q6 4 72 58q29 23 55 22q45 0 80 -57q31 -49 31 -88q0 -27 -9 -33q-18 -10 -55 -35q-43 -33 -98 -90q37 -14 108 -53q29 -20 54.5 -64.5t25.5 -77.5z" />
<glyph unicode="+" horiz-adv-x="1089" d="M967 739q0 -43 -29 -43q-4 0 -20.5 6.5t-24.5 6.5q-20 2 -96 2q-139 0 -193 -15q2 2 2 -49v-285q-8 -16 -26 -16q-25 0 -59 46t-34 65q0 80 -8 217q-27 -8 -119 -62q-2 -12 -12 -37l-8 -3t-14 -3q-47 0 -86 58q-33 49 -33 90q0 51 164 121q35 8 100 28v133q0 2 -4 52 q-2 35 2 62.5t18 53.5q37 4 70 -34.5t37 -75.5q-2 -57 2 -176q53 6 129 6q88 0 149 -10q35 -8 64 -55.5t29 -82.5z" />
<glyph unicode="," horiz-adv-x="761" d="M565 51q0 -43 -67 -139q-80 -113 -86 -130.5t-37 -17.5q-35 0 -68 54q-27 47 -26 78q0 25 6 32q66 82 127 166q18 27 18 45q0 -6 -16 56q-10 37 -10 88q6 16 22 16q41 0 74 -72q14 -39 28 -77q35 -62 35 -99z" />
<glyph unicode="-" d="M985 723q0 -43 -51 -43q-4 0 -17.5 6t-19.5 6q-55 12 -158 13q-4 0 -143 -5.5t-145 -5.5q-117 0 -146 12.5t-56.5 55.5t-27.5 78q0 16 10 32q131 -4 277 0q20 2 94 5q66 4 72 4q123 0 219 -23q33 -6 62.5 -53t29.5 -82z" />
<glyph unicode="." horiz-adv-x="729" d="M489 152q0 -2 -38 -140q-4 -18 -23 -18q-43 0 -80 69q-31 55 -31 82q0 33 23 93q20 53 31 61q45 2 81.5 -49t36.5 -98z" />
<glyph unicode="/" horiz-adv-x="1261" d="M1169 1430q0 -29 -8 -39q-14 -4 -39 -19q-39 -33 -71 -90q-143 -225 -396 -661q-12 -20 -114 -185q-78 -123 -99 -188q-29 -63 -77 -185q0 -27 -13 -75q-57 -8 -102 69q-41 68 -41 125q0 33 12 56q18 31 27 57q37 131 131 291q70 111 139 221q231 420 434 719 q14 20 46 45.5t53 25.5q47 0 88 -75q30 -61 30 -92z" />
<glyph unicode="0" horiz-adv-x="1466" d="M1339 1006q0 -96 -28 -238q-8 -43 -33 -111q-45 -125 -117 -225q-4 -8 -227 -268q0 -4 11 -29.5t11 -40.5q0 -43 -30 -43q-12 0 -37 15.5t-35 33.5q-176 -121 -281 -120q-61 0 -90 8q-37 12 -92 51q-127 88 -174 203q-37 90 -37 241q0 182 92 451q18 57 31 84q8 18 27 59 q29 63 98 172q66 102 66 101q0 -20 -27 100q-12 57 -12 117q8 18 28 18q41 0 78 -63q20 -41 41 -80q145 104 275 104q66 0 98 -45q8 -14 29 -37q8 -4 75 -18q49 -12 116 -79t93 -124q51 -110 51 -237zM1198 1118q0 147 -143 148q-70 0 -159 -48.5t-157 -121.5 q-37 -43 -37 -62q0 -2 64 -258q68 -281 86 -379q166 158 258 357q88 188 88 364zM758 311q0 8 -27 101q-31 111 -39 143q-23 129 -90 379q-8 18 -37 45q-37 35 -41 39q-84 -147 -141 -330q-59 -190 -59 -321q0 -82 12 -121q6 -20 67 -45q55 -23 84 -23q10 0 48 6 q66 12 178 90q45 33 45 37z" />
<glyph unicode="1" horiz-adv-x="901" d="M745 45q0 -39 -28 -39q-6 0 -24.5 7t-26.5 7q-31 0 -119 -43q-2 -4 -11.5 -12t-33.5 -8q-53 0 -96 55q-39 49 -39 97q0 33 18 41q31 12 64 24q-10 29 -21 80q-27 211 -29 229v150q0 225 7 426q0 35 8 108.5t8 112.5q-18 -20 -53 -61q-12 -18 -27 -37q-16 -25 -39 -25 q-43 0 -78 66q-29 53 -28 88q0 37 43 82q82 88 84 90q45 59 108 123q33 33 57 32q51 0 93 -77q31 -61 30 -97q0 6 -30 -204q-33 -221 -38 -325t-5 -407q0 -135 20 -309q63 12 124.5 -49.5t61.5 -124.5z" />
<glyph unicode="2" horiz-adv-x="1327" d="M1176 152q0 -41 -33 -41q-6 0 -45 25.5t-58 31.5q-51 18 -135 18q-131 0 -262 -65q-68 -35 -190 -125q-90 -66 -123 -66q-53 0 -94 72q-35 59 -35 98q0 43 151 332q111 211 299 512q238 383 299 488q-6 4 -28 4q-152 0 -334 -158q-47 -41 -47 -45q0 -6 10 -37t10 -37 q0 -37 -43 -57q-33 -16 -67 -17q-57 0 -99 68q-37 55 -37 104q0 47 70 127q96 113 228 183.5t239 70.5q109 0 183.5 -72.5t74.5 -181.5q0 -70 -18 -106q-29 -57 -283 -461q-156 -250 -297 -506q70 27 138.5 52.5t168.5 25.5q172 0 287 -100q27 -23 48.5 -68.5t21.5 -68.5z " />
<glyph unicode="3" horiz-adv-x="1433" d="M1313 512q0 -164 -150 -313q-123 -125 -315 -211q-172 -76 -283 -76q-156 0 -254 125q-90 115 -88 270q18 16 27 17q47 0 86 -72q10 -35 31 -100q12 -37 112 -37q199 0 439 170q252 176 251 346q0 109 -135 166q-94 39 -184 39q-115 0 -229 -43q-76 -27 -162 -78 q-72 -43 -78 -43q-43 0 -82 67q-33 57 -33 88t8 37q147 96 441 310q160 123 301 276q-43 25 -137 25q-33 0 -91 -7q-182 -25 -407 -200q2 -18 2 -31q0 -43 -57 -43q-66 0 -115 61q-43 55 -43 113q0 37 94 96q168 109 273 156q137 59 258 59q63 0 221 -41q70 -18 124 -96 t54 -143q0 -90 -111 -199q-96 -84 -192 -170q0 -6 20 -10q166 -35 291 -205q113 -156 113 -303z" />
<glyph unicode="4" horiz-adv-x="1269" d="M1137 -51q-8 -18 -27 -19q-31 0 -66 45q-31 37 -45 74q-18 51 -30 205q-6 84 -19 414l-631 49q-76 6 -133 80q-51 68 -51 135q0 45 29 98q37 57 76 117q31 47 92 143q68 106 203 328q35 55 65 55q43 0 80 -65q31 -55 31 -92q0 -39 -15 -52q-47 -45 -122.5 -167.5 t-233.5 -372.5q0 -2 14 -13q229 -20 471 -41h119q4 29 0 447q-2 51 -8 176q-2 10 -8 33.5t-6 29.5q0 61 39 62q57 0 102 -107q18 -43 18 -84q0 -119 6 -569q0 -8 19 -55q14 -31 14 -72q0 -31 -2 -37t-26 -30v-205q2 -119 24 -355q0 -4 12 -69q9 -57 9 -86z" />
<glyph unicode="5" horiz-adv-x="1253" d="M1167 1405q0 -20 -12 -39q-45 -8 -129 -8q-8 0 -172 6t-172 6q-106 0 -121 -2q-61 -6 -176 -41q-6 -80 -23 -235l3 -41q57 78 149 120q78 39 143 39q180 0 287 -231q76 -170 76 -317q0 -174 -86 -361q-98 -209 -256 -311q-115 -76 -176 -76q-86 0 -166 113 q-72 100 -72 176q0 14 6 27.5t25 13.5q45 0 115 -127q201 29 344 268q123 205 123 391q0 231 -140 232q-106 0 -188 -76q-39 -37 -113 -139q-51 -76 -84 -76q-49 0 -98 86q-41 72 -41 104v250q0 -4 16 150q-29 16 -55.5 61t-26.5 80q0 29 9 37q25 20 90 43q2 33 8 68.5 t31 35.5q35 0 61.5 -41t34.5 -41q4 0 42 9.5t59.5 11.5t107.5 2q6 0 109.5 -6t109.5 -6h246q43 0 80 -66q32 -55 32 -90z" />
<glyph unicode="6" horiz-adv-x="1318" d="M1196 645q0 -207 -182 -424q-195 -231 -412 -231q-231 0 -342 225q-78 158 -78 363q0 246 94 516q111 315 299 487q104 94 177 94q61 0 110 -68.5t49 -123.5q0 -53 -34 -53q-6 0 -33 16t-35 16q-31 0 -119 -84q-236 -223 -319 -614q-43 -197 -43 -301q0 -49 14 -123 q14 -82 29.5 -98.5t46.5 -28.5q20 -8 43 -16l69 4q-51 78 -51 196q0 70 13 150q25 154 165 307q150 160 293 160q125 0 197 -156q49 -111 49 -213zM1051 760q0 6 -3.5 23.5t-3.5 23.5h-47q-23 0 -94 -45q-59 -37 -69 -47q-59 -55 -107 -117q-109 -143 -102 -330 q80 -16 69 -16q14 0 80 49q106 78 191.5 220.5t85.5 238.5z" />
<glyph unicode="7" horiz-adv-x="1318" d="M1233 801q0 -45 -23 -45q-6 0 -45 20q-45 25 -63 31q-37 10 -111 29q-45 -94 -110 -336q-76 -276 -76 -408q0 -25 6 -35q16 -16 45 -49q41 -63 35 -127q-25 -23 -43 -22q-70 0 -129 118q-47 92 -47 132q0 16 -3 55t-3 45q0 195 133 622q-2 4 -13 5q-47 0 -180 -54 q-139 -55 -143 -84q4 -12 6 -24q8 -27 8 -45q0 -39 -33 -39q-66 0 -120 74q-51 66 -52 118q0 45 66 97q201 162 459 161q45 0 67 -6q8 18 144 443v16q-2 2 -21 2q-72 0 -393 -65q-63 -12 -225 -64q-10 -10 -33 -25q-98 -12 -84 -12q-47 0 -84 70q-29 57 -29 86q0 35 13 41 l122 35q47 16 146 45q379 94 553 94q88 0 147 -82q53 -72 54 -150q0 -41 -62 -249q-33 -109 -68 -218q74 -20 131.5 -77t57.5 -123z" />
<glyph unicode="8" horiz-adv-x="1327" d="M1309 1542q0 -18 -2 -24q-6 -23 -33 -39q-16 0 -41 -4q-102 -45 -158 -86q-203 -139 -436 -500l16 -12q168 -61 277.5 -193.5t109.5 -275.5q0 -188 -148.5 -334t-334.5 -146q-211 0 -309 236q-18 43 -19 153q0 106 27 209q20 72 86 250q-82 39 -137 121q-49 76 -49 145 q0 115 151 285q133 147 315.5 267t272.5 120q66 0 125 -86l94 47q57 27 66 27q47 0 90 -62q37 -55 37 -98zM729 1384q-113 -72 -231 -192q-129 -127 -176 -223q63 -25 94 -25q12 0 16 2q66 106 203 316q53 73 94 122zM895 524q0 61 -160 135q-125 59 -184 68 q-178 -354 -172 -565q8 -6 48 -17.5t46 -11.5q111 0 231.5 84t163.5 201q27 73 27 106z" />
<glyph unicode="9" horiz-adv-x="1318" d="M1155 1333q0 -27 -2 -35q-18 -25 -47 -77q-8 -25 -12 -74q-41 -653 -41 -721q0 -211 6 -315q2 -20 15 -58.5t13 -44.5q0 -18 -34 -102q-27 -2 -43 6q-96 49 -97 266v596q0 -2 9.5 96.5t9.5 149.5q-315 -348 -518 -348q-123 0 -199 121q-63 100 -63 213q0 162 92 327 q106 188 286 275q152 72 234 71q51 0 135 -24.5t110.5 -52t84.5 -125.5q23 -33 42 -65t19 -79zM969 1448q-86 25 -119 25q-76 0 -162 -41q-47 -25 -164 -99q-53 -35 -112 -125q-47 -72 -70 -133q-43 -115 -43 -176q0 -12 6 -18h51q104 0 340 219q199 188 265 295q12 20 8 53 z" />
<glyph unicode=":" horiz-adv-x="802" d="M487 1049q0 -27 -28 -68q-45 -61 -47 -63q-6 -25 -27 -68q-41 -4 -79 46t-38 95q0 47 25 90q12 23 78 109q45 2 80.5 -47t35.5 -94zM528 487q0 -27 -36 -86q-23 -35 -48 -71q-45 0 -79.5 50t-34.5 97q0 31 32 78q49 74 50 74q43 4 79.5 -47.5t36.5 -94.5z" />
<glyph unicode=";" horiz-adv-x="811" d="M504 1012q0 -23 -8 -31q-90 -104 -105 -104q-39 0 -72 65q-27 51 -26 76q0 23 42 77t71 54q41 0 73 -62q25 -46 25 -75zM567 416q0 -61 -110 -277q-12 -25 -72 -108q-43 -2 -80 49q-33 45 -33 90q0 25 21 53q35 51 43 66q98 197 98 223q0 6 -22.5 48t-28.5 63q-2 4 -2 22 q0 39 25 39q35 0 92 -84q39 -59 53 -94q16 -41 16 -90z" />
<glyph unicode="&#x3c;" horiz-adv-x="1171" d="M1051 4q-8 -20 -29 -20q-31 0 -119 86q-29 18 -80 55q-166 121 -331 242q-279 227 -279 356q0 47 84 149q66 78 131 154q53 72 154 217q246 395 295 395q47 0 86 -75q31 -61 30 -90q0 -20 -2 -27q-74 -82 -127 -160q-49 -70 -96 -147q-72 -115 -141 -213 q-35 -47 -146 -178q-92 -109 -92 -117q0 -16 178 -150q164 -125 254 -180q16 -10 62 -47q37 -31 41 -31q6 0 6 3t8 3q35 0 74 -57q33 -47 37 -76z" />
<glyph unicode="=" d="M827 915q0 -43 -32 -43q-6 0 -22.5 7.5t-25 8.5t-90.5 1q-131 0 -178 -12q-33 -10 -97.5 -47t-76.5 -37q-45 0 -86 63q-33 57 -33 94q0 29 9 37q86 78 190 103q61 14 197 14q68 0 112.5 -9.5t88.5 -71t44 -108.5zM983 477q0 -12 -11 -30.5t-28 -18.5q-4 0 -28.5 12.5 t-41.5 14.5q-55 8 -137 8q-123 0 -286 -43q-59 -14 -66 -14q-29 0 -70 49q-35 41 -42 70.5t-5 74.5q2 6 13 16q55 8 184 43q66 16 186 17q121 0 213 -19q41 -10 80 -73.5t39 -106.5z" />
<glyph unicode="&#x3e;" horiz-adv-x="1187" d="M1059 707q0 -39 -33 -78t-65 -76q-59 -70 -177 -205q-88 -86 -235 -231q-2 -4 -94 -111q-6 -8 -29 -8q-49 0 -86 68q-29 53 -29 88q0 37 142 178q98 96 194 192l246 281l-117 141q-66 72 -186 203q-125 117 -250 233q-139 131 -139 209q0 47 32 47q12 0 41 -11t37 -19 q61 -74 348 -353q78 -92 207 -243q45 -43 129 -133q20 -25 42 -82t22 -90z" />
<glyph unicode="?" horiz-adv-x="1368" d="M1255 1374q0 -227 -417 -655q18 -2 43.5 8t29.5 10q47 0 86 -65q33 -55 33 -90q0 -45 -24 -52q-41 -10 -121 -36q-285 -113 -297 -113q-51 0 -92 74q-37 63 -37 106q0 47 51 109q47 53 92 104q147 168 295 336q209 254 209 371q0 33 -21 41q-10 6 -47 6q-254 0 -583 -328 q8 -29 2 -59q0 -10 -45 -34t-62 -24q-51 0 -90 72q-31 57 -31 92q0 45 78 117q168 154 252 215q133 98 248 127q94 25 145 25q127 0 222 -134q81 -117 81 -223zM854 154q0 -25 -8 -35q-25 -31 -80 -68q-82 -55 -94 -63q-37 -29 -76 -29t-80 66q-35 57 -35 90q0 31 15 39 q244 150 249 149q45 0 80 -67q29 -53 29 -82z" />
<glyph unicode="@" horiz-adv-x="1605" d="M1438 477q0 -39 -2 -45q-63 -121 -310 -188q-184 -53 -348 -54q-178 0 -315 74q-84 45 -162 174q-106 182 -106 389q0 190 112.5 396.5t302.5 351.5q113 84 269 84q186 0 270 -81t154 -278q66 -184 65 -313q0 -102 -92 -139q-94 -27 -186 -55q66 -162 65 -209 q0 -43 -29 -43q-59 0 -114 143q-6 23 -31 74q-43 -12 -133 -56q-31 -20 -64 -38q-47 -31 -69 -31q-4 0 -27 12q-2 -4 -6 -39q-4 -23 -27 -22q-53 0 -86 71q-27 53 -26 95q0 61 35 137q53 113 143 334q29 76 53 168q6 25 29 24q27 0 63.5 -44t39.5 -64.5t9 -51.5 q0 -2 97 -256q55 14 110 29q102 33 103 76q0 66 -39 188.5t-58 130.5q-70 35 -165 35q-158 0 -285 -106q-98 -84 -238 -295q-27 -41 -43 -88q-61 -168 -61 -252q0 -92 31 -170q43 -113 137 -127q18 -6 59 -19q70 -12 125 -12q100 0 207 25q94 20 143 32q104 33 183 78 q59 33 73 72q-2 18 -2 53q2 6 11 19q61 -4 100 -68q35 -55 35 -121zM897 967q-16 51 -35 98q-18 -53 -51 -131q14 6 44 17.5t42 15.5z" />
<glyph unicode="A" horiz-adv-x="1269" d="M1219 657q0 -43 -33 -43q-6 0 -107 7v-332q6 -362 -82 -363q-47 0 -86 68q-31 53 -30 88q0 14 11 27.5t15 21.5q27 68 29 160v313l-3 3t-11 3q-16 0 -183 -39q-193 -43 -305 -79q-12 -4 -21.5 -29t-17.5 -47q-25 -57 -45 -112.5t-53 -168.5q47 -18 80 -68.5t33 -93.5 q0 -35 -37 -71.5t-72 -36.5q-47 0 -96 59q-45 53 -62 115q-6 27 -6 102q0 242 262 744q236 451 414 639q121 129 152 129q53 0 92 -84q6 -29 20 -80q2 -10 16.5 -34.5t14.5 -31.5v-200q0 8 -8 -155t-8 -245q61 -23 96 -75q31 -46 31 -91zM956 1358q-178 -201 -401 -608 q246 66 387 77z" />
<glyph unicode="B" horiz-adv-x="1605" d="M1520 616q0 -207 -209 -364q-160 -123 -420 -201t-340 -78q-6 0 -26.5 3.5t-26.5 3.5q-18 0 -21.5 -20.5t-25.5 -20.5q-35 0 -99 94q-35 35 -94 108q-8 12 -29 58q-25 55 -18 151q8 20 29 21q31 0 88 -76q8 27 -4 444q-4 18 -11 35q-6 31 -4 64q0 4 17 51l-4 262 q-53 -41 -54 -107q0 -8 16.5 -72.5t16.5 -70.5q0 -49 -31 -49q-72 0 -120 149q-37 111 -37 166q0 109 123 236q33 23 94 80q8 10 8 37v39q2 29 27 28q8 0 34.5 -20.5t34.5 -20.5t35 15q37 20 47 24q117 47 283 47q98 0 189 -24.5t165 -139.5q68 -106 68 -188q0 -45 -17 -80 q-29 -61 -30 -70q160 -76 258 -239q88 -144 88 -275zM1065 1391q-84 35 -178 34q-66 0 -135 -12q-125 -27 -195 -67q-37 -16 -76 -50q-14 -59 -12 -139q4 -68 6 -133q162 106 346 141q35 4 76 11q66 37 116 104.5t52 110.5zM1370 733q0 113 -123 180q-96 53 -205 54 q-33 0 -45 -9q-109 -82 -297 -215q-70 -43 -231 -116q0 -33 4 -25q-2 -133 0 -231q2 -68 5 -116t3 -50q0 -6 -12 -19h37q8 0 86 21q92 25 115 29q168 33 378 153q285 166 285 344z" />
<glyph unicode="C" horiz-adv-x="1523" d="M1462 395q0 -41 -14 -47q-229 -104 -541 -235q-51 -23 -159 -60q-90 -25 -162 -24q-215 0 -322 207q-80 154 -80 348q0 178 74 405q88 270 238 438q186 205 432 205q131 0 231 -104q92 -96 92 -209q0 -25 -12 -62q-14 -47 -33 -47q-31 0 -73 56q-33 45 -39 65 q-12 33 -2 80q-10 10 -74 10q-221 0 -391 -186q-139 -154 -224 -399q-72 -209 -71 -371q0 -121 24 -164q33 -61 146 -61q74 0 153.5 24.5t237.5 91.5q88 35 414 187q2 18 4 40.5t28 22.5q18 0 47 -26q35 -33 58 -95q18 -51 18 -90z" />
<glyph unicode="D" horiz-adv-x="1474" d="M1423 1079q0 -252 -256 -506q-186 -186 -549 -407q-63 -29 -176 -103q-4 -4 4 -55q8 -57 -16 -104q-35 -8 -78 45t-45 55q-20 4 -57 21q-76 59 -76 143q0 29 12 35q20 14 27 24q2 18 14 52q4 4 41 32q20 16 21 47q0 199 -13 523q-2 59 -6 180q-164 68 -164 233q0 33 3 37 q14 39 69 92q33 27 86 80q2 2 -2 33q-4 23 12 70q4 6 21 6q14 0 40.5 -16.5t31.5 -34.5q113 61 176 77q53 14 159 15q272 0 492 -166q229 -172 229 -408zM1276 1196q0 82 -143 162q-117 66 -181 69q-27 2 -98 13q-63 8 -70 8q-172 0 -358 -121q-8 -475 0 -737q0 -72 6 -211 q2 -8 25 -31q311 178 516 359q303 268 303 489z" />
<glyph unicode="E" horiz-adv-x="1533" d="M1421 1432q0 -53 -37 -54q-6 0 -29.5 10.5t-37.5 12.5q-125 14 -248 29q-35 2 -178 2q-37 0 -160 -5q-115 -4 -182 -16h-31q-23 -4 -31 -25q-33 -100 -96 -364q2 -4 6 -2q393 141 772 141q53 0 101 -74q39 -61 39 -104q0 -45 -27 -45q-68 -2 -201 -6q-313 -16 -618 -148 q25 -47 24 -79q0 -47 -38 -48q-8 0 -46 11q-43 12 -59 14q-16 -90 -16 -190q0 -203 67 -240q25 -14 103 -14q164 0 469 149q55 27 98 57q0 4 -2 43q-2 29 16 45q20 0 74 -14q20 -4 41 -8q33 -6 49 -21q72 -72 72 -145q0 -43 -49 -72q-41 -20 -84 -43q-135 -80 -287 -137 q-188 -74 -307 -74q-98 0 -142 21q-115 51 -198 219q-74 147 -74 260q-2 80 0 139q0 41 2 71l2 30q0 8 -14 61t-14 60q0 29 18 47q8 4 27 14q2 2 6 12q18 113 80 400q-57 14 -97 75q-35 55 -34 103q0 49 81 61q106 18 109 19q14 10 18 41q4 25 33 24q29 0 51 -23l23 -24 q8 0 27.5 4t25.5 4q152 14 285 15q365 0 520 -56q33 -12 65.5 -68t32.5 -95z" />
<glyph unicode="F" horiz-adv-x="1228" d="M1239 1487q0 -29 -7 -41t-63 -70q-63 -68 -75 -67q-37 0 -78 65q-18 37 -39 76q-193 -49 -318 -107q-23 -8 -47 -16q-33 -12 -47 -35q-35 -57 -41 -194v-21q223 90 348 90q106 0 175 -57q76 -61 75 -172q0 -102 -57 -102q-35 0 -68 49q-20 37 -43 76q-164 2 -372 -117 q-25 -8 -47 -17q-31 -12 -35 -34q-25 -106 -25 -500q0 -131 6 -150q14 -27 31 -53q18 -37 18 -78q0 -88 -49 -88q-61 0 -106 123q-27 72 -34 126t-11 165q-2 45 6 221q6 141 -2 141q-2 0 -27.5 -19t-42.5 -19q-43 0 -82 69q-33 57 -32 90q0 57 114 107q25 10 92 59 q18 135 19 178q0 16 -4 21q-18 -14 -52 -39q-2 -20 -14 -64q-63 -4 -115 66q-47 63 -47 117q0 33 2 37q10 16 68 51q74 45 217 135q8 39 16 76q18 76 41 75q33 0 63 -38.5t32 -38.5q291 113 456 112q88 0 144.5 -53t56.5 -135z" />
<glyph unicode="G" horiz-adv-x="1785" d="M1690 786q0 -125 -131 -286q-203 -252 -451 -409t-449 -157q-215 0 -364 168q-141 158 -141 365q0 84 36.5 213t85.5 221q154 285 351 475q117 113 292 198t298 85q82 0 146 -74t64 -151q0 -39 -22 -82q-27 -51 -64 -52q-66 0 -116 142q-315 -74 -617 -422 q-307 -354 -307 -666q0 -115 96 -168q70 -41 176 -41q223 0 517 217q285 211 430 463v15h-33q-63 0 -242 -97q-166 -90 -211 -141q-4 -2 -32.5 -23.5t-28.5 -29.5q0 -6 9 -16.5t11 -12.5q37 -66 37 -102q0 -74 -139 -74q-80 0 -143 76q-59 70 -60 139q0 51 127 162 q270 238 490 303q82 27 147 27q104 0 171 -80.5t67 -184.5z" />
<glyph unicode="H" horiz-adv-x="1509" d="M1393 735q0 -39 -27 -45q-41 0 -82 -2v-119q2 -18 10 -110q6 -76 31 -246q23 -154 23 -158q0 -43 -31 -43t-70 49q-33 39 -41 68l-20 107q-27 141 -35 256l-12 196h-111q-49 -6 -143 -16q-176 -27 -531 -78q-2 0 -8 -6q-2 -47 -5 -146l-3 -100q0 -135 8 -178 q10 -14 29 -45q31 -47 31 -99q0 -88 -56 -88q-53 0 -100 91q-37 66 -41 100q-18 143 -19 194v277q0 -4 5 39q4 35 0 51q0 2 -13 35q-8 25 -8 45q0 8 10.5 23.5t15.5 27.5t11 109.5t18 439.5q8 303 56 303q51 0 90 -82q31 -66 31 -106q0 -18 -9.5 -37t-10.5 -24t-7 -87 q-12 -205 -19 -471v-43q4 0 11 -2q434 92 762 82q-23 358 -23 526q0 61 6 181q2 29 23 69q41 6 82 -45q31 -39 45 -88q8 -29 8 -59q0 -27 -8.5 -73t-8.5 -67q0 -68 9 -249q-4 -53 10 -158q20 -23 63 -72q54 -68 54 -127z" />
<glyph unicode="I" horiz-adv-x="1038" d="M940 41q0 -45 -31 -45q20 0 -78 19.5t-143 19.5q-72 0 -233.5 -43t-153.5 -43q-49 0 -90 78q-31 59 -31 88q0 37 19 43q78 27 233 59q4 182 25 547q33 283 67 577v56q-33 -16 -116 -68q-72 -43 -76 -43q-47 0 -86 76q-31 59 -31 90q0 35 8 41q59 43 86 59q53 33 97 47 q176 59 337 60q74 0 121 -57q41 -49 41 -115q0 -80 -39 -80q-8 0 -40.5 20.5t-39.5 20.5q-2 0 -114 -16q-2 -25 2 -71t4 -48q0 37 -55 -514q-33 -309 -37 -520v-33q180 -18 241 -43q113 -47 113 -162z" />
<glyph unicode="J" horiz-adv-x="1638" d="M1585 1438q0 -43 -35 -43q-6 0 -22.5 9t-26.5 11q-47 8 -139 8q-164 0 -217 -20q51 -61 84 -121q84 -156 166 -395q86 -252 86 -432q0 -166 -43 -256q-90 -190 -299 -291q-172 -84 -355 -84q-279 0 -452 176q-164 166 -164 410q0 172 102.5 305t249.5 133q45 0 120 -19.5 t115 -43t72.5 -83t32.5 -102.5q0 -31 -25.5 -63.5t-58.5 -32.5q-39 0 -74 47q-29 41 -57 82q-154 4 -246 -111q-80 -100 -80 -233q0 -139 132 -203q98 -47 243 -47q242 0 422 129q215 150 215 410q0 72 -14 133q-82 362 -227 573q-14 12 -39 31.5t-56 60.5q-41 -2 -121 -30 q-268 -96 -258 -97q-53 0 -94 70q-35 59 -35 96q0 43 39 55.5t80 22.5q330 145 664 145q45 0 180 -14q43 -4 89 -73.5t46 -112.5z" />
<glyph unicode="K" horiz-adv-x="1243" d="M1120 1440q0 -31 -33 -82q-31 -39 -59 -80q-207 -281 -522 -594q119 -72 252 -248q158 -211 239 -280q18 -8 52 -35q51 -66 51 -123q0 -55 -37 -55q-27 0 -139 112q-76 76 -187 226q-98 131 -157 180q-68 57 -154 71q-31 -2 -88 3l-4 -5q-2 -166 12 -321q10 -14 25 -39 q25 -45 24 -84q0 -82 -55 -82q-43 0 -86 70q-33 55 -37 84q-29 281 -29 458q0 193 13 512q14 373 35 504q4 43 45 43q72 0 129 -164q10 -27 8 -92q-4 -14 -19.5 -15t-31.5 -3q-6 -156 -19 -559q317 295 645 753q47 4 90 -55q37 -53 37 -100z" />
<glyph unicode="L" horiz-adv-x="1267" d="M1147 205q0 -37 -12 -41q-25 -8 -76 -9t-76 -8q-74 -16 -254 -84q-141 -51 -221 -51q-193 0 -275 228q-51 141 -51 323q0 94 19 281q25 248 32 385q-98 74 -98 168q0 27 35 90t59 90q14 14 33 14q51 0 96 -80q33 -61 35 -90q8 -109 8 -94q0 -6 -34.5 -440t-34.5 -441 q0 -33 10 -147q0 -23 14 -57q16 -16 66 -17q49 0 213 56q262 90 356 90q66 0 111 -52.5t45 -113.5z" />
<glyph unicode="M" horiz-adv-x="2091" d="M1972 104q0 -59 -39 -59q-80 0 -129 227q-55 256 -69 619q0 170 -4 385q-12 -4 -29 -27q-520 -684 -655 -1186q-4 -18 -27 -40q-27 -6 -57 18q-18 14 -41 50t-25 61q-25 180 -57 536q-8 156 0 395q6 301 6 275q-98 -141 -193 -328q-4 -12 -155 -332q-25 -53 -92 -276 q-49 -170 -68 -270q-2 -14 -4 -78q-2 -39 -21 -74q-49 -6 -92 63q-39 59 -39 109q0 119 70 365q51 186 98 301q2 8 131 276q143 295 252 449q16 27 35 55q27 45 43 45q18 0 46 -22.5t26 -22.5q8 0 8 3t6 3q35 0 74 -57q33 -47 37 -78q2 -12 2 -45q0 -6 -16.5 -306 t-16.5 -307q0 -98 6 -231q2 -41 14 -119q86 203 174 357q109 188 238 374q170 242 254 301q12 12 27.5 25.5t27.5 13.5q8 0 13 -6q10 12 10 41v45q4 23 16 41q53 6 98 -67q39 -63 39 -115q0 -4 -8 -38t-8 -48q-10 -344 0 -606q8 -229 51 -520q2 -20 22.5 -94.5t20.5 -80.5z " />
<glyph unicode="N" horiz-adv-x="1435" d="M1323 39q0 -63 -45 -64q-37 0 -74 40t-104 122q-109 102 -299 314q-147 186 -291 421q-33 53 -76 146q-59 131 -69 153q-2 -29 4 -196q4 -225 26 -676q2 -10 24.5 -26.5t24.5 -18.5q45 -51 56 -104q2 -10 2 -35q0 -100 -58 -191q-10 -2 -30 2q-68 37 -101 131 q-12 33 -34 160q-43 236 -43 293v215q0 -4 -35 901q12 25 30 25q35 0 78 -57.5t43 -88.5q-6 -31 -2 -96q18 -16 47 -55q68 -141 203 -416q2 -4 82 -127q219 -334 432 -510q6 8 6 31q27 301 27 563q0 33 -4 115q-2 152 -21 454q-2 8 -17 44t-15 61q0 18 12 57t22 47 q45 12 90 -55q39 -55 43 -100q37 -438 37 -736q0 -195 -12 -415q0 -33 -8 -110t-8 -81q0 -6 24.5 -47t30.5 -57q2 -6 2 -33z" />
<glyph unicode="O" horiz-adv-x="1679" d="M1573 1169q0 -168 -146 -434q-152 -279 -358 -467q-238 -219 -455 -219q-225 0 -331 176q-80 135 -80 346q0 477 301 842q166 199 364 199q55 0 74 -8q6 -4 28.5 -21.5t30.5 -17.5l7 4q96 37 202 37q176 0 279 -160q84 -127 84 -277zM1421 1290q0 106 -118 107 q-135 0 -359 -123q-43 -23 -110 -78q-4 -25 -19 -63q-10 -10 -18 -11q-33 0 -76 60q-39 53 -43 80q-147 -150 -238 -390q-86 -225 -86 -423q0 -123 27 -154t143 -31q186 0 410 203q197 176 342 426t145 397z" />
<glyph unicode="P" horiz-adv-x="1134" d="M1286 1210q0 -76 -47 -137q-29 -39 -139 -139q-143 -129 -299 -215q-180 -100 -309 -101q-27 0 -72 13q-2 -6 -8 -17q0 -66 -5.5 -199.5t-5.5 -131.5q0 -80 7 -105q0 -2 20 -37q16 -25 16 -61q0 -51 -38 -51q-47 0 -99 77q-43 68 -43 101v414q0 8 8.5 187t8.5 185 q0 80 -2 88q-10 12 -29 37q-41 59 -41 127q0 39 70 172q2 41 4 84q8 76 41 76q23 0 63 -45q115 84 162 106q78 37 182 37q195 0 375 -149.5t180 -315.5zM1145 1313q0 33 -98 90q-86 51 -131.5 63.5t-102.5 12.5q-53 0 -98 -15q-86 -25 -183 -98q-27 -20 -68.5 -63t-41.5 -54 v-311q29 -18 94 -100q39 0 176 77q111 63 146 89q68 51 157 131q150 133 150 178z" />
<glyph unicode="Q" horiz-adv-x="1767" d="M1683 63q0 -47 -57 -88q-49 -35 -76 -34q-78 0 -184 79.5t-172 180.5q-240 -168 -285 -193q-117 -61 -258 -61q-154 0 -264 73q-57 39 -119 170q-43 98 -55 175q-8 49 -8 170q0 141 18 237q49 270 191 506q156 262 350 342q20 10 61 29q86 31 125 30q53 0 109.5 -44 t46.5 -44q8 0 25.5 6.5t23.5 8.5q16 2 57 2q215 0 332 -228q90 -172 90 -360q0 -197 -82 -387q-94 -223 -272 -365q20 -35 78 -78q66 -45 104 -45q20 0 60.5 36t50.5 36q45 0 82 -67q28 -56 28 -87zM1491 1135q0 274 -197 274q-145 0 -376 -174q-238 -176 -293 -336 q-14 -47 -15 -94q2 -61 0 -66q-2 -20 -28 -20q-47 0 -88 86q-39 78 -31 123q-63 -170 -84 -252q-31 -125 -31 -258q0 -160 31 -205q41 -61 190 -61q123 0 197 34q53 25 179 109t126 96t-39 88q-41 84 -74 129q-66 88 -73 101q-35 53 -35 92q0 45 31 45q63 0 163 -172 q57 -106 117 -215q156 117 248 325q82 185 82 351z" />
<glyph unicode="R" horiz-adv-x="1624" d="M1616 -66q0 -41 -35 -40q-27 0 -139 79q-55 41 -109 82q-47 29 -129 86q-172 133 -227 172q-121 88 -219 138q-31 14 -111 32q-47 10 -125 11q-76 0 -92 -11v-534q-8 -20 -29 -21q-41 0 -78.5 57.5t-37.5 92.5q0 78 -2 250q-2 207 -4 370q-2 360 -25 570q-20 14 -59 51 q-31 41 -48 94q-2 6 -2 31q0 35 9 43q29 14 84 45q0 29 2 57q2 37 30 37q23 0 54.5 -31.5t29.5 -31.5q8 0 74 20q74 25 84 27q115 29 260 28q43 0 238 -20q137 -14 252 -105q127 -100 127 -227q0 -68 -60 -141q-190 -229 -602 -498q119 -59 440 -305q127 -86 373 -258 q27 -20 51.5 -68.5t24.5 -81.5zM1208 1368q-164 55 -346 55q-215 0 -389 -69q-18 -4 -53 -15q-25 -41 -25 -45t8.5 -68.5t10.5 -90.5q6 -256 12 -379q178 84 395 241q274 201 387 371z" />
<glyph unicode="S" horiz-adv-x="1548" d="M1421 510q0 -74 -82 -180q-104 -139 -264 -250q-152 -106 -282 -141q-78 -18 -70 -19q-43 0 -82 70q-33 59 -33 88q0 33 25 51q96 12 141 31q123 51 273 176q178 147 233 278q-47 45 -158 45q-127 0 -280 -81q-127 -78 -252 -156q-137 -84 -223 -84q-98 0 -156 111 q-43 84 -43 169q0 199 214 513.5t425 422.5q33 23 98 62q100 57 180 57q94 0 158 -65.5t64 -155.5q0 -88 -43 -88q-33 0 -66 43q-20 35 -43 72q-51 -6 -231 -115q-223 -133 -402 -387q-160 -227 -207 -428q-4 -2 9 -2q41 0 192 92q78 51 154 100q94 57 209 92q76 25 163 25 q154 0 266.5 -107.5t112.5 -238.5z" />
<glyph unicode="T" horiz-adv-x="1331" d="M1505 1556q0 -53 -32 -53q-6 0 -30 16.5t-36 20.5q-45 14 -164 14t-221 -16q23 -55 22 -86q0 -45 -30 -45q-14 0 -27 6q-18 -193 -45 -577q-4 -147 -4 -328q0 -178 35 -391q4 -8 12 -21q20 -57 21 -78q0 -68 -41 -67q-104 0 -150 321q-25 174 -24 344q0 154 6 361 q12 150 34 516q-4 4 -8 2q-190 -57 -305 -102q0 -6 4 -27q2 -18 0 -27q-2 -12 -14 -14q-117 -31 -254 -31q-47 0 -88 72q-33 57 -33 90q0 31 8 35q47 18 140 57q20 10 57 25q399 133 426 139q182 49 395 49q193 0 260 -47q37 -25 61.5 -73t24.5 -85z" />
<glyph unicode="U" horiz-adv-x="1593" d="M1413 53q0 -47 -33 -47q-27 0 -67 45q-35 39 -41 62q-4 31 -21 100q-78 -96 -290 -180q-201 -78 -330 -78q-197 0 -320 160q-111 145 -137 374q-2 12 -2 142q0 246 29 565q33 371 75 436q51 6 97 -63q39 -63 39 -117q0 8 -6 -127q-2 -8 -27 -22q-8 -49 -23 -144 q-35 -414 -34 -643q0 -188 30 -254q45 -94 193 -94q115 0 311 70q2 0 160 81q59 31 109.5 90.5t62.5 116.5q10 45 12 78q2 61 2 334v588q0 29 15 82q2 6 16 18q78 -12 125 -110q41 -84 33 -152q0 -2 -39 -29l-6 -383q0 18 10 -323q4 -201 14 -310q4 -51 23.5 -157.5 t19.5 -108.5z" />
<glyph unicode="V" horiz-adv-x="1472" d="M1321 1466q0 -68 -102 -356q-70 -199 -105 -281q-2 -10 -129 -288q-139 -311 -147 -326q-150 -309 -201 -309q-131 0 -195 393q-55 340 -149 784q-23 109 -55 242q-6 29 -31 98q-23 59 -23 66q0 45 27 45q47 0 98 -90q33 -57 41 -94q43 -164 78 -322q82 -373 160 -840 q2 -4 8 -12q203 387 408 891q98 246 149 426q4 8 -5 52t-9 67q0 49 39 49q66 0 110 -86q33 -66 33 -109z" />
<glyph unicode="W" horiz-adv-x="2037" d="M2013 1618q0 -18 -53 -119q-29 -53 -57 -106q-90 -225 -201 -590q-152 -494 -152 -668q0 -4 19.5 -60.5t19.5 -66.5q0 -66 -59 -65q-57 0 -168 186q-57 109 -115 217q-233 430 -362 762q-31 -104 -54 -168q-25 -80 -71 -231q-43 -125 -88 -248q-74 -209 -74 -234 q0 -6 22.5 -43t26.5 -51q8 -23 8 -47q0 -29 -19.5 -49.5t-45.5 -20.5q-6 0 -11.5 3.5t-15.5 3.5q0 -12 6 -40t6 -34q0 -51 -45 -51q-84 0 -145 153q-39 98 -45 166q-53 508 -100 866q-25 195 -68 383q-2 8 -12 39q-8 25 -8 37q0 41 28 41q51 0 101 -88q33 -59 38 -94 q27 -145 50 -289q74 -518 82 -678q-2 0 8 -10q207 539 358 1118q4 23 10 68q2 16 17 30q55 -4 91 -62t36 -124q0 -16 -2 -33q4 -31 6 -90q-4 -180 160 -524q23 -47 266 -520q0 8 6 22q55 473 358 1268q39 102 119 199q49 4 89 -53.5t40 -104.5z" />
<glyph unicode="X" horiz-adv-x="1452" d="M1473 1448q0 -53 -33 -53q-8 0 -29.5 14t-30.5 14q-51 0 -200 -198q-276 -371 -277 -383q0 -6 137 -238q150 -256 238 -387q23 -12 59 -47q47 -76 47 -115q0 -18 -13 -36.5t-32 -18.5q-49 0 -135 123q-55 80 -182 311q-47 86 -195 320q-158 -190 -333 -465 q-45 -68 -144 -232q-2 -4 5 -20.5t10 -22.5q4 -33 0 -55q-4 -14 -37 -30.5t-47 -16.5q-53 0 -93 74q-33 57 -32 98q0 51 51 137q39 63 80 127q16 31 110 172q49 74 193 264q119 162 119 168l-70 117q-61 115 -211 348q-59 82 -59 156q0 12 4 20q16 16 26 17q25 0 76 -42 t66 -69q8 -33 30 -94q31 -59 207 -358q70 94 217 286q111 141 156 189q109 117 180 116q63 0 107 -79q35 -62 35 -111z" />
<glyph unicode="Y" horiz-adv-x="1275" d="M1292 1432q0 -63 -153 -287q-20 -23 -52 -66q-109 -201 -172 -391q-162 -479 -161 -543q0 -16 14 -32q29 -39 29 -90q0 -29 -29 -76t-55 -47q-29 0 -63 35.5t-48 80.5q-6 23 -6 101q0 127 43 297q23 80 98 311q-16 2 -45 -18l-49 -35q-90 -51 -170 -51q-98 0 -183 75.5 t-114 192.5q-6 31 -6 110q0 283 139 580q55 115 84 115q53 0 88 -76q27 -57 27 -105q0 -47 -19 -63q-8 0 -26 -2q-80 -162 -121 -340q-33 -145 -31 -262q25 -25 80 -25q115 0 275 137q88 76 272 277q16 29 45 82q41 72 80 145q47 84 74 92q10 2 16 21q6 27 10 31 q55 4 92 -58.5t37 -115.5z" />
<glyph unicode="Z" horiz-adv-x="1857" d="M1704 1384q0 -53 -86 -86q-14 2 -45 -2q-29 -20 -84 -61q-16 -12 -49 -39q-717 -727 -942 -997q43 0 159.5 22.5t200.5 22.5q147 0 334 -25q221 -29 307 -72q37 -18 64.5 -68t27.5 -83q0 -59 -53 -59q-6 0 -32.5 16t-35.5 20q-16 6 -84 23q-178 41 -436 41 q-80 0 -190 -19q-135 -23 -176 -30q-111 -25 -191 -54.5t-90 -29.5q-63 0 -110 67q-41 59 -41 105q0 33 149.5 224.5t462.5 516.5q262 272 524 545q-8 2 -45 2q-29 0 -164 -12q-176 -16 -291 -39q-70 -14 -253 -68l-60 -16q-4 -18 -10 -39t-27 -21q-33 0 -84 40t-61 69 q-25 63 -25 78q0 41 31 51q72 20 207 59q66 23 196 54q348 53 531 53q219 0 373 -37q33 -6 65.5 -59.5t32.5 -92.5z" />
<glyph unicode="[" horiz-adv-x="917" d="M791 68q0 -39 -13 -43q-96 -18 -235 -19q-115 0 -191 25q-133 45 -133 381v1190q29 37 172 36q53 0 152 -14q74 -10 124 -66.5t50 -117.5q0 -41 -35 -41q4 0 -84 20q-31 8 -121 8t-115 -16l5 -833q2 -12 2 -89q4 -270 6 -237v0q-4 0 -13 -33h191q6 0 47 5t49 5 q59 0 105 -59q37 -53 37 -102z" />
<glyph unicode="\" horiz-adv-x="1267" d="M1153 27q0 -43 -31 -43q-23 0 -55.5 32.5t-48.5 69.5q-27 49 -76 152q-39 80 -117 239q-94 197 -215 363q-76 92 -227 307q-33 63 -102 184q-117 176 -117 256q0 45 29 45q41 0 92 -84q27 -51 53 -102q37 -68 113 -201q76 -100 241 -330q121 -170 217 -358 q244 -467 244 -530z" />
<glyph unicode="]" horiz-adv-x="784" d="M621 90q0 -43 -13 -57q-193 -18 -219 -19q-45 0 -59 9q-35 16 -67 66t-32 91q0 53 41 53q6 0 29 -5t31 -5l137 15q-23 135 -23 213q-4 324 13 782v156h-31q-6 -2 -40 -13.5t-40 -11.5q-49 0 -90 63q-37 55 -37 99q0 35 12 39q166 53 238 53q68 0 113 -72q37 -61 37 -119 q0 -4 -7.5 -55t-9.5 -84q-18 -465 -18 -801q0 -92 18 -294q2 -10 9.5 -52.5t7.5 -50.5z" />
<glyph unicode="^" horiz-adv-x="1015" d="M834 1116q0 -14 -10.5 -26.5t-18.5 -12.5q-39 0 -119 142q-37 63 -108 190q-59 -74 -191 -248q8 -25 8 -45q0 -39 -33 -39q-55 0 -98 56q-39 49 -39 96q0 37 125 196q80 98 158 197q59 4 113 -84q35 -68 70.5 -134.5t74.5 -129.5q68 -119 68 -158z" />
<glyph unicode="_" horiz-adv-x="948" d="M1006 16q0 -33 -29 -32l-83 13t-120 15q-27 2 -141 2q-131 0 -389 -20q-23 -2 -76 -8t-57 -6q-39 0 -72 53q-25 43 -25 69q0 27 13.5 33t66.5 12q172 14 348 25q29 2 127 2q141 0 213 -12q49 -4 144 -25q29 -10 54.5 -50t25.5 -71z" />
<glyph unicode="`" horiz-adv-x="856" d="M629 1063q0 -45 -31 -45q-45 0 -117 98q-209 283 -198 543q10 20 30 20q47 0 90 -73q33 -57 36 -87t10 -79q10 -29 26 -78q14 -57 90 -156q64 -84 64 -143z" />
<glyph unicode="a" horiz-adv-x="1286" d="M1235 657q0 -43 -33 -43q-6 0 -106 7v-332q6 -362 -82 -363q-47 0 -86 68q-31 53 -31 88q0 14 11.5 27.5t15.5 21.5q27 68 28 160v313l-3 3t-11 3q-16 0 -182 -39q-193 -43 -305 -79q-12 -4 -21.5 -29t-17.5 -47q-25 -57 -45.5 -112.5t-53.5 -168.5q47 -18 80 -68.5 t33 -93.5q0 -35 -37 -71.5t-72 -36.5q-47 0 -96 59q-45 53 -61 115q-6 27 -6 102q0 242 262 744q236 451 413 639q121 129 152 129q53 0 92 -84q6 -29 21 -80q2 -10 16 -34.5t14 -31.5v-200q0 8 -8 -155t-8 -245q61 -23 96 -75q31 -46 31 -91zM973 1358q-178 -201 -402 -608 q246 66 387 77z" />
<glyph unicode="b" horiz-adv-x="1605" d="M1520 616q0 -207 -209 -364q-160 -123 -420 -201t-340 -78q-6 0 -26.5 3.5t-26.5 3.5q-18 0 -21.5 -20.5t-25.5 -20.5q-35 0 -99 94q-35 35 -94 108q-8 12 -29 58q-25 55 -18 151q8 20 29 21q31 0 88 -76q8 27 -4 444q-4 18 -11 35q-6 31 -4 64q0 4 17 51l-4 262 q-53 -41 -54 -107q0 -8 16.5 -72.5t16.5 -70.5q0 -49 -31 -49q-72 0 -120 149q-37 111 -37 166q0 109 123 236q33 23 94 80q8 10 8 37v39q2 29 27 28q8 0 34.5 -20.5t34.5 -20.5t35 15q37 20 47 24q117 47 283 47q98 0 189 -24.5t165 -139.5q68 -106 68 -188q0 -45 -17 -80 q-29 -61 -30 -70q160 -76 258 -239q88 -144 88 -275zM1065 1391q-84 35 -178 34q-66 0 -135 -12q-125 -27 -195 -67q-37 -16 -76 -50q-14 -59 -12 -139q4 -68 6 -133q162 106 346 141q35 4 76 11q66 37 116 104.5t52 110.5zM1370 733q0 113 -123 180q-96 53 -205 54 q-33 0 -45 -9q-109 -82 -297 -215q-70 -43 -231 -116q0 -33 4 -25q-2 -133 0 -231q2 -68 5 -116t3 -50q0 -6 -12 -19h37q8 0 86 21q92 25 115 29q168 33 378 153q285 166 285 344z" />
<glyph unicode="c" horiz-adv-x="1523" d="M1462 395q0 -41 -14 -47q-229 -104 -541 -235q-51 -23 -159 -60q-90 -25 -162 -24q-215 0 -322 207q-80 154 -80 348q0 178 74 405q88 270 238 438q186 205 432 205q131 0 231 -104q92 -96 92 -209q0 -25 -12 -62q-14 -47 -33 -47q-31 0 -73 56q-33 45 -39 65 q-12 33 -2 80q-10 10 -74 10q-221 0 -391 -186q-139 -154 -224 -399q-72 -209 -71 -371q0 -121 24 -164q33 -61 146 -61q74 0 153.5 24.5t237.5 91.5q88 35 414 187q2 18 4 40.5t28 22.5q18 0 47 -26q35 -33 58 -95q18 -51 18 -90z" />
<glyph unicode="d" horiz-adv-x="1474" d="M1423 1079q0 -252 -256 -506q-186 -186 -549 -407q-63 -29 -176 -103q-4 -4 4 -55q8 -57 -16 -104q-35 -8 -78 45t-45 55q-20 4 -57 21q-76 59 -76 143q0 29 12 35q20 14 27 24q2 18 14 52q4 4 41 32q20 16 21 47q0 199 -13 523q-2 59 -6 180q-164 68 -164 233q0 33 3 37 q14 39 69 92q33 27 86 80q2 2 -2 33q-4 23 12 70q4 6 21 6q14 0 40.5 -16.5t31.5 -34.5q113 61 176 77q53 14 159 15q272 0 492 -166q229 -172 229 -408zM1276 1196q0 82 -143 162q-117 66 -181 69q-27 2 -98 13q-63 8 -70 8q-172 0 -358 -121q-8 -475 0 -737q0 -72 6 -211 q2 -8 25 -31q311 178 516 359q303 268 303 489z" />
<glyph unicode="e" horiz-adv-x="1533" d="M1421 1432q0 -53 -37 -54q-6 0 -29.5 10.5t-37.5 12.5q-125 14 -248 29q-35 2 -178 2q-37 0 -160 -5q-115 -4 -182 -16h-31q-23 -4 -31 -25q-33 -100 -96 -364q2 -4 6 -2q393 141 772 141q53 0 101 -74q39 -61 39 -104q0 -45 -27 -45q-68 -2 -201 -6q-313 -16 -618 -148 q25 -47 24 -79q0 -47 -38 -48q-8 0 -46 11q-43 12 -59 14q-16 -90 -16 -190q0 -203 67 -240q25 -14 103 -14q164 0 469 149q55 27 98 57q0 4 -2 43q-2 29 16 45q20 0 74 -14q20 -4 41 -8q33 -6 49 -21q72 -72 72 -145q0 -43 -49 -72q-41 -20 -84 -43q-135 -80 -287 -137 q-188 -74 -307 -74q-98 0 -142 21q-115 51 -198 219q-74 147 -74 260q-2 80 0 139q0 41 2 71l2 30q0 8 -14 61t-14 60q0 29 18 47q8 4 27 14q2 2 6 12q18 113 80 400q-57 14 -97 75q-35 55 -34 103q0 49 81 61q106 18 109 19q14 10 18 41q4 25 33 24q29 0 51 -23l23 -24 q8 0 27.5 4t25.5 4q152 14 285 15q365 0 520 -56q33 -12 65.5 -68t32.5 -95z" />
<glyph unicode="f" horiz-adv-x="1228" d="M1239 1487q0 -29 -7 -41t-63 -70q-63 -68 -75 -67q-37 0 -78 65q-18 37 -39 76q-193 -49 -318 -107q-23 -8 -47 -16q-33 -12 -47 -35q-35 -57 -41 -194v-21q223 90 348 90q106 0 175 -57q76 -61 75 -172q0 -102 -57 -102q-35 0 -68 49q-20 37 -43 76q-164 2 -372 -117 q-25 -8 -47 -17q-31 -12 -35 -34q-25 -106 -25 -500q0 -131 6 -150q14 -27 31 -53q18 -37 18 -78q0 -88 -49 -88q-61 0 -106 123q-27 72 -34 126t-11 165q-2 45 6 221q6 141 -2 141q-2 0 -27.5 -19t-42.5 -19q-43 0 -82 69q-33 57 -32 90q0 57 114 107q25 10 92 59 q18 135 19 178q0 16 -4 21q-18 -14 -52 -39q-2 -20 -14 -64q-63 -4 -115 66q-47 63 -47 117q0 33 2 37q10 16 68 51q74 45 217 135q8 39 16 76q18 76 41 75q33 0 63 -38.5t32 -38.5q291 113 456 112q88 0 144.5 -53t56.5 -135z" />
<glyph unicode="g" horiz-adv-x="1785" d="M1690 786q0 -125 -131 -286q-203 -252 -451 -409t-449 -157q-215 0 -364 168q-141 158 -141 365q0 84 36.5 213t85.5 221q154 285 351 475q117 113 292 198t298 85q82 0 146 -74t64 -151q0 -39 -22 -82q-27 -51 -64 -52q-66 0 -116 142q-315 -74 -617 -422 q-307 -354 -307 -666q0 -115 96 -168q70 -41 176 -41q223 0 517 217q285 211 430 463v15h-33q-63 0 -242 -97q-166 -90 -211 -141q-4 -2 -32.5 -23.5t-28.5 -29.5q0 -6 9 -16.5t11 -12.5q37 -66 37 -102q0 -74 -139 -74q-80 0 -143 76q-59 70 -60 139q0 51 127 162 q270 238 490 303q82 27 147 27q104 0 171 -80.5t67 -184.5z" />
<glyph unicode="h" horiz-adv-x="1509" d="M1393 735q0 -39 -27 -45q-41 0 -82 -2v-119q2 -18 10 -110q6 -76 31 -246q23 -154 23 -158q0 -43 -31 -43t-70 49q-33 39 -41 68l-20 107q-27 141 -35 256l-12 196h-111q-49 -6 -143 -16q-176 -27 -531 -78q-2 0 -8 -6q-2 -47 -5 -146l-3 -100q0 -135 8 -178 q10 -14 29 -45q31 -47 31 -99q0 -88 -56 -88q-53 0 -100 91q-37 66 -41 100q-18 143 -19 194v277q0 -4 5 39q4 35 0 51q0 2 -13 35q-8 25 -8 45q0 8 10.5 23.5t15.5 27.5t11 109.5t18 439.5q8 303 56 303q51 0 90 -82q31 -66 31 -106q0 -18 -9.5 -37t-10.5 -24t-7 -87 q-12 -205 -19 -471v-43q4 0 11 -2q434 92 762 82q-23 358 -23 526q0 61 6 181q2 29 23 69q41 6 82 -45q31 -39 45 -88q8 -29 8 -59q0 -27 -8.5 -73t-8.5 -67q0 -68 9 -249q-4 -53 10 -158q20 -23 63 -72q54 -68 54 -127z" />
<glyph unicode="i" horiz-adv-x="694" d="M496 1436q0 -47 -42 -441.5t-42 -564.5q0 -186 47 -352l2 -58q-8 -18 -27 -18q-31 0 -67 45q-31 37 -45 74q-57 154 -58 428q0 184 33 510q49 479 53 536q0 2 17 37q10 2 30 -2q66 -39 86 -94q13 -34 13 -100z" />
<glyph unicode="j" horiz-adv-x="1497" d="M1008 1477q0 -39 -19 -47q-72 -31 -211 -101q-8 -6 -16 -22.5t-35 -16.5q-53 0 -98 66q-37 53 -37 98q0 29 8 35q33 27 109 65q158 78 180 78q49 0 88 -65q31 -55 31 -90zM1350 422q0 -199 -90 -332q-96 -141 -277 -184q-131 -33 -197 -33q-84 0 -170 33 q-215 82 -331 276q-96 166 -97 357q0 160 85 259t249 99q115 0 193 -69.5t78 -172.5q0 -31 -21 -80q-27 -66 -63 -65q-16 0 -49 28.5t-44 53.5q-23 66 -22 96h-43q-57 0 -127 -63q-76 -68 -80 -133q-2 -8 -5 -33t-3 -37q0 -160 113 -254q102 -84 251 -84q217 0 355 119 q147 125 147 342q0 131 -90 280q-98 166 -176 205q-20 10 -49 56.5t-31 70.5q-2 18 -2 53q20 18 37 19q113 0 332 -367q127 -213 127 -440z" />
<glyph unicode="k" horiz-adv-x="1243" d="M1120 1440q0 -31 -33 -82q-31 -39 -59 -80q-207 -281 -522 -594q119 -72 252 -248q158 -211 239 -280q18 -8 52 -35q51 -66 51 -123q0 -55 -37 -55q-27 0 -139 112q-76 76 -187 226q-98 131 -157 180q-68 57 -154 71q-31 -2 -88 3l-4 -5q-2 -166 12 -321q10 -14 25 -39 q25 -45 24 -84q0 -82 -55 -82q-43 0 -86 70q-33 55 -37 84q-29 281 -29 458q0 193 13 512q14 373 35 504q4 43 45 43q72 0 129 -164q10 -27 8 -92q-4 -14 -19.5 -15t-31.5 -3q-6 -156 -19 -559q317 295 645 753q47 4 90 -55q37 -53 37 -100z" />
<glyph unicode="l" horiz-adv-x="1267" d="M1147 205q0 -37 -12 -41q-25 -8 -76 -9t-76 -8q-74 -16 -254 -84q-141 -51 -221 -51q-193 0 -275 228q-51 141 -51 323q0 94 19 281q25 248 32 385q-98 74 -98 168q0 27 35 90t59 90q14 14 33 14q51 0 96 -80q33 -61 35 -90q8 -109 8 -94q0 -6 -34.5 -440t-34.5 -441 q0 -33 10 -147q0 -23 14 -57q16 -16 66 -17q49 0 213 56q262 90 356 90q66 0 111 -52.5t45 -113.5z" />
<glyph unicode="m" horiz-adv-x="2091" d="M1972 104q0 -59 -39 -59q-80 0 -129 227q-55 256 -69 619q0 170 -4 385q-12 -4 -29 -27q-520 -684 -655 -1186q-4 -18 -27 -40q-27 -6 -57 18q-18 14 -41 50t-25 61q-25 180 -57 536q-8 156 0 395q6 301 6 275q-98 -141 -193 -328q-4 -12 -155 -332q-25 -53 -92 -276 q-49 -170 -68 -270q-2 -14 -4 -78q-2 -39 -21 -74q-49 -6 -92 63q-39 59 -39 109q0 119 70 365q51 186 98 301q2 8 131 276q143 295 252 449q16 27 35 55q27 45 43 45q18 0 46 -22.5t26 -22.5q8 0 8 3t6 3q35 0 74 -57q33 -47 37 -78q2 -12 2 -45q0 -6 -16.5 -306 t-16.5 -307q0 -98 6 -231q2 -41 14 -119q86 203 174 357q109 188 238 374q170 242 254 301q12 12 27.5 25.5t27.5 13.5q8 0 13 -6q10 12 10 41v45q4 23 16 41q53 6 98 -67q39 -63 39 -115q0 -4 -8 -38t-8 -48q-10 -344 0 -606q8 -229 51 -520q2 -20 22.5 -94.5t20.5 -80.5z " />
<glyph unicode="n" horiz-adv-x="1435" d="M1323 39q0 -63 -45 -64q-37 0 -74 40t-104 122q-109 102 -299 314q-147 186 -291 421q-33 53 -76 146q-59 131 -69 153q-2 -29 4 -196q4 -225 26 -676q2 -10 24.5 -26.5t24.5 -18.5q45 -51 56 -104q2 -10 2 -35q0 -100 -58 -191q-10 -2 -30 2q-68 37 -101 131 q-12 33 -34 160q-43 236 -43 293v215q0 -4 -35 901q12 25 30 25q35 0 78 -57.5t43 -88.5q-6 -31 -2 -96q18 -16 47 -55q68 -141 203 -416q2 -4 82 -127q219 -334 432 -510q6 8 6 31q27 301 27 563q0 33 -4 115q-2 152 -21 454q-2 8 -17 44t-15 61q0 18 12 57t22 47 q45 12 90 -55q39 -55 43 -100q37 -438 37 -736q0 -195 -12 -415q0 -33 -8 -110t-8 -81q0 -6 24.5 -47t30.5 -57q2 -6 2 -33z" />
<glyph unicode="o" horiz-adv-x="1679" d="M1573 1169q0 -168 -146 -434q-152 -279 -358 -467q-238 -219 -455 -219q-225 0 -331 176q-80 135 -80 346q0 477 301 842q166 199 364 199q55 0 74 -8q6 -4 28.5 -21.5t30.5 -17.5l7 4q96 37 202 37q176 0 279 -160q84 -127 84 -277zM1421 1290q0 106 -118 107 q-135 0 -359 -123q-43 -23 -110 -78q-4 -25 -19 -63q-10 -10 -18 -11q-33 0 -76 60q-39 53 -43 80q-147 -150 -238 -390q-86 -225 -86 -423q0 -123 27 -154t143 -31q186 0 410 203q197 176 342 426t145 397z" />
<glyph unicode="p" horiz-adv-x="1128" d="M1286 1210q0 -76 -47 -137q-29 -39 -139 -139q-143 -129 -299 -215q-180 -100 -309 -101q-27 0 -72 13q-2 -6 -8 -17q0 -66 -5.5 -199.5t-5.5 -131.5q0 -80 7 -105q0 -2 20 -37q16 -25 16 -61q0 -51 -38 -51q-47 0 -99 77q-43 68 -43 101v414q0 8 8.5 187t8.5 185 q0 80 -2 88q-10 12 -29 37q-41 59 -41 127q0 39 70 172q2 41 4 84q8 76 41 76q23 0 63 -45q115 84 162 106q78 37 182 37q195 0 375 -149.5t180 -315.5zM1145 1313q0 33 -98 90q-86 51 -131.5 63.5t-102.5 12.5q-53 0 -98 -15q-86 -25 -183 -98q-27 -20 -68.5 -63t-41.5 -54 v-311q29 -18 94 -100q39 0 176 77q111 63 146 89q68 51 157 131q150 133 150 178z" />
<glyph unicode="q" horiz-adv-x="1767" d="M1683 63q0 -47 -57 -88q-49 -35 -76 -34q-78 0 -184 79.5t-172 180.5q-240 -168 -285 -193q-117 -61 -258 -61q-154 0 -264 73q-57 39 -119 170q-43 98 -55 175q-8 49 -8 170q0 141 18 237q49 270 191 506q156 262 350 342q20 10 61 29q86 31 125 30q53 0 109.5 -44 t46.5 -44q8 0 25.5 6.5t23.5 8.5q16 2 57 2q215 0 332 -228q90 -172 90 -360q0 -197 -82 -387q-94 -223 -272 -365q20 -35 78 -78q66 -45 104 -45q20 0 60.5 36t50.5 36q45 0 82 -67q28 -56 28 -87zM1491 1135q0 274 -197 274q-145 0 -376 -174q-238 -176 -293 -336 q-14 -47 -15 -94q2 -61 0 -66q-2 -20 -28 -20q-47 0 -88 86q-39 78 -31 123q-63 -170 -84 -252q-31 -125 -31 -258q0 -160 31 -205q41 -61 190 -61q123 0 197 34q53 25 179 109t126 96t-39 88q-41 84 -74 129q-66 88 -73 101q-35 53 -35 92q0 45 31 45q63 0 163 -172 q57 -106 117 -215q156 117 248 325q82 185 82 351z" />
<glyph unicode="r" horiz-adv-x="1624" d="M1616 -66q0 -41 -35 -40q-27 0 -139 79q-55 41 -109 82q-47 29 -129 86q-172 133 -227 172q-121 88 -219 138q-31 14 -111 32q-47 10 -125 11q-76 0 -92 -11v-534q-8 -20 -29 -21q-41 0 -78.5 57.5t-37.5 92.5q0 78 -2 250q-2 207 -4 370q-2 360 -25 570q-20 14 -59 51 q-31 41 -48 94q-2 6 -2 31q0 35 9 43q29 14 84 45q0 29 2 57q2 37 30 37q23 0 54.5 -31.5t29.5 -31.5q8 0 74 20q74 25 84 27q115 29 260 28q43 0 238 -20q137 -14 252 -105q127 -100 127 -227q0 -68 -60 -141q-190 -229 -602 -498q119 -59 440 -305q127 -86 373 -258 q27 -20 51.5 -68.5t24.5 -81.5zM1208 1368q-164 55 -346 55q-215 0 -389 -69q-18 -4 -53 -15q-25 -41 -25 -45t8.5 -68.5t10.5 -90.5q6 -256 12 -379q178 84 395 241q274 201 387 371z" />
<glyph unicode="s" horiz-adv-x="1548" d="M1421 510q0 -74 -82 -180q-104 -139 -264 -250q-152 -106 -282 -141q-78 -18 -70 -19q-43 0 -82 70q-33 59 -33 88q0 33 25 51q96 12 141 31q123 51 273 176q178 147 233 278q-47 45 -158 45q-127 0 -280 -81q-127 -78 -252 -156q-137 -84 -223 -84q-98 0 -156 111 q-43 84 -43 169q0 199 214 513.5t425 422.5q33 23 98 62q100 57 180 57q94 0 158 -65.5t64 -155.5q0 -88 -43 -88q-33 0 -66 43q-20 35 -43 72q-51 -6 -231 -115q-223 -133 -402 -387q-160 -227 -207 -428q-4 -2 9 -2q41 0 192 92q78 51 154 100q94 57 209 92q76 25 163 25 q154 0 266.5 -107.5t112.5 -238.5z" />
<glyph unicode="t" horiz-adv-x="1462" d="M1505 1556q0 -53 -32 -53q-6 0 -30 16.5t-36 20.5q-45 14 -164 14t-221 -16q23 -55 22 -86q0 -45 -30 -45q-14 0 -27 6q-18 -193 -45 -577q-4 -147 -4 -328q0 -178 35 -391q4 -8 12 -21q20 -57 21 -78q0 -68 -41 -67q-104 0 -150 321q-25 174 -24 344q0 154 6 361 q12 150 34 516q-4 4 -8 2q-190 -57 -305 -102q0 -6 4 -27q2 -18 0 -27q-2 -12 -14 -14q-117 -31 -254 -31q-47 0 -88 72q-33 57 -33 90q0 31 8 35q47 18 140 57q20 10 57 25q399 133 426 139q182 49 395 49q193 0 260 -47q37 -25 61.5 -73t24.5 -85z" />
<glyph unicode="u" horiz-adv-x="1593" d="M1413 53q0 -47 -33 -47q-27 0 -67 45q-35 39 -41 62q-4 31 -21 100q-78 -96 -290 -180q-201 -78 -330 -78q-197 0 -320 160q-111 145 -137 374q-2 12 -2 142q0 246 29 565q33 371 75 436q51 6 97 -63q39 -63 39 -117q0 8 -6 -127q-2 -8 -27 -22q-8 -49 -23 -144 q-35 -414 -34 -643q0 -188 30 -254q45 -94 193 -94q115 0 311 70q2 0 160 81q59 31 109.5 90.5t62.5 116.5q10 45 12 78q2 61 2 334v588q0 29 15 82q2 6 16 18q78 -12 125 -110q41 -84 33 -152q0 -2 -39 -29l-6 -383q0 18 10 -323q4 -201 14 -310q4 -51 23.5 -157.5 t19.5 -108.5z" />
<glyph unicode="v" horiz-adv-x="1472" d="M1321 1466q0 -68 -102 -356q-70 -199 -105 -281q-2 -10 -129 -288q-139 -311 -147 -326q-150 -309 -201 -309q-131 0 -195 393q-55 340 -149 784q-23 109 -55 242q-6 29 -31 98q-23 59 -23 66q0 45 27 45q47 0 98 -90q33 -57 41 -94q43 -164 78 -322q82 -373 160 -840 q2 -4 8 -12q203 387 408 891q98 246 149 426q4 8 -5 52t-9 67q0 49 39 49q66 0 110 -86q33 -66 33 -109z" />
<glyph unicode="w" horiz-adv-x="2037" d="M2013 1618q0 -18 -53 -119q-29 -53 -57 -106q-90 -225 -201 -590q-152 -494 -152 -668q0 -4 19.5 -60.5t19.5 -66.5q0 -66 -59 -65q-57 0 -168 186q-57 109 -115 217q-233 430 -362 762q-31 -104 -54 -168q-25 -80 -71 -231q-43 -125 -88 -248q-74 -209 -74 -234 q0 -6 22.5 -43t26.5 -51q8 -23 8 -47q0 -29 -19.5 -49.5t-45.5 -20.5q-6 0 -11.5 3.5t-15.5 3.5q0 -12 6 -40t6 -34q0 -51 -45 -51q-84 0 -145 153q-39 98 -45 166q-53 508 -100 866q-25 195 -68 383q-2 8 -12 39q-8 25 -8 37q0 41 28 41q51 0 101 -88q33 -59 38 -94 q27 -145 50 -289q74 -518 82 -678q-2 0 8 -10q207 539 358 1118q4 23 10 68q2 16 17 30q55 -4 91 -62t36 -124q0 -16 -2 -33q4 -31 6 -90q-4 -180 160 -524q23 -47 266 -520q0 8 6 22q55 473 358 1268q39 102 119 199q49 4 89 -53.5t40 -104.5z" />
<glyph unicode="x" horiz-adv-x="1452" d="M1473 1448q0 -53 -33 -53q-8 0 -29.5 14t-30.5 14q-51 0 -200 -198q-276 -371 -277 -383q0 -6 137 -238q150 -256 238 -387q23 -12 59 -47q47 -76 47 -115q0 -18 -13 -36.5t-32 -18.5q-49 0 -135 123q-55 80 -182 311q-47 86 -195 320q-158 -190 -333 -465 q-45 -68 -144 -232q-2 -4 5 -20.5t10 -22.5q4 -33 0 -55q-4 -14 -37 -30.5t-47 -16.5q-53 0 -93 74q-33 57 -32 98q0 51 51 137q39 63 80 127q16 31 110 172q49 74 193 264q119 162 119 168l-70 117q-61 115 -211 348q-59 82 -59 156q0 12 4 20q16 16 26 17q25 0 76 -42 t66 -69q8 -33 30 -94q31 -59 207 -358q70 94 217 286q111 141 156 189q109 117 180 116q63 0 107 -79q35 -62 35 -111z" />
<glyph unicode="y" horiz-adv-x="1275" d="M1292 1432q0 -63 -153 -287q-20 -23 -52 -66q-109 -201 -172 -391q-162 -479 -161 -543q0 -16 14 -32q29 -39 29 -90q0 -29 -29 -76t-55 -47q-29 0 -63 35.5t-48 80.5q-6 23 -6 101q0 127 43 297q23 80 98 311q-16 2 -45 -18l-49 -35q-90 -51 -170 -51q-98 0 -183 75.5 t-114 192.5q-6 31 -6 110q0 283 139 580q55 115 84 115q53 0 88 -76q27 -57 27 -105q0 -47 -19 -63q-8 0 -26 -2q-80 -162 -121 -340q-33 -145 -31 -262q25 -25 80 -25q115 0 275 137q88 76 272 277q16 29 45 82q41 72 80 145q47 84 74 92q10 2 16 21q6 27 10 31 q55 4 92 -58.5t37 -115.5z" />
<glyph unicode="z" horiz-adv-x="1857" d="M1704 1384q0 -53 -86 -86q-14 2 -45 -2q-29 -20 -84 -61q-18 -12 -49 -39q-717 -727 -942 -997q43 0 159.5 22.5t200.5 22.5q147 0 334 -25q221 -29 307 -72q37 -18 64.5 -68t27.5 -83q0 -59 -53 -59q-6 0 -32.5 16t-35.5 20q-16 6 -84 23q-178 41 -436 41 q-80 0 -190 -19q-135 -23 -176 -30q-111 -25 -191 -54.5t-90 -29.5q-63 0 -110 67q-41 59 -41 105q0 33 149.5 224.5t462.5 516.5q262 272 524 545q-8 2 -45 2q-29 0 -164 -12q-176 -16 -291 -39q-70 -14 -235 -62l-78 -22q-4 -18 -10 -39t-27 -21q-33 0 -84 40t-61 69 q-25 63 -25 78q0 41 31 51q72 20 207 59q66 23 196 54q348 53 531 53q219 0 373 -37q33 -6 65.5 -59.5t32.5 -92.5z" />
<glyph unicode="{" horiz-adv-x="841" d="M698 1032q0 -43 -30 -43q-33 0 -105 92q-27 33 -61.5 60.5t-104.5 68.5q-76 45 -106.5 67.5t-56 69t-25.5 80.5q0 41 31 41q2 0 92 -43q111 -55 227 -165q139 -136 139 -228zM688 739q0 -43 -37 -43q-6 0 -35.5 3t-37.5 3q-6 0 -95.5 -8t-95.5 -8q-76 0 -127 47t-51 119 q0 47 29 45q88 -2 159.5 6t102.5 8q78 0 133 -51t55 -121zM721 444q0 -20 -2 -26q-20 -23 -57 -70q-168 -231 -185 -231q-49 0 -86 76q-31 59 -31 90q0 27 2 30q61 84 181 242q37 47 65 47q47 0 84 -70q29 -57 29 -88z" />
<glyph unicode="|" horiz-adv-x="708" d="M455 18q-10 -18 -31 -18q-41 0 -86 78q-41 68 -41 96v334q0 8 -6 104.5t-6 104.5v895q10 20 28 20q41 0 80 -57t39 -92q0 -430 12 -1350q0 -18 5.5 -57.5t5.5 -57.5z" />
<glyph unicode="}" horiz-adv-x="897" d="M715 1290q-63 -43 -187 -141q-33 -33 -94 -90q-10 -8 -28 -8q-47 0 -87 71q-31 57 -30 90q0 31 14 48q33 41 152.5 135t140.5 94q49 0 89 -74t30 -125zM752 721q0 -51 -39 -51q-6 0 -98.5 6t-100.5 6q-104 0 -133 -2q-6 0 -19.5 -5t-19.5 -5q-47 0 -88 73q-35 59 -35 95 q0 49 80 59q12 2 123 2q170 0 215 -14.5t80 -68.5t35 -95zM739 162q0 -16 -11 -31.5t-21 -15.5q-14 0 -144 116q-66 61 -131 121q-23 10 -65 35q-31 23 -54.5 68t-23.5 77q0 45 33 46q66 0 192 -117q31 -27 170 -172q16 -16 35.5 -60t19.5 -67z" />
<glyph unicode="~" horiz-adv-x="1146" d="M940 1427q0 -66 -121 -65q-41 0 -102 20q-53 20 -107 41q-45 14 -106 33q-49 14 -43 14q-10 0 -50 -20t-42 -27q4 -18 4 -32q0 -53 -64 -54q-47 0 -82 62q-27 49 -26 92q0 35 12 57.5t75.5 63.5t96.5 41q4 0 53 -14.5t150 -47.5q37 -16 74 -30q45 -16 83 -17q16 0 58 6 q6 0 18.5 9.5t20.5 9.5q37 0 69 -60q29 -51 29 -82z" />
<glyph unicode="&#xa5;" horiz-adv-x="2121" d="M2007 778q-16 -18 -59 -18q-6 0 -170 16.5t-170 16.5q-2 0 -70 -58q-76 -61 -108 -80q-358 -217 -676 -198v-74q0 -4 16 -174t16 -176q0 -41 -32 -41q-39 0 -93.5 49t-60.5 86q-14 80 -18 135q-8 82 -17 244q-121 76 -121 149q0 35 35 35q6 0 39 -10t43 -6q-6 53 0 119 h-129q-4 0 -60.5 -5.5t-64.5 -5.5h-47q-39 6 -90 60.5t-51 91.5q0 18 18 33q35 4 107 10q39 2 309 18q2 2 8 9v77h-268q-35 -2 -88 56.5t-53 95.5q0 16 16 35h229q10 0 56.5 5t68.5 5q35 0 45 -10v102q-20 25 -53 86v14q0 14 21.5 34t29.5 34q0 23 4 74q16 18 33 18 q6 0 39 -19.5t37 -19.5q6 0 27.5 9.5t33.5 11.5q82 12 129 12q137 0 338 -88q217 -96 314 -215h319q35 0 88 -63.5t53 -92.5q0 -20 -22 -30h-293q35 -96 33 -172q293 -7 309 -185zM1335 1321q-29 27 -162 72t-184 45q-76 0 -170 -35q-33 -10 -65 -37v-78h22q8 0 175 16.5 t169 16.5h215zM1505 1094v39h-102q-4 0 -250 -17q-274 -20 -399 -26v-78q227 2 360 -2q39 -2 174 -13q129 -8 131 -8q25 0 31 2q55 76 55 103zM1233 817q-31 0 -94.5 3t-65.5 3q-6 0 -127 -6q-139 -8 -196 -10v-158h26q66 0 250 72q168 65 207 96z" />
<glyph unicode="&#xa9;" horiz-adv-x="1540" d="M1415 938q0 -188 -121 -346q-39 -51 -188 -141q-201 -121 -418 -121q-164 0 -250 57q-104 72 -172 227q-63 139 -63 260q0 106 55 271q76 231 227 348q78 59 192 102t197 43q92 0 162 -129q8 -12 80 -41q57 -25 129 -106q61 -70 96 -139q74 -146 74 -285zM1282 1042 q0 98 -57 181q-63 90 -166 102q-35 2 -92 8q-66 12 -90 105q-86 -18 -121 -33q-25 -14 -76 -37q-137 -51 -246 -266q-98 -190 -98 -332q0 -8 28.5 -130t247.5 -122q139 0 293 63.5t266 172.5q39 39 86 170q25 71 25 118zM1118 805q0 -35 -8 -45q-31 -39 -115 -68 q-74 -25 -123 -24q-156 0 -246.5 100t-90.5 252q0 111 83.5 193.5t200.5 82.5q57 0 72 -8q49 -25 83 -86t34 -115q0 -14 -2 -26q-16 -16 -27 -17q-18 0 -80 64q-12 4 -27 4q-61 0 -132.5 -69.5t-71.5 -127.5q0 -33 10 -38q33 -20 113 -21q113 0 190 62q6 16 27 45 q49 -8 79.5 -58.5t30.5 -99.5z" />
<glyph unicode="&#xad;" d="M985 723q0 -43 -51 -43q-4 0 -17.5 6t-19.5 6q-55 12 -158 13q-4 0 -143 -5.5t-145 -5.5q-117 0 -146 12.5t-56.5 55.5t-27.5 78q0 16 10 32q131 -4 277 0q20 2 94 5q66 4 72 4q123 0 219 -23q33 -6 62.5 -53t29.5 -82z" />
<glyph unicode="&#xae;" horiz-adv-x="1556" d="M1409 936q0 -92 -8 -125t-27 -94q-49 -125 -192 -221q-113 -74 -252 -113q-51 -14 -176 -29q-4 -10 -21 -30q-10 -4 -35.5 14t-35.5 20q-47 8 -95 17q-57 14 -102 41q-293 170 -293 563q0 74 2 90q10 137 161.5 306t295.5 192q12 2 53 12q35 8 43 8q43 0 82 -31 q14 -12 47 -53q57 -6 117 -10q72 -8 121 -31q184 -82 260 -233q55 -115 55 -293zM1272 1044q0 106 -19 154q-14 33 -99 70t-142 37h-199q-20 0 -86 69q-94 0 -239.5 -144.5t-165.5 -250.5q-12 -61 -13 -109q0 -68 19 -168q8 -45 94 -95t125 -50h33q-68 336 -68 504 q0 88 -2 69q6 68 39 68q10 0 37 -18l26 -19q-2 0 70 51.5t143 51.5q86 0 155 -73t69 -163q0 -82 -103 -199q39 -8 133 -32q82 -23 88 -23q27 0 62 76q27 59 35 102q8 37 8 92zM866 1061q-96 -31 -145 -96q-23 -35 -64 -88q0 -10 -2 -27q127 82 211 211zM985 639 q-39 8 -117 12q-113 6 -120 8q-14 0 -70 56q8 -57 27 -164q139 12 280 88z" />
<glyph unicode="&#x2000;" horiz-adv-x="888" />
<glyph unicode="&#x2001;" horiz-adv-x="1776" />
<glyph unicode="&#x2002;" horiz-adv-x="888" />
<glyph unicode="&#x2003;" horiz-adv-x="1776" />
<glyph unicode="&#x2004;" horiz-adv-x="592" />
<glyph unicode="&#x2005;" horiz-adv-x="444" />
<glyph unicode="&#x2006;" horiz-adv-x="296" />
<glyph unicode="&#x2007;" horiz-adv-x="296" />
<glyph unicode="&#x2008;" horiz-adv-x="222" />
<glyph unicode="&#x2009;" horiz-adv-x="355" />
<glyph unicode="&#x200a;" horiz-adv-x="98" />
<glyph unicode="&#x2010;" d="M985 723q0 -43 -51 -43q-4 0 -17.5 6t-19.5 6q-55 12 -158 13q-4 0 -143 -5.5t-145 -5.5q-117 0 -146 12.5t-56.5 55.5t-27.5 78q0 16 10 32q131 -4 277 0q20 2 94 5q66 4 72 4q123 0 219 -23q33 -6 62.5 -53t29.5 -82z" />
<glyph unicode="&#x2011;" d="M985 723q0 -43 -51 -43q-4 0 -17.5 6t-19.5 6q-55 12 -158 13q-4 0 -143 -5.5t-145 -5.5q-117 0 -146 12.5t-56.5 55.5t-27.5 78q0 16 10 32q131 -4 277 0q20 2 94 5q66 4 72 4q123 0 219 -23q33 -6 62.5 -53t29.5 -82z" />
<glyph unicode="&#x2012;" d="M985 723q0 -43 -51 -43q-4 0 -17.5 6t-19.5 6q-55 12 -158 13q-4 0 -143 -5.5t-145 -5.5q-117 0 -146 12.5t-56.5 55.5t-27.5 78q0 16 10 32q131 -4 277 0q20 2 94 5q66 4 72 4q123 0 219 -23q33 -6 62.5 -53t29.5 -82z" />
<glyph unicode="&#x2013;" horiz-adv-x="1398" d="M1245 723q0 -43 -68 -43q-6 0 -24 6t-26 6q-74 12 -212 13q-5 0 -191.5 -5.5t-194.5 -5.5q-157 0 -195.5 12.5t-75.5 55.5t-37 78q0 16 13 32q176 -4 372 0q26 2 126 5q88 4 96 4q165 0 294 -23q44 -6 83.5 -53t39.5 -82z" />
<glyph unicode="&#x2014;" horiz-adv-x="2422" d="M2269 723q0 -43 -137 -43q-10 0 -46.5 6t-52.5 6q-147 12 -423 13q-11 0 -383.5 -5.5t-388.5 -5.5q-314 0 -392 12.5t-151.5 55.5t-73.5 78q0 16 27 32q351 -4 742 0q54 2 252 5q177 4 193 4q330 0 587 -23q89 -6 168 -53t79 -82z" />
<glyph unicode="&#x202f;" horiz-adv-x="355" />
<glyph unicode="&#x205f;" horiz-adv-x="444" />
<glyph unicode="&#x2122;" horiz-adv-x="1523" d="M1329 969q-8 -16 -26 -17q-29 0 -65 49.5t-38 73.5q-2 33 -8 103q0 18 -10 45q-47 -76 -146 -222q-4 -8 -24 -8q-45 0 -107 107q-16 31 -51 92q-16 -45 -45 -133t-43 -133q-57 4 -92 63q-27 45 -27 92q0 45 42 157t42 144q0 18 -14 19q-4 0 -180 -15q23 -195 22 -288 q0 -145 -39 -146q-31 0 -65.5 49.5t-34.5 73.5q-2 8 0 158q2 115 -8 115q-14 0 -40 -18.5t-53 -18.5q-51 0 -94 55q-37 47 -37 94q0 33 17 41q6 4 84 25q33 14 100 35q139 27 201 26q57 0 90 -31q18 -18 37 -57q12 -31 24 -31q16 0 20.5 26t26.5 26q31 0 66 -50.5t35 -72.5 q0 -63 4 -72q18 -33 53 -96q10 8 37 51q63 98 129 207q14 23 37 22q45 0 84 -63q96 -153 96 -477z" />
<glyph unicode="&#x25fc;" horiz-adv-x="1638" d="M0 1638h1638v-1638h-1638v1638z" />
</font>
</defs>
</svg>
