<?xml version="1.0" standalone="no"?>
<!DOCTYPE svg PUBLIC "-//W3C//DTD SVG 1.1//EN" "http://www.w3.org/Graphics/SVG/1.1/DTD/svg11.dtd" >
<svg xmlns="http://www.w3.org/2000/svg" xmlns:xlink="http://www.w3.org/1999/xlink" version="1.1">
<metadata></metadata>
<defs>
<font id="philosopherregular" horiz-adv-x="1085" >
<font-face units-per-em="2048" ascent="1638" descent="-410" />
<missing-glyph horiz-adv-x="512" />
<glyph horiz-adv-x="0" />
<glyph unicode="&#xd;" horiz-adv-x="512" />
<glyph unicode=" "  horiz-adv-x="512" />
<glyph unicode="&#x09;" horiz-adv-x="512" />
<glyph unicode="&#xa0;" horiz-adv-x="512" />
<glyph unicode="!" horiz-adv-x="479" d="M299 317h-119l-37 1035h193zM240 193q45 0 77.5 -32t32.5 -77q0 -47 -32.5 -80t-77.5 -33t-78 33t-33 80q0 45 33 77t78 32z" />
<glyph unicode="&#x22;" horiz-adv-x="749" d="M498 799l-62 553h205l-61 -553h-82zM170 799l-61 553h204l-61 -553h-82z" />
<glyph unicode="#" horiz-adv-x="1368" d="M258 0l72 358h-267v123h295l74 369h-246v123h273l86 409h133l-86 -409h297l86 409h133l-86 -409h281v-123h-308l-75 -369h260v-123h-287l-72 -358h-133l72 358h-297l-72 -358h-133zM489 481h299l74 369h-297z" />
<glyph unicode="$" horiz-adv-x="1077" d="M483 -164v133q-74 8 -142.5 28.5t-122.5 51.5t-86 73t-32 93v219h37q31 -186 117 -277t229 -108v553l-143 86q-131 78 -185.5 158t-54.5 194q0 78 28 141.5t78 108.5t120.5 70.5t156.5 28.5v116h82v-121q70 -6 136.5 -25.5t119.5 -50t86 -72.5t33 -93v-219h-37 q-31 186 -113.5 274t-224.5 105v-519l174 -102q66 -39 114 -75t79 -75.5t46 -85t15 -102.5q0 -174 -113.5 -276.5t-314.5 -102.5v-129h-82zM565 553v-506q49 2 95.5 16.5t81 41t55 64.5t20.5 87q0 90 -56 153.5t-169 129.5zM260 1100q0 -45 14.5 -80t42 -65.5t69.5 -59.5 t97 -61v473q-43 -2 -84 -17.5t-71.5 -43t-49 -64.5t-18.5 -82z" />
<glyph unicode="%" horiz-adv-x="1380" d="M147 0l932 1352h154l-932 -1352h-154zM1192 266q0 205 -174 205t-174 -205t174 -205t174 205zM1315 266q0 -131 -79 -203.5t-218 -72.5t-218 72.5t-79 203.5t79 204t218 73t218 -73t79 -204zM537 1085q0 205 -175 205q-174 0 -174 -205t174 -204q175 -1 175 204z M659 1085q0 -131 -78.5 -203.5t-218.5 -72.5q-139 0 -217.5 72.5t-78.5 203.5t78.5 204t217.5 73t218 -73t79 -204z" />
<glyph unicode="&#x26;" horiz-adv-x="1261" d="M86 287q0 63 24.5 115.5t65.5 98.5t94.5 86t108.5 81q-59 51 -107 114q-41 53 -72.5 128t-31.5 163q0 147 99.5 233.5t269.5 86.5q162 0 249.5 -82t87.5 -205q0 -72 -24.5 -129t-65.5 -105.5t-95 -91.5t-114 -84l412 -450q43 47 77 92t58 82q27 43 49 82l41 -31 q-18 -41 -45 -86q-23 -39 -57.5 -88t-79.5 -98l182 -199h-225l-82 88q-74 -55 -170 -92t-219 -37q-109 0 -188.5 25.5t-134 69.5t-81 103.5t-26.5 129.5zM555 31q94 0 170 28.5t137 75.5l-422 461q-70 -59 -114.5 -128t-44.5 -161q0 -276 274 -276zM362 1073 q0 -61 22 -114.5t48.5 -94.5t50 -66.5t29.5 -29.5q78 66 133 140.5t55 176.5q0 66 -15 111t-39.5 72.5t-53.5 40t-55 12.5q-31 0 -62 -12.5t-56.5 -42t-41 -76.5t-15.5 -117z" />
<glyph unicode="'" horiz-adv-x="421" d="M170 799l-61 553h204l-61 -553h-82z" />
<glyph unicode="(" horiz-adv-x="632" d="M70 492q0 154 33.5 282.5t99 239t161 209t218.5 190.5l20 -31q-100 -88 -166.5 -192.5t-106.5 -218t-57.5 -235.5t-17.5 -244q0 -123 17.5 -245t57.5 -235.5t106.5 -218t166.5 -192.5l-20 -31q-123 92 -218.5 190.5t-161 209t-99 239.5t-33.5 283z" />
<glyph unicode=")" horiz-adv-x="632" d="M563 492q0 -154 -33.5 -283t-99 -239.5t-161 -209t-218.5 -190.5l-20 31q100 88 166.5 192.5t106.5 218t57.5 235.5t17.5 245t-17.5 244.5t-57.5 235t-106.5 218t-166.5 192.5l20 31q123 -92 218.5 -190.5t161 -209t99 -239t33.5 -282.5z" />
<glyph unicode="*" horiz-adv-x="868" d="M352 1352h164l-61 -308l235 216l82 -144l-297 -102l297 -103l-82 -143l-235 215l61 -307h-164l62 307l-236 -215l-82 143l297 103l-297 102l82 144l236 -216z" />
<glyph unicode="+" d="M481 614h-409v123h409v410h123v-410h410v-123h-410v-409h-123v409z" />
<glyph unicode="," horiz-adv-x="485" d="M125 -287q78 53 121 119t43 158l-62 -21q-47 0 -79.5 33t-32.5 80q0 53 34.5 88t88.5 35q61 0 97 -37t36 -107q0 -131 -58.5 -224t-167.5 -154z" />
<glyph unicode="-" horiz-adv-x="792" d="M135 614h522v-143h-522v143z" />
<glyph unicode="." horiz-adv-x="450" d="M225 195q47 0 79 -33t32 -78q0 -47 -33 -80t-78 -33t-77.5 33t-32.5 80q0 45 32.5 78t77.5 33z" />
<glyph unicode="/" horiz-adv-x="901" d="M47 0l658 1352h149l-657 -1352h-150z" />
<glyph unicode="0" horiz-adv-x="1196" d="M598 1311q-84 0 -139.5 -39t-88 -118t-46 -197.5t-13.5 -280.5t13.5 -281t46 -197.5t88 -117.5t139.5 -39t139.5 39t88 117.5t46 197.5t13.5 281t-13.5 280.5t-46 197.5t-88 118t-139.5 39zM598 1393q135 0 228.5 -51.5t151.5 -145.5t85 -226t27 -294t-27 -294 t-85 -226.5t-151.5 -145.5t-228.5 -51t-228.5 51t-151.5 145.5t-85 226.5t-27 294t27 294t85 226t151.5 145.5t228.5 51.5z" />
<glyph unicode="1" horiz-adv-x="624" d="M449 0h-185v1147l-198 -129l-37 47l317 287h103v-1352z" />
<glyph unicode="2" d="M688 82q123 0 189.5 53t66.5 162h41v-133q0 -31 -7 -60.5t-26.5 -52t-53.5 -37t-87 -14.5h-727v102q162 158 286 275t208 218t128 197.5t44 211.5q0 76 -21.5 134t-58.5 96t-85 57.5t-102 19.5q-123 0 -215 -89t-123 -259h-41q0 78 6.5 148.5t43.5 117.5q55 68 161.5 116 t229.5 48q61 0 133 -14.5t133 -57.5t102 -119t41 -198q0 -131 -60 -241t-160.5 -216.5t-232.5 -218t-274 -246.5h461z" />
<glyph unicode="3" d="M391 758q53 14 109.5 17t74.5 3q45 0 118 -15t142.5 -58t120 -121t50.5 -205q0 -135 -50.5 -217t-123 -127t-151.5 -60.5t-136 -15.5q-154 0 -265.5 59.5t-197.5 159.5l33 37q78 -86 170 -130t209 -44q61 0 116.5 19.5t98.5 61.5t67.5 105.5t24.5 151.5q0 80 -24.5 140.5 t-62.5 99t-86 58t-93 19.5q-47 0 -78 -2t-56.5 -6t-51 -9t-60.5 -13l-53 86l555 518h-379q-123 0 -189.5 -53.5t-66.5 -161.5h-41v133q0 31 7 60.5t26.5 52t53.5 37t87 14.5h651v-82z" />
<glyph unicode="4" horiz-adv-x="1118" d="M877 430h184v-82h-184v-348h-185v348h-655v82l676 922h164v-922zM692 430v725l-532 -725h532z" />
<glyph unicode="5" d="M516 778q76 0 163 -16.5t159.5 -60.5t121 -121.5t48.5 -200.5q0 -131 -51.5 -213t-125 -128t-156.5 -62.5t-149 -16.5q-154 0 -255 57.5t-185 157.5l39 35q78 -86 168 -127t203 -41q61 0 116.5 19.5t98.5 61.5t67.5 105.5t24.5 151.5q0 162 -87 239.5t-241 77.5 q-47 0 -92 -3t-82 -7l-82 -10l-82 82l21 594h768v-82h-600l-19 -502q31 2 66 4q29 2 66.5 4t76.5 2z" />
<glyph unicode="6" horiz-adv-x="1099" d="M301 696q0 -176 20.5 -301t56.5 -203.5t87 -114.5t113 -36q57 0 103 31.5t78 85t48 121t16 141.5q0 176 -65.5 277.5t-210.5 101.5q-78 0 -135.5 -28t-110.5 -75zM106 676q0 356 125 536.5t387 180.5q100 0 178 -19.5t140 -42.5l-10 -41q-47 8 -118 14.5t-149 6.5 q-92 0 -159.5 -37t-111.5 -105.5t-65.5 -165t-21.5 -215.5q53 39 126 66t181 27q106 0 184 -33t128.5 -93.5t74 -145.5t23.5 -189q0 -88 -26.5 -171t-82 -147.5t-138.5 -103.5t-193 -39q-246 0 -359 181.5t-113 535.5z" />
<glyph unicode="7" horiz-adv-x="970" d="M432 0h-184l512 1270h-410q-123 0 -189.5 -53.5t-66.5 -161.5h-41v133q0 31 7.5 60.5t26.5 52t53 37t87 14.5h717v-82z" />
<glyph unicode="8" horiz-adv-x="1134" d="M987 1065q0 -61 -21.5 -112.5t-57.5 -93.5t-82 -74.5t-95 -57.5q57 -35 112.5 -72t98.5 -84t69.5 -106t26.5 -137q0 -100 -37.5 -170t-102 -114t-149.5 -64.5t-182 -20.5q-96 0 -181 19.5t-149.5 62.5t-102.5 108.5t-38 157.5q0 76 28 135.5t74 104.5t105 78.5t121 60.5 q-53 31 -103.5 65.5t-89 76.5t-61.5 95.5t-23 120.5q0 100 34 167t91.5 107t134 57.5t160.5 17.5t161 -16.5t134.5 -55.5t91 -101.5t33.5 -154.5zM844 287q0 66 -26.5 117t-72 94t-104.5 77.5t-125 69.5q-45 -23 -86 -50.5t-71.5 -67.5t-49 -93t-18.5 -127q0 -70 22.5 -120 t61.5 -82.5t89 -48t103 -15.5t103.5 15.5t88.5 46t61.5 77t23.5 107.5zM342 1085q0 -49 24.5 -94t66.5 -83t95.5 -70.5t110.5 -59.5q61 45 107.5 108.5t46.5 178.5q0 74 -20.5 121t-53.5 74.5t-73 39t-79 11.5t-78.5 -10.5t-72.5 -37t-53.5 -69.5t-20.5 -109z" />
<glyph unicode="9" horiz-adv-x="1097" d="M797 655q0 176 -20.5 301t-56.5 204t-87 115t-113 36q-57 0 -103 -32t-78 -85t-48.5 -120.5t-16.5 -141.5q0 -176 66 -277.5t211 -101.5q78 0 135.5 27.5t110.5 74.5zM991 676q0 -356 -125 -536.5t-387 -180.5q-100 0 -178 19.5t-139 41.5l10 41q47 -8 117.5 -14 t148.5 -6q92 0 160 37t112 105.5t65.5 164.5t21.5 215q-53 -39 -126 -65.5t-182 -26.5t-185.5 33t-126.5 93t-73.5 145t-23.5 190q0 88 26.5 171t82 147.5t138.5 103.5t193 39q246 0 358.5 -182.5t112.5 -534.5z" />
<glyph unicode=":" horiz-adv-x="493" d="M248 944q47 0 78.5 -32.5t31.5 -77.5q0 -47 -31.5 -79t-78.5 -32q-45 0 -78 31.5t-33 79.5q0 45 33 77.5t78 32.5zM246 195q47 0 79.5 -33t32.5 -78q0 -47 -32.5 -80t-79.5 -33q-45 0 -78 33t-33 80q0 45 33 78t78 33z" />
<glyph unicode=";" horiz-adv-x="528" d="M268 944q45 0 78 -31.5t33 -76.5q0 -47 -33 -79t-78 -32q-47 0 -79.5 31.5t-32.5 79.5q0 45 32.5 76.5t79.5 31.5zM143 -287q78 61 122 124t44 163q-8 -8 -24.5 -19.5t-46.5 -11.5q-47 0 -75 33t-28 80q0 45 36 84t97 39q53 0 88 -43t35 -121q0 -109 -51 -190.5 t-174 -165.5z" />
<glyph unicode="&#x3c;" horiz-adv-x="1265" d="M272 686l854 -369v-122l-1065 460v62l1065 461v-123z" />
<glyph unicode="=" horiz-adv-x="1345" d="M135 922h1075v-123h-1075v123zM135 553h1075v-123h-1075v123z" />
<glyph unicode="&#x3e;" horiz-adv-x="1265" d="M139 1055v123l1065 -461v-62l-1065 -460v122l854 369z" />
<glyph unicode="?" horiz-adv-x="978" d="M463 197q47 0 79.5 -33t32.5 -80q0 -45 -33.5 -78t-78.5 -33q-47 0 -79 33t-32 78q0 47 32 80t79 33zM422 319q2 84 24.5 146.5t54 113t68.5 94.5t68 92t51.5 104.5t20.5 134.5q0 76 -21.5 134t-58.5 96t-85 57.5t-102 19.5q-123 0 -216 -89t-124 -259h-41 q0 78 6.5 148.5t45.5 117.5q55 68 161.5 116t229.5 48q61 0 133 -14.5t133 -57.5t102 -119t41 -198q0 -86 -29.5 -152t-74.5 -119t-97.5 -99t-97.5 -93t-76.5 -100.5t-33.5 -121.5h-82z" />
<glyph unicode="@" horiz-adv-x="1753" d="M1055 502h-62q-154 0 -240.5 -56.5t-86.5 -148.5q0 -49 16 -86t43 -61.5t61.5 -36t73.5 -11.5q76 0 120 38t75 85v277zM881 -369q-176 0 -323.5 57.5t-253 168t-164 275.5t-58.5 380t58.5 380t164 275.5t253 168t323.5 57.5t323.5 -56.5t253 -164t163.5 -264t58 -355.5 q0 -123 -23.5 -223.5t-72.5 -171t-124 -109.5t-179 -39q-86 0 -139.5 30t-75.5 83h-10q-31 -39 -100.5 -76t-186.5 -37q-43 0 -94 13.5t-96.5 46t-76 88t-30.5 139.5t43 139.5t114.5 88t166 46t198.5 13.5h62q0 106 -16.5 174.5t-45 106.5t-68.5 52.5t-85 14.5 q-86 0 -144.5 -37t-81.5 -137h-92q0 53 6.5 99t44.5 85q18 18 52 32.5t75 23t87.5 12.5t93.5 4q70 0 134 -15.5t114.5 -61.5t80 -131t29.5 -222v-369q0 -47 24.5 -85t77.5 -38q49 0 96.5 32t82 91t56 144t21.5 194q0 184 -51 325.5t-145 237.5t-226.5 145.5t-293.5 49.5 q-162 0 -294 -50.5t-226.5 -149.5t-145.5 -249.5t-51 -349.5q0 -201 51 -350.5t145.5 -248.5t226.5 -149.5t294 -50.5q201 0 356.5 44t278.5 130l40 -61q-123 -86 -287.5 -140.5t-387.5 -54.5z" />
<glyph unicode="A" horiz-adv-x="1300" d="M1356 0q-35 -10 -82 -10q-35 0 -81 8t-94 35.5t-94.5 81t-78.5 141.5l-52 133h-573l-164 -389h-92l573 1352h62l450 -1096q25 -57 46.5 -97t48 -64.5t57.5 -37t74 -16.5v-41zM332 471h502l-246 594z" />
<glyph unicode="B" horiz-adv-x="1273" d="M401 645v-545q47 -14 97.5 -21t97.5 -7q186 0 287.5 73.5t101.5 212.5t-98.5 213t-290.5 74h-195zM596 727q61 0 119.5 17.5t104.5 52t75 86t29 121.5q0 74 -35 126t-88 85.5t-119 49t-127 15.5q-39 0 -81 -6t-73 -14v-533h195zM565 1352q80 0 177.5 -11.5t180.5 -49.5 t139 -108.5t56 -189.5q0 -92 -63.5 -171t-202.5 -126q100 -16 164.5 -45.5t103.5 -71.5t54.5 -95.5t15.5 -114.5q0 -115 -52.5 -187.5t-133 -112.5t-181 -54.5t-196.5 -14.5h-410v1106q0 92 -25.5 148.5t-117.5 56.5h-41v41h532z" />
<glyph unicode="C" horiz-adv-x="1361" d="M1206 922q-39 201 -144.5 295t-275.5 94q-100 0 -189 -34t-156.5 -110.5t-106.5 -201.5t-39 -310q0 -115 27.5 -225.5t87 -196.5t152.5 -139t224 -53q154 0 264.5 73.5t196.5 213.5l41 -31q-49 -96 -109.5 -160.5t-130 -104.5t-150.5 -56.5t-173 -16.5q-145 0 -263 54.5 t-201 148.5t-127 221t-44 272q0 154 50 288t136 234.5t202 158t247 57.5q170 0 293 -48.5t178 -115.5q39 -47 45 -131t6 -176h-41z" />
<glyph unicode="D" horiz-adv-x="1464" d="M408 98q121 -27 208 -26q113 0 211.5 42t170 120.5t112.5 190.5t41 251q0 135 -40 246.5t-111.5 191.5t-171 123t-216.5 43q-45 0 -97 -8t-107 -25v-1149zM569 1352q203 0 354.5 -47.5t251 -133.5t149.5 -209.5t50 -277.5q0 -150 -48 -275.5t-142 -216t-234.5 -141.5 t-326.5 -51h-406v1106q0 92 -25.5 148.5t-117.5 56.5h-41v41h536z" />
<glyph unicode="E" horiz-adv-x="1208" d="M905 1352q53 0 87 -14.5t53.5 -37t26.5 -52t7 -60.5v-154h-41q0 123 -66.5 179.5t-189.5 56.5h-381v-533h553v-82h-553v-573h359q139 0 220 51t128 174l41 -10l-72 -195q-16 -47 -54 -74.5t-99 -27.5h-707v1106q0 92 -25.5 148.5t-117.5 56.5h-41v41h872z" />
<glyph unicode="F" horiz-adv-x="1079" d="M850 1352q53 0 87 -14.5t53.5 -37t26.5 -52t7 -60.5v-154h-41q0 123 -66.5 179.5t-189.5 56.5h-326v-543h463v-82h-463v-645h-184v1106q0 92 -25.5 148.5t-117.5 56.5h-41v41h817z" />
<glyph unicode="G" horiz-adv-x="1474" d="M786 1311q-131 0 -224 -53.5t-152.5 -139.5t-87 -196.5t-27.5 -225.5q0 -184 39 -310t106.5 -203t156.5 -109.5t189 -32.5q111 0 184.5 19.5t133.5 52.5v356q0 43 9 85t44 77t102.5 56.5t182.5 21.5v-41q-49 0 -80 -13.5t-47.5 -39t-21.5 -61.5t-5 -81v-385 q-111 -68 -231.5 -98.5t-270.5 -30.5q-154 0 -281.5 57.5t-219.5 157.5t-143.5 234.5t-51.5 287.5q0 145 44 272.5t127 221.5t201 148.5t263 54.5q186 0 311 -48.5t181 -115.5q18 -23 29 -56.5t15.5 -70.5t5.5 -76t1 -74h-41q-39 178 -147 268.5t-294 90.5z" />
<glyph unicode="H" horiz-adv-x="1419" d="M1200 246q0 -92 25.5 -148.5t117.5 -56.5h41v-41h-184q-53 0 -89 9t-57.5 37t-29.5 75t-8 125v409h-615v-655h-184v1106q0 92 -25.5 148.5t-117.5 56.5h-41v41h184q53 0 89 -9.5t57.5 -37t29.5 -75.5t8 -124v-369h615v615h184v-1106z" />
<glyph unicode="I" horiz-adv-x="583" d="M182 1352h185v-1106q0 -92 25.5 -148.5t117.5 -56.5h41v-41h-184q-53 0 -89 9t-57.5 37t-30 75t-8.5 125v1106z" />
<glyph unicode="J" horiz-adv-x="534" d="M-18 -240q100 0 147 106.5t47 293.5v1192h184v-1192q0 -115 -17 -199t-60 -137t-117 -79t-184 -26v41z" />
<glyph unicode="K" horiz-adv-x="1386" d="M217 1352q53 0 89 -9.5t57.5 -37t29.5 -75.5t8 -124v-399l430 430q39 39 75 76.5t76 68.5t88 50.5t110 19.5h102v-52q-84 0 -148.5 -29.5t-148.5 -113.5l-399 -399l471 -492q84 -88 177 -152.5t171 -74.5v-39q-23 -8 -54.5 -14t-78.5 -6q-43 0 -89 9t-100.5 36.5 t-116 74.5t-135.5 125l-430 451v-676h-184v1106q0 92 -25.5 148.5t-117.5 56.5h-41v41h184z" />
<glyph unicode="L" horiz-adv-x="1142" d="M401 82h727v-82h-911v1106q0 92 -25.5 148.5t-117.5 56.5h-41v41h184q53 0 89 -9.5t57.5 -37t29.5 -75.5t8 -124v-1024z" />
<glyph unicode="M" horiz-adv-x="1751" d="M1722 -92q-111 0 -184.5 25.5t-116.5 79t-60.5 137t-17.5 198.5v789l-512 -1137h-40l-533 1157v-1157h-82v1352h195l491 -1065l481 1065h185v-1004q0 -186 47 -292.5t147 -106.5v-41z" />
<glyph unicode="N" horiz-adv-x="1402" d="M225 1106q0 92 -39 148.5t-145 56.5h-21v41h134q100 0 164.5 -33t111.5 -90l717 -891v1014h82v-1372h-41l-881 1095v-1075h-82v1106z" />
<glyph unicode="O" horiz-adv-x="1458" d="M1159 676q0 145 -29.5 263t-85 201t-135.5 127t-180 44t-180 -44t-135.5 -127t-85 -201t-29.5 -263t29.5 -263t85 -201t135.5 -127t180 -44t180 44t135.5 127t85 201t29.5 263zM94 676q0 150 44 280.5t127 228t201 153t263 55.5t263 -55.5t201 -153t127 -228.5t44 -280 q0 -152 -44 -282t-127 -227t-201 -152.5t-263 -55.5t-263 55.5t-201 152.5t-127 227t-44 282z" />
<glyph unicode="P" horiz-adv-x="1130" d="M555 625q43 0 97.5 16t103.5 55t82.5 101.5t33.5 154.5t-33.5 154.5t-82.5 101.5t-103.5 55.5t-97.5 16.5q-39 0 -81 -6t-73 -14v-615q31 -8 73 -14t81 -6zM401 0h-184v1106q0 92 -25.5 148.5t-117.5 56.5h-41v41h532q66 0 154 -12.5t168 -54.5t135 -124t55 -219 q0 -88 -25.5 -150.5t-66.5 -105.5t-91 -69.5t-100.5 -40t-94.5 -18.5t-72 -5h-226v-553z" />
<glyph unicode="Q" horiz-adv-x="1462" d="M96 676q0 150 44 280.5t127 228t201 153t263 55.5t263 -55.5t201 -153t127 -228.5t44 -280q0 -127 -31.5 -240.5t-92 -205t-147.5 -156t-196 -92.5q25 -78 79 -143.5t122.5 -114t144.5 -76t141 -27.5v-41q-111 0 -221 19.5t-215.5 65.5t-207 125t-195.5 196 q-104 31 -188.5 95t-142.5 155.5t-89 203t-31 236.5zM1161 676q0 145 -29.5 263t-85 201t-135.5 127t-180 44t-180 -44t-135.5 -127t-85 -201t-29.5 -263t29.5 -263t85 -201t135.5 -127t180 -44t180 44t135.5 127t85 201t29.5 263z" />
<glyph unicode="R" horiz-adv-x="1218" d="M555 696q43 0 97.5 16.5t103.5 50.5t82.5 88t33.5 132q0 80 -33.5 137.5t-82.5 92t-103.5 51t-97.5 16.5q-39 0 -81 -6t-73 -14v-543q31 -8 73 -14.5t81 -6.5zM545 625h-144v-625h-184v1106q0 92 -25.5 148.5t-117.5 56.5h-41v41h532q66 0 154 -11.5t168 -50.5 t135 -111.5t55 -195.5q0 -88 -30.5 -149.5t-78.5 -101.5t-106.5 -62.5t-111.5 -34.5l215 -359q39 -66 72.5 -108.5t66.5 -70t65.5 -40t71.5 -16.5v-41q-16 -8 -50 -14t-73 -6q-53 0 -99 14t-89 49t-87 92.5t-93 140.5z" />
<glyph unicode="S" horiz-adv-x="1091" d="M1004 344q0 -86 -30 -155.5t-85 -120t-134 -77t-177 -26.5q-84 0 -167 17.5t-149.5 50.5t-108.5 79t-42 103v219h36q35 -207 136.5 -297t275.5 -90q53 0 101.5 13.5t85 40t59 65.5t22.5 90q0 90 -56 153.5t-169 129.5l-252 149q-131 78 -185 158t-54 194q0 80 28.5 143.5 t80.5 109.5t125 71t163 25q76 0 154.5 -16.5t142 -48.5t104.5 -78t41 -103v-219h-37q-35 207 -133 295t-272 88q-45 0 -88 -14.5t-76 -41t-53.5 -65.5t-20.5 -86q0 -45 14.5 -80t43 -65.5t71.5 -60.5t99 -63l252 -149q66 -39 113.5 -75t78.5 -75.5t46.5 -85t15.5 -102.5z " />
<glyph unicode="T" horiz-adv-x="1193" d="M1169 1352v-82h-460v-1270h-185v1270h-184q-123 0 -189.5 -56.5t-66.5 -179.5h-41v154q0 31 7 60.5t26.5 52t53.5 37t87 14.5h952z" />
<glyph unicode="U" horiz-adv-x="1406" d="M203 1106q0 92 -25.5 148.5t-118.5 56.5h-41v41h185q53 0 89 -9.5t57.5 -37t29.5 -75.5t8 -124v-584q0 -109 18.5 -193.5t61.5 -144t111.5 -91.5t171.5 -32q117 0 196.5 31t128.5 95.5t69.5 163t20.5 233.5v768h82v-768q0 -150 -22.5 -263.5t-81 -189.5t-159.5 -113.5 t-259 -37.5q-150 0 -250 37.5t-160.5 113.5t-86 189.5t-25.5 263.5v522z" />
<glyph unicode="V" horiz-adv-x="1310" d="M717 287q51 119 85 194.5t55.5 126.5t35.5 86t28.5 69t31 75t44 106.5t68.5 162.5t102 245h99l-588 -1372h-37l-475 1132q-25 57 -46.5 97t-48 64.5t-57 37t-73.5 16.5v41q8 0 31.5 2t37.5 2q37 0 84 -8t95.5 -34.5t94.5 -78t83 -139.5z" />
<glyph unicode="W" horiz-adv-x="1773" d="M160 1112q-20 57 -41 97t-46.5 64.5t-59 37t-79.5 16.5v41q8 0 32 2t38 2q43 0 91 -7t95.5 -33.5t90.5 -79t73 -140.5l275 -790l219 649l-49 141q-20 57 -41 97t-46.5 64.5t-59.5 37t-79 16.5v41q8 0 32 2t38 2q43 0 91 -7t95.5 -33.5t90.5 -79t73 -140.5l275 -790 l350 1030h88l-469 -1372h-41l-303 862l-295 -862h-41z" />
<glyph unicode="X" horiz-adv-x="1366" d="M186 0h-102l512 666l-287 419q-27 39 -55.5 77t-65 70t-87 53.5t-119.5 25.5v41h245q49 0 91 -20.5t77 -53.5t63.5 -73t55.5 -79l205 -307l409 533h103l-461 -604l328 -482q27 -39 57.5 -76.5t67.5 -69.5t80 -53.5t92 -25.5v-41h-215q-49 0 -91 20.5t-77 53t-64.5 72.5 t-54.5 79l-246 369z" />
<glyph unicode="Y" horiz-adv-x="1286" d="M737 666l428 686h92l-479 -779v-573h-184v559l-348 526q-31 45 -60.5 85t-64.5 70t-77 48.5t-95 22.5v41h184q57 0 102.5 -19.5t82 -51.5t66.5 -72t56 -83z" />
<glyph unicode="Z" horiz-adv-x="1210" d="M1176 1352l-871 -1270h840v-82h-1096v41l850 1229h-491q-123 0 -189.5 -56.5t-66.5 -179.5h-41v154q0 31 7 60.5t26.5 52t53 37t87.5 14.5h891z" />
<glyph unicode="[" horiz-adv-x="647" d="M594 -410h-440v1803h440v-82h-277v-1639h277v-82z" />
<glyph unicode="\" horiz-adv-x="901" d="M705 0l-658 1352h150l657 -1352h-149z" />
<glyph unicode="]" horiz-adv-x="647" d="M53 -328h277v1639h-277v82h441v-1803h-441v82z" />
<glyph unicode="^" horiz-adv-x="1003" d="M481 1393h41l441 -717h-138l-323 526l-324 -526h-137z" />
<glyph unicode="_" horiz-adv-x="884" d="M852 -123h-819v123h819v-123z" />
<glyph unicode="`" horiz-adv-x="409" d="M41 1393h205l123 -410h-103z" />
<glyph unicode="a" horiz-adv-x="985" d="M664 471h-62q-154 0 -241 -56.5t-87 -148.5q0 -49 16.5 -86t43 -61.5t61.5 -35.5t74 -11q76 0 120 37.5t75 85.5v276zM745 0l-71 92h-10q-31 -39 -100.5 -75.5t-186.5 -36.5q-43 0 -94.5 13t-96.5 46t-75.5 88t-30.5 139t43 139.5t114.5 88t166 46t198.5 13.5h62 q0 106 -16.5 175t-45.5 106.5t-68.5 52t-84.5 14.5q-86 0 -144.5 -37t-81.5 -137h-92q0 53 6 99t45 85q18 18 52 32.5t75 23t87 12.5t93 4q70 0 134.5 -15.5t114.5 -61.5t80 -131t30 -222v-553h-103z" />
<glyph unicode="b" horiz-adv-x="1071" d="M332 184q31 -47 81 -85t134 -38q61 0 105 33t74 89.5t43 133t13 164.5t-14 165t-45 133.5t-79 89t-118 32.5q-47 0 -97 -19.5t-97 -41.5v-656zM147 1106q0 92 -25.5 148.5t-117.5 56.5h-41v41h184q53 0 89 -9.5t57.5 -37t30 -75.5t8.5 -124v-184q47 23 108.5 42t147.5 19 q100 0 173 -40t121 -107.5t71.5 -158.5t23.5 -196q0 -104 -23.5 -195t-69.5 -159t-115 -107.5t-161 -39.5q-115 0 -180.5 36.5t-95.5 75.5h-10l-72 -92h-103v1106z" />
<glyph unicode="c" horiz-adv-x="989" d="M543 983q109 0 183.5 -16.5t113.5 -55.5q18 -18 29.5 -40.5t15.5 -53.5t5 -73t1 -99h-41q-8 131 -83 193.5t-183 62.5q-78 0 -133.5 -32.5t-92 -89t-54 -133.5t-17.5 -165t17.5 -164.5t54 -133t92 -89.5t133.5 -33q109 0 176 43t121 121l41 -30q-70 -117 -163 -166 t-216 -49q-115 0 -200 39.5t-140.5 107.5t-83 159t-27.5 195t27.5 195.5t83 159t140.5 107.5t200 40z" />
<glyph unicode="d" horiz-adv-x="1073" d="M741 840q-47 23 -97 42t-97 19q-70 0 -118 -32.5t-79 -89t-45 -133.5t-14 -165t13 -164.5t43 -133t74 -89.5t105 -33q45 0 79 10.5t59.5 28t43 40t33.5 44.5v656zM926 0h-103l-71 92h-11q-16 -18 -37.5 -38.5t-54.5 -37t-78 -26.5t-106 -10q-92 0 -162 39.5t-116 107.5 t-68.5 159t-22.5 195t23.5 195.5t72 159t121 107.5t172.5 40q86 0 147.5 -19.5t108.5 -41.5v184q0 92 -25.5 148.5t-117.5 56.5h-41v41h184q53 0 89 -9.5t57.5 -37t30 -75.5t8.5 -124v-1106z" />
<glyph unicode="e" horiz-adv-x="999" d="M907 451h-620q0 -84 18.5 -156t54 -124t87 -81t116.5 -29q100 0 167 43t120 121l41 -30q-70 -117 -161 -166t-208 -49q-109 0 -188.5 39.5t-134 107.5t-81 159t-26.5 195t27.5 195.5t81 159t129.5 107.5t172 40q209 0 309 -116.5t100 -334.5zM717 532q0 178 -53.5 273.5 t-161.5 95.5q-47 0 -86 -27.5t-68 -76.5t-45 -117t-16 -148h430z" />
<glyph unicode="f" horiz-adv-x="690" d="M535 1290q-35 0 -65 -13t-52.5 -44t-34.5 -82t-12 -127v-61h286v-82h-286v-881h-185v881h-143v82h143v61q0 106 32 175t82 106.5t114.5 52t130.5 14.5q127 0 174 -31q23 -16 39 -38.5t33 -53.5l-62 -51q-61 92 -194 92z" />
<glyph unicode="g" horiz-adv-x="1007" d="M115 676q0 88 30.5 147.5t83 94t124 50t151.5 15.5h379v-51l-133 -21v-10q61 -31 102 -89t41 -136q0 -88 -31 -147.5t-83 -94.5t-123.5 -50t-151.5 -15q-215 0 -215 -72t215 -72q92 0 174 -18.5t143.5 -56t97 -98t35.5 -144.5q0 -88 -34.5 -148.5t-95 -98.5t-142.5 -54.5 t-178 -16.5t-178 16.5t-142.5 54.5t-95.5 98.5t-35 148.5q0 100 66.5 167.5t159.5 98.5q-31 16 -56.5 46t-25.5 77t24.5 71.5t46.5 41.5q-61 31 -107 98.5t-46 167.5zM412 154q-78 -31 -126 -88.5t-48 -157.5q0 -123 74.5 -179.5t191.5 -56.5t191.5 56.5t74.5 179.5 q0 205 -246 235zM709 676q0 123 -59.5 179t-145.5 56q-43 0 -80 -12t-64.5 -40t-44 -73t-16.5 -110q0 -66 16.5 -111t44 -72.5t64.5 -40t80 -12.5t80 12.5t64.5 40t44 72.5t16.5 111z" />
<glyph unicode="h" horiz-adv-x="1083" d="M332 881q39 39 106.5 70.5t159.5 31.5q66 0 128 -15.5t111.5 -57.5t79 -113.5t29.5 -182.5v-614h-184v614q0 76 -19.5 129.5t-51.5 86t-71.5 47t-82.5 14.5q-61 0 -113.5 -33t-91.5 -76v-782h-185v1106q0 92 -25.5 148.5t-117.5 56.5h-41v41h184q53 0 89 -9.5t57.5 -37 t30 -75.5t8.5 -124v-225z" />
<glyph unicode="i" horiz-adv-x="503" d="M362 0h-184v717q0 92 -25.5 148.5t-117.5 56.5h-41v41h184q53 0 89 -9.5t57.5 -37t29.5 -75.5t8 -124v-717zM350 1178q0 -43 -25.5 -68t-68.5 -25q-47 0 -81 39t-34 93q0 43 26 67.5t69 24.5q47 0 80.5 -39t33.5 -92z" />
<glyph unicode="j" horiz-adv-x="503" d="M178 717q0 92 -25.5 148.5t-117.5 56.5h-41v41h184q53 0 89 -9.5t57.5 -37t29.5 -75.5t8 -124v-666q0 -115 -17 -198.5t-60 -137t-117 -79t-184 -25.5v41q100 0 147 106.5t47 292.5v666zM350 1178q0 -43 -25.5 -68t-68.5 -25q-47 0 -81 39t-34 93q0 43 26 67.5t69 24.5 q47 0 80.5 -39t33.5 -92z" />
<glyph unicode="k" horiz-adv-x="993" d="M332 502l256 327q47 59 106.5 96.5t159.5 37.5h61v-52q-53 0 -104 -22.5t-90 -69.5l-225 -287l256 -327q59 -78 111 -117t114 -49v-39q-16 -8 -44 -14t-59 -6q-78 0 -152.5 35.5t-143.5 127.5l-246 328v-471h-185v1106q0 92 -25.5 148.5t-117.5 56.5h-41v41h184 q53 0 89 -9.5t57.5 -37t30 -75.5t8.5 -124v-604z" />
<glyph unicode="l" horiz-adv-x="495" d="M340 0h-184v1106q0 92 -26 148.5t-118 56.5h-41v41h185q53 0 89 -9.5t57.5 -37t29.5 -75.5t8 -124v-1106z" />
<glyph unicode="m" horiz-adv-x="1607" d="M362 881q39 39 107 70.5t160 31.5q78 0 142.5 -28.5t102.5 -114.5q53 70 137.5 106.5t170.5 36.5q57 0 109 -15.5t91 -57.5t62.5 -113.5t23.5 -182.5v-614h-184v614q0 154 -43 215.5t-121 61.5q-31 0 -62.5 -12.5t-60 -32t-53 -43t-39.5 -45.5q8 -23 9 -68t1 -76v-614 h-184v614q0 154 -43 215.5t-121 61.5q-61 0 -113.5 -33t-91.5 -76v-782h-184v717q0 92 -25.5 148.5t-117.5 56.5h-41v41h184q78 0 118 -21.5t56 -60.5h10z" />
<glyph unicode="n" horiz-adv-x="1114" d="M178 717q0 92 -25.5 148.5t-117.5 56.5h-41v41h184q78 0 118 -21.5t56 -60.5h10q39 39 107 70.5t160 31.5q66 0 128 -15.5t111.5 -57.5t79 -113.5t29.5 -182.5v-614h-184v614q0 76 -19.5 129.5t-51.5 86t-72 47t-83 14.5q-61 0 -113.5 -33t-91.5 -76v-782h-184v717z" />
<glyph unicode="o" d="M799 481q0 88 -18.5 165t-52.5 133.5t-81 89t-104 32.5t-104.5 -32.5t-81 -89t-52 -133.5t-18.5 -165t18.5 -164.5t52 -133t80.5 -89.5t105 -33q57 0 104 33t81 89.5t52.5 133t18.5 164.5zM92 481q0 104 30 195.5t88 159t141 107.5t192 40q106 0 190 -40t142.5 -107.5 t88 -158.5t29.5 -196q0 -104 -29.5 -195t-88 -159t-142.5 -107.5t-190 -39.5q-109 0 -192 39.5t-141 107.5t-88 159t-30 195z" />
<glyph unicode="p" horiz-adv-x="1101" d="M362 123q47 -23 97.5 -42.5t97.5 -19.5q70 0 118 33t78.5 89.5t45 133t14.5 164.5t-13.5 165t-43 133.5t-73.5 89t-105 32.5q-43 0 -76 -10t-58.5 -27.5t-46 -40t-35.5 -45.5v-655zM178 717q0 92 -25.5 148.5t-117.5 56.5h-41v41h184q78 0 118 -22.5t56 -70.5h10 q31 39 96.5 76t180.5 37q92 0 160.5 -40t115 -107.5t70 -158.5t23.5 -196q0 -104 -23.5 -195t-72 -159t-121 -107.5t-173.5 -39.5q-86 0 -147 19t-109 42v-430h-184v1106z" />
<glyph unicode="q" horiz-adv-x="1073" d="M741 778q-16 23 -35.5 45.5t-45 40t-58.5 27.5t-76 10q-61 0 -105 -32.5t-74 -89t-43 -133.5t-13 -165t14 -164.5t45 -133t79 -89.5t118 -33q47 0 97 19.5t97 42.5v655zM741 41q-47 -23 -108.5 -42t-147.5 -19q-100 0 -172.5 39.5t-121 107.5t-72 159t-23.5 195 t22.5 195.5t68.5 159t116 107.5t162 40q115 0 180.5 -37t95.5 -76h11l71 93h103v-1352h-185v430z" />
<glyph unicode="r" horiz-adv-x="813" d="M164 717q0 92 -25.5 148.5t-118.5 56.5h-20v41h164q78 0 118 -22.5t56 -70.5h10q31 39 92.5 76t153.5 37q31 0 65.5 -7t57.5 -24q23 -16 39 -38.5t32 -53.5l-81 -61q-23 31 -67 46t-97 15q-61 0 -112.5 -27.5t-82.5 -74.5v-758h-184v717z" />
<glyph unicode="s" horiz-adv-x="913" d="M827 246q0 -66 -27.5 -115t-74.5 -83t-113.5 -51t-142.5 -17q-123 0 -201 21.5t-116 59.5q-39 39 -45.5 88.5t-6.5 126.5h41q16 -100 86 -157.5t201 -57.5q117 0 171 41t54 103q0 61 -46 103t-138 81l-123 51q-117 47 -181.5 111.5t-64.5 165.5q0 66 26 115t71 82.5 t106.5 51t134.5 17.5q117 0 193 -21.5t114 -60.5q39 -39 45.5 -88t6.5 -127h-41q-16 100 -85 157.5t-192 57.5q-100 0 -152.5 -41t-52.5 -102q0 -53 43 -97.5t121 -76.5l123 -52q131 -53 198.5 -116.5t67.5 -169.5z" />
<glyph unicode="t" horiz-adv-x="692" d="M186 881h-143v82h143v184l103 123h82v-307h245v-82h-245v-635q0 -184 143 -185q53 0 88 12.5t66 28.5l20 -41q-16 -12 -37.5 -26.5t-52.5 -26.5t-72 -20t-94 -8q-109 0 -177.5 63t-68.5 203v635z" />
<glyph unicode="u" horiz-adv-x="1095" d="M948 0h-102l-72 82h-10q-39 -39 -106.5 -70.5t-159.5 -31.5q-66 0 -128.5 15t-111.5 57t-78.5 114t-29.5 182v369q0 92 -26 148.5t-118 56.5h-20v41h164q53 0 88.5 -9.5t57 -37t30 -75.5t8.5 -124v-369q0 -78 19.5 -130t51 -85t71.5 -47t83 -14q61 0 113.5 32.5 t91.5 75.5v783h184v-963z" />
<glyph unicode="v" horiz-adv-x="1017" d="M592 287l287 676h102l-420 -983h-41l-317 747q-25 57 -47.5 96t-47 63.5t-53 37t-65.5 14.5v41q8 0 31.5 2t37.5 2q45 0 93.5 -10t93.5 -38t86 -78t76 -130z" />
<glyph unicode="w" horiz-adv-x="1533" d="M1126 297l267 666h102l-399 -983h-41l-256 634l-256 -634h-41l-297 747q-47 115 -93 161t-122 50v41q8 0 32.5 2t38.5 2q49 0 97.5 -11t91.5 -40t81 -79t68 -126l174 -430l175 440q-47 106 -91.5 151.5t-113.5 49.5v41q8 0 32.5 2t38.5 2q49 0 97.5 -11t91.5 -40t81 -79 t68 -126z" />
<glyph unicode="x" horiz-adv-x="999" d="M446 379l-266 -379h-102l328 461l-179 297q-86 147 -211 164v41h174q70 0 128.5 -44.5t103.5 -119.5l127 -215l266 379h103l-328 -461l178 -297q86 -150 221 -164v-41h-184q-70 0 -128.5 44t-103.5 120z" />
<glyph unicode="y" horiz-adv-x="1052" d="M532 -20l-327 798q-31 78 -89.5 117t-135.5 47v41h174q92 0 152.5 -43t92.5 -121l234 -567l258 711h102l-399 -1096q-31 -84 -64.5 -138.5t-71.5 -85t-83 -42t-99 -11.5h-61v62q45 0 86 9t75 32.5t62.5 65.5t53.5 108z" />
<glyph unicode="z" horiz-adv-x="954" d="M889 963l-553 -881h553v-82h-799v39l533 842h-236q-131 0 -193.5 -49.5t-62.5 -135.5h-41v103q0 31 7 60.5t26.5 52t53.5 37t87 14.5h625z" />
<glyph unicode="{" horiz-adv-x="622" d="M23 522q57 8 96 29.5t63.5 53.5t34.5 71t10 82v286q0 137 77 229.5t261 139.5v-61q-53 -16 -87 -36t-53 -46.5t-26.5 -62.5t-7.5 -81v-348q0 -123 -53 -189.5t-162 -96.5q109 -31 162 -97.5t53 -189.5v-348q0 -47 7.5 -82t26.5 -61.5t53 -47t87 -35.5v-61 q-184 45 -261 137t-77 232v286q0 43 -10 82t-34.5 71t-63.5 53.5t-96 29.5v61z" />
<glyph unicode="|" horiz-adv-x="491" d="M338 1393v-1782h-184v1782h184z" />
<glyph unicode="}" horiz-adv-x="622" d="M600 461q-57 -8 -96 -29.5t-63.5 -53.5t-35 -71t-10.5 -82v-286q0 -139 -76.5 -231.5t-261.5 -137.5v61q53 14 87 35t53.5 47.5t26.5 61.5t7 82v348q0 123 53.5 189.5t161.5 97.5q-109 31 -162 97t-53 189v348q0 45 -7 81t-26.5 62.5t-53 46t-87.5 36.5v61 q184 -47 261 -139t77 -230v-286q0 -43 10.5 -82t35 -71t63.5 -53.5t96 -29.5v-61z" />
<glyph unicode="~" horiz-adv-x="1288" d="M922 369q-78 0 -151 25.5t-141.5 56t-134 56t-126.5 25.5q-78 0 -121 -40.5t-43 -102.5h-82q0 76 21.5 131t55 89t78 50.5t91.5 16.5q76 0 149.5 -25.5t142 -56.5t134 -56.5t127.5 -25.5q78 0 120.5 41t42.5 102h82q0 -78 -21.5 -132t-55 -88t-78.5 -50t-90 -16z" />
<glyph unicode="&#xa1;" horiz-adv-x="450" d="M322 -397h-193l37 1034h119zM225 762q-45 0 -77.5 31.5t-32.5 76.5q0 47 32.5 80t77.5 33t78 -32.5t33 -80.5q0 -45 -33 -76.5t-78 -31.5z" />
<glyph unicode="&#xa2;" horiz-adv-x="989" d="M573 1065v-82q86 0 154 -18.5t102 -53.5q18 -18 29.5 -40.5t16 -53.5t5.5 -73t1 -99h-41q-8 131 -83 193.5t-184 62.5v-840q109 0 176.5 43t120.5 121l41 -30q-63 -106 -146 -156.5t-192 -58.5v-82h-81v82q-104 8 -181.5 50t-127.5 109.5t-75.5 155.5t-25.5 186 t25.5 186.5t75.5 156t127 109.5t182 50v82h81zM276 481q0 -76 13.5 -143.5t40 -121.5t67.5 -92t95 -52v819q-53 -16 -94.5 -53t-68 -91.5t-40 -122t-13.5 -143.5z" />
<glyph unicode="&#xa3;" horiz-adv-x="1081" d="M240 942q0 137 29.5 222t79.5 131t114.5 61.5t134.5 15.5q45 0 92 -4t88 -12t75 -22.5t52 -33.5q39 -39 45 -85t6 -99h-92q-23 100 -81 137t-144 37q-47 0 -86 -14t-67.5 -52t-45 -106.5t-16.5 -175.5v-205h287v-82h-287v-204q0 -147 -29.5 -234.5t-83.5 -134.5h379 q123 0 189.5 56.5t66.5 178.5h41v-153q0 -31 -7 -60.5t-26.5 -52t-53.5 -37t-87 -14.5h-747v51q43 12 74.5 38t54 73t34 117.5t11.5 171.5v204h-144v82h144v205z" />
<glyph unicode="&#xa4;" horiz-adv-x="1179" d="M602 676q63 2 119.5 20.5t97.5 55t65.5 94t24.5 137.5q0 76 -25.5 132t-68.5 93t-100.5 54.5t-122.5 17.5q-39 0 -81 -6t-73 -14v-584h164zM971 410h-533v-410h-184v410h-123v82h123v102h-123v82h123v430q0 92 -25.5 148.5t-117.5 56.5h-41v41h532q100 0 192.5 -18.5 t163 -61.5t113.5 -114t43 -175q0 -111 -43 -185.5t-113.5 -119.5t-163 -64.5t-192.5 -19.5h-164v-102h533v-82z" />
<glyph unicode="&#xa5;" horiz-adv-x="1406" d="M838 666l428 686h92l-479 -779v-30h194v-82h-194v-82h194v-82h-194v-297h-185v297h-194v82h194v82h-194v82h194v16l-348 526q-31 45 -60.5 85t-64.5 70t-77 48.5t-95 22.5v41h184q57 0 102.5 -19.5t82.5 -51.5t66.5 -72t56.5 -83z" />
<glyph unicode="&#xa6;" horiz-adv-x="503" d="M344 1393v-717h-184v717h184zM344 328v-717h-184v717h184z" />
<glyph unicode="&#xa7;" horiz-adv-x="884" d="M309 1106q0 -72 35 -122t87 -91t113.5 -78t114 -80t87 -98t34.5 -135q0 -119 -57 -188.5t-160 -108.5q78 -53 132.5 -127t54.5 -180q0 -80 -26 -138.5t-69 -96.5t-100 -55.5t-123 -17.5q-86 0 -156.5 21.5t-109.5 60.5t-45 88.5t-6 126.5h41q16 -100 72.5 -157.5 t142.5 -57.5q92 0 148 46t56 139q0 72 -34.5 122t-87 91t-113.5 77.5t-113.5 79.5t-87.5 98.5t-35 135.5q0 117 57.5 187.5t157.5 109.5q-78 51 -131 125.5t-53 181.5q0 80 25.5 138.5t68.5 96t100.5 55t123.5 17.5q86 0 156.5 -21.5t109.5 -60.5t45 -88t6 -127h-41 q-16 100 -72.5 157.5t-142.5 57.5q-92 0 -148.5 -46t-56.5 -138zM399 711q-59 -18 -100 -60.5t-41 -128.5t62.5 -149.5t164.5 -120.5q59 18 100.5 60t41.5 128t-63 150t-165 121z" />
<glyph unicode="&#xa8;" horiz-adv-x="634" d="M594 1516q0 -47 -27.5 -75t-74.5 -28t-75 27.5t-28 75.5q0 47 27.5 74.5t75.5 27.5q47 0 74.5 -27.5t27.5 -74.5zM246 1516q0 -47 -28 -75t-75 -28t-74.5 27.5t-27.5 75.5q0 47 27.5 74.5t74.5 27.5t75 -27.5t28 -74.5z" />
<glyph unicode="&#xa9;" horiz-adv-x="1617" d="M809 1403q158 0 291 -54.5t230 -151.5t151.5 -230t54.5 -291t-54.5 -291t-151.5 -230.5t-230 -151.5t-291 -54t-291 54t-230.5 151.5t-151.5 230.5t-54 291t54 291t151.5 230t230.5 151.5t291 54.5zM809 31q141 0 260 47t205 133t133 205t47 260t-47 260t-133 205 t-205 133t-260 47t-260 -47t-205 -133t-133 -205t-47 -260t47 -260t133 -205t205 -133t260 -47zM1122 844q-25 131 -93 192.5t-179 61.5q-66 0 -123 -21.5t-101 -72t-70 -132t-26 -202.5q0 -76 18.5 -147.5t57.5 -128t99.5 -90.5t144.5 -34q100 0 172 47.5t127 139.5l27 -21 q-66 -125 -156 -173t-211 -48q-94 0 -170 35t-129 96.5t-82 144t-29 179.5q0 100 33 188t88 152.5t130 102.5t159 38q111 0 190.5 -32t114.5 -75q27 -31 31 -86t4 -114h-27z" />
<glyph unicode="&#xaa;" horiz-adv-x="657" d="M420 1075h-33q-84 0 -130 -34.5t-46 -86.5q0 -53 26.5 -75.5t67.5 -22.5t69.5 23.5t45.5 48.5v147zM465 821l-39 51h-6q-16 -23 -54 -42t-100 -19q-23 0 -51.5 5t-53 20.5t-41 44t-16.5 73.5t24 77t62.5 52.5t90 28.5t106.5 8h33q0 57 -9.5 94t-24.5 57.5t-35.5 28 t-45.5 7.5q-47 0 -77.5 -19.5t-43.5 -73.5h-51q0 29 3 52.5t26 46.5q20 23 67 31t97 8q37 0 73.5 -8.5t64.5 -33t45 -70.5t17 -120v-299h-61z" />
<glyph unicode="&#xab;" horiz-adv-x="761" d="M563 758h82l-123 -297l123 -297h-82l-205 297zM276 461l195 -400h-82l-317 400l317 399h82z" />
<glyph unicode="&#xac;" horiz-adv-x="1339" d="M1081 471h-942v123h1065v-328h-123v205z" />
<glyph unicode="&#xad;" horiz-adv-x="792" d="M135 614h522v-143h-522v143z" />
<glyph unicode="&#xae;" horiz-adv-x="1617" d="M809 1403q158 0 291 -54.5t230 -151.5t151.5 -230t54.5 -291t-54.5 -291t-151.5 -230.5t-230 -151.5t-291 -54t-291 54t-230.5 151.5t-151.5 230.5t-54 291t54 291t151.5 230t230.5 151.5t291 54.5zM809 31q141 0 260 47t205 133t133 205t47 260t-47 260t-133 205 t-205 133t-260 47t-260 -47t-205 -133t-133 -205t-47 -260t47 -260t133 -205t205 -133t260 -47zM770 707q27 0 62.5 10t67.5 33.5t53.5 59.5t21.5 87t-21.5 87t-53.5 58.5t-67.5 32.5t-62.5 10q-25 0 -52.5 -5t-47.5 -9v-350q20 -4 47.5 -9t52.5 -5zM768 662h-98v-406h-119 v715q0 59 -16.5 96t-75.5 37h-27v26h344q43 0 99.5 -7t108.5 -32.5t88 -73.5t36 -128q0 -55 -19.5 -94t-50 -64.5t-68.5 -40t-73 -20.5l147 -238q51 -82 88 -113.5t87 -37.5v-25q-23 -14 -86 -14q-33 0 -59.5 9t-53.5 31.5t-54.5 59.5t-60.5 90z" />
<glyph unicode="&#xaf;" horiz-adv-x="512" />
<glyph unicode="&#xb0;" horiz-adv-x="843" d="M422 1280q-43 0 -80 -16.5t-64.5 -45t-44 -68.5t-16.5 -85q0 -47 16.5 -86t44 -67.5t64.5 -45t80 -16.5t80 16.5t64.5 45t44 67.5t16.5 86q0 45 -16.5 85t-44 68.5t-64.5 45t-80 16.5zM422 1393q70 0 129 -26t103 -70t70 -103t26 -129t-26 -129t-70 -103.5t-103 -70 t-129 -25.5t-129.5 25.5t-103.5 70t-69.5 103.5t-25.5 129t25.5 129t69.5 103t103.5 70t129.5 26z" />
<glyph unicode="&#xb1;" horiz-adv-x="1175" d="M117 123v123h409v368h-409v123h409v410h123v-410h410v-123h-410v-368h410v-123h-942z" />
<glyph unicode="&#xb2;" horiz-adv-x="657" d="M393 817q57 0 87 20.5t30 69.5h25v-61q0 -29 -15.5 -51.5t-64.5 -22.5h-330v47q74 72 129 126t92 100.5t55.5 90.5t18.5 97q0 72 -33 102.5t-80 30.5q-57 0 -96 -37t-53 -115h-25q0 35 3 68t20 55q27 31 75 52.5t103 21.5q29 0 62.5 -6t62 -25.5t48 -54.5t19.5 -92 q0 -59 -25.5 -109.5t-69.5 -97.5t-102.5 -97t-121.5 -112h186z" />
<glyph unicode="&#xb3;" horiz-adv-x="636" d="M248 1120q25 6 49.5 7t34.5 1q31 0 67.5 -9t67.5 -29.5t51.5 -56.5t20.5 -87q0 -61 -25 -100t-60.5 -59.5t-75.5 -27.5t-69 -7q-72 0 -117 26.5t-83 73.5l20 18q68 -74 172 -73q55 0 93 36.5t38 112.5q0 74 -39 105.5t-80 31.5q-23 0 -51.5 -2t-56.5 -10l-29 49l252 228 h-172q-55 0 -86 -20.5t-31 -72.5h-18v62q0 29 15.5 52.5t64.5 23.5h309v-37z" />
<glyph unicode="&#xb4;" horiz-adv-x="358" d="M123 1434h-82l82 266h194z" />
<glyph unicode="&#xb5;" horiz-adv-x="1083" d="M152 -389v1352h184v-482q0 -88 13 -164.5t43 -133t74 -89.5t105 -33q84 0 134.5 38t80.5 85v779h185v-963h-103l-71 92h-11q-16 -18 -35.5 -38.5t-47 -37t-65.5 -26.5t-87 -10q-123 0 -215 92v-461h-184z" />
<glyph unicode="&#xb6;" horiz-adv-x="1230" d="M528 594q-100 0 -186 25.5t-149.5 74.5t-99.5 120t-36 159t36 158.5t99.5 119.5t149.5 75t186 26h615v-82h-113v-1659h-184v1659h-133v-1659h-185v983z" />
<glyph unicode="&#xb7;" horiz-adv-x="471" d="M236 788q47 0 78.5 -32.5t31.5 -77.5q0 -47 -32.5 -80t-77.5 -33t-78 33t-33 80q0 45 33 77.5t78 32.5z" />
<glyph unicode="&#xb8;" horiz-adv-x="368" d="M184 0v-102h21q70 0 117 -38t47 -112q0 -72 -47.5 -110.5t-116.5 -38.5h-123v84h102q82 0 82 65q0 68 -82 68h-92v184h92z" />
<glyph unicode="&#xb9;" horiz-adv-x="434" d="M291 772h-107v506l-84 -49l-22 33l133 131h80v-621z" />
<glyph unicode="&#xba;" horiz-adv-x="686" d="M342 1366q-61 0 -95 -67.5t-34 -217.5q0 -147 34 -215.5t95 -68.5q66 0 98.5 68.5t32.5 215.5q0 150 -34 217.5t-97 67.5zM342 1411q123 0 180.5 -90t57.5 -240q0 -147 -57.5 -238t-180.5 -91t-179.5 91t-56.5 238q0 150 56.5 240t179.5 90z" />
<glyph unicode="&#xbb;" horiz-adv-x="761" d="M403 461l-204 -297h-82l123 297l-123 297h82zM291 860h82l317 -399l-317 -400h-82l194 400z" />
<glyph unicode="&#xbc;" horiz-adv-x="1220" d="M59 0l932 1352h133l-931 -1352h-134zM324 772h-107v506l-84 -49l-22 33l133 131h80v-621zM1049 205h84v-45h-84v-160h-107v160h-311v39l321 424h97v-418zM942 205v317l-242 -317h242z" />
<glyph unicode="&#xbd;" horiz-adv-x="1255" d="M59 0l932 1352h133l-931 -1352h-134zM324 772h-107v506l-84 -49l-22 33l133 131h80v-621zM1012 45q57 0 86.5 20.5t29.5 69.5h25v-61q0 -29 -15.5 -51.5t-64.5 -22.5h-330v47l129.5 126t92 100t55 90.5t18.5 97.5q0 72 -32.5 102.5t-79.5 30.5q-57 0 -96 -37t-54 -115 h-24q0 35 3 68t19 55q27 31 75 52.5t103 21.5q29 0 63 -6t62.5 -25.5t48 -54.5t19.5 -92q0 -59 -25.5 -109.5t-69.5 -97.5t-102.5 -97.5t-122.5 -111.5h187z" />
<glyph unicode="&#xbe;" horiz-adv-x="1257" d="M119 0l932 1352h133l-932 -1352h-133zM1085 205h84v-45h-84v-160h-106v160h-311v39l321 424h96v-418zM979 205v317l-242 -317h242zM225 1120q25 6 49.5 7t34.5 1q31 0 68 -9t67.5 -29.5t51 -56.5t20.5 -87q0 -61 -24.5 -100t-60.5 -59.5t-76 -27.5t-68 -7 q-72 0 -117 26.5t-84 73.5l20 18q68 -74 173 -73q55 0 93 36.5t38 112.5q0 74 -39 105.5t-80 31.5q-23 0 -51.5 -2t-57.5 -10l-28 49l252 228h-173q-55 0 -85.5 -20.5t-30.5 -72.5h-19v62q0 29 15.5 52.5t64.5 23.5h309v-37z" />
<glyph unicode="&#xbf;" horiz-adv-x="968" d="M530 762q-47 0 -79.5 32.5t-32.5 79.5q0 45 33.5 78t78.5 33q47 0 79 -32.5t32 -78.5q0 -47 -32 -79.5t-79 -32.5zM571 639q-2 -84 -25.5 -146.5t-58 -112.5t-73.5 -94t-72 -92.5t-55.5 -105.5t-22.5 -133q0 -78 21.5 -135.5t58.5 -95t85 -57t101 -19.5q123 0 216.5 89 t123.5 259h41q0 -78 -6 -148.5t-45 -117.5q-55 -68 -161.5 -116t-229.5 -48q-61 0 -133 14t-133.5 57.5t-102.5 119t-41 198.5q0 86 31 151.5t78 119t102.5 99.5t103.5 93t80.5 99t34.5 122h82z" />
<glyph unicode="&#xc0;" horiz-adv-x="1300" d="M1356 0q-35 -10 -82 -10q-35 0 -81 8t-94 35.5t-94.5 81t-78.5 141.5l-52 133h-573l-164 -389h-92l573 1352h62l450 -1096q25 -57 46.5 -97t48 -64.5t57.5 -37t74 -16.5v-41zM332 471h502l-246 594zM414 1699h195l81 -266h-81z" />
<glyph unicode="&#xc1;" horiz-adv-x="1300" d="M1356 0q-35 -10 -82 -10q-35 0 -81 8t-94 35.5t-94.5 81t-78.5 141.5l-52 133h-573l-164 -389h-92l573 1352h62l450 -1096q25 -57 46.5 -97t48 -64.5t57.5 -37t74 -16.5v-41zM332 471h502l-246 594zM701 1434h-82l82 266h194z" />
<glyph unicode="&#xc2;" horiz-adv-x="1300" d="M1356 0q-35 -10 -82 -10q-35 0 -81 8t-94 35.5t-94.5 81t-78.5 141.5l-52 133h-573l-164 -389h-92l573 1352h62l450 -1096q25 -57 46.5 -97t48 -64.5t57.5 -37t74 -16.5v-41zM332 471h502l-246 594zM649 1567l-174 -164h-102l164 235h225l164 -235h-102z" />
<glyph unicode="&#xc3;" horiz-adv-x="1300" d="M1356 0q-35 -10 -82 -10q-35 0 -81 8t-94 35.5t-94.5 81t-78.5 141.5l-52 133h-573l-164 -389h-92l573 1352h62l450 -1096q25 -57 46.5 -97t48 -64.5t57.5 -37t74 -16.5v-41zM332 471h502l-246 594zM428 1434q0 109 30.5 151.5t92.5 42.5q33 0 59.5 -13t51 -28.5t49 -28 t55.5 -12.5q23 0 42 30t19 52h62q0 -109 -31 -151.5t-92 -42.5q-33 0 -58.5 12t-50 27.5t-50 29t-56.5 13.5q-23 0 -42.5 -30t-19.5 -52h-61z" />
<glyph unicode="&#xc4;" horiz-adv-x="1300" d="M1356 0q-35 -10 -82 -10q-35 0 -81 8t-94 35.5t-94.5 81t-78.5 141.5l-52 133h-573l-164 -389h-92l573 1352h62l450 -1096q25 -57 46.5 -97t48 -64.5t57.5 -37t74 -16.5v-41zM332 471h502l-246 594zM926 1516q0 -47 -27.5 -75t-74.5 -28t-75 27.5t-28 75.5 q0 47 27.5 74.5t75.5 27.5q47 0 74.5 -27.5t27.5 -74.5zM578 1516q0 -47 -28 -75t-75 -28t-74.5 27.5t-27.5 75.5q0 47 27.5 74.5t74.5 27.5t75 -27.5t28 -74.5z" />
<glyph unicode="&#xc5;" horiz-adv-x="1302" d="M475 1444q0 35 14.5 66.5t38 55t55 38t66.5 14.5t67 -14.5t55.5 -38t37.5 -55t14 -66.5q0 -70 -36.5 -109t-75.5 -55l419 -1024q25 -57 46.5 -97t48 -64.5t57.5 -37t74 -16.5v-41q-35 -10 -82 -10q-35 0 -81 8t-94 35.5t-94.5 81t-78.5 141.5l-52 133h-573l-164 -389h-92 l543 1280q-39 16 -76 55t-37 109zM332 471h502l-246 594zM557 1444q0 -31 14.5 -53.5t36.5 -38.5h82q23 16 37 38.5t14 53.5q0 47 -26.5 74.5t-65.5 27.5t-65.5 -27.5t-26.5 -74.5z" />
<glyph unicode="&#xc6;" horiz-adv-x="1771" d="M1468 1352q53 0 87 -14.5t53.5 -37t26.5 -52t7 -60.5v-154h-40q0 123 -67 179.5t-189 56.5h-381v-533h553v-82h-553v-573h358q139 0 220 51t128 174l41 -10l-72 -195q-16 -47 -54 -74.5t-99 -27.5h-707v389h-491l-215 -389h-103l758 1352h739zM340 471h440v789z" />
<glyph unicode="&#xc7;" horiz-adv-x="1361" d="M664 -401v84h102q82 0 82 65q0 68 -82 68h-92v143q-135 8 -242.5 64.5t-183.5 150.5t-117 217t-41 264q0 154 50 288t136 234.5t202 158t247 57.5q170 0 293 -48.5t178 -115.5q39 -47 45 -131t6 -176h-41q-39 201 -144.5 295t-275.5 94q-100 0 -189 -34t-156.5 -110.5 t-106.5 -201.5t-39 -310q0 -115 27.5 -225.5t87 -196.5t152.5 -139t224 -53q154 0 264.5 73.5t196.5 213.5l41 -31q-47 -90 -103.5 -152.5t-121 -102.5t-139 -59.5t-158.5 -23.5v-61h20q70 0 117 -38t47 -112q0 -72 -47 -110.5t-117 -38.5h-122z" />
<glyph unicode="&#xc8;" horiz-adv-x="1208" d="M905 1352q53 0 87 -14.5t53.5 -37t26.5 -52t7 -60.5v-154h-41q0 123 -66.5 179.5t-189.5 56.5h-381v-533h553v-82h-553v-573h359q139 0 220 51t128 174l41 -10l-72 -195q-16 -47 -54 -74.5t-99 -27.5h-707v1106q0 92 -25.5 148.5t-117.5 56.5h-41v41h872zM401 1699h195 l81 -266h-81z" />
<glyph unicode="&#xc9;" horiz-adv-x="1208" d="M905 1352q53 0 87 -14.5t53.5 -37t26.5 -52t7 -60.5v-154h-41q0 123 -66.5 179.5t-189.5 56.5h-381v-533h553v-82h-553v-573h359q139 0 220 51t128 174l41 -10l-72 -195q-16 -47 -54 -74.5t-99 -27.5h-707v1106q0 92 -25.5 148.5t-117.5 56.5h-41v41h872zM647 1434h-82 l82 266h194z" />
<glyph unicode="&#xca;" horiz-adv-x="1208" d="M905 1352q53 0 87 -14.5t53.5 -37t26.5 -52t7 -60.5v-154h-41q0 123 -66.5 179.5t-189.5 56.5h-381v-533h553v-82h-553v-573h359q139 0 220 51t128 174l41 -10l-72 -195q-16 -47 -54 -74.5t-99 -27.5h-707v1106q0 92 -25.5 148.5t-117.5 56.5h-41v41h872zM616 1641 l-174 -164h-102l164 235h225l164 -235h-102z" />
<glyph unicode="&#xcb;" horiz-adv-x="1208" d="M905 1352q53 0 87 -14.5t53.5 -37t26.5 -52t7 -60.5v-154h-41q0 123 -66.5 179.5t-189.5 56.5h-381v-533h553v-82h-553v-573h359q139 0 220 51t128 174l41 -10l-72 -195q-16 -47 -54 -74.5t-99 -27.5h-707v1106q0 92 -25.5 148.5t-117.5 56.5h-41v41h872zM873 1598 q0 -47 -27.5 -75t-74.5 -28t-75 27.5t-28 75.5q0 47 27.5 74.5t75.5 27.5q47 0 74.5 -27.5t27.5 -74.5zM525 1598q0 -47 -28 -75t-75 -28t-74.5 27.5t-27.5 75.5q0 47 27.5 74.5t74.5 27.5t75 -27.5t28 -74.5z" />
<glyph unicode="&#xcc;" horiz-adv-x="583" d="M182 1352h185v-1106q0 -92 25.5 -148.5t117.5 -56.5h41v-41h-184q-53 0 -89 9t-57.5 37t-30 75t-8.5 125v1106zM61 1699h195l81 -266h-81z" />
<glyph unicode="&#xcd;" horiz-adv-x="583" d="M182 1352h185v-1106q0 -92 25.5 -148.5t117.5 -56.5h41v-41h-184q-53 0 -89 9t-57.5 37t-30 75t-8.5 125v1106zM305 1434h-82l82 266h194z" />
<glyph unicode="&#xce;" horiz-adv-x="583" d="M182 1352h185v-1106q0 -92 25.5 -148.5t117.5 -56.5h41v-41h-184q-53 0 -89 9t-57.5 37t-30 75t-8.5 125v1106zM276 1588l-174 -164h-102l164 235h225l164 -235h-102z" />
<glyph unicode="&#xcf;" horiz-adv-x="583" d="M182 1352h185v-1106q0 -92 25.5 -148.5t117.5 -56.5h41v-41h-184q-53 0 -89 9t-57.5 37t-30 75t-8.5 125v1106zM535 1567q0 -47 -28 -75t-75 -28t-74.5 28t-27.5 75t27.5 74.5t74.5 27.5t75 -27.5t28 -74.5zM219 1567q0 -47 -27.5 -75t-74.5 -28t-75 28t-28 75t28 74.5 t75 27.5t74.5 -27.5t27.5 -74.5z" />
<glyph unicode="&#xd0;" horiz-adv-x="1464" d="M63 717h154v389q0 92 -25.5 148.5t-117.5 56.5h-41v41h536q203 0 354.5 -47.5t251 -133.5t149.5 -209.5t50 -277.5q0 -150 -48 -275.5t-142 -216t-234.5 -141.5t-326.5 -51h-406v635h-154v82zM408 717h178v-82h-178v-537q121 -27 208 -26q113 0 211.5 42t170 120.5 t112.5 190.5t41 251q0 135 -40 246.5t-111.5 191.5t-171 123t-216.5 43q-45 0 -97 -8t-107 -25v-530z" />
<glyph unicode="&#xd1;" horiz-adv-x="1402" d="M225 1106q0 92 -39 148.5t-145 56.5h-21v41h134q100 0 164.5 -33t111.5 -90l717 -891v1014h82v-1372h-41l-881 1095v-1075h-82v1106zM485 1422q0 109 30.5 151.5t92.5 42.5q33 0 59.5 -13t51 -28.5t49 -28t55.5 -12.5q23 0 42 30t19 52h62q0 -109 -31 -151.5t-92 -42.5 q-33 0 -58.5 12t-50 27.5t-50 29t-56.5 13.5q-23 0 -42.5 -30t-19.5 -52h-61z" />
<glyph unicode="&#xd2;" horiz-adv-x="1458" d="M1159 676q0 145 -29.5 263t-85 201t-135.5 127t-180 44t-180 -44t-135.5 -127t-85 -201t-29.5 -263t29.5 -263t85 -201t135.5 -127t180 -44t180 44t135.5 127t85 201t29.5 263zM94 676q0 150 44 280.5t127 228t201 153t263 55.5t263 -55.5t201 -153t127 -228.5t44 -280 q0 -152 -44 -282t-127 -227t-201 -152.5t-263 -55.5t-263 55.5t-201 152.5t-127 227t-44 282zM504 1749h195l81 -266h-81z" />
<glyph unicode="&#xd3;" horiz-adv-x="1458" d="M1159 676q0 145 -29.5 263t-85 201t-135.5 127t-180 44t-180 -44t-135.5 -127t-85 -201t-29.5 -263t29.5 -263t85 -201t135.5 -127t180 -44t180 44t135.5 127t85 201t29.5 263zM94 676q0 150 44 280.5t127 228t201 153t263 55.5t263 -55.5t201 -153t127 -228.5t44 -280 q0 -152 -44 -282t-127 -227t-201 -152.5t-263 -55.5t-263 55.5t-201 152.5t-127 227t-44 282zM768 1475h-82l82 266h194z" />
<glyph unicode="&#xd4;" horiz-adv-x="1458" d="M1159 676q0 145 -29.5 263t-85 201t-135.5 127t-180 44t-180 -44t-135.5 -127t-85 -201t-29.5 -263t29.5 -263t85 -201t135.5 -127t180 -44t180 44t135.5 127t85 201t29.5 263zM94 676q0 150 44 280.5t127 228t201 153t263 55.5t263 -55.5t201 -153t127 -228.5t44 -280 q0 -152 -44 -282t-127 -227t-201 -152.5t-263 -55.5t-263 55.5t-201 152.5t-127 227t-44 282zM718 1639l-174 -164h-102l164 235h225l164 -235h-102z" />
<glyph unicode="&#xd5;" horiz-adv-x="1458" d="M1159 676q0 145 -29.5 263t-85 201t-135.5 127t-180 44t-180 -44t-135.5 -127t-85 -201t-29.5 -263t29.5 -263t85 -201t135.5 -127t180 -44t180 44t135.5 127t85 201t29.5 263zM94 676q0 150 44 280.5t127 228t201 153t263 55.5t263 -55.5t201 -153t127 -228.5t44 -280 q0 -152 -44 -282t-127 -227t-201 -152.5t-263 -55.5t-263 55.5t-201 152.5t-127 227t-44 282zM496 1512q0 109 30.5 151.5t92.5 42.5q33 0 59.5 -13t51 -28.5t49 -28t55.5 -12.5q23 0 42 30t19 52h62q0 -109 -31 -151.5t-92 -42.5q-33 0 -58.5 12t-50 27.5t-50 29 t-56.5 13.5q-23 0 -42.5 -30t-19.5 -52h-61z" />
<glyph unicode="&#xd6;" horiz-adv-x="1458" d="M1159 676q0 145 -29.5 263t-85 201t-135.5 127t-180 44t-180 -44t-135.5 -127t-85 -201t-29.5 -263t29.5 -263t85 -201t135.5 -127t180 -44t180 44t135.5 127t85 201t29.5 263zM94 676q0 150 44 280.5t127 228t201 153t263 55.5t263 -55.5t201 -153t127 -228.5t44 -280 q0 -152 -44 -282t-127 -227t-201 -152.5t-263 -55.5t-263 55.5t-201 152.5t-127 227t-44 282zM1006 1608q0 -47 -27.5 -75t-74.5 -28t-75 27.5t-28 75.5q0 47 27.5 74.5t75.5 27.5q47 0 74.5 -27.5t27.5 -74.5zM658 1608q0 -47 -28 -75t-75 -28t-74.5 27.5t-27.5 75.5 q0 47 27.5 74.5t74.5 27.5t75 -27.5t28 -74.5z" />
<glyph unicode="&#xd7;" horiz-adv-x="960" d="M479 596l-289 -291l-86 88l289 289l-289 291l86 86l291 -291l289 291l86 -88l-289 -289l289 -291l-86 -86z" />
<glyph unicode="&#xd8;" horiz-adv-x="1458" d="M258 -41l76 139q-115 98 -177.5 248t-62.5 330q0 150 44 280.5t127 228t201 153t263 55.5q78 0 146.5 -16.5t128.5 -45.5l34 62h150l-74 -133q119 -98 184.5 -249t65.5 -335q0 -152 -44 -282t-127 -227t-201 -152.5t-263 -55.5q-160 0 -287 66l-34 -66h-150zM1159 676 q0 143 -29.5 259t-82.5 200l-551 -1014q102 -80 233 -80q100 0 180 44t135.5 127t85 201t29.5 263zM299 676q0 -141 26.5 -254t77.5 -195l549 1010q-96 74 -223 74q-100 0 -180 -44t-135.5 -127t-85 -201t-29.5 -263z" />
<glyph unicode="&#xd9;" horiz-adv-x="1406" d="M203 1106q0 92 -25.5 148.5t-118.5 56.5h-41v41h185q53 0 89 -9.5t57.5 -37t29.5 -75.5t8 -124v-584q0 -109 18.5 -193.5t61.5 -144t111.5 -91.5t171.5 -32q117 0 196.5 31t128.5 95.5t69.5 163t20.5 233.5v768h82v-768q0 -150 -22.5 -263.5t-81 -189.5t-159.5 -113.5 t-259 -37.5q-150 0 -250 37.5t-160.5 113.5t-86 189.5t-25.5 263.5v522zM551 1658h195l81 -266h-81z" />
<glyph unicode="&#xda;" horiz-adv-x="1406" d="M203 1106q0 92 -25.5 148.5t-118.5 56.5h-41v41h185q53 0 89 -9.5t57.5 -37t29.5 -75.5t8 -124v-584q0 -109 18.5 -193.5t61.5 -144t111.5 -91.5t171.5 -32q117 0 196.5 31t128.5 95.5t69.5 163t20.5 233.5v768h82v-768q0 -150 -22.5 -263.5t-81 -189.5t-159.5 -113.5 t-259 -37.5q-150 0 -250 37.5t-160.5 113.5t-86 189.5t-25.5 263.5v522zM756 1395h-82l82 266h194z" />
<glyph unicode="&#xdb;" horiz-adv-x="1406" d="M203 1106q0 92 -25.5 148.5t-118.5 56.5h-41v41h185q53 0 89 -9.5t57.5 -37t29.5 -75.5t8 -124v-584q0 -109 18.5 -193.5t61.5 -144t111.5 -91.5t171.5 -32q117 0 196.5 31t128.5 95.5t69.5 163t20.5 233.5v768h82v-768q0 -150 -22.5 -263.5t-81 -189.5t-159.5 -113.5 t-259 -37.5q-150 0 -250 37.5t-160.5 113.5t-86 189.5t-25.5 263.5v522zM766 1539l-174 -164h-102l164 235h225l164 -235h-102z" />
<glyph unicode="&#xdc;" horiz-adv-x="1406" d="M203 1106q0 92 -25.5 148.5t-118.5 56.5h-41v41h185q53 0 89 -9.5t57.5 -37t29.5 -75.5t8 -124v-584q0 -109 18.5 -193.5t61.5 -144t111.5 -91.5t171.5 -32q117 0 196.5 31t128.5 95.5t69.5 163t20.5 233.5v768h82v-768q0 -150 -22.5 -263.5t-81 -189.5t-159.5 -113.5 t-259 -37.5q-150 0 -250 37.5t-160.5 113.5t-86 189.5t-25.5 263.5v522zM1032 1498q0 -47 -27.5 -75t-74.5 -28t-75 27.5t-28 75.5q0 47 27.5 74.5t75.5 27.5q47 0 74.5 -27.5t27.5 -74.5zM684 1498q0 -47 -28 -75t-75 -28t-74.5 27.5t-27.5 75.5q0 47 27.5 74.5t74.5 27.5 t75 -27.5t28 -74.5z" />
<glyph unicode="&#xdd;" horiz-adv-x="1286" d="M737 666l428 686h92l-479 -779v-573h-184v559l-348 526q-31 45 -60.5 85t-64.5 70t-77 48.5t-95 22.5v41h184q57 0 102.5 -19.5t82 -51.5t66.5 -72t56 -83zM727 1375h-82l82 266h194z" />
<glyph unicode="&#xde;" horiz-adv-x="1095" d="M838 645q0 88 -23.5 162t-76 126t-134.5 81.5t-196 29.5v-798q115 0 196.5 29.5t134 82t76 126t23.5 161.5zM408 1126q309 0 471.5 -120.5t162.5 -360.5t-162.5 -360.5t-471.5 -120.5v-225h-185v1290q0 78 -32.5 110.5t-110.5 32.5h-41v41h184q106 0 145.5 -39t39.5 -145 v-103z" />
<glyph unicode="&#xdf;" horiz-adv-x="1134" d="M721 1126q0 78 -46 121t-138 43q-100 0 -152.5 -56t-52.5 -210v-1024h-185v1024q0 106 32 175t87.5 106.5t128 52t152.5 14.5q170 0 259 -56t89 -149q0 -84 -37 -133t-81 -87t-81 -79t-37 -110q0 -55 31 -96t78 -75t101.5 -66t101.5 -69.5t77.5 -87t30.5 -118.5 q0 -139 -83 -202.5t-214 -63.5q-78 0 -147.5 21.5t-108.5 59.5q-39 39 -45 82t-6 82h41q4 -31 22.5 -60.5t48 -52t68.5 -37t86 -14.5q78 0 121 41t43 103q0 55 -30.5 96t-77.5 75t-101.5 65.5t-101.5 69.5t-78 87t-31 119q0 84 37 133t81 87t81 78.5t37 110.5z" />
<glyph unicode="&#xe0;" horiz-adv-x="985" d="M664 471h-62q-154 0 -241 -56.5t-87 -148.5q0 -49 16.5 -86t43 -61.5t61.5 -35.5t74 -11q76 0 120 37.5t75 85.5v276zM745 0l-71 92h-10q-31 -39 -100.5 -75.5t-186.5 -36.5q-43 0 -94.5 13t-96.5 46t-75.5 88t-30.5 139t43 139.5t114.5 88t166 46t198.5 13.5h62 q0 106 -16.5 175t-45.5 106.5t-68.5 52t-84.5 14.5q-86 0 -144.5 -37t-81.5 -137h-92q0 53 6 99t45 85q18 18 52 32.5t75 23t87 12.5t93 4q70 0 134.5 -15.5t114.5 -61.5t80 -131t30 -222v-553h-103zM254 1341h195l81 -266h-81z" />
<glyph unicode="&#xe1;" horiz-adv-x="985" d="M664 471h-62q-154 0 -241 -56.5t-87 -148.5q0 -49 16.5 -86t43 -61.5t61.5 -35.5t74 -11q76 0 120 37.5t75 85.5v276zM745 0l-71 92h-10q-31 -39 -100.5 -75.5t-186.5 -36.5q-43 0 -94.5 13t-96.5 46t-75.5 88t-30.5 139t43 139.5t114.5 88t166 46t198.5 13.5h62 q0 106 -16.5 175t-45.5 106.5t-68.5 52t-84.5 14.5q-86 0 -144.5 -37t-81.5 -137h-92q0 53 6 99t45 85q18 18 52 32.5t75 23t87 12.5t93 4q70 0 134.5 -15.5t114.5 -61.5t80 -131t30 -222v-553h-103zM488 1075h-82l82 266h194z" />
<glyph unicode="&#xe2;" horiz-adv-x="985" d="M664 471h-62q-154 0 -241 -56.5t-87 -148.5q0 -49 16.5 -86t43 -61.5t61.5 -35.5t74 -11q76 0 120 37.5t75 85.5v276zM745 0l-71 92h-10q-31 -39 -100.5 -75.5t-186.5 -36.5q-43 0 -94.5 13t-96.5 46t-75.5 88t-30.5 139t43 139.5t114.5 88t166 46t198.5 13.5h62 q0 106 -16.5 175t-45.5 106.5t-68.5 52t-84.5 14.5q-86 0 -144.5 -37t-81.5 -137h-92q0 53 6 99t45 85q18 18 52 32.5t75 23t87 12.5t93 4q70 0 134.5 -15.5t114.5 -61.5t80 -131t30 -222v-553h-103zM491 1249l-174 -164h-102l164 236h225l164 -236h-102z" />
<glyph unicode="&#xe3;" horiz-adv-x="985" d="M664 471h-62q-154 0 -241 -56.5t-87 -148.5q0 -49 16.5 -86t43 -61.5t61.5 -35.5t74 -11q76 0 120 37.5t75 85.5v276zM745 0l-71 92h-10q-31 -39 -100.5 -75.5t-186.5 -36.5q-43 0 -94.5 13t-96.5 46t-75.5 88t-30.5 139t43 139.5t114.5 88t166 46t198.5 13.5h62 q0 106 -16.5 175t-45.5 106.5t-68.5 52t-84.5 14.5q-86 0 -144.5 -37t-81.5 -137h-92q0 53 6 99t45 85q18 18 52 32.5t75 23t87 12.5t93 4q70 0 134.5 -15.5t114.5 -61.5t80 -131t30 -222v-553h-103zM252 1098q0 109 30.5 151.5t92.5 42.5q33 0 59.5 -13t51 -28.5t49 -28 t55.5 -12.5q23 0 42 30t19 52h62q0 -109 -31 -151.5t-92 -42.5q-33 0 -58.5 12t-50 27.5t-50 29t-56.5 13.5q-23 0 -42.5 -30t-19.5 -52h-61z" />
<glyph unicode="&#xe4;" horiz-adv-x="985" d="M664 471h-62q-154 0 -241 -56.5t-87 -148.5q0 -49 16.5 -86t43 -61.5t61.5 -35.5t74 -11q76 0 120 37.5t75 85.5v276zM745 0l-71 92h-10q-31 -39 -100.5 -75.5t-186.5 -36.5q-43 0 -94.5 13t-96.5 46t-75.5 88t-30.5 139t43 139.5t114.5 88t166 46t198.5 13.5h62 q0 106 -16.5 175t-45.5 106.5t-68.5 52t-84.5 14.5q-86 0 -144.5 -37t-81.5 -137h-92q0 53 6 99t45 85q18 18 52 32.5t75 23t87 12.5t93 4q70 0 134.5 -15.5t114.5 -61.5t80 -131t30 -222v-553h-103zM755 1188q0 -39 -26.5 -65.5t-65.5 -26.5t-65.5 26.5t-26.5 65.5 t26.5 65.5t65.5 26.5t65.5 -26.5t26.5 -65.5zM407 1188q0 -39 -26.5 -65.5t-65.5 -26.5t-65.5 26.5t-26.5 65.5t26.5 65.5t65.5 26.5t65.5 -26.5t26.5 -65.5z" />
<glyph unicode="&#xe5;" horiz-adv-x="985" d="M664 471h-62q-154 0 -241 -56.5t-87 -148.5q0 -49 16.5 -86t43 -61.5t61.5 -35.5t74 -11q76 0 120 37.5t75 85.5v276zM745 0l-71 92h-10q-31 -39 -100.5 -75.5t-186.5 -36.5q-43 0 -94.5 13t-96.5 46t-75.5 88t-30.5 139t43 139.5t114.5 88t166 46t198.5 13.5h62 q0 106 -16.5 175t-45.5 106.5t-68.5 52t-84.5 14.5q-86 0 -144.5 -37t-81.5 -137h-92q0 53 6 99t45 85q18 18 52 32.5t75 23t87 12.5t93 4q70 0 134.5 -15.5t114.5 -61.5t80 -131t30 -222v-553h-103zM305 1260q0 35 14.5 66.5t38 55t55 38t66.5 14.5t66.5 -14.5t55 -38 t38 -55.5t14.5 -66q0 -35 -14.5 -67t-38 -55.5t-55 -38t-66.5 -14.5t-66.5 14.5t-55 38t-38 55.5t-14.5 67zM571 1260q0 47 -26.5 74.5t-65.5 27.5t-65.5 -27.5t-26.5 -74.5t26.5 -75t65.5 -28t65.5 28t26.5 75z" />
<glyph unicode="&#xe6;" horiz-adv-x="1554" d="M1458 451h-610q0 -84 18.5 -156t54 -124t87 -81t116.5 -29q100 0 167 43t120 121l41 -30q-70 -117 -161 -166t-208 -49q-121 0 -208 44t-140 130q-23 -43 -52.5 -75t-68.5 -54.5t-89 -33.5t-117 -11q-53 0 -111.5 13t-107 45t-79 85t-30.5 133t43 133t114.5 85t166 45 t198.5 13h62q0 115 -16.5 188t-45.5 112.5t-68.5 54t-84.5 14.5q-86 0 -144.5 -37t-81.5 -137h-92q0 53 6 99t45 85q18 18 52 32.5t75 23t87 12.5t93 4q109 0 182.5 -53t104.5 -131q31 78 103.5 131t173.5 53q209 0 309 -116.5t100 -334.5zM1278 532q0 170 -53.5 264.5 t-161.5 94.5q-47 0 -86 -27.5t-67.5 -75t-45 -114t-16.5 -142.5h430zM664 451h-62q-154 0 -241 -54.5t-87 -140.5q0 -92 58.5 -138t136.5 -46q76 0 120 37.5t75 85.5v256z" />
<glyph unicode="&#xe7;" horiz-adv-x="989" d="M543 983q109 0 183.5 -16.5t113.5 -55.5q18 -18 29.5 -40.5t15.5 -53.5t5 -73t1 -99h-41q-8 131 -83 193.5t-183 62.5q-78 0 -133.5 -32.5t-92 -89t-54 -133.5t-17.5 -165t17.5 -164.5t54 -133t92 -89.5t133.5 -33q109 0 176 43t121 121l41 -30q-66 -111 -154 -160 q-84 -45 -193 -53v-84h21q70 0 117 -38t47 -112q0 -72 -47 -110.5t-117 -38.5h-123v84h102q82 0 82 65q0 68 -82 68h-92v164q-102 12 -174.5 55t-121 110.5t-72 153.5t-23.5 182q0 104 27.5 195.5t83 159t140.5 107.5t200 40z" />
<glyph unicode="&#xe8;" horiz-adv-x="999" d="M907 451h-620q0 -84 18.5 -156t54 -124t87 -81t116.5 -29q100 0 167 43t120 121l41 -30q-70 -117 -161 -166t-208 -49q-109 0 -188.5 39.5t-134 107.5t-81 159t-26.5 195t27.5 195.5t81 159t129.5 107.5t172 40q209 0 309 -116.5t100 -334.5zM717 532q0 178 -53.5 273.5 t-161.5 95.5q-47 0 -86 -27.5t-68 -76.5t-45 -117t-16 -148h430zM276 1341h195l81 -266h-81z" />
<glyph unicode="&#xe9;" horiz-adv-x="999" d="M907 451h-620q0 -84 18.5 -156t54 -124t87 -81t116.5 -29q100 0 167 43t120 121l41 -30q-70 -117 -161 -166t-208 -49q-109 0 -188.5 39.5t-134 107.5t-81 159t-26.5 195t27.5 195.5t81 159t129.5 107.5t172 40q209 0 309 -116.5t100 -334.5zM717 532q0 178 -53.5 273.5 t-161.5 95.5q-47 0 -86 -27.5t-68 -76.5t-45 -117t-16 -148h430zM522 1075h-82l82 266h194z" />
<glyph unicode="&#xea;" horiz-adv-x="999" d="M907 451h-620q0 -84 18.5 -156t54 -124t87 -81t116.5 -29q100 0 167 43t120 121l41 -30q-70 -117 -161 -166t-208 -49q-109 0 -188.5 39.5t-134 107.5t-81 159t-26.5 195t27.5 195.5t81 159t129.5 107.5t172 40q209 0 309 -116.5t100 -334.5zM717 532q0 178 -53.5 273.5 t-161.5 95.5q-47 0 -86 -27.5t-68 -76.5t-45 -117t-16 -148h430zM512 1249l-174 -164h-102l164 236h225l164 -236h-102z" />
<glyph unicode="&#xeb;" horiz-adv-x="999" d="M907 451h-620q0 -84 18.5 -156t54 -124t87 -81t116.5 -29q100 0 167 43t120 121l41 -30q-70 -117 -161 -166t-208 -49q-109 0 -188.5 39.5t-134 107.5t-81 159t-26.5 195t27.5 195.5t81 159t129.5 107.5t172 40q209 0 309 -116.5t100 -334.5zM717 532q0 178 -53.5 273.5 t-161.5 95.5q-47 0 -86 -27.5t-68 -76.5t-45 -117t-16 -148h430zM757 1208q0 -39 -26.5 -65.5t-65.5 -26.5t-65.5 26.5t-26.5 65.5t26.5 65.5t65.5 26.5t65.5 -26.5t26.5 -65.5zM409 1208q0 -39 -26.5 -65.5t-65.5 -26.5t-65.5 26.5t-26.5 65.5t26.5 65.5t65.5 26.5 t65.5 -26.5t26.5 -65.5z" />
<glyph unicode="&#xec;" horiz-adv-x="503" d="M362 0h-184v717q0 92 -25.5 148.5t-117.5 56.5h-41v41h184q53 0 89 -9.5t57.5 -37t29.5 -75.5t8 -124v-717zM45 1341h195l81 -266h-81z" />
<glyph unicode="&#xed;" horiz-adv-x="503" d="M362 0h-184v717q0 92 -25.5 148.5t-117.5 56.5h-41v41h184q53 0 89 -9.5t57.5 -37t29.5 -75.5t8 -124v-717zM272 1075h-82l82 266h194z" />
<glyph unicode="&#xee;" horiz-adv-x="503" d="M362 0h-184v717q0 92 -25.5 148.5t-117.5 56.5h-41v41h184q53 0 89 -9.5t57.5 -37t29.5 -75.5t8 -124v-717zM270 1249l-174 -164h-102l164 236h225l164 -236h-102z" />
<glyph unicode="&#xef;" horiz-adv-x="503" d="M362 0h-184v717q0 92 -25.5 148.5t-117.5 56.5h-41v41h184q53 0 89 -9.5t57.5 -37t29.5 -75.5t8 -124v-717zM201 1198q0 -43 -25.5 -67.5t-69.5 -24.5q-47 0 -80.5 39t-33.5 92q0 43 25.5 67.5t68.5 24.5q47 0 81 -39t34 -92zM516 1198q0 -43 -25.5 -67.5t-68.5 -24.5 q-47 0 -81 39t-34 92q0 43 25.5 67.5t68.5 24.5q47 0 81 -39t34 -92z" />
<glyph unicode="&#xf0;" horiz-adv-x="1099" d="M520 1126l82 82q-47 47 -97 69.5t-128 22.5q-25 0 -51.5 -4t-38.5 -8l-17 39q41 29 88.5 37t100.5 8q61 0 121.5 -21.5t113.5 -60.5l72 82l61 -61l-71 -72q109 -109 172 -282t63 -404q0 -131 -29.5 -236.5t-88 -180.5t-142.5 -115.5t-190 -40.5q-109 0 -192 39.5 t-141 107.5t-88 159t-30 195t30 195.5t88 159t141 107.5t192 40q86 0 156.5 -43t109.5 -121q-23 109 -56.5 187.5t-86.5 140.5l-82 -82zM797 481q0 88 -18.5 165t-52.5 133.5t-81 89t-104 32.5t-104.5 -32.5t-81 -89t-52 -133.5t-18.5 -165t18.5 -164.5t52 -133t80.5 -89.5 t105 -33q57 0 104 33t81 89.5t52.5 133t18.5 164.5z" />
<glyph unicode="&#xf1;" horiz-adv-x="1114" d="M178 717q0 92 -25.5 148.5t-117.5 56.5h-41v41h184q78 0 118 -21.5t56 -60.5h10q39 39 107 70.5t160 31.5q66 0 128 -15.5t111.5 -57.5t79 -113.5t29.5 -182.5v-614h-184v614q0 76 -19.5 129.5t-51.5 86t-72 47t-83 14.5q-61 0 -113.5 -33t-91.5 -76v-782h-184v717z M346 1117q0 109 30.5 151.5t92.5 42.5q33 0 59.5 -13t51 -28.5t49 -28t55.5 -12.5q23 0 42 30t19 52h62q0 -109 -31 -151.5t-92 -42.5q-33 0 -58.5 12t-50 27.5t-50 29t-56.5 13.5q-23 0 -42.5 -30t-19.5 -52h-61z" />
<glyph unicode="&#xf2;" d="M799 481q0 88 -18.5 165t-52.5 133.5t-81 89t-104 32.5t-104.5 -32.5t-81 -89t-52 -133.5t-18.5 -165t18.5 -164.5t52 -133t80.5 -89.5t105 -33q57 0 104 33t81 89.5t52.5 133t18.5 164.5zM92 481q0 104 30 195.5t88 159t141 107.5t192 40q106 0 190 -40t142.5 -107.5 t88 -158.5t29.5 -196q0 -104 -29.5 -195t-88 -159t-142.5 -107.5t-190 -39.5q-109 0 -192 39.5t-141 107.5t-88 159t-30 195zM328 1341h195l81 -266h-81z" />
<glyph unicode="&#xf3;" d="M799 481q0 88 -18.5 165t-52.5 133.5t-81 89t-104 32.5t-104.5 -32.5t-81 -89t-52 -133.5t-18.5 -165t18.5 -164.5t52 -133t80.5 -89.5t105 -33q57 0 104 33t81 89.5t52.5 133t18.5 164.5zM92 481q0 104 30 195.5t88 159t141 107.5t192 40q106 0 190 -40t142.5 -107.5 t88 -158.5t29.5 -196q0 -104 -29.5 -195t-88 -159t-142.5 -107.5t-190 -39.5q-109 0 -192 39.5t-141 107.5t-88 159t-30 195zM553 1075h-82l82 266h194z" />
<glyph unicode="&#xf4;" d="M799 481q0 88 -18.5 165t-52.5 133.5t-81 89t-104 32.5t-104.5 -32.5t-81 -89t-52 -133.5t-18.5 -165t18.5 -164.5t52 -133t80.5 -89.5t105 -33q57 0 104 33t81 89.5t52.5 133t18.5 164.5zM92 481q0 104 30 195.5t88 159t141 107.5t192 40q106 0 190 -40t142.5 -107.5 t88 -158.5t29.5 -196q0 -104 -29.5 -195t-88 -159t-142.5 -107.5t-190 -39.5q-109 0 -192 39.5t-141 107.5t-88 159t-30 195zM542 1249l-174 -164h-102l164 236h225l164 -236h-102z" />
<glyph unicode="&#xf5;" d="M799 481q0 88 -18.5 165t-52.5 133.5t-81 89t-104 32.5t-104.5 -32.5t-81 -89t-52 -133.5t-18.5 -165t18.5 -164.5t52 -133t80.5 -89.5t105 -33q57 0 104 33t81 89.5t52.5 133t18.5 164.5zM92 481q0 104 30 195.5t88 159t141 107.5t192 40q106 0 190 -40t142.5 -107.5 t88 -158.5t29.5 -196q0 -104 -29.5 -195t-88 -159t-142.5 -107.5t-190 -39.5q-109 0 -192 39.5t-141 107.5t-88 159t-30 195zM313 1098q0 109 30.5 151.5t92.5 42.5q33 0 59.5 -13t51 -28.5t49 -28t55.5 -12.5q23 0 42 30t19 52h62q0 -109 -31 -151.5t-92 -42.5 q-33 0 -58.5 12t-50 27.5t-50 29t-56.5 13.5q-23 0 -42.5 -30t-19.5 -52h-61z" />
<glyph unicode="&#xf6;" d="M799 481q0 88 -18.5 165t-52.5 133.5t-81 89t-104 32.5t-104.5 -32.5t-81 -89t-52 -133.5t-18.5 -165t18.5 -164.5t52 -133t80.5 -89.5t105 -33q57 0 104 33t81 89.5t52.5 133t18.5 164.5zM92 481q0 104 30 195.5t88 159t141 107.5t192 40q106 0 190 -40t142.5 -107.5 t88 -158.5t29.5 -196q0 -104 -29.5 -195t-88 -159t-142.5 -107.5t-190 -39.5q-109 0 -192 39.5t-141 107.5t-88 159t-30 195zM808 1188q0 -39 -26.5 -65.5t-65.5 -26.5t-65.5 26.5t-26.5 65.5t26.5 65.5t65.5 26.5t65.5 -26.5t26.5 -65.5zM460 1188q0 -39 -26.5 -65.5 t-65.5 -26.5t-65.5 26.5t-26.5 65.5t26.5 65.5t65.5 26.5t65.5 -26.5t26.5 -65.5z" />
<glyph unicode="&#xf7;" horiz-adv-x="1155" d="M127 614v123h901v-123h-901zM670 389q0 -39 -27 -65.5t-65 -26.5q-39 0 -66 26.5t-27 65.5t27 65.5t66 26.5t65.5 -26.5t26.5 -65.5zM670 963q0 -39 -27 -66t-65 -27q-39 0 -66 27t-27 66t27 65.5t66 26.5t65.5 -26.5t26.5 -65.5z" />
<glyph unicode="&#xf8;" d="M133 0l82 119q-59 70 -91 162t-32 200q0 104 30 195.5t88 159t141 107.5t192 40q68 0 126 -16.5t105 -44.5l29 41h149l-84 -121q59 -68 92 -161t33 -200q0 -104 -29.5 -195t-88 -159t-142.5 -107.5t-190 -39.5q-68 0 -126.5 16t-107.5 45l-26 -41h-150zM799 481 q0 59 -8.5 112.5t-24.5 100.5l-383 -549q66 -84 160 -84q57 0 104 33t81 89.5t52.5 133t18.5 164.5zM287 481q0 -59 8 -112.5t24 -100.5l383 549q-68 84 -159 84q-57 0 -104.5 -32.5t-81 -89t-52 -133.5t-18.5 -165z" />
<glyph unicode="&#xf9;" horiz-adv-x="1095" d="M948 0h-102l-72 82h-10q-39 -39 -106.5 -70.5t-159.5 -31.5q-66 0 -128.5 15t-111.5 57t-78.5 114t-29.5 182v369q0 92 -26 148.5t-118 56.5h-20v41h164q53 0 88.5 -9.5t57 -37t30 -75.5t8.5 -124v-369q0 -78 19.5 -130t51 -85t71.5 -47t83 -14q61 0 113.5 32.5 t91.5 75.5v783h184v-963zM326 1292h195l81 -266h-81z" />
<glyph unicode="&#xfa;" horiz-adv-x="1095" d="M948 0h-102l-72 82h-10q-39 -39 -106.5 -70.5t-159.5 -31.5q-66 0 -128.5 15t-111.5 57t-78.5 114t-29.5 182v369q0 92 -26 148.5t-118 56.5h-20v41h164q53 0 88.5 -9.5t57 -37t30 -75.5t8.5 -124v-369q0 -78 19.5 -130t51 -85t71.5 -47t83 -14q61 0 113.5 32.5 t91.5 75.5v783h184v-963zM574 1026h-82l82 266h194z" />
<glyph unicode="&#xfb;" horiz-adv-x="1095" d="M948 0h-102l-72 82h-10q-39 -39 -106.5 -70.5t-159.5 -31.5q-66 0 -128.5 15t-111.5 57t-78.5 114t-29.5 182v369q0 92 -26 148.5t-118 56.5h-20v41h164q53 0 88.5 -9.5t57 -37t30 -75.5t8.5 -124v-369q0 -78 19.5 -130t51 -85t71.5 -47t83 -14q61 0 113.5 32.5 t91.5 75.5v783h184v-963zM528 1249l-174 -164h-102l164 236h225l164 -236h-102z" />
<glyph unicode="&#xfc;" horiz-adv-x="1095" d="M948 0h-102l-72 82h-10q-39 -39 -106.5 -70.5t-159.5 -31.5q-66 0 -128.5 15t-111.5 57t-78.5 114t-29.5 182v369q0 92 -26 148.5t-118 56.5h-20v41h164q53 0 88.5 -9.5t57 -37t30 -75.5t8.5 -124v-369q0 -78 19.5 -130t51 -85t71.5 -47t83 -14q61 0 113.5 32.5 t91.5 75.5v783h184v-963zM794 1159q0 -39 -26.5 -65.5t-65.5 -26.5t-65.5 26.5t-26.5 65.5t26.5 65.5t65.5 26.5t65.5 -26.5t26.5 -65.5zM446 1159q0 -39 -26.5 -65.5t-65.5 -26.5t-65.5 26.5t-26.5 65.5t26.5 65.5t65.5 26.5t65.5 -26.5t26.5 -65.5z" />
<glyph unicode="&#xfd;" horiz-adv-x="1052" d="M532 -20l-327 798q-31 78 -89.5 117t-135.5 47v41h174q92 0 152.5 -43t92.5 -121l234 -567l258 711h102l-399 -1096q-31 -84 -64.5 -138.5t-71.5 -85t-83 -42t-99 -11.5h-61v62q45 0 86 9t75 32.5t62.5 65.5t53.5 108zM612 1026h-82l82 266h194z" />
<glyph unicode="&#xfe;" horiz-adv-x="1071" d="M332 123q47 -23 97 -42.5t97 -19.5q70 0 118 33t79 89.5t45 133t14 164.5t-13 165t-43 133.5t-74 89t-105 32.5q-43 0 -76 -10t-58.5 -27.5t-46 -40t-34.5 -45.5v-655zM332 870q31 39 96.5 76t179.5 37q92 0 161 -40t115 -107.5t69.5 -158.5t23.5 -196q0 -104 -23.5 -195 t-71.5 -159t-121 -107.5t-173 -39.5q-86 0 -147.5 19t-108.5 42v-430h-185v1495q0 92 -25.5 148.5t-117.5 56.5h-31v41h174q53 0 89 -9.5t57.5 -37t30 -75.5t8.5 -124v-123v-113z" />
<glyph unicode="&#xff;" horiz-adv-x="1052" d="M532 -20l-327 798q-31 78 -89.5 117t-135.5 47v41h174q92 0 152.5 -43t92.5 -121l234 -567l258 711h102l-399 -1096q-31 -84 -64.5 -138.5t-71.5 -85t-83 -42t-99 -11.5h-61v62q45 0 86 9t75 32.5t62.5 65.5t53.5 108zM860 1159q0 -39 -26.5 -65.5t-65.5 -26.5 t-65.5 26.5t-26.5 65.5t26.5 65.5t65.5 26.5t65.5 -26.5t26.5 -65.5zM512 1159q0 -39 -26.5 -65.5t-65.5 -26.5t-65.5 26.5t-26.5 65.5t26.5 65.5t65.5 26.5t65.5 -26.5t26.5 -65.5z" />
<glyph unicode="&#x131;" horiz-adv-x="503" d="M362 0h-184v717q0 92 -25.5 148.5t-117.5 56.5h-41v41h184q53 0 89 -9.5t57.5 -37t29.5 -75.5t8 -124v-717z" />
<glyph unicode="&#x152;" horiz-adv-x="1935" d="M94 676q0 150 44 280.5t127 228t201 153t263 55.5q61 0 116.5 -9.5t108.5 -31.5h678q53 0 87 -14.5t53.5 -37t26.5 -52t7 -60.5v-154h-41q0 123 -66.5 179.5t-189.5 56.5h-381v-533h553v-82h-553v-573h359q139 0 220 51t128 174l41 -10l-72 -195q-16 -47 -54 -74.5 t-99 -27.5h-697q-53 -23 -108 -32t-117 -9q-145 0 -263 55.5t-201 152.5t-127 227t-44 282zM729 41q125 0 215 65v1143q-92 61 -215 62q-100 0 -180 -44t-135.5 -127t-85 -201t-29.5 -263t29.5 -263t85 -201t135.5 -127t180 -44z" />
<glyph unicode="&#x153;" horiz-adv-x="1628" d="M1532 451h-610q0 -84 18 -156t54 -124t87.5 -81t116.5 -29q100 0 167 43t120 121l41 -30q-70 -117 -161 -166t-208 -49q-100 0 -177 34.5t-130 87.5q-53 -53 -130 -87.5t-177 -34.5q-109 0 -192 39.5t-141 107.5t-88 159t-30 195t30 195.5t88 159t141 107.5t192 40 q199 0 309 -121q49 57 117.5 89t156.5 32q209 0 309.5 -116.5t100.5 -334.5zM543 61q78 0 132 51.5t93 143.5q-16 39 -28.5 97.5t-12.5 127.5q0 70 12.5 128.5t28.5 97.5q-31 86 -89 140t-136 54q-57 0 -104.5 -32.5t-81 -89t-52 -133.5t-18.5 -165t18.5 -164.5t52 -133 t81 -89.5t104.5 -33zM1352 532q0 170 -53.5 264.5t-161.5 94.5q-47 0 -86 -27.5t-68 -75t-45 -114t-16 -142.5h430z" />
<glyph unicode="&#x178;" horiz-adv-x="1286" d="M737 666l428 686h92l-479 -779v-573h-184v559l-348 526q-31 45 -60.5 85t-64.5 70t-77 48.5t-95 22.5v41h184q57 0 102.5 -19.5t82 -51.5t66.5 -72t56 -83zM993 1516q0 -47 -27.5 -75t-74.5 -28t-75 27.5t-28 75.5q0 47 27.5 74.5t75.5 27.5q47 0 74.5 -27.5t27.5 -74.5z M645 1516q0 -47 -28 -75t-75 -28t-74.5 27.5t-27.5 75.5q0 47 27.5 74.5t74.5 27.5t75 -27.5t28 -74.5z" />
<glyph unicode="&#x2c6;" horiz-adv-x="634" d="M317 1516l-174 -164h-102l164 235h225l164 -235h-102z" />
<glyph unicode="&#x2da;" horiz-adv-x="348" d="M0 1260q0 35 14.5 66.5t38 55t55 38t66.5 14.5t66.5 -14.5t55 -38t38 -55.5t14.5 -66q0 -35 -14.5 -67t-38 -55.5t-55 -38t-66.5 -14.5t-66.5 14.5t-55 38t-38 55.5t-14.5 67zM266 1260q0 47 -26.5 74.5t-65.5 27.5t-65.5 -27.5t-26.5 -74.5t26.5 -75t65.5 -28t65.5 28 t26.5 75z" />
<glyph unicode="&#x2dc;" horiz-adv-x="542" d="M41 1393q0 109 30.5 151.5t92.5 42.5q33 0 59.5 -13t51 -28.5t49 -28t55.5 -12.5q23 0 42 30t19 52h62q0 -109 -31 -151.5t-92 -42.5q-33 0 -58.5 12t-50 27.5t-50 29t-56.5 13.5q-23 0 -42.5 -30t-19.5 -52h-61z" />
<glyph unicode="&#x2000;" horiz-adv-x="874" />
<glyph unicode="&#x2001;" horiz-adv-x="1749" />
<glyph unicode="&#x2002;" horiz-adv-x="874" />
<glyph unicode="&#x2003;" horiz-adv-x="1749" />
<glyph unicode="&#x2004;" horiz-adv-x="583" />
<glyph unicode="&#x2005;" horiz-adv-x="437" />
<glyph unicode="&#x2006;" horiz-adv-x="291" />
<glyph unicode="&#x2007;" horiz-adv-x="291" />
<glyph unicode="&#x2008;" horiz-adv-x="218" />
<glyph unicode="&#x2009;" horiz-adv-x="349" />
<glyph unicode="&#x200a;" horiz-adv-x="97" />
<glyph unicode="&#x2010;" horiz-adv-x="792" d="M135 614h522v-143h-522v143z" />
<glyph unicode="&#x2011;" horiz-adv-x="792" d="M135 614h522v-143h-522v143z" />
<glyph unicode="&#x2012;" horiz-adv-x="792" d="M135 614h522v-143h-522v143z" />
<glyph unicode="&#x2013;" horiz-adv-x="1249" d="M1106 471h-963v123h963v-123z" />
<glyph unicode="&#x2014;" horiz-adv-x="1785" d="M1651 471h-1516v123h1516v-123z" />
<glyph unicode="&#x2018;" horiz-adv-x="462" d="M350 1362q-78 -53 -121 -118.5t-43 -158.5l62 21q47 0 79.5 -33t32.5 -80q0 -53 -34.5 -88t-87.5 -35q-61 0 -97.5 37t-36.5 107q0 131 58.5 224t167.5 155z" />
<glyph unicode="&#x2019;" horiz-adv-x="466" d="M127 901q78 53 121 118.5t43 158.5l-62 -21q-47 0 -79.5 33t-32.5 80q0 53 34.5 88t88.5 35q61 0 97 -37t36 -107q0 -131 -58.5 -224t-167.5 -155z" />
<glyph unicode="&#x201a;" horiz-adv-x="485" d="M125 -287q78 53 121 119t43 158l-62 -21q-47 0 -79.5 33t-32.5 80q0 53 34.5 88t88.5 35q61 0 97 -37t36 -107q0 -131 -58.5 -224t-167.5 -154z" />
<glyph unicode="&#x201c;" horiz-adv-x="831" d="M719 1362q-78 -53 -121 -118.5t-43 -158.5l61 21q47 0 80 -33t33 -80q0 -53 -35 -88t-88 -35q-61 0 -97 37t-36 107q0 131 58.5 224t166.5 155zM350 1362q-78 -53 -121 -118.5t-43 -158.5l62 21q47 0 79.5 -33t32.5 -80q0 -53 -34.5 -88t-87.5 -35q-61 0 -97.5 37 t-36.5 107q0 131 58.5 224t167.5 155z" />
<glyph unicode="&#x201d;" horiz-adv-x="835" d="M127 901q78 53 121 118.5t43 158.5l-62 -21q-47 0 -79.5 33t-32.5 80q0 53 34.5 88t88.5 35q61 0 97 -37t36 -107q0 -131 -58.5 -224t-167.5 -155zM496 901q78 53 120.5 118.5t42.5 158.5l-61 -21q-47 0 -80 33t-33 80q0 53 35 88t88 35q61 0 97 -37t36 -107 q0 -131 -58 -224t-167 -155z" />
<glyph unicode="&#x201e;" horiz-adv-x="854" d="M125 -287q78 53 121 119t43 158l-62 -21q-47 0 -79.5 33t-32.5 80q0 53 34.5 88t88.5 35q61 0 97 -37t36 -107q0 -131 -58.5 -224t-167.5 -154zM494 -287q78 53 120.5 119t42.5 158l-61 -21q-47 0 -80 33t-33 80q0 53 35 88t88 35q61 0 97 -37t36 -107q0 -131 -58 -224 t-167 -154z" />
<glyph unicode="&#x2022;" horiz-adv-x="696" d="M348 922q109 0 177.5 -69t68.5 -177q0 -109 -68.5 -177.5t-177.5 -68.5t-177.5 68.5t-68.5 177.5t68.5 177.5t177.5 68.5z" />
<glyph unicode="&#x2026;" horiz-adv-x="1310" d="M225 195q47 0 79 -33t32 -78q0 -47 -33 -80t-78 -33t-77.5 33t-32.5 80q0 45 32.5 78t77.5 33zM655 195q47 0 79 -33t32 -78q0 -47 -33 -80t-78 -33t-77.5 33t-32.5 80q0 45 32.5 78t77.5 33zM1085 195q47 0 79 -33t32 -78q0 -47 -33 -80t-78 -33t-77.5 33t-32.5 80 q0 45 32.5 78t77.5 33z" />
<glyph unicode="&#x202f;" horiz-adv-x="349" />
<glyph unicode="&#x2039;" horiz-adv-x="618" d="M70 461l358 399h82l-225 -399l225 -400h-82z" />
<glyph unicode="&#x203a;" horiz-adv-x="618" d="M190 61h-81l225 400l-225 399h81l359 -399z" />
<glyph unicode="&#x205f;" horiz-adv-x="437" />
<glyph unicode="&#x20ac;" horiz-adv-x="1490" d="M774 522h-360q14 -96 49 -184t94 -153.5t143 -104.5t197 -39q154 0 264.5 73.5t196.5 213.5l41 -31q-49 -96 -109.5 -160.5t-130 -104.5t-150.5 -56.5t-173 -16.5q-129 0 -235.5 42t-187.5 118t-132.5 179t-69.5 224h-154l21 82h123v123h-113l21 82h106q23 125 80 231.5 t139 185.5t184.5 123t217.5 44q170 0 292.5 -48.5t178.5 -115.5q39 -47 45 -131t6 -176h-41q-39 201 -144.5 295t-275.5 94q-90 0 -170 -25.5t-144.5 -85t-108.5 -156t-60 -235.5h411l-20 -82h-399v-123h389z" />
<glyph unicode="&#x2122;" horiz-adv-x="1812" d="M299 1290q-70 0 -115 -39t-45 -114h-30v92q0 47 22.5 85t91.5 38h559v-62h-268v-661h-137v661h-78zM1204 629h-30l-261 577v-577h-61v723h145l230 -508l229 508h137v-492q0 -43 8.5 -85t24.5 -74.5t39 -52t51 -19.5v-31q-74 0 -124 18.5t-80.5 52t-43 82t-12.5 109.5v332 z" />
<glyph unicode="&#x25fc;" horiz-adv-x="962" d="M0 963h963v-963h-963v963z" />
<glyph horiz-adv-x="532" d="M532 1188q0 -39 -26.5 -65.5t-65.5 -26.5t-65.5 26.5t-26.5 65.5t26.5 65.5t65.5 26.5t65.5 -26.5t26.5 -65.5zM184 1188q0 -39 -26.5 -65.5t-65.5 -26.5t-65.5 26.5t-26.5 65.5t26.5 65.5t65.5 26.5t65.5 -26.5t26.5 -65.5z" />
<glyph horiz-adv-x="276" d="M82 1075h-82l82 266h194z" />
<glyph horiz-adv-x="276" d="M0 1341h195l81 -266h-81z" />
<glyph horiz-adv-x="552" d="M276 1249l-174 -164h-102l164 236h225l164 -236h-102z" />
</font>
</defs>
</svg>
